<?xml version="1.0" encoding="UTF-8"?>
<svg xmlns="http://www.w3.org/2000/svg" xmlns:xlink="http://www.w3.org/1999/xlink" width="1024pt" height="576pt" viewBox="0 0 1024 576" version="1.1">
<g id="surface1">
<rect x="0" y="0" width="1024" height="576" style="fill:rgb(36.470588%,43.921569%,49.803922%);fill-opacity:1;stroke:none;"/>
<path style=" stroke:none;fill-rule:nonzero;fill:rgb(100%,100%,100%);fill-opacity:1;" d="M 489.828125 298.136719 L 482.195312 298.136719 L 480.757812 302.398438 L 476.230469 302.398438 L 483.628906 281.671875 L 488.523438 281.671875 L 495.863281 302.398438 L 491.164062 302.398438 Z M 488.621094 294.566406 L 486.03125 286.410156 L 483.359375 294.566406 Z M 511.152344 289.011719 C 512.445312 290.632812 513.09375 292.550781 513.09375 294.761719 C 513.09375 297.011719 512.445312 298.9375 511.152344 300.535156 C 509.859375 302.132812 507.894531 302.933594 505.261719 302.933594 C 502.625 302.933594 500.664062 302.132812 499.367188 300.535156 C 498.074219 298.9375 497.429688 297.011719 497.429688 294.761719 C 497.429688 292.550781 498.074219 290.632812 499.367188 289.011719 C 500.660156 287.390625 502.625 286.578125 505.261719 286.578125 C 507.894531 286.578125 509.859375 287.390625 511.152344 289.011719 Z M 505.246094 289.96875 C 504.074219 289.96875 503.171875 290.382812 502.539062 291.210938 C 501.90625 292.042969 501.589844 293.226562 501.589844 294.761719 C 501.589844 296.300781 501.90625 297.484375 502.539062 298.320312 C 503.171875 299.15625 504.074219 299.570312 505.246094 299.570312 C 506.417969 299.570312 507.320312 299.15625 507.945312 298.320312 C 508.574219 297.484375 508.890625 296.300781 508.890625 294.761719 C 508.890625 293.226562 508.574219 292.042969 507.945312 291.210938 C 507.316406 290.382812 506.417969 289.96875 505.246094 289.96875 Z M 523.554688 281.542969 L 523.554688 284.804688 C 523.332031 284.777344 522.953125 284.757812 522.425781 284.742188 C 521.894531 284.730469 521.527344 284.847656 521.328125 285.09375 C 521.125 285.34375 521.023438 285.617188 521.023438 285.917969 L 521.023438 287.210938 L 523.65625 287.210938 L 523.65625 290.039062 L 521.023438 290.039062 L 521.023438 302.398438 L 517.03125 302.398438 L 517.03125 290.039062 L 514.796875 290.039062 L 514.796875 287.210938 L 516.988281 287.210938 L 516.988281 286.226562 C 516.988281 284.585938 517.265625 283.457031 517.820312 282.835938 C 518.402344 281.917969 519.800781 281.460938 522.023438 281.460938 C 522.277344 281.460938 522.507812 281.464844 522.710938 281.480469 C 522.917969 281.496094 523.199219 281.515625 523.554688 281.542969 Z M 530.660156 302.398438 L 526.625 302.398438 L 526.625 281.671875 L 532.921875 281.671875 L 536.691406 297.96875 L 540.433594 281.671875 L 546.664062 281.671875 L 546.664062 302.398438 L 542.625 302.398438 L 542.625 288.378906 C 542.625 287.976562 542.632812 287.410156 542.640625 286.683594 C 542.648438 285.957031 542.65625 285.398438 542.65625 285.003906 L 538.730469 302.398438 L 534.527344 302.398438 L 530.632812 285.003906 C 530.632812 285.398438 530.636719 285.957031 530.644531 286.683594 C 530.65625 287.410156 530.660156 287.976562 530.660156 288.378906 Z M 475.5 280.222656 "/>
</g>
</svg>
