<?xml version="1.0" encoding="UTF-8"?>
<svg xmlns="http://www.w3.org/2000/svg" xmlns:xlink="http://www.w3.org/1999/xlink" width="1024pt" height="576pt" viewBox="0 0 1024 576" version="1.1">
<g id="surface16">
<rect x="0" y="0" width="1024" height="576" style="fill:rgb(79.607843%,56.470588%,30.196078%);fill-opacity:1;stroke:none;"/>
<path style=" stroke:none;fill-rule:nonzero;fill:rgb(100%,100%,100%);fill-opacity:1;" d="M 487.820312 300.851562 C 486.273438 302.265625 484.292969 302.976562 481.882812 302.976562 C 478.902344 302.976562 476.558594 302.019531 474.851562 300.105469 C 473.144531 298.183594 472.292969 295.550781 472.292969 292.203125 C 472.292969 288.585938 473.265625 285.796875 475.203125 283.835938 C 476.890625 282.128906 479.039062 281.277344 481.644531 281.277344 C 485.132812 281.277344 487.683594 282.421875 489.296875 284.707031 C 490.1875 285.992188 490.664062 287.28125 490.730469 288.574219 L 486.398438 288.574219 C 486.117188 287.582031 485.757812 286.832031 485.316406 286.324219 C 484.527344 285.425781 483.359375 284.976562 481.8125 284.976562 C 480.238281 284.976562 478.996094 285.609375 478.085938 286.878906 C 477.175781 288.148438 476.722656 289.949219 476.722656 292.273438 C 476.722656 294.597656 477.203125 296.339844 478.164062 297.496094 C 479.125 298.65625 480.347656 299.234375 481.828125 299.234375 C 483.347656 299.234375 484.503906 298.738281 485.300781 297.742188 C 485.742188 297.207031 486.109375 296.40625 486.398438 295.339844 L 490.6875 295.339844 C 490.3125 297.597656 489.355469 299.4375 487.820312 300.851562 Z M 508.820312 300.851562 C 507.273438 302.265625 505.292969 302.976562 502.882812 302.976562 C 499.902344 302.976562 497.558594 302.019531 495.851562 300.105469 C 494.144531 298.183594 493.292969 295.550781 493.292969 292.203125 C 493.292969 288.585938 494.265625 285.796875 496.203125 283.835938 C 497.890625 282.128906 500.039062 281.277344 502.644531 281.277344 C 506.132812 281.277344 508.683594 282.421875 510.296875 284.707031 C 511.1875 285.992188 511.664062 287.28125 511.730469 288.574219 L 507.398438 288.574219 C 507.117188 287.582031 506.757812 286.832031 506.316406 286.324219 C 505.527344 285.425781 504.359375 284.976562 502.8125 284.976562 C 501.238281 284.976562 499.996094 285.609375 499.085938 286.878906 C 498.175781 288.148438 497.722656 289.949219 497.722656 292.273438 C 497.722656 294.597656 498.203125 296.339844 499.164062 297.496094 C 500.125 298.65625 501.347656 299.234375 502.828125 299.234375 C 504.347656 299.234375 505.503906 298.738281 506.300781 297.742188 C 506.742188 297.207031 507.109375 296.40625 507.398438 295.339844 L 511.6875 295.339844 C 511.3125 297.597656 510.355469 299.4375 508.820312 300.851562 Z M 529.621094 293.34375 L 519.554688 293.34375 L 519.554688 298.671875 L 531.027344 298.671875 L 531.027344 302.398438 L 515.320312 302.398438 L 515.320312 281.671875 L 530.523438 281.671875 L 530.523438 285.339844 L 519.554688 285.339844 L 519.554688 289.742188 L 529.621094 289.742188 Z M 543.125 302.398438 L 534.195312 302.398438 L 534.195312 281.671875 L 543.125 281.671875 C 544.410156 281.691406 545.476562 281.839844 546.328125 282.121094 C 547.78125 282.597656 548.960938 283.476562 549.859375 284.75 C 550.582031 285.78125 551.074219 286.898438 551.335938 288.097656 C 551.597656 289.296875 551.730469 290.441406 551.730469 291.527344 C 551.730469 294.285156 551.175781 296.617188 550.070312 298.53125 C 548.570312 301.109375 546.253906 302.398438 543.125 302.398438 Z M 546.34375 286.957031 C 545.679688 285.832031 544.359375 285.269531 542.390625 285.269531 L 538.398438 285.269531 L 538.398438 298.796875 L 542.390625 298.796875 C 544.433594 298.796875 545.859375 297.789062 546.667969 295.773438 C 547.109375 294.667969 547.328125 293.351562 547.328125 291.824219 C 547.328125 289.714844 547 288.09375 546.34375 286.957031 Z M 471 280.222656 "/>
</g>
</svg>
