<?xml version="1.0" encoding="UTF-8"?>
<svg xmlns="http://www.w3.org/2000/svg" xmlns:xlink="http://www.w3.org/1999/xlink" width="1024pt" height="576pt" viewBox="0 0 1024 576" version="1.1">
<g id="surface6">
<rect x="0" y="0" width="1024" height="576" style="fill:rgb(52.941176%,59.215686%,69.803922%);fill-opacity:1;stroke:none;"/>
<path style=" stroke:none;fill-rule:nonzero;fill:rgb(100%,100%,100%);fill-opacity:1;" d="M 474.820312 300.851562 C 473.273438 302.265625 471.292969 302.976562 468.882812 302.976562 C 465.902344 302.976562 463.558594 302.019531 461.851562 300.105469 C 460.144531 298.183594 459.292969 295.550781 459.292969 292.203125 C 459.292969 288.585938 460.265625 285.796875 462.203125 283.835938 C 463.890625 282.128906 466.039062 281.277344 468.644531 281.277344 C 472.132812 281.277344 474.683594 282.421875 476.296875 284.707031 C 477.1875 285.992188 477.664062 287.28125 477.730469 288.574219 L 473.398438 288.574219 C 473.117188 287.582031 472.757812 286.832031 472.316406 286.324219 C 471.527344 285.425781 470.359375 284.976562 468.8125 284.976562 C 467.238281 284.976562 465.996094 285.609375 465.085938 286.878906 C 464.175781 288.148438 463.722656 289.949219 463.722656 292.273438 C 463.722656 294.597656 464.203125 296.339844 465.164062 297.496094 C 466.125 298.65625 467.347656 299.234375 468.828125 299.234375 C 470.347656 299.234375 471.503906 298.738281 472.300781 297.742188 C 472.742188 297.207031 473.109375 296.40625 473.398438 295.339844 L 477.6875 295.339844 C 477.3125 297.597656 476.355469 299.4375 474.820312 300.851562 Z M 493.554688 302.398438 L 493.554688 293.144531 L 485.453125 293.144531 L 485.453125 302.398438 L 481.164062 302.398438 L 481.164062 281.671875 L 485.453125 281.671875 L 485.453125 289.574219 L 493.554688 289.574219 L 493.554688 281.671875 L 497.859375 281.671875 L 497.859375 302.398438 Z M 514.328125 298.136719 L 506.695312 298.136719 L 505.257812 302.398438 L 500.730469 302.398438 L 508.128906 281.671875 L 513.023438 281.671875 L 520.363281 302.398438 L 515.664062 302.398438 Z M 513.121094 294.566406 L 510.53125 286.410156 L 507.859375 294.566406 Z M 531.996094 294.269531 L 527.523438 294.269531 L 527.523438 302.398438 L 523.292969 302.398438 L 523.292969 281.671875 L 533.460938 281.671875 C 534.914062 281.699219 536.03125 281.875 536.8125 282.203125 C 537.597656 282.53125 538.257812 283.015625 538.804688 283.652344 C 539.253906 284.179688 539.609375 284.757812 539.871094 285.398438 C 540.132812 286.035156 540.265625 286.761719 540.265625 287.578125 C 540.265625 288.5625 540.015625 289.527344 539.519531 290.480469 C 539.023438 291.433594 538.203125 292.105469 537.058594 292.5 C 538.015625 292.882812 538.691406 293.429688 539.089844 294.136719 C 539.488281 294.84375 539.6875 295.925781 539.6875 297.378906 L 539.6875 298.769531 C 539.6875 299.71875 539.726562 300.359375 539.800781 300.695312 C 539.914062 301.230469 540.175781 301.625 540.589844 301.878906 L 540.589844 302.398438 L 535.820312 302.398438 C 535.691406 301.9375 535.597656 301.570312 535.539062 301.289062 C 535.425781 300.707031 535.367188 300.109375 535.359375 299.5 L 535.328125 297.574219 C 535.308594 296.253906 535.070312 295.371094 534.605469 294.929688 C 534.140625 294.488281 533.273438 294.269531 531.996094 294.269531 Z M 534.625 290.5 C 535.488281 290.105469 535.921875 289.328125 535.921875 288.167969 C 535.921875 286.910156 535.503906 286.066406 534.667969 285.636719 C 534.199219 285.390625 533.496094 285.269531 532.558594 285.269531 L 527.523438 285.269531 L 527.523438 290.839844 L 532.433594 290.839844 C 533.40625 290.839844 534.140625 290.726562 534.625 290.5 Z M 548.160156 302.398438 L 544.125 302.398438 L 544.125 281.671875 L 550.421875 281.671875 L 554.191406 297.96875 L 557.933594 281.671875 L 564.164062 281.671875 L 564.164062 302.398438 L 560.125 302.398438 L 560.125 288.378906 C 560.125 287.976562 560.132812 287.410156 560.140625 286.683594 C 560.148438 285.957031 560.15625 285.398438 560.15625 285.003906 L 556.230469 302.398438 L 552.027344 302.398438 L 548.132812 285.003906 C 548.132812 285.398438 548.136719 285.957031 548.144531 286.683594 C 548.15625 287.410156 548.160156 287.976562 548.160156 288.378906 Z M 458 280.222656 "/>
</g>
</svg>
