<?xml version="1.0" encoding="UTF-8"?>
<svg xmlns="http://www.w3.org/2000/svg" xmlns:xlink="http://www.w3.org/1999/xlink" width="1024pt" height="576pt" viewBox="0 0 1024 576" version="1.1">
<g id="surface26">
<rect x="0" y="0" width="1024" height="576" style="fill:rgb(12.54902%,10.196078%,13.72549%);fill-opacity:1;stroke:none;"/>
<path style=" stroke:none;fill-rule:nonzero;fill:rgb(100%,100%,100%);fill-opacity:1;" d="M 470.820312 300.851562 C 469.273438 302.265625 467.292969 302.976562 464.882812 302.976562 C 461.902344 302.976562 459.558594 302.019531 457.851562 300.105469 C 456.144531 298.183594 455.292969 295.550781 455.292969 292.203125 C 455.292969 288.585938 456.265625 285.796875 458.203125 283.835938 C 459.890625 282.128906 462.039062 281.277344 464.644531 281.277344 C 468.132812 281.277344 470.683594 282.421875 472.296875 284.707031 C 473.1875 285.992188 473.664062 287.28125 473.730469 288.574219 L 469.398438 288.574219 C 469.117188 287.582031 468.757812 286.832031 468.316406 286.324219 C 467.527344 285.425781 466.359375 284.976562 464.8125 284.976562 C 463.238281 284.976562 461.996094 285.609375 461.085938 286.878906 C 460.175781 288.148438 459.722656 289.949219 459.722656 292.273438 C 459.722656 294.597656 460.203125 296.339844 461.164062 297.496094 C 462.125 298.65625 463.347656 299.234375 464.828125 299.234375 C 466.347656 299.234375 467.503906 298.738281 468.300781 297.742188 C 468.742188 297.207031 469.109375 296.40625 469.398438 295.339844 L 473.6875 295.339844 C 473.3125 297.597656 472.355469 299.4375 470.820312 300.851562 Z M 489.652344 289.011719 C 490.945312 290.632812 491.59375 292.550781 491.59375 294.761719 C 491.59375 297.011719 490.945312 298.9375 489.652344 300.535156 C 488.359375 302.132812 486.394531 302.933594 483.761719 302.933594 C 481.125 302.933594 479.164062 302.132812 477.867188 300.535156 C 476.574219 298.9375 475.929688 297.011719 475.929688 294.761719 C 475.929688 292.550781 476.574219 290.632812 477.867188 289.011719 C 479.160156 287.390625 481.125 286.578125 483.761719 286.578125 C 486.394531 286.578125 488.359375 287.390625 489.652344 289.011719 Z M 483.746094 289.96875 C 482.574219 289.96875 481.671875 290.382812 481.039062 291.210938 C 480.40625 292.042969 480.089844 293.226562 480.089844 294.761719 C 480.089844 296.300781 480.40625 297.484375 481.039062 298.320312 C 481.671875 299.15625 482.574219 299.570312 483.746094 299.570312 C 484.917969 299.570312 485.820312 299.15625 486.445312 298.320312 C 487.074219 297.484375 487.390625 296.300781 487.390625 294.761719 C 487.390625 293.226562 487.074219 292.042969 486.445312 291.210938 C 485.816406 290.382812 484.917969 289.96875 483.746094 289.96875 Z M 502.71875 299.402344 C 503.738281 299.402344 504.570312 299.289062 505.207031 299.066406 C 506.414062 298.632812 507.019531 297.832031 507.019531 296.660156 C 507.019531 295.976562 506.71875 295.445312 506.121094 295.070312 C 505.519531 294.707031 504.578125 294.382812 503.292969 294.101562 L 501.101562 293.609375 C 498.945312 293.121094 497.453125 292.59375 496.628906 292.019531 C 495.230469 291.0625 494.53125 289.570312 494.53125 287.535156 C 494.53125 285.679688 495.207031 284.136719 496.558594 282.90625 C 497.90625 281.679688 499.890625 281.066406 502.507812 281.066406 C 504.691406 281.066406 506.554688 281.644531 508.097656 282.800781 C 509.640625 283.960938 510.445312 285.640625 510.523438 287.84375 L 506.359375 287.84375 C 506.285156 286.597656 505.742188 285.710938 504.726562 285.1875 C 504.050781 284.839844 503.214844 284.664062 502.210938 284.664062 C 501.09375 284.664062 500.203125 284.890625 499.539062 285.339844 C 498.875 285.789062 498.539062 286.417969 498.539062 287.226562 C 498.539062 287.964844 498.867188 288.519531 499.523438 288.882812 C 499.945312 289.128906 500.847656 289.414062 502.226562 289.742188 L 505.796875 290.601562 C 507.363281 290.976562 508.542969 291.476562 509.339844 292.105469 C 510.578125 293.078125 511.195312 294.492188 511.195312 296.335938 C 511.195312 298.230469 510.472656 299.804688 509.023438 301.054688 C 507.574219 302.308594 505.53125 302.933594 502.886719 302.933594 C 500.1875 302.933594 498.0625 302.316406 496.515625 301.082031 C 494.96875 299.851562 494.195312 298.15625 494.195312 296 L 498.328125 296 C 498.460938 296.945312 498.71875 297.65625 499.101562 298.125 C 499.804688 298.976562 501.011719 299.402344 502.71875 299.402344 Z M 529.253906 281.671875 L 529.253906 285.339844 L 523.054688 285.339844 L 523.054688 302.398438 L 518.695312 302.398438 L 518.695312 285.339844 L 512.464844 285.339844 L 512.464844 281.671875 Z M 542.328125 298.136719 L 534.695312 298.136719 L 533.257812 302.398438 L 528.730469 302.398438 L 536.128906 281.671875 L 541.023438 281.671875 L 548.363281 302.398438 L 543.664062 302.398438 Z M 541.121094 294.566406 L 538.53125 286.410156 L 535.859375 294.566406 Z M 559.996094 294.269531 L 555.523438 294.269531 L 555.523438 302.398438 L 551.292969 302.398438 L 551.292969 281.671875 L 561.460938 281.671875 C 562.914062 281.699219 564.03125 281.875 564.8125 282.203125 C 565.597656 282.53125 566.257812 283.015625 566.804688 283.652344 C 567.253906 284.179688 567.609375 284.757812 567.871094 285.398438 C 568.132812 286.035156 568.265625 286.761719 568.265625 287.578125 C 568.265625 288.5625 568.015625 289.527344 567.519531 290.480469 C 567.023438 291.433594 566.203125 292.105469 565.058594 292.5 C 566.015625 292.882812 566.691406 293.429688 567.089844 294.136719 C 567.488281 294.84375 567.6875 295.925781 567.6875 297.378906 L 567.6875 298.769531 C 567.6875 299.71875 567.726562 300.359375 567.800781 300.695312 C 567.914062 301.230469 568.175781 301.625 568.589844 301.878906 L 568.589844 302.398438 L 563.820312 302.398438 C 563.691406 301.9375 563.597656 301.570312 563.539062 301.289062 C 563.425781 300.707031 563.367188 300.109375 563.359375 299.5 L 563.328125 297.574219 C 563.308594 296.253906 563.070312 295.371094 562.605469 294.929688 C 562.140625 294.488281 561.273438 294.269531 559.996094 294.269531 Z M 562.625 290.5 C 563.488281 290.105469 563.921875 289.328125 563.921875 288.167969 C 563.921875 286.910156 563.503906 286.066406 562.667969 285.636719 C 562.199219 285.390625 561.496094 285.269531 560.558594 285.269531 L 555.523438 285.269531 L 555.523438 290.839844 L 560.433594 290.839844 C 561.40625 290.839844 562.140625 290.726562 562.625 290.5 Z M 454 280.222656 "/>
</g>
</svg>
