<?xml version="1.0" encoding="UTF-8"?>
<svg xmlns="http://www.w3.org/2000/svg" xmlns:xlink="http://www.w3.org/1999/xlink" width="1024pt" height="576pt" viewBox="0 0 1024 576" version="1.1">
<g id="surface36">
<rect x="0" y="0" width="1024" height="576" style="fill:rgb(12.54902%,10.196078%,13.72549%);fill-opacity:1;stroke:none;"/>
<path style=" stroke:none;fill-rule:nonzero;fill:rgb(100%,100%,100%);fill-opacity:1;" d="M 450.132812 292.570312 L 446.023438 292.570312 C 445.949219 291.996094 445.757812 291.480469 445.449219 291.023438 C 445 290.402344 444.300781 290.09375 443.351562 290.09375 C 442.003906 290.09375 441.078125 290.765625 440.582031 292.105469 C 440.320312 292.816406 440.1875 293.765625 440.1875 294.945312 C 440.1875 296.070312 440.320312 296.976562 440.582031 297.660156 C 441.0625 298.933594 441.960938 299.570312 443.28125 299.570312 C 444.21875 299.570312 444.886719 299.320312 445.28125 298.8125 C 445.675781 298.304688 445.914062 297.648438 445.996094 296.84375 L 450.089844 296.84375 C 449.996094 298.0625 449.554688 299.214844 448.765625 300.304688 C 447.511719 302.058594 445.648438 302.933594 443.183594 302.933594 C 440.71875 302.933594 438.90625 302.203125 437.742188 300.738281 C 436.578125 299.277344 436 297.378906 436 295.042969 C 436 292.410156 436.640625 290.359375 437.925781 288.898438 C 439.210938 287.4375 440.980469 286.703125 443.242188 286.703125 C 445.164062 286.703125 446.734375 287.136719 447.957031 288 C 449.179688 288.863281 449.90625 290.382812 450.132812 292.570312 Z M 460.578125 290.769531 C 458.964844 290.769531 457.882812 291.292969 457.328125 292.34375 C 457.019531 292.933594 456.863281 293.84375 456.863281 295.070312 L 456.863281 302.398438 L 452.828125 302.398438 L 452.828125 287.070312 L 456.652344 287.070312 L 456.652344 289.742188 C 457.273438 288.71875 457.8125 288.023438 458.269531 287.648438 C 459.019531 287.019531 459.996094 286.703125 461.195312 286.703125 C 461.269531 286.703125 461.332031 286.707031 461.386719 286.710938 C 461.4375 286.714844 461.550781 286.722656 461.730469 286.734375 L 461.730469 290.839844 C 461.476562 290.8125 461.25 290.792969 461.054688 290.78125 C 460.859375 290.773438 460.699219 290.769531 460.578125 290.769531 Z M 476.652344 289.011719 C 477.945312 290.632812 478.59375 292.550781 478.59375 294.761719 C 478.59375 297.011719 477.945312 298.9375 476.652344 300.535156 C 475.359375 302.132812 473.394531 302.933594 470.761719 302.933594 C 468.125 302.933594 466.164062 302.132812 464.867188 300.535156 C 463.574219 298.9375 462.929688 297.011719 462.929688 294.761719 C 462.929688 292.550781 463.574219 290.632812 464.867188 289.011719 C 466.160156 287.390625 468.125 286.578125 470.761719 286.578125 C 473.394531 286.578125 475.359375 287.390625 476.652344 289.011719 Z M 470.746094 289.96875 C 469.574219 289.96875 468.671875 290.382812 468.039062 291.210938 C 467.40625 292.042969 467.089844 293.226562 467.089844 294.761719 C 467.089844 296.300781 467.40625 297.484375 468.039062 298.320312 C 468.671875 299.15625 469.574219 299.570312 470.746094 299.570312 C 471.917969 299.570312 472.820312 299.15625 473.445312 298.320312 C 474.074219 297.484375 474.390625 296.300781 474.390625 294.761719 C 474.390625 293.226562 474.074219 292.042969 473.445312 291.210938 C 472.816406 290.382812 471.917969 289.96875 470.746094 289.96875 Z M 492.429688 287.773438 C 493.628906 288.542969 494.320312 289.863281 494.5 291.738281 L 490.492188 291.738281 C 490.433594 291.222656 490.289062 290.816406 490.054688 290.515625 C 489.613281 289.972656 488.863281 289.699219 487.804688 289.699219 C 486.933594 289.699219 486.3125 289.835938 485.941406 290.109375 C 485.570312 290.378906 485.386719 290.699219 485.386719 291.0625 C 485.386719 291.523438 485.582031 291.855469 485.976562 292.0625 C 486.371094 292.277344 487.761719 292.648438 490.152344 293.171875 C 491.746094 293.546875 492.941406 294.117188 493.738281 294.875 C 494.527344 295.644531 494.921875 296.605469 494.921875 297.757812 C 494.921875 299.277344 494.355469 300.515625 493.226562 301.476562 C 492.097656 302.4375 490.351562 302.917969 487.988281 302.917969 C 485.578125 302.917969 483.800781 302.410156 482.652344 301.394531 C 481.503906 300.375 480.929688 299.078125 480.929688 297.503906 L 484.992188 297.503906 C 485.078125 298.21875 485.257812 298.722656 485.539062 299.023438 C 486.035156 299.558594 486.957031 299.824219 488.296875 299.824219 C 489.085938 299.824219 489.710938 299.707031 490.175781 299.472656 C 490.640625 299.238281 490.871094 298.886719 490.871094 298.417969 C 490.871094 297.96875 490.683594 297.625 490.308594 297.390625 C 489.933594 297.15625 488.539062 296.753906 486.132812 296.183594 C 484.398438 295.75 483.171875 295.210938 482.460938 294.566406 C 481.75 293.929688 481.390625 293.007812 481.390625 291.808594 C 481.390625 290.394531 481.949219 289.175781 483.058594 288.160156 C 484.167969 287.144531 485.734375 286.632812 487.75 286.632812 C 489.660156 286.632812 491.222656 287.015625 492.429688 287.773438 Z M 508.429688 287.773438 C 509.628906 288.542969 510.320312 289.863281 510.5 291.738281 L 506.492188 291.738281 C 506.433594 291.222656 506.289062 290.816406 506.054688 290.515625 C 505.613281 289.972656 504.863281 289.699219 503.804688 289.699219 C 502.933594 289.699219 502.3125 289.835938 501.941406 290.109375 C 501.570312 290.378906 501.386719 290.699219 501.386719 291.0625 C 501.386719 291.523438 501.582031 291.855469 501.976562 292.0625 C 502.371094 292.277344 503.761719 292.648438 506.152344 293.171875 C 507.746094 293.546875 508.941406 294.117188 509.738281 294.875 C 510.527344 295.644531 510.921875 296.605469 510.921875 297.757812 C 510.921875 299.277344 510.355469 300.515625 509.226562 301.476562 C 508.097656 302.4375 506.351562 302.917969 503.988281 302.917969 C 501.578125 302.917969 499.800781 302.410156 498.652344 301.394531 C 497.503906 300.375 496.929688 299.078125 496.929688 297.503906 L 500.992188 297.503906 C 501.078125 298.21875 501.257812 298.722656 501.539062 299.023438 C 502.035156 299.558594 502.957031 299.824219 504.296875 299.824219 C 505.085938 299.824219 505.710938 299.707031 506.175781 299.472656 C 506.640625 299.238281 506.871094 298.886719 506.871094 298.417969 C 506.871094 297.96875 506.683594 297.625 506.308594 297.390625 C 505.933594 297.15625 504.539062 296.753906 502.132812 296.183594 C 500.398438 295.75 499.171875 295.210938 498.460938 294.566406 C 497.75 293.929688 497.390625 293.007812 497.390625 291.808594 C 497.390625 290.394531 497.949219 289.175781 499.058594 288.160156 C 500.167969 287.144531 501.734375 286.632812 503.75 286.632812 C 505.660156 286.632812 507.222656 287.015625 508.429688 287.773438 Z M 521.578125 290.769531 C 519.964844 290.769531 518.882812 291.292969 518.328125 292.34375 C 518.019531 292.933594 517.863281 293.84375 517.863281 295.070312 L 517.863281 302.398438 L 513.828125 302.398438 L 513.828125 287.070312 L 517.652344 287.070312 L 517.652344 289.742188 C 518.273438 288.71875 518.8125 288.023438 519.269531 287.648438 C 520.019531 287.019531 520.996094 286.703125 522.195312 286.703125 C 522.269531 286.703125 522.332031 286.707031 522.386719 286.710938 C 522.4375 286.714844 522.550781 286.722656 522.730469 286.734375 L 522.730469 290.839844 C 522.476562 290.8125 522.25 290.792969 522.054688 290.78125 C 521.859375 290.773438 521.699219 290.769531 521.578125 290.769531 Z M 537.992188 297.898438 C 537.886719 298.808594 537.414062 299.730469 536.570312 300.667969 C 535.257812 302.160156 533.421875 302.90625 531.058594 302.90625 C 529.109375 302.90625 527.386719 302.277344 525.898438 301.019531 C 524.40625 299.765625 523.660156 297.71875 523.660156 294.890625 C 523.660156 292.238281 524.332031 290.203125 525.679688 288.785156 C 527.023438 287.371094 528.769531 286.664062 530.917969 286.664062 C 532.191406 286.664062 533.339844 286.902344 534.363281 287.378906 C 535.382812 287.859375 536.226562 288.613281 536.894531 289.644531 C 537.492188 290.554688 537.882812 291.609375 538.0625 292.808594 C 538.164062 293.511719 538.207031 294.523438 538.1875 295.84375 L 527.695312 295.84375 C 527.753906 297.382812 528.234375 298.460938 529.144531 299.078125 C 529.699219 299.464844 530.363281 299.65625 531.140625 299.65625 C 531.964844 299.65625 532.636719 299.421875 533.152344 298.953125 C 533.433594 298.699219 533.683594 298.347656 533.898438 297.898438 Z M 534.023438 293.203125 C 533.957031 292.144531 533.636719 291.339844 533.0625 290.789062 C 532.484375 290.242188 531.769531 289.96875 530.917969 289.96875 C 529.988281 289.96875 529.269531 290.257812 528.757812 290.839844 C 528.246094 291.421875 527.925781 292.207031 527.796875 293.203125 Z M 541.445312 288.730469 C 542.503906 287.378906 544.324219 286.703125 546.902344 286.703125 C 548.582031 286.703125 550.070312 287.039062 551.375 287.703125 C 552.679688 288.367188 553.328125 289.625 553.328125 291.472656 L 553.328125 298.503906 C 553.328125 298.992188 553.339844 299.582031 553.359375 300.273438 C 553.386719 300.800781 553.464844 301.15625 553.597656 301.34375 C 553.726562 301.53125 553.925781 301.6875 554.1875 301.808594 L 554.1875 302.398438 L 549.828125 302.398438 C 549.707031 302.089844 549.621094 301.796875 549.574219 301.527344 C 549.527344 301.253906 549.492188 300.945312 549.460938 300.597656 C 548.910156 301.199219 548.273438 301.710938 547.550781 302.132812 C 546.6875 302.628906 545.710938 302.875 544.625 302.875 C 543.238281 302.875 542.089844 302.480469 541.1875 301.6875 C 540.28125 300.894531 539.828125 299.773438 539.828125 298.320312 C 539.828125 296.4375 540.554688 295.070312 542.007812 294.226562 C 542.804688 293.769531 543.976562 293.441406 545.523438 293.242188 L 546.890625 293.074219 C 547.628906 292.980469 548.160156 292.863281 548.476562 292.722656 C 549.050781 292.480469 549.335938 292.101562 549.335938 291.585938 C 549.335938 290.957031 549.117188 290.523438 548.683594 290.285156 C 548.246094 290.046875 547.605469 289.925781 546.761719 289.925781 C 545.816406 289.925781 545.144531 290.160156 544.75 290.628906 C 544.46875 290.976562 544.28125 291.445312 544.1875 292.035156 L 540.320312 292.035156 C 540.40625 290.695312 540.78125 289.59375 541.445312 288.730469 Z M 544.429688 299.5 C 544.804688 299.808594 545.261719 299.964844 545.804688 299.964844 C 546.667969 299.964844 547.464844 299.710938 548.191406 299.207031 C 548.917969 298.699219 549.292969 297.777344 549.320312 296.4375 L 549.320312 294.945312 C 549.066406 295.105469 548.8125 295.234375 548.554688 295.332031 C 548.296875 295.429688 547.945312 295.523438 547.492188 295.605469 L 546.59375 295.773438 C 545.75 295.925781 545.144531 296.109375 544.78125 296.324219 C 544.160156 296.6875 543.851562 297.257812 543.851562 298.023438 C 543.851562 298.707031 544.042969 299.203125 544.429688 299.5 Z M 570.820312 281.699219 L 570.820312 302.398438 L 566.925781 302.398438 L 566.925781 300.273438 C 566.351562 301.183594 565.703125 301.84375 564.96875 302.257812 C 564.238281 302.671875 563.328125 302.875 562.242188 302.875 C 560.453125 302.875 558.945312 302.152344 557.722656 300.703125 C 556.5 299.253906 555.886719 297.398438 555.886719 295.128906 C 555.886719 292.511719 556.488281 290.453125 557.691406 288.953125 C 558.898438 287.453125 560.507812 286.703125 562.523438 286.703125 C 563.453125 286.703125 564.277344 286.910156 565 287.316406 C 565.722656 287.722656 566.304688 288.289062 566.757812 289.011719 L 566.757812 281.699219 Z M 560.019531 294.832031 C 560.019531 296.25 560.300781 297.378906 560.863281 298.222656 C 561.417969 299.074219 562.261719 299.5 563.394531 299.5 C 564.53125 299.5 565.390625 299.078125 565.984375 298.234375 C 566.574219 297.390625 566.867188 296.300781 566.867188 294.960938 C 566.867188 293.085938 566.394531 291.742188 565.449219 290.9375 C 564.867188 290.449219 564.191406 290.207031 563.421875 290.207031 C 562.25 290.207031 561.390625 290.648438 560.84375 291.535156 C 560.292969 292.421875 560.019531 293.519531 560.019531 294.832031 Z M 585.429688 287.773438 C 586.628906 288.542969 587.320312 289.863281 587.5 291.738281 L 583.492188 291.738281 C 583.433594 291.222656 583.289062 290.816406 583.054688 290.515625 C 582.613281 289.972656 581.863281 289.699219 580.804688 289.699219 C 579.933594 289.699219 579.3125 289.835938 578.941406 290.109375 C 578.570312 290.378906 578.386719 290.699219 578.386719 291.0625 C 578.386719 291.523438 578.582031 291.855469 578.976562 292.0625 C 579.371094 292.277344 580.761719 292.648438 583.152344 293.171875 C 584.746094 293.546875 585.941406 294.117188 586.738281 294.875 C 587.527344 295.644531 587.921875 296.605469 587.921875 297.757812 C 587.921875 299.277344 587.355469 300.515625 586.226562 301.476562 C 585.097656 302.4375 583.351562 302.917969 580.988281 302.917969 C 578.578125 302.917969 576.800781 302.410156 575.652344 301.394531 C 574.503906 300.375 573.929688 299.078125 573.929688 297.503906 L 577.992188 297.503906 C 578.078125 298.21875 578.257812 298.722656 578.539062 299.023438 C 579.035156 299.558594 579.957031 299.824219 581.296875 299.824219 C 582.085938 299.824219 582.710938 299.707031 583.175781 299.472656 C 583.640625 299.238281 583.871094 298.886719 583.871094 298.417969 C 583.871094 297.96875 583.683594 297.625 583.308594 297.390625 C 582.933594 297.15625 581.539062 296.753906 579.132812 296.183594 C 577.398438 295.75 576.171875 295.210938 575.460938 294.566406 C 574.75 293.929688 574.390625 293.007812 574.390625 291.808594 C 574.390625 290.394531 574.949219 289.175781 576.058594 288.160156 C 577.167969 287.144531 578.734375 286.632812 580.75 286.632812 C 582.660156 286.632812 584.222656 287.015625 585.429688 287.773438 Z M 435 280.222656 "/>
</g>
</svg>
