<?xml version="1.0" encoding="UTF-8"?>
<svg xmlns="http://www.w3.org/2000/svg" xmlns:xlink="http://www.w3.org/1999/xlink" width="1024pt" height="576pt" viewBox="0 0 1024 576" version="1.1">
<g id="surface41">
<rect x="0" y="0" width="1024" height="576" style="fill:rgb(42.745098%,54.117647%,58.823529%);fill-opacity:1;stroke:none;"/>
<path style=" stroke:none;fill-rule:nonzero;fill:rgb(100%,100%,100%);fill-opacity:1;" d="M 468.820312 300.851562 C 467.273438 302.265625 465.292969 302.976562 462.882812 302.976562 C 459.902344 302.976562 457.558594 302.019531 455.851562 300.105469 C 454.144531 298.183594 453.292969 295.550781 453.292969 292.203125 C 453.292969 288.585938 454.265625 285.796875 456.203125 283.835938 C 457.890625 282.128906 460.039062 281.277344 462.644531 281.277344 C 466.132812 281.277344 468.683594 282.421875 470.296875 284.707031 C 471.1875 285.992188 471.664062 287.28125 471.730469 288.574219 L 467.398438 288.574219 C 467.117188 287.582031 466.757812 286.832031 466.316406 286.324219 C 465.527344 285.425781 464.359375 284.976562 462.8125 284.976562 C 461.238281 284.976562 459.996094 285.609375 459.085938 286.878906 C 458.175781 288.148438 457.722656 289.949219 457.722656 292.273438 C 457.722656 294.597656 458.203125 296.339844 459.164062 297.496094 C 460.125 298.65625 461.347656 299.234375 462.828125 299.234375 C 464.347656 299.234375 465.503906 298.738281 466.300781 297.742188 C 466.742188 297.207031 467.109375 296.40625 467.398438 295.339844 L 471.6875 295.339844 C 471.3125 297.597656 470.355469 299.4375 468.820312 300.851562 Z M 491.929688 281.671875 L 484.996094 294.609375 L 484.996094 302.398438 L 480.664062 302.398438 L 480.664062 294.609375 L 473.492188 281.671875 L 478.597656 281.671875 L 482.898438 290.699219 L 487.019531 281.671875 Z M 502.996094 294.945312 L 498.59375 294.945312 L 498.59375 302.398438 L 494.292969 302.398438 L 494.292969 281.671875 L 503.320312 281.671875 C 505.402344 281.671875 507.0625 282.203125 508.296875 283.273438 C 509.535156 284.34375 510.15625 285.996094 510.15625 288.238281 C 510.15625 290.683594 509.535156 292.414062 508.296875 293.425781 C 507.058594 294.4375 505.292969 294.945312 502.996094 294.945312 Z M 505.023438 290.628906 C 505.585938 290.132812 505.867188 289.34375 505.867188 288.265625 C 505.867188 287.1875 505.582031 286.417969 505.015625 285.960938 C 504.449219 285.5 503.652344 285.269531 502.632812 285.269531 L 498.59375 285.269531 L 498.59375 291.375 L 502.632812 291.375 C 503.652344 291.375 504.449219 291.125 505.023438 290.628906 Z M 521.996094 294.269531 L 517.523438 294.269531 L 517.523438 302.398438 L 513.292969 302.398438 L 513.292969 281.671875 L 523.460938 281.671875 C 524.914062 281.699219 526.03125 281.875 526.8125 282.203125 C 527.597656 282.53125 528.257812 283.015625 528.804688 283.652344 C 529.253906 284.179688 529.609375 284.757812 529.871094 285.398438 C 530.132812 286.035156 530.265625 286.761719 530.265625 287.578125 C 530.265625 288.5625 530.015625 289.527344 529.519531 290.480469 C 529.023438 291.433594 528.203125 292.105469 527.058594 292.5 C 528.015625 292.882812 528.691406 293.429688 529.089844 294.136719 C 529.488281 294.84375 529.6875 295.925781 529.6875 297.378906 L 529.6875 298.769531 C 529.6875 299.71875 529.726562 300.359375 529.800781 300.695312 C 529.914062 301.230469 530.175781 301.625 530.589844 301.878906 L 530.589844 302.398438 L 525.820312 302.398438 C 525.691406 301.9375 525.597656 301.570312 525.539062 301.289062 C 525.425781 300.707031 525.367188 300.109375 525.359375 299.5 L 525.328125 297.574219 C 525.308594 296.253906 525.070312 295.371094 524.605469 294.929688 C 524.140625 294.488281 523.273438 294.269531 521.996094 294.269531 Z M 524.625 290.5 C 525.488281 290.105469 525.921875 289.328125 525.921875 288.167969 C 525.921875 286.910156 525.503906 286.066406 524.667969 285.636719 C 524.199219 285.390625 523.496094 285.269531 522.558594 285.269531 L 517.523438 285.269531 L 517.523438 290.839844 L 522.433594 290.839844 C 523.40625 290.839844 524.140625 290.726562 524.625 290.5 Z M 546.457031 294.410156 L 546.457031 281.671875 L 550.859375 281.671875 L 550.859375 294.410156 C 550.859375 296.613281 550.515625 298.328125 549.832031 299.558594 C 548.554688 301.808594 546.125 302.933594 542.53125 302.933594 C 538.941406 302.933594 536.503906 301.808594 535.21875 299.558594 C 534.535156 298.328125 534.195312 296.613281 534.195312 294.410156 L 534.195312 281.671875 L 538.59375 281.671875 L 538.59375 294.410156 C 538.59375 295.835938 538.765625 296.875 539.101562 297.53125 C 539.625 298.695312 540.769531 299.277344 542.53125 299.277344 C 544.285156 299.277344 545.425781 298.695312 545.949219 297.53125 C 546.289062 296.875 546.457031 295.835938 546.457031 294.410156 Z M 562.71875 299.402344 C 563.738281 299.402344 564.570312 299.289062 565.207031 299.066406 C 566.414062 298.632812 567.019531 297.832031 567.019531 296.660156 C 567.019531 295.976562 566.71875 295.445312 566.121094 295.070312 C 565.519531 294.707031 564.578125 294.382812 563.292969 294.101562 L 561.101562 293.609375 C 558.945312 293.121094 557.453125 292.59375 556.628906 292.019531 C 555.230469 291.0625 554.53125 289.570312 554.53125 287.535156 C 554.53125 285.679688 555.207031 284.136719 556.558594 282.90625 C 557.90625 281.679688 559.890625 281.066406 562.507812 281.066406 C 564.691406 281.066406 566.554688 281.644531 568.097656 282.800781 C 569.640625 283.960938 570.445312 285.640625 570.523438 287.84375 L 566.359375 287.84375 C 566.285156 286.597656 565.742188 285.710938 564.726562 285.1875 C 564.050781 284.839844 563.214844 284.664062 562.210938 284.664062 C 561.09375 284.664062 560.203125 284.890625 559.539062 285.339844 C 558.875 285.789062 558.539062 286.417969 558.539062 287.226562 C 558.539062 287.964844 558.867188 288.519531 559.523438 288.882812 C 559.945312 289.128906 560.847656 289.414062 562.226562 289.742188 L 565.796875 290.601562 C 567.363281 290.976562 568.542969 291.476562 569.339844 292.105469 C 570.578125 293.078125 571.195312 294.492188 571.195312 296.335938 C 571.195312 298.230469 570.472656 299.804688 569.023438 301.054688 C 567.574219 302.308594 565.53125 302.933594 562.886719 302.933594 C 560.1875 302.933594 558.0625 302.316406 556.515625 301.082031 C 554.96875 299.851562 554.195312 298.15625 554.195312 296 L 558.328125 296 C 558.460938 296.945312 558.71875 297.65625 559.101562 298.125 C 559.804688 298.976562 561.011719 299.402344 562.71875 299.402344 Z M 452 280.222656 "/>
</g>
</svg>
