<?xml version="1.0" encoding="UTF-8"?>
<svg xmlns="http://www.w3.org/2000/svg" xmlns:xlink="http://www.w3.org/1999/xlink" width="1024pt" height="576pt" viewBox="0 0 1024 576" version="1.1">
<g id="surface46">
<rect x="0" y="0" width="1024" height="576" style="fill:rgb(36.470588%,43.921569%,49.803922%);fill-opacity:1;stroke:none;"/>
<path style=" stroke:none;fill-rule:nonzero;fill:rgb(100%,100%,100%);fill-opacity:1;" d="M 384.125 302.398438 L 375.195312 302.398438 L 375.195312 281.671875 L 384.125 281.671875 C 385.410156 281.691406 386.476562 281.839844 387.328125 282.121094 C 388.78125 282.597656 389.960938 283.476562 390.859375 284.75 C 391.582031 285.78125 392.074219 286.898438 392.335938 288.097656 C 392.597656 289.296875 392.730469 290.441406 392.730469 291.527344 C 392.730469 294.285156 392.175781 296.617188 391.070312 298.53125 C 389.570312 301.109375 387.253906 302.398438 384.125 302.398438 Z M 387.34375 286.957031 C 386.679688 285.832031 385.359375 285.269531 383.390625 285.269531 L 379.398438 285.269531 L 379.398438 298.796875 L 383.390625 298.796875 C 385.433594 298.796875 386.859375 297.789062 387.667969 295.773438 C 388.109375 294.667969 388.328125 293.351562 388.328125 291.824219 C 388.328125 289.714844 388 288.09375 387.34375 286.957031 Z M 396.445312 288.730469 C 397.503906 287.378906 399.324219 286.703125 401.902344 286.703125 C 403.582031 286.703125 405.070312 287.039062 406.375 287.703125 C 407.679688 288.367188 408.328125 289.625 408.328125 291.472656 L 408.328125 298.503906 C 408.328125 298.992188 408.339844 299.582031 408.359375 300.273438 C 408.386719 300.800781 408.464844 301.15625 408.597656 301.34375 C 408.726562 301.53125 408.925781 301.6875 409.1875 301.808594 L 409.1875 302.398438 L 404.828125 302.398438 C 404.707031 302.089844 404.621094 301.796875 404.574219 301.527344 C 404.527344 301.253906 404.492188 300.945312 404.460938 300.597656 C 403.910156 301.199219 403.273438 301.710938 402.550781 302.132812 C 401.6875 302.628906 400.710938 302.875 399.625 302.875 C 398.238281 302.875 397.089844 302.480469 396.1875 301.6875 C 395.28125 300.894531 394.828125 299.773438 394.828125 298.320312 C 394.828125 296.4375 395.554688 295.070312 397.007812 294.226562 C 397.804688 293.769531 398.976562 293.441406 400.523438 293.242188 L 401.890625 293.074219 C 402.628906 292.980469 403.160156 292.863281 403.476562 292.722656 C 404.050781 292.480469 404.335938 292.101562 404.335938 291.585938 C 404.335938 290.957031 404.117188 290.523438 403.683594 290.285156 C 403.246094 290.046875 402.605469 289.925781 401.761719 289.925781 C 400.816406 289.925781 400.144531 290.160156 399.75 290.628906 C 399.46875 290.976562 399.28125 291.445312 399.1875 292.035156 L 395.320312 292.035156 C 395.40625 290.695312 395.78125 289.59375 396.445312 288.730469 Z M 399.429688 299.5 C 399.804688 299.808594 400.261719 299.964844 400.804688 299.964844 C 401.667969 299.964844 402.464844 299.710938 403.191406 299.207031 C 403.917969 298.699219 404.292969 297.777344 404.320312 296.4375 L 404.320312 294.945312 C 404.066406 295.105469 403.8125 295.234375 403.554688 295.332031 C 403.296875 295.429688 402.945312 295.523438 402.492188 295.605469 L 401.59375 295.773438 C 400.75 295.925781 400.144531 296.109375 399.78125 296.324219 C 399.160156 296.6875 398.851562 297.257812 398.851562 298.023438 C 398.851562 298.707031 399.042969 299.203125 399.429688 299.5 Z M 418.886719 299.542969 L 418.886719 302.539062 L 416.988281 302.609375 C 415.09375 302.675781 413.800781 302.347656 413.109375 301.625 C 412.660156 301.164062 412.433594 300.457031 412.433594 299.5 L 412.433594 290.066406 L 410.296875 290.066406 L 410.296875 287.210938 L 412.433594 287.210938 L 412.433594 282.9375 L 416.398438 282.9375 L 416.398438 287.210938 L 418.886719 287.210938 L 418.886719 290.066406 L 416.398438 290.066406 L 416.398438 298.164062 C 416.398438 298.792969 416.476562 299.183594 416.636719 299.339844 C 416.796875 299.496094 417.285156 299.570312 418.101562 299.570312 C 418.222656 299.570312 418.351562 299.570312 418.488281 299.566406 C 418.625 299.5625 418.757812 299.554688 418.886719 299.542969 Z M 422.445312 288.730469 C 423.503906 287.378906 425.324219 286.703125 427.902344 286.703125 C 429.582031 286.703125 431.070312 287.039062 432.375 287.703125 C 433.679688 288.367188 434.328125 289.625 434.328125 291.472656 L 434.328125 298.503906 C 434.328125 298.992188 434.339844 299.582031 434.359375 300.273438 C 434.386719 300.800781 434.464844 301.15625 434.597656 301.34375 C 434.726562 301.53125 434.925781 301.6875 435.1875 301.808594 L 435.1875 302.398438 L 430.828125 302.398438 C 430.707031 302.089844 430.621094 301.796875 430.574219 301.527344 C 430.527344 301.253906 430.492188 300.945312 430.460938 300.597656 C 429.910156 301.199219 429.273438 301.710938 428.550781 302.132812 C 427.6875 302.628906 426.710938 302.875 425.625 302.875 C 424.238281 302.875 423.089844 302.480469 422.1875 301.6875 C 421.28125 300.894531 420.828125 299.773438 420.828125 298.320312 C 420.828125 296.4375 421.554688 295.070312 423.007812 294.226562 C 423.804688 293.769531 424.976562 293.441406 426.523438 293.242188 L 427.890625 293.074219 C 428.628906 292.980469 429.160156 292.863281 429.476562 292.722656 C 430.050781 292.480469 430.335938 292.101562 430.335938 291.585938 C 430.335938 290.957031 430.117188 290.523438 429.683594 290.285156 C 429.246094 290.046875 428.605469 289.925781 427.761719 289.925781 C 426.816406 289.925781 426.144531 290.160156 425.75 290.628906 C 425.46875 290.976562 425.28125 291.445312 425.1875 292.035156 L 421.320312 292.035156 C 421.40625 290.695312 421.78125 289.59375 422.445312 288.730469 Z M 425.429688 299.5 C 425.804688 299.808594 426.261719 299.964844 426.804688 299.964844 C 427.667969 299.964844 428.464844 299.710938 429.191406 299.207031 C 429.917969 298.699219 430.292969 297.777344 430.320312 296.4375 L 430.320312 294.945312 C 430.066406 295.105469 429.8125 295.234375 429.554688 295.332031 C 429.296875 295.429688 428.945312 295.523438 428.492188 295.605469 L 427.59375 295.773438 C 426.75 295.925781 426.144531 296.109375 425.78125 296.324219 C 425.160156 296.6875 424.851562 297.257812 424.851562 298.023438 C 424.851562 298.707031 425.042969 299.203125 425.429688 299.5 Z M 454.996094 294.945312 L 450.59375 294.945312 L 450.59375 302.398438 L 446.292969 302.398438 L 446.292969 281.671875 L 455.320312 281.671875 C 457.402344 281.671875 459.0625 282.203125 460.296875 283.273438 C 461.535156 284.34375 462.15625 285.996094 462.15625 288.238281 C 462.15625 290.683594 461.535156 292.414062 460.296875 293.425781 C 459.058594 294.4375 457.292969 294.945312 454.996094 294.945312 Z M 457.023438 290.628906 C 457.585938 290.132812 457.867188 289.34375 457.867188 288.265625 C 457.867188 287.1875 457.582031 286.417969 457.015625 285.960938 C 456.449219 285.5 455.652344 285.269531 454.632812 285.269531 L 450.59375 285.269531 L 450.59375 291.375 L 454.632812 291.375 C 455.652344 291.375 456.449219 291.125 457.023438 290.628906 Z M 477.652344 289.011719 C 478.945312 290.632812 479.59375 292.550781 479.59375 294.761719 C 479.59375 297.011719 478.945312 298.9375 477.652344 300.535156 C 476.359375 302.132812 474.394531 302.933594 471.761719 302.933594 C 469.125 302.933594 467.164062 302.132812 465.867188 300.535156 C 464.574219 298.9375 463.929688 297.011719 463.929688 294.761719 C 463.929688 292.550781 464.574219 290.632812 465.867188 289.011719 C 467.160156 287.390625 469.125 286.578125 471.761719 286.578125 C 474.394531 286.578125 476.359375 287.390625 477.652344 289.011719 Z M 471.746094 289.96875 C 470.574219 289.96875 469.671875 290.382812 469.039062 291.210938 C 468.40625 292.042969 468.089844 293.226562 468.089844 294.761719 C 468.089844 296.300781 468.40625 297.484375 469.039062 298.320312 C 469.671875 299.15625 470.574219 299.570312 471.746094 299.570312 C 472.917969 299.570312 473.820312 299.15625 474.445312 298.320312 C 475.074219 297.484375 475.390625 296.300781 475.390625 294.761719 C 475.390625 293.226562 475.074219 292.042969 474.445312 291.210938 C 473.816406 290.382812 472.917969 289.96875 471.746094 289.96875 Z M 490.578125 290.769531 C 488.964844 290.769531 487.882812 291.292969 487.328125 292.34375 C 487.019531 292.933594 486.863281 293.84375 486.863281 295.070312 L 486.863281 302.398438 L 482.828125 302.398438 L 482.828125 287.070312 L 486.652344 287.070312 L 486.652344 289.742188 C 487.273438 288.71875 487.8125 288.023438 488.269531 287.648438 C 489.019531 287.019531 489.996094 286.703125 491.195312 286.703125 C 491.269531 286.703125 491.332031 286.707031 491.386719 286.710938 C 491.4375 286.714844 491.550781 286.722656 491.730469 286.734375 L 491.730469 290.839844 C 491.476562 290.8125 491.25 290.792969 491.054688 290.78125 C 490.859375 290.773438 490.699219 290.769531 490.578125 290.769531 Z M 500.886719 299.542969 L 500.886719 302.539062 L 498.988281 302.609375 C 497.09375 302.675781 495.800781 302.347656 495.109375 301.625 C 494.660156 301.164062 494.433594 300.457031 494.433594 299.5 L 494.433594 290.066406 L 492.296875 290.066406 L 492.296875 287.210938 L 494.433594 287.210938 L 494.433594 282.9375 L 498.398438 282.9375 L 498.398438 287.210938 L 500.886719 287.210938 L 500.886719 290.066406 L 498.398438 290.066406 L 498.398438 298.164062 C 498.398438 298.792969 498.476562 299.183594 498.636719 299.339844 C 498.796875 299.496094 499.285156 299.570312 500.101562 299.570312 C 500.222656 299.570312 500.351562 299.570312 500.488281 299.566406 C 500.625 299.5625 500.757812 299.554688 500.886719 299.542969 Z M 504.445312 288.730469 C 505.503906 287.378906 507.324219 286.703125 509.902344 286.703125 C 511.582031 286.703125 513.070312 287.039062 514.375 287.703125 C 515.679688 288.367188 516.328125 289.625 516.328125 291.472656 L 516.328125 298.503906 C 516.328125 298.992188 516.339844 299.582031 516.359375 300.273438 C 516.386719 300.800781 516.464844 301.15625 516.597656 301.34375 C 516.726562 301.53125 516.925781 301.6875 517.1875 301.808594 L 517.1875 302.398438 L 512.828125 302.398438 C 512.707031 302.089844 512.621094 301.796875 512.574219 301.527344 C 512.527344 301.253906 512.492188 300.945312 512.460938 300.597656 C 511.910156 301.199219 511.273438 301.710938 510.550781 302.132812 C 509.6875 302.628906 508.710938 302.875 507.625 302.875 C 506.238281 302.875 505.089844 302.480469 504.1875 301.6875 C 503.28125 300.894531 502.828125 299.773438 502.828125 298.320312 C 502.828125 296.4375 503.554688 295.070312 505.007812 294.226562 C 505.804688 293.769531 506.976562 293.441406 508.523438 293.242188 L 509.890625 293.074219 C 510.628906 292.980469 511.160156 292.863281 511.476562 292.722656 C 512.050781 292.480469 512.335938 292.101562 512.335938 291.585938 C 512.335938 290.957031 512.117188 290.523438 511.683594 290.285156 C 511.246094 290.046875 510.605469 289.925781 509.761719 289.925781 C 508.816406 289.925781 508.144531 290.160156 507.75 290.628906 C 507.46875 290.976562 507.28125 291.445312 507.1875 292.035156 L 503.320312 292.035156 C 503.40625 290.695312 503.78125 289.59375 504.445312 288.730469 Z M 507.429688 299.5 C 507.804688 299.808594 508.261719 299.964844 508.804688 299.964844 C 509.667969 299.964844 510.464844 299.710938 511.191406 299.207031 C 511.917969 298.699219 512.292969 297.777344 512.320312 296.4375 L 512.320312 294.945312 C 512.066406 295.105469 511.8125 295.234375 511.554688 295.332031 C 511.296875 295.429688 510.945312 295.523438 510.492188 295.605469 L 509.59375 295.773438 C 508.75 295.925781 508.144531 296.109375 507.78125 296.324219 C 507.160156 296.6875 506.851562 297.257812 506.851562 298.023438 C 506.851562 298.707031 507.042969 299.203125 507.429688 299.5 Z M 519.953125 281.671875 L 523.960938 281.671875 L 523.960938 302.398438 L 519.953125 302.398438 Z M 550.621094 293.34375 L 540.554688 293.34375 L 540.554688 298.671875 L 552.027344 298.671875 L 552.027344 302.398438 L 536.320312 302.398438 L 536.320312 281.671875 L 551.523438 281.671875 L 551.523438 285.339844 L 540.554688 285.339844 L 540.554688 289.742188 L 550.621094 289.742188 Z M 568.523438 302.398438 L 563.53125 302.398438 L 560.890625 297.800781 L 558.230469 302.398438 L 553.367188 302.398438 L 558.597656 294.636719 L 553.589844 287.097656 L 558.5 287.097656 L 561.058594 291.542969 L 563.5625 287.097656 L 568.328125 287.097656 L 563.292969 294.566406 Z M 583.710938 288.714844 C 584.949219 290.039062 585.566406 291.976562 585.566406 294.539062 C 585.566406 297.238281 584.957031 299.296875 583.746094 300.710938 C 582.53125 302.125 580.96875 302.835938 579.054688 302.835938 C 577.835938 302.835938 576.824219 302.53125 576.015625 301.921875 C 575.574219 301.582031 575.144531 301.089844 574.722656 300.445312 L 574.722656 308.429688 L 570.757812 308.429688 L 570.757812 287.070312 L 574.597656 287.070312 L 574.597656 289.335938 C 575.027344 288.667969 575.488281 288.144531 575.976562 287.757812 C 576.867188 287.074219 577.925781 286.734375 579.152344 286.734375 C 580.945312 286.734375 582.460938 287.394531 583.710938 288.714844 Z M 581.429688 294.734375 C 581.429688 293.554688 581.160156 292.507812 580.621094 291.597656 C 580.082031 290.6875 579.210938 290.234375 578 290.234375 C 576.546875 290.234375 575.546875 290.921875 575.003906 292.300781 C 574.722656 293.03125 574.582031 293.960938 574.582031 295.085938 C 574.582031 296.867188 575.054688 298.117188 576.003906 298.839844 C 576.566406 299.261719 577.230469 299.472656 578 299.472656 C 579.117188 299.472656 579.964844 299.042969 580.550781 298.179688 C 581.136719 297.316406 581.429688 296.167969 581.429688 294.734375 Z M 588.953125 281.671875 L 592.960938 281.671875 L 592.960938 302.398438 L 588.953125 302.398438 Z M 609.652344 289.011719 C 610.945312 290.632812 611.59375 292.550781 611.59375 294.761719 C 611.59375 297.011719 610.945312 298.9375 609.652344 300.535156 C 608.359375 302.132812 606.394531 302.933594 603.761719 302.933594 C 601.125 302.933594 599.164062 302.132812 597.867188 300.535156 C 596.574219 298.9375 595.929688 297.011719 595.929688 294.761719 C 595.929688 292.550781 596.574219 290.632812 597.867188 289.011719 C 599.160156 287.390625 601.125 286.578125 603.761719 286.578125 C 606.394531 286.578125 608.359375 287.390625 609.652344 289.011719 Z M 603.746094 289.96875 C 602.574219 289.96875 601.671875 290.382812 601.039062 291.210938 C 600.40625 292.042969 600.089844 293.226562 600.089844 294.761719 C 600.089844 296.300781 600.40625 297.484375 601.039062 298.320312 C 601.671875 299.15625 602.574219 299.570312 603.746094 299.570312 C 604.917969 299.570312 605.820312 299.15625 606.445312 298.320312 C 607.074219 297.484375 607.390625 296.300781 607.390625 294.761719 C 607.390625 293.226562 607.074219 292.042969 606.445312 291.210938 C 605.816406 290.382812 604.917969 289.96875 603.746094 289.96875 Z M 622.578125 290.769531 C 620.964844 290.769531 619.882812 291.292969 619.328125 292.34375 C 619.019531 292.933594 618.863281 293.84375 618.863281 295.070312 L 618.863281 302.398438 L 614.828125 302.398438 L 614.828125 287.070312 L 618.652344 287.070312 L 618.652344 289.742188 C 619.273438 288.71875 619.8125 288.023438 620.269531 287.648438 C 621.019531 287.019531 621.996094 286.703125 623.195312 286.703125 C 623.269531 286.703125 623.332031 286.707031 623.386719 286.710938 C 623.4375 286.714844 623.550781 286.722656 623.730469 286.734375 L 623.730469 290.839844 C 623.476562 290.8125 623.25 290.792969 623.054688 290.78125 C 622.859375 290.773438 622.699219 290.769531 622.578125 290.769531 Z M 638.992188 297.898438 C 638.886719 298.808594 638.414062 299.730469 637.570312 300.667969 C 636.257812 302.160156 634.421875 302.90625 632.058594 302.90625 C 630.109375 302.90625 628.386719 302.277344 626.898438 301.019531 C 625.40625 299.765625 624.660156 297.71875 624.660156 294.890625 C 624.660156 292.238281 625.332031 290.203125 626.679688 288.785156 C 628.023438 287.371094 629.769531 286.664062 631.917969 286.664062 C 633.191406 286.664062 634.339844 286.902344 635.363281 287.378906 C 636.382812 287.859375 637.226562 288.613281 637.894531 289.644531 C 638.492188 290.554688 638.882812 291.609375 639.0625 292.808594 C 639.164062 293.511719 639.207031 294.523438 639.1875 295.84375 L 628.695312 295.84375 C 628.753906 297.382812 629.234375 298.460938 630.144531 299.078125 C 630.699219 299.464844 631.363281 299.65625 632.140625 299.65625 C 632.964844 299.65625 633.636719 299.421875 634.152344 298.953125 C 634.433594 298.699219 634.683594 298.347656 634.898438 297.898438 Z M 635.023438 293.203125 C 634.957031 292.144531 634.636719 291.339844 634.0625 290.789062 C 633.484375 290.242188 632.769531 289.96875 631.917969 289.96875 C 630.988281 289.96875 630.269531 290.257812 629.757812 290.839844 C 629.246094 291.421875 628.925781 292.207031 628.796875 293.203125 Z M 649.578125 290.769531 C 647.964844 290.769531 646.882812 291.292969 646.328125 292.34375 C 646.019531 292.933594 645.863281 293.84375 645.863281 295.070312 L 645.863281 302.398438 L 641.828125 302.398438 L 641.828125 287.070312 L 645.652344 287.070312 L 645.652344 289.742188 C 646.273438 288.71875 646.8125 288.023438 647.269531 287.648438 C 648.019531 287.019531 648.996094 286.703125 650.195312 286.703125 C 650.269531 286.703125 650.332031 286.707031 650.386719 286.710938 C 650.4375 286.714844 650.550781 286.722656 650.730469 286.734375 L 650.730469 290.839844 C 650.476562 290.8125 650.25 290.792969 650.054688 290.78125 C 649.859375 290.773438 649.699219 290.769531 649.578125 290.769531 Z M 373 280.222656 "/>
</g>
</svg>
