<?xml version="1.0" encoding="UTF-8"?>
<svg xmlns="http://www.w3.org/2000/svg" xmlns:xlink="http://www.w3.org/1999/xlink" width="1024pt" height="576pt" viewBox="0 0 1024 576" version="1.1">
<g id="surface67">
<rect x="0" y="0" width="1024" height="576" style="fill:rgb(12.54902%,10.196078%,13.72549%);fill-opacity:1;stroke:none;"/>
<path style=" stroke:none;fill-rule:nonzero;fill:rgb(100%,100%,100%);fill-opacity:1;" d="M 492.625 302.398438 L 483.695312 302.398438 L 483.695312 281.671875 L 492.625 281.671875 C 493.910156 281.691406 494.976562 281.839844 495.828125 282.121094 C 497.28125 282.597656 498.460938 283.476562 499.359375 284.75 C 500.082031 285.78125 500.574219 286.898438 500.835938 288.097656 C 501.097656 289.296875 501.230469 290.441406 501.230469 291.527344 C 501.230469 294.285156 500.675781 296.617188 499.570312 298.53125 C 498.070312 301.109375 495.753906 302.398438 492.625 302.398438 Z M 495.84375 286.957031 C 495.179688 285.832031 493.859375 285.269531 491.890625 285.269531 L 487.898438 285.269531 L 487.898438 298.796875 L 491.890625 298.796875 C 493.933594 298.796875 495.359375 297.789062 496.167969 295.773438 C 496.609375 294.667969 496.828125 293.351562 496.828125 291.824219 C 496.828125 289.714844 496.5 288.09375 495.84375 286.957031 Z M 512.21875 299.402344 C 513.238281 299.402344 514.070312 299.289062 514.707031 299.066406 C 515.914062 298.632812 516.519531 297.832031 516.519531 296.660156 C 516.519531 295.976562 516.21875 295.445312 515.621094 295.070312 C 515.019531 294.707031 514.078125 294.382812 512.792969 294.101562 L 510.601562 293.609375 C 508.445312 293.121094 506.953125 292.59375 506.128906 292.019531 C 504.730469 291.0625 504.03125 289.570312 504.03125 287.535156 C 504.03125 285.679688 504.707031 284.136719 506.058594 282.90625 C 507.40625 281.679688 509.390625 281.066406 512.007812 281.066406 C 514.191406 281.066406 516.054688 281.644531 517.597656 282.800781 C 519.140625 283.960938 519.945312 285.640625 520.023438 287.84375 L 515.859375 287.84375 C 515.785156 286.597656 515.242188 285.710938 514.226562 285.1875 C 513.550781 284.839844 512.714844 284.664062 511.710938 284.664062 C 510.59375 284.664062 509.703125 284.890625 509.039062 285.339844 C 508.375 285.789062 508.039062 286.417969 508.039062 287.226562 C 508.039062 287.964844 508.367188 288.519531 509.023438 288.882812 C 509.445312 289.128906 510.347656 289.414062 511.726562 289.742188 L 515.296875 290.601562 C 516.863281 290.976562 518.042969 291.476562 518.839844 292.105469 C 520.078125 293.078125 520.695312 294.492188 520.695312 296.335938 C 520.695312 298.230469 519.972656 299.804688 518.523438 301.054688 C 517.074219 302.308594 515.03125 302.933594 512.386719 302.933594 C 509.6875 302.933594 507.5625 302.316406 506.015625 301.082031 C 504.46875 299.851562 503.695312 298.15625 503.695312 296 L 507.828125 296 C 507.960938 296.945312 508.21875 297.65625 508.601562 298.125 C 509.304688 298.976562 510.511719 299.402344 512.21875 299.402344 Z M 532.496094 294.269531 L 528.023438 294.269531 L 528.023438 302.398438 L 523.792969 302.398438 L 523.792969 281.671875 L 533.960938 281.671875 C 535.414062 281.699219 536.53125 281.875 537.3125 282.203125 C 538.097656 282.53125 538.757812 283.015625 539.304688 283.652344 C 539.753906 284.179688 540.109375 284.757812 540.371094 285.398438 C 540.632812 286.035156 540.765625 286.761719 540.765625 287.578125 C 540.765625 288.5625 540.515625 289.527344 540.019531 290.480469 C 539.523438 291.433594 538.703125 292.105469 537.558594 292.5 C 538.515625 292.882812 539.191406 293.429688 539.589844 294.136719 C 539.988281 294.84375 540.1875 295.925781 540.1875 297.378906 L 540.1875 298.769531 C 540.1875 299.71875 540.226562 300.359375 540.300781 300.695312 C 540.414062 301.230469 540.675781 301.625 541.089844 301.878906 L 541.089844 302.398438 L 536.320312 302.398438 C 536.191406 301.9375 536.097656 301.570312 536.039062 301.289062 C 535.925781 300.707031 535.867188 300.109375 535.859375 299.5 L 535.828125 297.574219 C 535.808594 296.253906 535.570312 295.371094 535.105469 294.929688 C 534.640625 294.488281 533.773438 294.269531 532.496094 294.269531 Z M 535.125 290.5 C 535.988281 290.105469 536.421875 289.328125 536.421875 288.167969 C 536.421875 286.910156 536.003906 286.066406 535.167969 285.636719 C 534.699219 285.390625 533.996094 285.269531 533.058594 285.269531 L 528.023438 285.269531 L 528.023438 290.839844 L 532.933594 290.839844 C 533.90625 290.839844 534.640625 290.726562 535.125 290.5 Z M 481.5 280.222656 "/>
</g>
</svg>
