<?xml version="1.0" encoding="UTF-8"?>
<svg xmlns="http://www.w3.org/2000/svg" xmlns:xlink="http://www.w3.org/1999/xlink" width="1024pt" height="576pt" viewBox="0 0 1024 576" version="1.1">
<g id="surface54">
<rect x="0" y="0" width="1024" height="576" style="fill:rgb(52.941176%,59.215686%,69.803922%);fill-opacity:1;stroke:none;"/>
<path style=" stroke:none;fill-rule:nonzero;fill:rgb(100%,100%,100%);fill-opacity:1;" d="M 474.125 302.398438 L 465.195312 302.398438 L 465.195312 281.671875 L 474.125 281.671875 C 475.410156 281.691406 476.476562 281.839844 477.328125 282.121094 C 478.78125 282.597656 479.960938 283.476562 480.859375 284.75 C 481.582031 285.78125 482.074219 286.898438 482.335938 288.097656 C 482.597656 289.296875 482.730469 290.441406 482.730469 291.527344 C 482.730469 294.285156 482.175781 296.617188 481.070312 298.53125 C 479.570312 301.109375 477.253906 302.398438 474.125 302.398438 Z M 477.34375 286.957031 C 476.679688 285.832031 475.359375 285.269531 473.390625 285.269531 L 469.398438 285.269531 L 469.398438 298.796875 L 473.390625 298.796875 C 475.433594 298.796875 476.859375 297.789062 477.667969 295.773438 C 478.109375 294.667969 478.328125 293.351562 478.328125 291.824219 C 478.328125 289.714844 478 288.09375 477.34375 286.957031 Z M 489.992188 287.070312 L 489.992188 302.398438 L 485.925781 302.398438 L 485.925781 287.070312 Z M 489.992188 281.542969 L 489.992188 285.242188 L 485.925781 285.242188 L 485.925781 281.542969 Z M 498.203125 305.085938 C 498.632812 305.449219 499.359375 305.632812 500.382812 305.632812 C 501.824219 305.632812 502.789062 305.148438 503.277344 304.183594 C 503.597656 303.566406 503.757812 302.523438 503.757812 301.0625 L 503.757812 300.078125 C 503.371094 300.734375 502.960938 301.226562 502.519531 301.554688 C 501.722656 302.164062 500.6875 302.46875 499.410156 302.46875 C 497.441406 302.46875 495.871094 301.777344 494.691406 300.394531 C 493.515625 299.011719 492.929688 297.140625 492.929688 294.777344 C 492.929688 292.5 493.496094 290.582031 494.628906 289.03125 C 495.765625 287.480469 497.371094 286.703125 499.453125 286.703125 C 500.222656 286.703125 500.890625 286.820312 501.464844 287.054688 C 502.4375 287.457031 503.226562 288.199219 503.828125 289.277344 L 503.828125 287.070312 L 507.722656 287.070312 L 507.722656 301.609375 C 507.722656 303.589844 507.390625 305.078125 506.722656 306.082031 C 505.578125 307.808594 503.386719 308.671875 500.140625 308.671875 C 498.183594 308.671875 496.585938 308.285156 495.347656 307.515625 C 494.109375 306.746094 493.425781 305.601562 493.292969 304.070312 L 497.652344 304.070312 C 497.765625 304.539062 497.949219 304.878906 498.203125 305.085938 Z M 497.527344 297.167969 C 498.070312 298.460938 499.046875 299.109375 500.453125 299.109375 C 501.390625 299.109375 502.179688 298.753906 502.828125 298.046875 C 503.476562 297.339844 503.796875 296.210938 503.796875 294.664062 C 503.796875 293.210938 503.492188 292.105469 502.878906 291.34375 C 502.265625 290.585938 501.441406 290.207031 500.410156 290.207031 C 499.003906 290.207031 498.03125 290.867188 497.5 292.1875 C 497.21875 292.890625 497.078125 293.757812 497.078125 294.789062 C 497.078125 295.679688 497.226562 296.472656 497.527344 297.167969 Z M 515.992188 287.070312 L 515.992188 302.398438 L 511.925781 302.398438 L 511.925781 287.070312 Z M 515.992188 281.542969 L 515.992188 285.242188 L 511.925781 285.242188 L 511.925781 281.542969 Z M 528.996094 294.945312 L 524.59375 294.945312 L 524.59375 302.398438 L 520.292969 302.398438 L 520.292969 281.671875 L 529.320312 281.671875 C 531.402344 281.671875 533.0625 282.203125 534.296875 283.273438 C 535.535156 284.34375 536.15625 285.996094 536.15625 288.238281 C 536.15625 290.683594 535.535156 292.414062 534.296875 293.425781 C 533.058594 294.4375 531.292969 294.945312 528.996094 294.945312 Z M 531.023438 290.628906 C 531.585938 290.132812 531.867188 289.34375 531.867188 288.265625 C 531.867188 287.1875 531.582031 286.417969 531.015625 285.960938 C 530.449219 285.5 529.652344 285.269531 528.632812 285.269531 L 524.59375 285.269531 L 524.59375 291.375 L 528.632812 291.375 C 529.652344 291.375 530.449219 291.125 531.023438 290.628906 Z M 539.445312 288.730469 C 540.503906 287.378906 542.324219 286.703125 544.902344 286.703125 C 546.582031 286.703125 548.070312 287.039062 549.375 287.703125 C 550.679688 288.367188 551.328125 289.625 551.328125 291.472656 L 551.328125 298.503906 C 551.328125 298.992188 551.339844 299.582031 551.359375 300.273438 C 551.386719 300.800781 551.464844 301.15625 551.597656 301.34375 C 551.726562 301.53125 551.925781 301.6875 552.1875 301.808594 L 552.1875 302.398438 L 547.828125 302.398438 C 547.707031 302.089844 547.621094 301.796875 547.574219 301.527344 C 547.527344 301.253906 547.492188 300.945312 547.460938 300.597656 C 546.910156 301.199219 546.273438 301.710938 545.550781 302.132812 C 544.6875 302.628906 543.710938 302.875 542.625 302.875 C 541.238281 302.875 540.089844 302.480469 539.1875 301.6875 C 538.28125 300.894531 537.828125 299.773438 537.828125 298.320312 C 537.828125 296.4375 538.554688 295.070312 540.007812 294.226562 C 540.804688 293.769531 541.976562 293.441406 543.523438 293.242188 L 544.890625 293.074219 C 545.628906 292.980469 546.160156 292.863281 546.476562 292.722656 C 547.050781 292.480469 547.335938 292.101562 547.335938 291.585938 C 547.335938 290.957031 547.117188 290.523438 546.683594 290.285156 C 546.246094 290.046875 545.605469 289.925781 544.761719 289.925781 C 543.816406 289.925781 543.144531 290.160156 542.75 290.628906 C 542.46875 290.976562 542.28125 291.445312 542.1875 292.035156 L 538.320312 292.035156 C 538.40625 290.695312 538.78125 289.59375 539.445312 288.730469 Z M 542.429688 299.5 C 542.804688 299.808594 543.261719 299.964844 543.804688 299.964844 C 544.667969 299.964844 545.464844 299.710938 546.191406 299.207031 C 546.917969 298.699219 547.292969 297.777344 547.320312 296.4375 L 547.320312 294.945312 C 547.066406 295.105469 546.8125 295.234375 546.554688 295.332031 C 546.296875 295.429688 545.945312 295.523438 545.492188 295.605469 L 544.59375 295.773438 C 543.75 295.925781 543.144531 296.109375 542.78125 296.324219 C 542.160156 296.6875 541.851562 297.257812 541.851562 298.023438 C 541.851562 298.707031 542.042969 299.203125 542.429688 299.5 Z M 554.953125 281.671875 L 558.960938 281.671875 L 558.960938 302.398438 L 554.953125 302.398438 Z M 463 280.222656 "/>
</g>
</svg>
