<?xml version="1.0" encoding="UTF-8"?>
<svg xmlns="http://www.w3.org/2000/svg" xmlns:xlink="http://www.w3.org/1999/xlink" width="1024pt" height="576pt" viewBox="0 0 1024 576" version="1.1">
<g id="surface72">
<rect x="0" y="0" width="1024" height="576" style="fill:rgb(12.54902%,10.196078%,13.72549%);fill-opacity:1;stroke:none;"/>
<path style=" stroke:none;fill-rule:nonzero;fill:rgb(100%,100%,100%);fill-opacity:1;" d="M 485.125 302.398438 L 476.195312 302.398438 L 476.195312 281.671875 L 485.125 281.671875 C 486.410156 281.691406 487.476562 281.839844 488.328125 282.121094 C 489.78125 282.597656 490.960938 283.476562 491.859375 284.75 C 492.582031 285.78125 493.074219 286.898438 493.335938 288.097656 C 493.597656 289.296875 493.730469 290.441406 493.730469 291.527344 C 493.730469 294.285156 493.175781 296.617188 492.070312 298.53125 C 490.570312 301.109375 488.253906 302.398438 485.125 302.398438 Z M 488.34375 286.957031 C 487.679688 285.832031 486.359375 285.269531 484.390625 285.269531 L 480.398438 285.269531 L 480.398438 298.796875 L 484.390625 298.796875 C 486.433594 298.796875 487.859375 297.789062 488.667969 295.773438 C 489.109375 294.667969 489.328125 293.351562 489.328125 291.824219 C 489.328125 289.714844 489 288.09375 488.34375 286.957031 Z M 505.996094 294.269531 L 501.523438 294.269531 L 501.523438 302.398438 L 497.292969 302.398438 L 497.292969 281.671875 L 507.460938 281.671875 C 508.914062 281.699219 510.03125 281.875 510.8125 282.203125 C 511.597656 282.53125 512.257812 283.015625 512.804688 283.652344 C 513.253906 284.179688 513.609375 284.757812 513.871094 285.398438 C 514.132812 286.035156 514.265625 286.761719 514.265625 287.578125 C 514.265625 288.5625 514.015625 289.527344 513.519531 290.480469 C 513.023438 291.433594 512.203125 292.105469 511.058594 292.5 C 512.015625 292.882812 512.691406 293.429688 513.089844 294.136719 C 513.488281 294.84375 513.6875 295.925781 513.6875 297.378906 L 513.6875 298.769531 C 513.6875 299.71875 513.726562 300.359375 513.800781 300.695312 C 513.914062 301.230469 514.175781 301.625 514.589844 301.878906 L 514.589844 302.398438 L 509.820312 302.398438 C 509.691406 301.9375 509.597656 301.570312 509.539062 301.289062 C 509.425781 300.707031 509.367188 300.109375 509.359375 299.5 L 509.328125 297.574219 C 509.308594 296.253906 509.070312 295.371094 508.605469 294.929688 C 508.140625 294.488281 507.273438 294.269531 505.996094 294.269531 Z M 508.625 290.5 C 509.488281 290.105469 509.921875 289.328125 509.921875 288.167969 C 509.921875 286.910156 509.503906 286.066406 508.667969 285.636719 C 508.199219 285.390625 507.496094 285.269531 506.558594 285.269531 L 501.523438 285.269531 L 501.523438 290.839844 L 506.433594 290.839844 C 507.40625 290.839844 508.140625 290.726562 508.625 290.5 Z M 518.445312 288.730469 C 519.503906 287.378906 521.324219 286.703125 523.902344 286.703125 C 525.582031 286.703125 527.070312 287.039062 528.375 287.703125 C 529.679688 288.367188 530.328125 289.625 530.328125 291.472656 L 530.328125 298.503906 C 530.328125 298.992188 530.339844 299.582031 530.359375 300.273438 C 530.386719 300.800781 530.464844 301.15625 530.597656 301.34375 C 530.726562 301.53125 530.925781 301.6875 531.1875 301.808594 L 531.1875 302.398438 L 526.828125 302.398438 C 526.707031 302.089844 526.621094 301.796875 526.574219 301.527344 C 526.527344 301.253906 526.492188 300.945312 526.460938 300.597656 C 525.910156 301.199219 525.273438 301.710938 524.550781 302.132812 C 523.6875 302.628906 522.710938 302.875 521.625 302.875 C 520.238281 302.875 519.089844 302.480469 518.1875 301.6875 C 517.28125 300.894531 516.828125 299.773438 516.828125 298.320312 C 516.828125 296.4375 517.554688 295.070312 519.007812 294.226562 C 519.804688 293.769531 520.976562 293.441406 522.523438 293.242188 L 523.890625 293.074219 C 524.628906 292.980469 525.160156 292.863281 525.476562 292.722656 C 526.050781 292.480469 526.335938 292.101562 526.335938 291.585938 C 526.335938 290.957031 526.117188 290.523438 525.683594 290.285156 C 525.246094 290.046875 524.605469 289.925781 523.761719 289.925781 C 522.816406 289.925781 522.144531 290.160156 521.75 290.628906 C 521.46875 290.976562 521.28125 291.445312 521.1875 292.035156 L 517.320312 292.035156 C 517.40625 290.695312 517.78125 289.59375 518.445312 288.730469 Z M 521.429688 299.5 C 521.804688 299.808594 522.261719 299.964844 522.804688 299.964844 C 523.667969 299.964844 524.464844 299.710938 525.191406 299.207031 C 525.917969 298.699219 526.292969 297.777344 526.320312 296.4375 L 526.320312 294.945312 C 526.066406 295.105469 525.8125 295.234375 525.554688 295.332031 C 525.296875 295.429688 524.945312 295.523438 524.492188 295.605469 L 523.59375 295.773438 C 522.75 295.925781 522.144531 296.109375 521.78125 296.324219 C 521.160156 296.6875 520.851562 297.257812 520.851562 298.023438 C 520.851562 298.707031 521.042969 299.203125 521.429688 299.5 Z M 534.195312 281.671875 L 538.523438 281.671875 L 538.523438 298.671875 L 548.789062 298.671875 L 548.789062 302.398438 L 534.195312 302.398438 Z M 474 280.222656 "/>
</g>
</svg>
