<?xml version="1.0" encoding="UTF-8"?>
<svg xmlns="http://www.w3.org/2000/svg" xmlns:xlink="http://www.w3.org/1999/xlink" width="1024pt" height="576pt" viewBox="0 0 1024 576" version="1.1">
<g id="surface77">
<rect x="0" y="0" width="1024" height="576" style="fill:rgb(79.607843%,56.470588%,30.196078%);fill-opacity:1;stroke:none;"/>
<path style=" stroke:none;fill-rule:nonzero;fill:rgb(100%,100%,100%);fill-opacity:1;" d="M 454.121094 293.34375 L 444.054688 293.34375 L 444.054688 298.671875 L 455.527344 298.671875 L 455.527344 302.398438 L 439.820312 302.398438 L 439.820312 281.671875 L 455.023438 281.671875 L 455.023438 285.339844 L 444.054688 285.339844 L 444.054688 289.742188 L 454.121094 289.742188 Z M 462.703125 305.085938 C 463.132812 305.449219 463.859375 305.632812 464.882812 305.632812 C 466.324219 305.632812 467.289062 305.148438 467.777344 304.183594 C 468.097656 303.566406 468.257812 302.523438 468.257812 301.0625 L 468.257812 300.078125 C 467.871094 300.734375 467.460938 301.226562 467.019531 301.554688 C 466.222656 302.164062 465.1875 302.46875 463.910156 302.46875 C 461.941406 302.46875 460.371094 301.777344 459.191406 300.394531 C 458.015625 299.011719 457.429688 297.140625 457.429688 294.777344 C 457.429688 292.5 457.996094 290.582031 459.128906 289.03125 C 460.265625 287.480469 461.871094 286.703125 463.953125 286.703125 C 464.722656 286.703125 465.390625 286.820312 465.964844 287.054688 C 466.9375 287.457031 467.726562 288.199219 468.328125 289.277344 L 468.328125 287.070312 L 472.222656 287.070312 L 472.222656 301.609375 C 472.222656 303.589844 471.890625 305.078125 471.222656 306.082031 C 470.078125 307.808594 467.886719 308.671875 464.640625 308.671875 C 462.683594 308.671875 461.085938 308.285156 459.847656 307.515625 C 458.609375 306.746094 457.925781 305.601562 457.792969 304.070312 L 462.152344 304.070312 C 462.265625 304.539062 462.449219 304.878906 462.703125 305.085938 Z M 462.027344 297.167969 C 462.570312 298.460938 463.546875 299.109375 464.953125 299.109375 C 465.890625 299.109375 466.679688 298.753906 467.328125 298.046875 C 467.976562 297.339844 468.296875 296.210938 468.296875 294.664062 C 468.296875 293.210938 467.992188 292.105469 467.378906 291.34375 C 466.765625 290.585938 465.941406 290.207031 464.910156 290.207031 C 463.503906 290.207031 462.53125 290.867188 462 292.1875 C 461.71875 292.890625 461.578125 293.757812 461.578125 294.789062 C 461.578125 295.679688 461.726562 296.472656 462.027344 297.167969 Z M 489.152344 289.011719 C 490.445312 290.632812 491.09375 292.550781 491.09375 294.761719 C 491.09375 297.011719 490.445312 298.9375 489.152344 300.535156 C 487.859375 302.132812 485.894531 302.933594 483.261719 302.933594 C 480.625 302.933594 478.664062 302.132812 477.367188 300.535156 C 476.074219 298.9375 475.429688 297.011719 475.429688 294.761719 C 475.429688 292.550781 476.074219 290.632812 477.367188 289.011719 C 478.660156 287.390625 480.625 286.578125 483.261719 286.578125 C 485.894531 286.578125 487.859375 287.390625 489.152344 289.011719 Z M 483.246094 289.96875 C 482.074219 289.96875 481.171875 290.382812 480.539062 291.210938 C 479.90625 292.042969 479.589844 293.226562 479.589844 294.761719 C 479.589844 296.300781 479.90625 297.484375 480.539062 298.320312 C 481.171875 299.15625 482.074219 299.570312 483.246094 299.570312 C 484.417969 299.570312 485.320312 299.15625 485.945312 298.320312 C 486.574219 297.484375 486.890625 296.300781 486.890625 294.761719 C 486.890625 293.226562 486.574219 292.042969 485.945312 291.210938 C 485.316406 290.382812 484.417969 289.96875 483.246094 289.96875 Z M 493.160156 292.46875 L 501.234375 292.46875 L 501.234375 296.265625 L 493.160156 296.265625 Z M 512.976562 291.289062 C 512.640625 290.546875 511.976562 290.179688 510.992188 290.179688 C 509.847656 290.179688 509.082031 290.546875 508.6875 291.289062 C 508.472656 291.710938 508.363281 292.339844 508.363281 293.171875 L 508.363281 302.398438 L 504.300781 302.398438 L 504.300781 287.097656 L 508.195312 287.097656 L 508.195312 289.335938 C 508.691406 288.539062 509.160156 287.96875 509.601562 287.632812 C 510.378906 287.03125 511.386719 286.734375 512.625 286.734375 C 513.796875 286.734375 514.742188 286.992188 515.464844 287.507812 C 516.046875 287.984375 516.488281 288.597656 516.789062 289.347656 C 517.3125 288.449219 517.964844 287.789062 518.742188 287.367188 C 519.566406 286.945312 520.484375 286.734375 521.5 286.734375 C 522.175781 286.734375 522.839844 286.863281 523.496094 287.125 C 524.152344 287.386719 524.746094 287.847656 525.28125 288.503906 C 525.710938 289.039062 526.003906 289.695312 526.152344 290.472656 C 526.246094 290.988281 526.292969 291.742188 526.292969 292.738281 L 526.265625 302.398438 L 522.160156 302.398438 L 522.160156 292.640625 C 522.160156 292.058594 522.066406 291.578125 521.878906 291.203125 C 521.523438 290.492188 520.867188 290.136719 519.910156 290.136719 C 518.804688 290.136719 518.039062 290.59375 517.617188 291.515625 C 517.402344 292.003906 517.292969 292.585938 517.292969 293.273438 L 517.292969 302.398438 L 513.257812 302.398438 L 513.257812 293.273438 C 513.257812 292.363281 513.164062 291.703125 512.976562 291.289062 Z M 543.492188 297.898438 C 543.386719 298.808594 542.914062 299.730469 542.070312 300.667969 C 540.757812 302.160156 538.921875 302.90625 536.558594 302.90625 C 534.609375 302.90625 532.886719 302.277344 531.398438 301.019531 C 529.90625 299.765625 529.160156 297.71875 529.160156 294.890625 C 529.160156 292.238281 529.832031 290.203125 531.179688 288.785156 C 532.523438 287.371094 534.269531 286.664062 536.417969 286.664062 C 537.691406 286.664062 538.839844 286.902344 539.863281 287.378906 C 540.882812 287.859375 541.726562 288.613281 542.394531 289.644531 C 542.992188 290.554688 543.382812 291.609375 543.5625 292.808594 C 543.664062 293.511719 543.707031 294.523438 543.6875 295.84375 L 533.195312 295.84375 C 533.253906 297.382812 533.734375 298.460938 534.644531 299.078125 C 535.199219 299.464844 535.863281 299.65625 536.640625 299.65625 C 537.464844 299.65625 538.136719 299.421875 538.652344 298.953125 C 538.933594 298.699219 539.183594 298.347656 539.398438 297.898438 Z M 539.523438 293.203125 C 539.457031 292.144531 539.136719 291.339844 538.5625 290.789062 C 537.984375 290.242188 537.269531 289.96875 536.417969 289.96875 C 535.488281 289.96875 534.769531 290.257812 534.257812 290.839844 C 533.746094 291.421875 533.425781 292.207031 533.296875 293.203125 Z M 560.320312 281.699219 L 560.320312 302.398438 L 556.425781 302.398438 L 556.425781 300.273438 C 555.851562 301.183594 555.203125 301.84375 554.46875 302.257812 C 553.738281 302.671875 552.828125 302.875 551.742188 302.875 C 549.953125 302.875 548.445312 302.152344 547.222656 300.703125 C 546 299.253906 545.386719 297.398438 545.386719 295.128906 C 545.386719 292.511719 545.988281 290.453125 547.191406 288.953125 C 548.398438 287.453125 550.007812 286.703125 552.023438 286.703125 C 552.953125 286.703125 553.777344 286.910156 554.5 287.316406 C 555.222656 287.722656 555.804688 288.289062 556.257812 289.011719 L 556.257812 281.699219 Z M 549.519531 294.832031 C 549.519531 296.25 549.800781 297.378906 550.363281 298.222656 C 550.917969 299.074219 551.761719 299.5 552.894531 299.5 C 554.03125 299.5 554.890625 299.078125 555.484375 298.234375 C 556.074219 297.390625 556.367188 296.300781 556.367188 294.960938 C 556.367188 293.085938 555.894531 291.742188 554.949219 290.9375 C 554.367188 290.449219 553.691406 290.207031 552.921875 290.207031 C 551.75 290.207031 550.890625 290.648438 550.34375 291.535156 C 549.792969 292.421875 549.519531 293.519531 549.519531 294.832031 Z M 568.492188 287.070312 L 568.492188 302.398438 L 564.425781 302.398438 L 564.425781 287.070312 Z M 568.492188 281.542969 L 568.492188 285.242188 L 564.425781 285.242188 L 564.425781 281.542969 Z M 572.945312 288.730469 C 574.003906 287.378906 575.824219 286.703125 578.402344 286.703125 C 580.082031 286.703125 581.570312 287.039062 582.875 287.703125 C 584.179688 288.367188 584.828125 289.625 584.828125 291.472656 L 584.828125 298.503906 C 584.828125 298.992188 584.839844 299.582031 584.859375 300.273438 C 584.886719 300.800781 584.964844 301.15625 585.097656 301.34375 C 585.226562 301.53125 585.425781 301.6875 585.6875 301.808594 L 585.6875 302.398438 L 581.328125 302.398438 C 581.207031 302.089844 581.121094 301.796875 581.074219 301.527344 C 581.027344 301.253906 580.992188 300.945312 580.960938 300.597656 C 580.410156 301.199219 579.773438 301.710938 579.050781 302.132812 C 578.1875 302.628906 577.210938 302.875 576.125 302.875 C 574.738281 302.875 573.589844 302.480469 572.6875 301.6875 C 571.78125 300.894531 571.328125 299.773438 571.328125 298.320312 C 571.328125 296.4375 572.054688 295.070312 573.507812 294.226562 C 574.304688 293.769531 575.476562 293.441406 577.023438 293.242188 L 578.390625 293.074219 C 579.128906 292.980469 579.660156 292.863281 579.976562 292.722656 C 580.550781 292.480469 580.835938 292.101562 580.835938 291.585938 C 580.835938 290.957031 580.617188 290.523438 580.183594 290.285156 C 579.746094 290.046875 579.105469 289.925781 578.261719 289.925781 C 577.316406 289.925781 576.644531 290.160156 576.25 290.628906 C 575.96875 290.976562 575.78125 291.445312 575.6875 292.035156 L 571.820312 292.035156 C 571.90625 290.695312 572.28125 289.59375 572.945312 288.730469 Z M 575.929688 299.5 C 576.304688 299.808594 576.761719 299.964844 577.304688 299.964844 C 578.167969 299.964844 578.964844 299.710938 579.691406 299.207031 C 580.417969 298.699219 580.792969 297.777344 580.820312 296.4375 L 580.820312 294.945312 C 580.566406 295.105469 580.3125 295.234375 580.054688 295.332031 C 579.796875 295.429688 579.445312 295.523438 578.992188 295.605469 L 578.09375 295.773438 C 577.25 295.925781 576.644531 296.109375 576.28125 296.324219 C 575.660156 296.6875 575.351562 297.257812 575.351562 298.023438 C 575.351562 298.707031 575.542969 299.203125 575.929688 299.5 Z M 437.5 280.222656 "/>
</g>
</svg>
