<?xml version="1.0" encoding="UTF-8"?>
<svg xmlns="http://www.w3.org/2000/svg" xmlns:xlink="http://www.w3.org/1999/xlink" width="1024pt" height="576pt" viewBox="0 0 1024 576" version="1.1">
<g id="surface87">
<rect x="0" y="0" width="1024" height="576" style="fill:rgb(12.54902%,10.196078%,13.72549%);fill-opacity:1;stroke:none;"/>
<path style=" stroke:none;fill-rule:nonzero;fill:rgb(100%,100%,100%);fill-opacity:1;" d="M 481.121094 293.34375 L 471.054688 293.34375 L 471.054688 298.671875 L 482.527344 298.671875 L 482.527344 302.398438 L 466.820312 302.398438 L 466.820312 281.671875 L 482.023438 281.671875 L 482.023438 285.339844 L 471.054688 285.339844 L 471.054688 289.742188 L 481.121094 289.742188 Z M 494.496094 294.945312 L 490.09375 294.945312 L 490.09375 302.398438 L 485.792969 302.398438 L 485.792969 281.671875 L 494.820312 281.671875 C 496.902344 281.671875 498.5625 282.203125 499.796875 283.273438 C 501.035156 284.34375 501.65625 285.996094 501.65625 288.238281 C 501.65625 290.683594 501.035156 292.414062 499.796875 293.425781 C 498.558594 294.4375 496.792969 294.945312 494.496094 294.945312 Z M 496.523438 290.628906 C 497.085938 290.132812 497.367188 289.34375 497.367188 288.265625 C 497.367188 287.1875 497.082031 286.417969 496.515625 285.960938 C 495.949219 285.5 495.152344 285.269531 494.132812 285.269531 L 490.09375 285.269531 L 490.09375 291.375 L 494.132812 291.375 C 495.152344 291.375 495.949219 291.125 496.523438 290.628906 Z M 514.828125 298.136719 L 507.195312 298.136719 L 505.757812 302.398438 L 501.230469 302.398438 L 508.628906 281.671875 L 513.523438 281.671875 L 520.863281 302.398438 L 516.164062 302.398438 Z M 513.621094 294.566406 L 511.03125 286.410156 L 508.359375 294.566406 Z M 532.496094 294.945312 L 528.09375 294.945312 L 528.09375 302.398438 L 523.792969 302.398438 L 523.792969 281.671875 L 532.820312 281.671875 C 534.902344 281.671875 536.5625 282.203125 537.796875 283.273438 C 539.035156 284.34375 539.65625 285.996094 539.65625 288.238281 C 539.65625 290.683594 539.035156 292.414062 537.796875 293.425781 C 536.558594 294.4375 534.792969 294.945312 532.496094 294.945312 Z M 534.523438 290.628906 C 535.085938 290.132812 535.367188 289.34375 535.367188 288.265625 C 535.367188 287.1875 535.082031 286.417969 534.515625 285.960938 C 533.949219 285.5 533.152344 285.269531 532.132812 285.269531 L 528.09375 285.269531 L 528.09375 291.375 L 532.132812 291.375 C 533.152344 291.375 533.949219 291.125 534.523438 290.628906 Z M 551.496094 294.945312 L 547.09375 294.945312 L 547.09375 302.398438 L 542.792969 302.398438 L 542.792969 281.671875 L 551.820312 281.671875 C 553.902344 281.671875 555.5625 282.203125 556.796875 283.273438 C 558.035156 284.34375 558.65625 285.996094 558.65625 288.238281 C 558.65625 290.683594 558.035156 292.414062 556.796875 293.425781 C 555.558594 294.4375 553.792969 294.945312 551.496094 294.945312 Z M 553.523438 290.628906 C 554.085938 290.132812 554.367188 289.34375 554.367188 288.265625 C 554.367188 287.1875 554.082031 286.417969 553.515625 285.960938 C 552.949219 285.5 552.152344 285.269531 551.132812 285.269531 L 547.09375 285.269531 L 547.09375 291.375 L 551.132812 291.375 C 552.152344 291.375 552.949219 291.125 553.523438 290.628906 Z M 464.5 280.222656 "/>
</g>
</svg>
