<?xml version="1.0" encoding="UTF-8"?>
<svg xmlns="http://www.w3.org/2000/svg" xmlns:xlink="http://www.w3.org/1999/xlink" width="1024pt" height="576pt" viewBox="0 0 1024 576" version="1.1">
<g id="surface98">
<rect x="0" y="0" width="1024" height="576" style="fill:rgb(12.54902%,10.196078%,13.72549%);fill-opacity:1;stroke:none;"/>
<path style=" stroke:none;fill-rule:nonzero;fill:rgb(100%,100%,100%);fill-opacity:1;" d="M 415.621094 293.34375 L 405.554688 293.34375 L 405.554688 298.671875 L 417.027344 298.671875 L 417.027344 302.398438 L 401.320312 302.398438 L 401.320312 281.671875 L 416.523438 281.671875 L 416.523438 285.339844 L 405.554688 285.339844 L 405.554688 289.742188 L 415.621094 289.742188 Z M 433.523438 302.398438 L 428.53125 302.398438 L 425.890625 297.800781 L 423.230469 302.398438 L 418.367188 302.398438 L 423.597656 294.636719 L 418.589844 287.097656 L 423.5 287.097656 L 426.058594 291.542969 L 428.5625 287.097656 L 433.328125 287.097656 L 428.292969 294.566406 Z M 448.652344 289.011719 C 449.945312 290.632812 450.59375 292.550781 450.59375 294.761719 C 450.59375 297.011719 449.945312 298.9375 448.652344 300.535156 C 447.359375 302.132812 445.394531 302.933594 442.761719 302.933594 C 440.125 302.933594 438.164062 302.132812 436.867188 300.535156 C 435.574219 298.9375 434.929688 297.011719 434.929688 294.761719 C 434.929688 292.550781 435.574219 290.632812 436.867188 289.011719 C 438.160156 287.390625 440.125 286.578125 442.761719 286.578125 C 445.394531 286.578125 447.359375 287.390625 448.652344 289.011719 Z M 442.746094 289.96875 C 441.574219 289.96875 440.671875 290.382812 440.039062 291.210938 C 439.40625 292.042969 439.089844 293.226562 439.089844 294.761719 C 439.089844 296.300781 439.40625 297.484375 440.039062 298.320312 C 440.671875 299.15625 441.574219 299.570312 442.746094 299.570312 C 443.917969 299.570312 444.820312 299.15625 445.445312 298.320312 C 446.074219 297.484375 446.390625 296.300781 446.390625 294.761719 C 446.390625 293.226562 446.074219 292.042969 445.445312 291.210938 C 444.816406 290.382812 443.917969 289.96875 442.746094 289.96875 Z M 461.085938 290.039062 C 459.726562 290.039062 458.792969 290.613281 458.285156 291.765625 C 458.023438 292.375 457.890625 293.15625 457.890625 294.101562 L 457.890625 302.398438 L 453.898438 302.398438 L 453.898438 287.097656 L 457.765625 287.097656 L 457.765625 289.335938 C 458.28125 288.546875 458.769531 287.980469 459.226562 287.632812 C 460.050781 287.015625 461.097656 286.703125 462.363281 286.703125 C 463.949219 286.703125 465.246094 287.121094 466.253906 287.949219 C 467.261719 288.777344 467.765625 290.15625 467.765625 292.078125 L 467.765625 302.398438 L 463.65625 302.398438 L 463.65625 293.074219 C 463.65625 292.269531 463.550781 291.648438 463.335938 291.21875 C 462.941406 290.429688 462.191406 290.039062 461.085938 290.039062 Z M 489.125 302.398438 L 480.195312 302.398438 L 480.195312 281.671875 L 489.125 281.671875 C 490.410156 281.691406 491.476562 281.839844 492.328125 282.121094 C 493.78125 282.597656 494.960938 283.476562 495.859375 284.75 C 496.582031 285.78125 497.074219 286.898438 497.335938 288.097656 C 497.597656 289.296875 497.730469 290.441406 497.730469 291.527344 C 497.730469 294.285156 497.175781 296.617188 496.070312 298.53125 C 494.570312 301.109375 492.253906 302.398438 489.125 302.398438 Z M 492.34375 286.957031 C 491.679688 285.832031 490.359375 285.269531 488.390625 285.269531 L 484.398438 285.269531 L 484.398438 298.796875 L 488.390625 298.796875 C 490.433594 298.796875 491.859375 297.789062 492.667969 295.773438 C 493.109375 294.667969 493.328125 293.351562 493.328125 291.824219 C 493.328125 289.714844 493 288.09375 492.34375 286.957031 Z M 513.652344 289.011719 C 514.945312 290.632812 515.59375 292.550781 515.59375 294.761719 C 515.59375 297.011719 514.945312 298.9375 513.652344 300.535156 C 512.359375 302.132812 510.394531 302.933594 507.761719 302.933594 C 505.125 302.933594 503.164062 302.132812 501.867188 300.535156 C 500.574219 298.9375 499.929688 297.011719 499.929688 294.761719 C 499.929688 292.550781 500.574219 290.632812 501.867188 289.011719 C 503.160156 287.390625 505.125 286.578125 507.761719 286.578125 C 510.394531 286.578125 512.359375 287.390625 513.652344 289.011719 Z M 507.746094 289.96875 C 506.574219 289.96875 505.671875 290.382812 505.039062 291.210938 C 504.40625 292.042969 504.089844 293.226562 504.089844 294.761719 C 504.089844 296.300781 504.40625 297.484375 505.039062 298.320312 C 505.671875 299.15625 506.574219 299.570312 507.746094 299.570312 C 508.917969 299.570312 509.820312 299.15625 510.445312 298.320312 C 511.074219 297.484375 511.390625 296.300781 511.390625 294.761719 C 511.390625 293.226562 511.074219 292.042969 510.445312 291.210938 C 509.816406 290.382812 508.917969 289.96875 507.746094 289.96875 Z M 527.476562 291.289062 C 527.140625 290.546875 526.476562 290.179688 525.492188 290.179688 C 524.347656 290.179688 523.582031 290.546875 523.1875 291.289062 C 522.972656 291.710938 522.863281 292.339844 522.863281 293.171875 L 522.863281 302.398438 L 518.800781 302.398438 L 518.800781 287.097656 L 522.695312 287.097656 L 522.695312 289.335938 C 523.191406 288.539062 523.660156 287.96875 524.101562 287.632812 C 524.878906 287.03125 525.886719 286.734375 527.125 286.734375 C 528.296875 286.734375 529.242188 286.992188 529.964844 287.507812 C 530.546875 287.984375 530.988281 288.597656 531.289062 289.347656 C 531.8125 288.449219 532.464844 287.789062 533.242188 287.367188 C 534.066406 286.945312 534.984375 286.734375 536 286.734375 C 536.675781 286.734375 537.339844 286.863281 537.996094 287.125 C 538.652344 287.386719 539.246094 287.847656 539.78125 288.503906 C 540.210938 289.039062 540.503906 289.695312 540.652344 290.472656 C 540.746094 290.988281 540.792969 291.742188 540.792969 292.738281 L 540.765625 302.398438 L 536.660156 302.398438 L 536.660156 292.640625 C 536.660156 292.058594 536.566406 291.578125 536.378906 291.203125 C 536.023438 290.492188 535.367188 290.136719 534.410156 290.136719 C 533.304688 290.136719 532.539062 290.59375 532.117188 291.515625 C 531.902344 292.003906 531.792969 292.585938 531.792969 293.273438 L 531.792969 302.398438 L 527.757812 302.398438 L 527.757812 293.273438 C 527.757812 292.363281 527.664062 291.703125 527.476562 291.289062 Z M 557.992188 297.898438 C 557.886719 298.808594 557.414062 299.730469 556.570312 300.667969 C 555.257812 302.160156 553.421875 302.90625 551.058594 302.90625 C 549.109375 302.90625 547.386719 302.277344 545.898438 301.019531 C 544.40625 299.765625 543.660156 297.71875 543.660156 294.890625 C 543.660156 292.238281 544.332031 290.203125 545.679688 288.785156 C 547.023438 287.371094 548.769531 286.664062 550.917969 286.664062 C 552.191406 286.664062 553.339844 286.902344 554.363281 287.378906 C 555.382812 287.859375 556.226562 288.613281 556.894531 289.644531 C 557.492188 290.554688 557.882812 291.609375 558.0625 292.808594 C 558.164062 293.511719 558.207031 294.523438 558.1875 295.84375 L 547.695312 295.84375 C 547.753906 297.382812 548.234375 298.460938 549.144531 299.078125 C 549.699219 299.464844 550.363281 299.65625 551.140625 299.65625 C 551.964844 299.65625 552.636719 299.421875 553.152344 298.953125 C 553.433594 298.699219 553.683594 298.347656 553.898438 297.898438 Z M 554.023438 293.203125 C 553.957031 292.144531 553.636719 291.339844 553.0625 290.789062 C 552.484375 290.242188 551.769531 289.96875 550.917969 289.96875 C 549.988281 289.96875 549.269531 290.257812 548.757812 290.839844 C 548.246094 291.421875 547.925781 292.207031 547.796875 293.203125 Z M 571.429688 287.773438 C 572.628906 288.542969 573.320312 289.863281 573.5 291.738281 L 569.492188 291.738281 C 569.433594 291.222656 569.289062 290.816406 569.054688 290.515625 C 568.613281 289.972656 567.863281 289.699219 566.804688 289.699219 C 565.933594 289.699219 565.3125 289.835938 564.941406 290.109375 C 564.570312 290.378906 564.386719 290.699219 564.386719 291.0625 C 564.386719 291.523438 564.582031 291.855469 564.976562 292.0625 C 565.371094 292.277344 566.761719 292.648438 569.152344 293.171875 C 570.746094 293.546875 571.941406 294.117188 572.738281 294.875 C 573.527344 295.644531 573.921875 296.605469 573.921875 297.757812 C 573.921875 299.277344 573.355469 300.515625 572.226562 301.476562 C 571.097656 302.4375 569.351562 302.917969 566.988281 302.917969 C 564.578125 302.917969 562.800781 302.410156 561.652344 301.394531 C 560.503906 300.375 559.929688 299.078125 559.929688 297.503906 L 563.992188 297.503906 C 564.078125 298.21875 564.257812 298.722656 564.539062 299.023438 C 565.035156 299.558594 565.957031 299.824219 567.296875 299.824219 C 568.085938 299.824219 568.710938 299.707031 569.175781 299.472656 C 569.640625 299.238281 569.871094 298.886719 569.871094 298.417969 C 569.871094 297.96875 569.683594 297.625 569.308594 297.390625 C 568.933594 297.15625 567.539062 296.753906 565.132812 296.183594 C 563.398438 295.75 562.171875 295.210938 561.460938 294.566406 C 560.75 293.929688 560.390625 293.007812 560.390625 291.808594 C 560.390625 290.394531 560.949219 289.175781 562.058594 288.160156 C 563.167969 287.144531 564.734375 286.632812 566.75 286.632812 C 568.660156 286.632812 570.222656 287.015625 571.429688 287.773438 Z M 590.820312 281.699219 L 590.820312 302.398438 L 586.925781 302.398438 L 586.925781 300.273438 C 586.351562 301.183594 585.703125 301.84375 584.96875 302.257812 C 584.238281 302.671875 583.328125 302.875 582.242188 302.875 C 580.453125 302.875 578.945312 302.152344 577.722656 300.703125 C 576.5 299.253906 575.886719 297.398438 575.886719 295.128906 C 575.886719 292.511719 576.488281 290.453125 577.691406 288.953125 C 578.898438 287.453125 580.507812 286.703125 582.523438 286.703125 C 583.453125 286.703125 584.277344 286.910156 585 287.316406 C 585.722656 287.722656 586.304688 288.289062 586.757812 289.011719 L 586.757812 281.699219 Z M 580.019531 294.832031 C 580.019531 296.25 580.300781 297.378906 580.863281 298.222656 C 581.417969 299.074219 582.261719 299.5 583.394531 299.5 C 584.53125 299.5 585.390625 299.078125 585.984375 298.234375 C 586.574219 297.390625 586.867188 296.300781 586.867188 294.960938 C 586.867188 293.085938 586.394531 291.742188 585.449219 290.9375 C 584.867188 290.449219 584.191406 290.207031 583.421875 290.207031 C 582.25 290.207031 581.390625 290.648438 580.84375 291.535156 C 580.292969 292.421875 580.019531 293.519531 580.019531 294.832031 Z M 595.445312 288.730469 C 596.503906 287.378906 598.324219 286.703125 600.902344 286.703125 C 602.582031 286.703125 604.070312 287.039062 605.375 287.703125 C 606.679688 288.367188 607.328125 289.625 607.328125 291.472656 L 607.328125 298.503906 C 607.328125 298.992188 607.339844 299.582031 607.359375 300.273438 C 607.386719 300.800781 607.464844 301.15625 607.597656 301.34375 C 607.726562 301.53125 607.925781 301.6875 608.1875 301.808594 L 608.1875 302.398438 L 603.828125 302.398438 C 603.707031 302.089844 603.621094 301.796875 603.574219 301.527344 C 603.527344 301.253906 603.492188 300.945312 603.460938 300.597656 C 602.910156 301.199219 602.273438 301.710938 601.550781 302.132812 C 600.6875 302.628906 599.710938 302.875 598.625 302.875 C 597.238281 302.875 596.089844 302.480469 595.1875 301.6875 C 594.28125 300.894531 593.828125 299.773438 593.828125 298.320312 C 593.828125 296.4375 594.554688 295.070312 596.007812 294.226562 C 596.804688 293.769531 597.976562 293.441406 599.523438 293.242188 L 600.890625 293.074219 C 601.628906 292.980469 602.160156 292.863281 602.476562 292.722656 C 603.050781 292.480469 603.335938 292.101562 603.335938 291.585938 C 603.335938 290.957031 603.117188 290.523438 602.683594 290.285156 C 602.246094 290.046875 601.605469 289.925781 600.761719 289.925781 C 599.816406 289.925781 599.144531 290.160156 598.75 290.628906 C 598.46875 290.976562 598.28125 291.445312 598.1875 292.035156 L 594.320312 292.035156 C 594.40625 290.695312 594.78125 289.59375 595.445312 288.730469 Z M 598.429688 299.5 C 598.804688 299.808594 599.261719 299.964844 599.804688 299.964844 C 600.667969 299.964844 601.464844 299.710938 602.191406 299.207031 C 602.917969 298.699219 603.292969 297.777344 603.320312 296.4375 L 603.320312 294.945312 C 603.066406 295.105469 602.8125 295.234375 602.554688 295.332031 C 602.296875 295.429688 601.945312 295.523438 601.492188 295.605469 L 600.59375 295.773438 C 599.75 295.925781 599.144531 296.109375 598.78125 296.324219 C 598.160156 296.6875 597.851562 297.257812 597.851562 298.023438 C 597.851562 298.707031 598.042969 299.203125 598.429688 299.5 Z M 617.101562 298.375 L 620.265625 287.070312 L 624.523438 287.070312 L 619.265625 302.144531 C 618.253906 305.050781 617.453125 306.855469 616.859375 307.550781 C 616.269531 308.25 615.089844 308.601562 613.316406 308.601562 C 612.960938 308.601562 612.675781 308.597656 612.460938 308.59375 C 612.246094 308.589844 611.921875 308.570312 611.488281 308.542969 L 611.488281 305.335938 L 611.996094 305.367188 C 612.390625 305.386719 612.765625 305.371094 613.121094 305.324219 C 613.476562 305.277344 613.777344 305.167969 614.019531 305 C 614.253906 304.839844 614.472656 304.507812 614.675781 304 C 614.875 303.496094 614.957031 303.1875 614.921875 303.074219 L 609.296875 287.070312 L 613.753906 287.070312 Z M 399 280.222656 "/>
</g>
</svg>
