<?xml version="1.0" encoding="UTF-8"?>
<svg xmlns="http://www.w3.org/2000/svg" xmlns:xlink="http://www.w3.org/1999/xlink" width="1024pt" height="576pt" viewBox="0 0 1024 576" version="1.1">
<g id="surface104">
<rect x="0" y="0" width="1024" height="576" style="fill:rgb(36.470588%,43.921569%,49.803922%);fill-opacity:1;stroke:none;"/>
<path style=" stroke:none;fill-rule:nonzero;fill:rgb(100%,100%,100%);fill-opacity:1;" d="M 486.890625 285.339844 L 476.496094 285.339844 L 476.496094 290.109375 L 485.59375 290.109375 L 485.59375 293.707031 L 476.496094 293.707031 L 476.496094 302.398438 L 472.195312 302.398438 L 472.195312 281.699219 L 486.890625 281.699219 Z M 489.855469 281.671875 L 494.160156 281.671875 L 494.160156 302.398438 L 489.855469 302.398438 Z M 512.621094 293.34375 L 502.554688 293.34375 L 502.554688 298.671875 L 514.027344 298.671875 L 514.027344 302.398438 L 498.320312 302.398438 L 498.320312 281.671875 L 513.523438 281.671875 L 513.523438 285.339844 L 502.554688 285.339844 L 502.554688 289.742188 L 512.621094 289.742188 Z M 517.195312 281.671875 L 521.523438 281.671875 L 521.523438 298.671875 L 531.789062 298.671875 L 531.789062 302.398438 L 517.195312 302.398438 Z M 544.125 302.398438 L 535.195312 302.398438 L 535.195312 281.671875 L 544.125 281.671875 C 545.410156 281.691406 546.476562 281.839844 547.328125 282.121094 C 548.78125 282.597656 549.960938 283.476562 550.859375 284.75 C 551.582031 285.78125 552.074219 286.898438 552.335938 288.097656 C 552.597656 289.296875 552.730469 290.441406 552.730469 291.527344 C 552.730469 294.285156 552.175781 296.617188 551.070312 298.53125 C 549.570312 301.109375 547.253906 302.398438 544.125 302.398438 Z M 547.34375 286.957031 C 546.679688 285.832031 545.359375 285.269531 543.390625 285.269531 L 539.398438 285.269531 L 539.398438 298.796875 L 543.390625 298.796875 C 545.433594 298.796875 546.859375 297.789062 547.667969 295.773438 C 548.109375 294.667969 548.328125 293.351562 548.328125 291.824219 C 548.328125 289.714844 548 288.09375 547.34375 286.957031 Z M 470 280.222656 "/>
</g>
</svg>
