<?xml version="1.0" encoding="UTF-8"?>
<svg xmlns="http://www.w3.org/2000/svg" xmlns:xlink="http://www.w3.org/1999/xlink" width="1024pt" height="576pt" viewBox="0 0 1024 576" version="1.1">
<g id="surface114">
<rect x="0" y="0" width="1024" height="576" style="fill:rgb(42.745098%,54.117647%,58.823529%);fill-opacity:1;stroke:none;"/>
<path style=" stroke:none;fill-rule:nonzero;fill:rgb(100%,100%,100%);fill-opacity:1;" d="M 396.054688 302.398438 L 396.054688 293.144531 L 387.953125 293.144531 L 387.953125 302.398438 L 383.664062 302.398438 L 383.664062 281.671875 L 387.953125 281.671875 L 387.953125 289.574219 L 396.054688 289.574219 L 396.054688 281.671875 L 400.359375 281.671875 L 400.359375 302.398438 Z M 417.492188 297.898438 C 417.386719 298.808594 416.914062 299.730469 416.070312 300.667969 C 414.757812 302.160156 412.921875 302.90625 410.558594 302.90625 C 408.609375 302.90625 406.886719 302.277344 405.398438 301.019531 C 403.90625 299.765625 403.160156 297.71875 403.160156 294.890625 C 403.160156 292.238281 403.832031 290.203125 405.179688 288.785156 C 406.523438 287.371094 408.269531 286.664062 410.417969 286.664062 C 411.691406 286.664062 412.839844 286.902344 413.863281 287.378906 C 414.882812 287.859375 415.726562 288.613281 416.394531 289.644531 C 416.992188 290.554688 417.382812 291.609375 417.5625 292.808594 C 417.664062 293.511719 417.707031 294.523438 417.6875 295.84375 L 407.195312 295.84375 C 407.253906 297.382812 407.734375 298.460938 408.644531 299.078125 C 409.199219 299.464844 409.863281 299.65625 410.640625 299.65625 C 411.464844 299.65625 412.136719 299.421875 412.652344 298.953125 C 412.933594 298.699219 413.183594 298.347656 413.398438 297.898438 Z M 413.523438 293.203125 C 413.457031 292.144531 413.136719 291.339844 412.5625 290.789062 C 411.984375 290.242188 411.269531 289.96875 410.417969 289.96875 C 409.488281 289.96875 408.769531 290.257812 408.257812 290.839844 C 407.746094 291.421875 407.425781 292.207031 407.296875 293.203125 Z M 427.585938 290.039062 C 426.226562 290.039062 425.292969 290.613281 424.785156 291.765625 C 424.523438 292.375 424.390625 293.15625 424.390625 294.101562 L 424.390625 302.398438 L 420.398438 302.398438 L 420.398438 287.097656 L 424.265625 287.097656 L 424.265625 289.335938 C 424.78125 288.546875 425.269531 287.980469 425.726562 287.632812 C 426.550781 287.015625 427.597656 286.703125 428.863281 286.703125 C 430.449219 286.703125 431.746094 287.121094 432.753906 287.949219 C 433.761719 288.777344 434.265625 290.15625 434.265625 292.078125 L 434.265625 302.398438 L 430.15625 302.398438 L 430.15625 293.074219 C 430.15625 292.269531 430.050781 291.648438 429.835938 291.21875 C 429.441406 290.429688 428.691406 290.039062 427.585938 290.039062 Z M 446.078125 290.769531 C 444.464844 290.769531 443.382812 291.292969 442.828125 292.34375 C 442.519531 292.933594 442.363281 293.84375 442.363281 295.070312 L 442.363281 302.398438 L 438.328125 302.398438 L 438.328125 287.070312 L 442.152344 287.070312 L 442.152344 289.742188 C 442.773438 288.71875 443.3125 288.023438 443.769531 287.648438 C 444.519531 287.019531 445.496094 286.703125 446.695312 286.703125 C 446.769531 286.703125 446.832031 286.707031 446.886719 286.710938 C 446.9375 286.714844 447.050781 286.722656 447.230469 286.734375 L 447.230469 290.839844 C 446.976562 290.8125 446.75 290.792969 446.554688 290.78125 C 446.359375 290.773438 446.199219 290.769531 446.078125 290.769531 Z M 455.601562 298.375 L 458.765625 287.070312 L 463.023438 287.070312 L 457.765625 302.144531 C 456.753906 305.050781 455.953125 306.855469 455.359375 307.550781 C 454.769531 308.25 453.589844 308.601562 451.816406 308.601562 C 451.460938 308.601562 451.175781 308.597656 450.960938 308.59375 C 450.746094 308.589844 450.421875 308.570312 449.988281 308.542969 L 449.988281 305.335938 L 450.496094 305.367188 C 450.890625 305.386719 451.265625 305.371094 451.621094 305.324219 C 451.976562 305.277344 452.277344 305.167969 452.519531 305 C 452.753906 304.839844 452.972656 304.507812 453.175781 304 C 453.375 303.496094 453.457031 303.1875 453.421875 303.074219 L 447.796875 287.070312 L 452.253906 287.070312 Z M 473.355469 281.671875 L 477.660156 281.671875 L 477.660156 302.398438 L 473.355469 302.398438 Z M 481.355469 281.671875 L 485.660156 281.671875 L 485.660156 302.398438 L 481.355469 302.398438 Z M 489.355469 281.671875 L 493.660156 281.671875 L 493.660156 302.398438 L 489.355469 302.398438 Z M 520.390625 285.339844 L 509.996094 285.339844 L 509.996094 290.109375 L 519.09375 290.109375 L 519.09375 293.707031 L 509.996094 293.707031 L 509.996094 302.398438 L 505.695312 302.398438 L 505.695312 281.699219 L 520.390625 281.699219 Z M 527.492188 287.070312 L 527.492188 302.398438 L 523.425781 302.398438 L 523.425781 287.070312 Z M 527.492188 281.542969 L 527.492188 285.242188 L 523.425781 285.242188 L 523.425781 281.542969 Z M 538.585938 290.039062 C 537.226562 290.039062 536.292969 290.613281 535.785156 291.765625 C 535.523438 292.375 535.390625 293.15625 535.390625 294.101562 L 535.390625 302.398438 L 531.398438 302.398438 L 531.398438 287.097656 L 535.265625 287.097656 L 535.265625 289.335938 C 535.78125 288.546875 536.269531 287.980469 536.726562 287.632812 C 537.550781 287.015625 538.597656 286.703125 539.863281 286.703125 C 541.449219 286.703125 542.746094 287.121094 543.753906 287.949219 C 544.761719 288.777344 545.265625 290.15625 545.265625 292.078125 L 545.265625 302.398438 L 541.15625 302.398438 L 541.15625 293.074219 C 541.15625 292.269531 541.050781 291.648438 540.835938 291.21875 C 540.441406 290.429688 539.691406 290.039062 538.585938 290.039062 Z M 562.492188 297.898438 C 562.386719 298.808594 561.914062 299.730469 561.070312 300.667969 C 559.757812 302.160156 557.921875 302.90625 555.558594 302.90625 C 553.609375 302.90625 551.886719 302.277344 550.398438 301.019531 C 548.90625 299.765625 548.160156 297.71875 548.160156 294.890625 C 548.160156 292.238281 548.832031 290.203125 550.179688 288.785156 C 551.523438 287.371094 553.269531 286.664062 555.417969 286.664062 C 556.691406 286.664062 557.839844 286.902344 558.863281 287.378906 C 559.882812 287.859375 560.726562 288.613281 561.394531 289.644531 C 561.992188 290.554688 562.382812 291.609375 562.5625 292.808594 C 562.664062 293.511719 562.707031 294.523438 562.6875 295.84375 L 552.195312 295.84375 C 552.253906 297.382812 552.734375 298.460938 553.644531 299.078125 C 554.199219 299.464844 554.863281 299.65625 555.640625 299.65625 C 556.464844 299.65625 557.136719 299.421875 557.652344 298.953125 C 557.933594 298.699219 558.183594 298.347656 558.398438 297.898438 Z M 558.523438 293.203125 C 558.457031 292.144531 558.136719 291.339844 557.5625 290.789062 C 556.984375 290.242188 556.269531 289.96875 555.417969 289.96875 C 554.488281 289.96875 553.769531 290.257812 553.257812 290.839844 C 552.746094 291.421875 552.425781 292.207031 552.296875 293.203125 Z M 582.496094 294.269531 L 578.023438 294.269531 L 578.023438 302.398438 L 573.792969 302.398438 L 573.792969 281.671875 L 583.960938 281.671875 C 585.414062 281.699219 586.53125 281.875 587.3125 282.203125 C 588.097656 282.53125 588.757812 283.015625 589.304688 283.652344 C 589.753906 284.179688 590.109375 284.757812 590.371094 285.398438 C 590.632812 286.035156 590.765625 286.761719 590.765625 287.578125 C 590.765625 288.5625 590.515625 289.527344 590.019531 290.480469 C 589.523438 291.433594 588.703125 292.105469 587.558594 292.5 C 588.515625 292.882812 589.191406 293.429688 589.589844 294.136719 C 589.988281 294.84375 590.1875 295.925781 590.1875 297.378906 L 590.1875 298.769531 C 590.1875 299.71875 590.226562 300.359375 590.300781 300.695312 C 590.414062 301.230469 590.675781 301.625 591.089844 301.878906 L 591.089844 302.398438 L 586.320312 302.398438 C 586.191406 301.9375 586.097656 301.570312 586.039062 301.289062 C 585.925781 300.707031 585.867188 300.109375 585.859375 299.5 L 585.828125 297.574219 C 585.808594 296.253906 585.570312 295.371094 585.105469 294.929688 C 584.640625 294.488281 583.773438 294.269531 582.496094 294.269531 Z M 585.125 290.5 C 585.988281 290.105469 586.421875 289.328125 586.421875 288.167969 C 586.421875 286.910156 586.003906 286.066406 585.167969 285.636719 C 584.699219 285.390625 583.996094 285.269531 583.058594 285.269531 L 578.023438 285.269531 L 578.023438 290.839844 L 582.933594 290.839844 C 583.90625 290.839844 584.640625 290.726562 585.125 290.5 Z M 607.152344 289.011719 C 608.445312 290.632812 609.09375 292.550781 609.09375 294.761719 C 609.09375 297.011719 608.445312 298.9375 607.152344 300.535156 C 605.859375 302.132812 603.894531 302.933594 601.261719 302.933594 C 598.625 302.933594 596.664062 302.132812 595.367188 300.535156 C 594.074219 298.9375 593.429688 297.011719 593.429688 294.761719 C 593.429688 292.550781 594.074219 290.632812 595.367188 289.011719 C 596.660156 287.390625 598.625 286.578125 601.261719 286.578125 C 603.894531 286.578125 605.859375 287.390625 607.152344 289.011719 Z M 601.246094 289.96875 C 600.074219 289.96875 599.171875 290.382812 598.539062 291.210938 C 597.90625 292.042969 597.589844 293.226562 597.589844 294.761719 C 597.589844 296.300781 597.90625 297.484375 598.539062 298.320312 C 599.171875 299.15625 600.074219 299.570312 601.246094 299.570312 C 602.417969 299.570312 603.320312 299.15625 603.945312 298.320312 C 604.574219 297.484375 604.890625 296.300781 604.890625 294.761719 C 604.890625 293.226562 604.574219 292.042969 603.945312 291.210938 C 603.316406 290.382812 602.417969 289.96875 601.246094 289.96875 Z M 612.453125 281.671875 L 616.460938 281.671875 L 616.460938 302.398438 L 612.453125 302.398438 Z M 620.453125 281.671875 L 624.460938 281.671875 L 624.460938 302.398438 L 620.453125 302.398438 Z M 638.929688 287.773438 C 640.128906 288.542969 640.820312 289.863281 641 291.738281 L 636.992188 291.738281 C 636.933594 291.222656 636.789062 290.816406 636.554688 290.515625 C 636.113281 289.972656 635.363281 289.699219 634.304688 289.699219 C 633.433594 289.699219 632.8125 289.835938 632.441406 290.109375 C 632.070312 290.378906 631.886719 290.699219 631.886719 291.0625 C 631.886719 291.523438 632.082031 291.855469 632.476562 292.0625 C 632.871094 292.277344 634.261719 292.648438 636.652344 293.171875 C 638.246094 293.546875 639.441406 294.117188 640.238281 294.875 C 641.027344 295.644531 641.421875 296.605469 641.421875 297.757812 C 641.421875 299.277344 640.855469 300.515625 639.726562 301.476562 C 638.597656 302.4375 636.851562 302.917969 634.488281 302.917969 C 632.078125 302.917969 630.300781 302.410156 629.152344 301.394531 C 628.003906 300.375 627.429688 299.078125 627.429688 297.503906 L 631.492188 297.503906 C 631.578125 298.21875 631.757812 298.722656 632.039062 299.023438 C 632.535156 299.558594 633.457031 299.824219 634.796875 299.824219 C 635.585938 299.824219 636.210938 299.707031 636.675781 299.472656 C 637.140625 299.238281 637.371094 298.886719 637.371094 298.417969 C 637.371094 297.96875 637.183594 297.625 636.808594 297.390625 C 636.433594 297.15625 635.039062 296.753906 632.632812 296.183594 C 630.898438 295.75 629.671875 295.210938 628.960938 294.566406 C 628.25 293.929688 627.890625 293.007812 627.890625 291.808594 C 627.890625 290.394531 628.449219 289.175781 629.558594 288.160156 C 630.667969 287.144531 632.234375 286.632812 634.25 286.632812 C 636.160156 286.632812 637.722656 287.015625 638.929688 287.773438 Z M 381.5 280.222656 "/>
</g>
</svg>
