<?xml version="1.0" encoding="UTF-8"?>
<svg xmlns="http://www.w3.org/2000/svg" xmlns:xlink="http://www.w3.org/1999/xlink" width="1024pt" height="576pt" viewBox="0 0 1024 576" version="1.1">
<g id="surface127">
<rect x="0" y="0" width="1024" height="576" style="fill:rgb(52.941176%,59.215686%,69.803922%);fill-opacity:1;stroke:none;"/>
<path style=" stroke:none;fill-rule:nonzero;fill:rgb(100%,100%,100%);fill-opacity:1;" d="M 392.054688 302.398438 L 392.054688 293.144531 L 383.953125 293.144531 L 383.953125 302.398438 L 379.664062 302.398438 L 379.664062 281.671875 L 383.953125 281.671875 L 383.953125 289.574219 L 392.054688 289.574219 L 392.054688 281.671875 L 396.359375 281.671875 L 396.359375 302.398438 Z M 404.492188 287.070312 L 404.492188 302.398438 L 400.425781 302.398438 L 400.425781 287.070312 Z M 404.492188 281.542969 L 404.492188 285.242188 L 400.425781 285.242188 L 400.425781 281.542969 Z M 418.929688 287.773438 C 420.128906 288.542969 420.820312 289.863281 421 291.738281 L 416.992188 291.738281 C 416.933594 291.222656 416.789062 290.816406 416.554688 290.515625 C 416.113281 289.972656 415.363281 289.699219 414.304688 289.699219 C 413.433594 289.699219 412.8125 289.835938 412.441406 290.109375 C 412.070312 290.378906 411.886719 290.699219 411.886719 291.0625 C 411.886719 291.523438 412.082031 291.855469 412.476562 292.0625 C 412.871094 292.277344 414.261719 292.648438 416.652344 293.171875 C 418.246094 293.546875 419.441406 294.117188 420.238281 294.875 C 421.027344 295.644531 421.421875 296.605469 421.421875 297.757812 C 421.421875 299.277344 420.855469 300.515625 419.726562 301.476562 C 418.597656 302.4375 416.851562 302.917969 414.488281 302.917969 C 412.078125 302.917969 410.300781 302.410156 409.152344 301.394531 C 408.003906 300.375 407.429688 299.078125 407.429688 297.503906 L 411.492188 297.503906 C 411.578125 298.21875 411.757812 298.722656 412.039062 299.023438 C 412.535156 299.558594 413.457031 299.824219 414.796875 299.824219 C 415.585938 299.824219 416.210938 299.707031 416.675781 299.472656 C 417.140625 299.238281 417.371094 298.886719 417.371094 298.417969 C 417.371094 297.96875 417.183594 297.625 416.808594 297.390625 C 416.433594 297.15625 415.039062 296.753906 412.632812 296.183594 C 410.898438 295.75 409.671875 295.210938 408.960938 294.566406 C 408.25 293.929688 407.890625 293.007812 407.890625 291.808594 C 407.890625 290.394531 408.449219 289.175781 409.558594 288.160156 C 410.667969 287.144531 412.234375 286.632812 414.25 286.632812 C 416.160156 286.632812 417.722656 287.015625 418.929688 287.773438 Z M 431.386719 299.542969 L 431.386719 302.539062 L 429.488281 302.609375 C 427.59375 302.675781 426.300781 302.347656 425.609375 301.625 C 425.160156 301.164062 424.933594 300.457031 424.933594 299.5 L 424.933594 290.066406 L 422.796875 290.066406 L 422.796875 287.210938 L 424.933594 287.210938 L 424.933594 282.9375 L 428.898438 282.9375 L 428.898438 287.210938 L 431.386719 287.210938 L 431.386719 290.066406 L 428.898438 290.066406 L 428.898438 298.164062 C 428.898438 298.792969 428.976562 299.183594 429.136719 299.339844 C 429.296875 299.496094 429.785156 299.570312 430.601562 299.570312 C 430.722656 299.570312 430.851562 299.570312 430.988281 299.566406 C 431.125 299.5625 431.257812 299.554688 431.386719 299.542969 Z M 447.152344 289.011719 C 448.445312 290.632812 449.09375 292.550781 449.09375 294.761719 C 449.09375 297.011719 448.445312 298.9375 447.152344 300.535156 C 445.859375 302.132812 443.894531 302.933594 441.261719 302.933594 C 438.625 302.933594 436.664062 302.132812 435.367188 300.535156 C 434.074219 298.9375 433.429688 297.011719 433.429688 294.761719 C 433.429688 292.550781 434.074219 290.632812 435.367188 289.011719 C 436.660156 287.390625 438.625 286.578125 441.261719 286.578125 C 443.894531 286.578125 445.859375 287.390625 447.152344 289.011719 Z M 441.246094 289.96875 C 440.074219 289.96875 439.171875 290.382812 438.539062 291.210938 C 437.90625 292.042969 437.589844 293.226562 437.589844 294.761719 C 437.589844 296.300781 437.90625 297.484375 438.539062 298.320312 C 439.171875 299.15625 440.074219 299.570312 441.246094 299.570312 C 442.417969 299.570312 443.320312 299.15625 443.945312 298.320312 C 444.574219 297.484375 444.890625 296.300781 444.890625 294.761719 C 444.890625 293.226562 444.574219 292.042969 443.945312 291.210938 C 443.316406 290.382812 442.417969 289.96875 441.246094 289.96875 Z M 460.078125 290.769531 C 458.464844 290.769531 457.382812 291.292969 456.828125 292.34375 C 456.519531 292.933594 456.363281 293.84375 456.363281 295.070312 L 456.363281 302.398438 L 452.328125 302.398438 L 452.328125 287.070312 L 456.152344 287.070312 L 456.152344 289.742188 C 456.773438 288.71875 457.3125 288.023438 457.769531 287.648438 C 458.519531 287.019531 459.496094 286.703125 460.695312 286.703125 C 460.769531 286.703125 460.832031 286.707031 460.886719 286.710938 C 460.9375 286.714844 461.050781 286.722656 461.230469 286.734375 L 461.230469 290.839844 C 460.976562 290.8125 460.75 290.792969 460.554688 290.78125 C 460.359375 290.773438 460.199219 290.769531 460.078125 290.769531 Z M 467.492188 287.070312 L 467.492188 302.398438 L 463.425781 302.398438 L 463.425781 287.070312 Z M 467.492188 281.542969 L 467.492188 285.242188 L 463.425781 285.242188 L 463.425781 281.542969 Z M 484.632812 292.570312 L 480.523438 292.570312 C 480.449219 291.996094 480.257812 291.480469 479.949219 291.023438 C 479.5 290.402344 478.800781 290.09375 477.851562 290.09375 C 476.503906 290.09375 475.578125 290.765625 475.082031 292.105469 C 474.820312 292.816406 474.6875 293.765625 474.6875 294.945312 C 474.6875 296.070312 474.820312 296.976562 475.082031 297.660156 C 475.5625 298.933594 476.460938 299.570312 477.78125 299.570312 C 478.71875 299.570312 479.386719 299.320312 479.78125 298.8125 C 480.175781 298.304688 480.414062 297.648438 480.496094 296.84375 L 484.589844 296.84375 C 484.496094 298.0625 484.054688 299.214844 483.265625 300.304688 C 482.011719 302.058594 480.148438 302.933594 477.683594 302.933594 C 475.21875 302.933594 473.40625 302.203125 472.242188 300.738281 C 471.078125 299.277344 470.5 297.378906 470.5 295.042969 C 470.5 292.410156 471.140625 290.359375 472.425781 288.898438 C 473.710938 287.4375 475.480469 286.703125 477.742188 286.703125 C 479.664062 286.703125 481.234375 287.136719 482.457031 288 C 483.679688 288.863281 484.40625 290.382812 484.632812 292.570312 Z M 487.945312 288.730469 C 489.003906 287.378906 490.824219 286.703125 493.402344 286.703125 C 495.082031 286.703125 496.570312 287.039062 497.875 287.703125 C 499.179688 288.367188 499.828125 289.625 499.828125 291.472656 L 499.828125 298.503906 C 499.828125 298.992188 499.839844 299.582031 499.859375 300.273438 C 499.886719 300.800781 499.964844 301.15625 500.097656 301.34375 C 500.226562 301.53125 500.425781 301.6875 500.6875 301.808594 L 500.6875 302.398438 L 496.328125 302.398438 C 496.207031 302.089844 496.121094 301.796875 496.074219 301.527344 C 496.027344 301.253906 495.992188 300.945312 495.960938 300.597656 C 495.410156 301.199219 494.773438 301.710938 494.050781 302.132812 C 493.1875 302.628906 492.210938 302.875 491.125 302.875 C 489.738281 302.875 488.589844 302.480469 487.6875 301.6875 C 486.78125 300.894531 486.328125 299.773438 486.328125 298.320312 C 486.328125 296.4375 487.054688 295.070312 488.507812 294.226562 C 489.304688 293.769531 490.476562 293.441406 492.023438 293.242188 L 493.390625 293.074219 C 494.128906 292.980469 494.660156 292.863281 494.976562 292.722656 C 495.550781 292.480469 495.835938 292.101562 495.835938 291.585938 C 495.835938 290.957031 495.617188 290.523438 495.183594 290.285156 C 494.746094 290.046875 494.105469 289.925781 493.261719 289.925781 C 492.316406 289.925781 491.644531 290.160156 491.25 290.628906 C 490.96875 290.976562 490.78125 291.445312 490.6875 292.035156 L 486.820312 292.035156 C 486.90625 290.695312 487.28125 289.59375 487.945312 288.730469 Z M 490.929688 299.5 C 491.304688 299.808594 491.761719 299.964844 492.304688 299.964844 C 493.167969 299.964844 493.964844 299.710938 494.691406 299.207031 C 495.417969 298.699219 495.792969 297.777344 495.820312 296.4375 L 495.820312 294.945312 C 495.566406 295.105469 495.3125 295.234375 495.054688 295.332031 C 494.796875 295.429688 494.445312 295.523438 493.992188 295.605469 L 493.09375 295.773438 C 492.25 295.925781 491.644531 296.109375 491.28125 296.324219 C 490.660156 296.6875 490.351562 297.257812 490.351562 298.023438 C 490.351562 298.707031 490.542969 299.203125 490.929688 299.5 Z M 503.453125 281.671875 L 507.460938 281.671875 L 507.460938 302.398438 L 503.453125 302.398438 Z M 528.496094 294.945312 L 524.09375 294.945312 L 524.09375 302.398438 L 519.792969 302.398438 L 519.792969 281.671875 L 528.820312 281.671875 C 530.902344 281.671875 532.5625 282.203125 533.796875 283.273438 C 535.035156 284.34375 535.65625 285.996094 535.65625 288.238281 C 535.65625 290.683594 535.035156 292.414062 533.796875 293.425781 C 532.558594 294.4375 530.792969 294.945312 528.496094 294.945312 Z M 530.523438 290.628906 C 531.085938 290.132812 531.367188 289.34375 531.367188 288.265625 C 531.367188 287.1875 531.082031 286.417969 530.515625 285.960938 C 529.949219 285.5 529.152344 285.269531 528.132812 285.269531 L 524.09375 285.269531 L 524.09375 291.375 L 528.132812 291.375 C 529.152344 291.375 529.949219 291.125 530.523438 290.628906 Z M 538.945312 288.730469 C 540.003906 287.378906 541.824219 286.703125 544.402344 286.703125 C 546.082031 286.703125 547.570312 287.039062 548.875 287.703125 C 550.179688 288.367188 550.828125 289.625 550.828125 291.472656 L 550.828125 298.503906 C 550.828125 298.992188 550.839844 299.582031 550.859375 300.273438 C 550.886719 300.800781 550.964844 301.15625 551.097656 301.34375 C 551.226562 301.53125 551.425781 301.6875 551.6875 301.808594 L 551.6875 302.398438 L 547.328125 302.398438 C 547.207031 302.089844 547.121094 301.796875 547.074219 301.527344 C 547.027344 301.253906 546.992188 300.945312 546.960938 300.597656 C 546.410156 301.199219 545.773438 301.710938 545.050781 302.132812 C 544.1875 302.628906 543.210938 302.875 542.125 302.875 C 540.738281 302.875 539.589844 302.480469 538.6875 301.6875 C 537.78125 300.894531 537.328125 299.773438 537.328125 298.320312 C 537.328125 296.4375 538.054688 295.070312 539.507812 294.226562 C 540.304688 293.769531 541.476562 293.441406 543.023438 293.242188 L 544.390625 293.074219 C 545.128906 292.980469 545.660156 292.863281 545.976562 292.722656 C 546.550781 292.480469 546.835938 292.101562 546.835938 291.585938 C 546.835938 290.957031 546.617188 290.523438 546.183594 290.285156 C 545.746094 290.046875 545.105469 289.925781 544.261719 289.925781 C 543.316406 289.925781 542.644531 290.160156 542.25 290.628906 C 541.96875 290.976562 541.78125 291.445312 541.6875 292.035156 L 537.820312 292.035156 C 537.90625 290.695312 538.28125 289.59375 538.945312 288.730469 Z M 541.929688 299.5 C 542.304688 299.808594 542.761719 299.964844 543.304688 299.964844 C 544.167969 299.964844 544.964844 299.710938 545.691406 299.207031 C 546.417969 298.699219 546.792969 297.777344 546.820312 296.4375 L 546.820312 294.945312 C 546.566406 295.105469 546.3125 295.234375 546.054688 295.332031 C 545.796875 295.429688 545.445312 295.523438 544.992188 295.605469 L 544.09375 295.773438 C 543.25 295.925781 542.644531 296.109375 542.28125 296.324219 C 541.660156 296.6875 541.351562 297.257812 541.351562 298.023438 C 541.351562 298.707031 541.542969 299.203125 541.929688 299.5 Z M 558.703125 305.085938 C 559.132812 305.449219 559.859375 305.632812 560.882812 305.632812 C 562.324219 305.632812 563.289062 305.148438 563.777344 304.183594 C 564.097656 303.566406 564.257812 302.523438 564.257812 301.0625 L 564.257812 300.078125 C 563.871094 300.734375 563.460938 301.226562 563.019531 301.554688 C 562.222656 302.164062 561.1875 302.46875 559.910156 302.46875 C 557.941406 302.46875 556.371094 301.777344 555.191406 300.394531 C 554.015625 299.011719 553.429688 297.140625 553.429688 294.777344 C 553.429688 292.5 553.996094 290.582031 555.128906 289.03125 C 556.265625 287.480469 557.871094 286.703125 559.953125 286.703125 C 560.722656 286.703125 561.390625 286.820312 561.964844 287.054688 C 562.9375 287.457031 563.726562 288.199219 564.328125 289.277344 L 564.328125 287.070312 L 568.222656 287.070312 L 568.222656 301.609375 C 568.222656 303.589844 567.890625 305.078125 567.222656 306.082031 C 566.078125 307.808594 563.886719 308.671875 560.640625 308.671875 C 558.683594 308.671875 557.085938 308.285156 555.847656 307.515625 C 554.609375 306.746094 553.925781 305.601562 553.792969 304.070312 L 558.152344 304.070312 C 558.265625 304.539062 558.449219 304.878906 558.703125 305.085938 Z M 558.027344 297.167969 C 558.570312 298.460938 559.546875 299.109375 560.953125 299.109375 C 561.890625 299.109375 562.679688 298.753906 563.328125 298.046875 C 563.976562 297.339844 564.296875 296.210938 564.296875 294.664062 C 564.296875 293.210938 563.992188 292.105469 563.378906 291.34375 C 562.765625 290.585938 561.941406 290.207031 560.910156 290.207031 C 559.503906 290.207031 558.53125 290.867188 558 292.1875 C 557.71875 292.890625 557.578125 293.757812 557.578125 294.789062 C 557.578125 295.679688 557.726562 296.472656 558.027344 297.167969 Z M 585.492188 297.898438 C 585.386719 298.808594 584.914062 299.730469 584.070312 300.667969 C 582.757812 302.160156 580.921875 302.90625 578.558594 302.90625 C 576.609375 302.90625 574.886719 302.277344 573.398438 301.019531 C 571.90625 299.765625 571.160156 297.71875 571.160156 294.890625 C 571.160156 292.238281 571.832031 290.203125 573.179688 288.785156 C 574.523438 287.371094 576.269531 286.664062 578.417969 286.664062 C 579.691406 286.664062 580.839844 286.902344 581.863281 287.378906 C 582.882812 287.859375 583.726562 288.613281 584.394531 289.644531 C 584.992188 290.554688 585.382812 291.609375 585.5625 292.808594 C 585.664062 293.511719 585.707031 294.523438 585.6875 295.84375 L 575.195312 295.84375 C 575.253906 297.382812 575.734375 298.460938 576.644531 299.078125 C 577.199219 299.464844 577.863281 299.65625 578.640625 299.65625 C 579.464844 299.65625 580.136719 299.421875 580.652344 298.953125 C 580.933594 298.699219 581.183594 298.347656 581.398438 297.898438 Z M 581.523438 293.203125 C 581.457031 292.144531 581.136719 291.339844 580.5625 290.789062 C 579.984375 290.242188 579.269531 289.96875 578.417969 289.96875 C 577.488281 289.96875 576.769531 290.257812 576.257812 290.839844 C 575.746094 291.421875 575.425781 292.207031 575.296875 293.203125 Z M 588.945312 288.730469 C 590.003906 287.378906 591.824219 286.703125 594.402344 286.703125 C 596.082031 286.703125 597.570312 287.039062 598.875 287.703125 C 600.179688 288.367188 600.828125 289.625 600.828125 291.472656 L 600.828125 298.503906 C 600.828125 298.992188 600.839844 299.582031 600.859375 300.273438 C 600.886719 300.800781 600.964844 301.15625 601.097656 301.34375 C 601.226562 301.53125 601.425781 301.6875 601.6875 301.808594 L 601.6875 302.398438 L 597.328125 302.398438 C 597.207031 302.089844 597.121094 301.796875 597.074219 301.527344 C 597.027344 301.253906 596.992188 300.945312 596.960938 300.597656 C 596.410156 301.199219 595.773438 301.710938 595.050781 302.132812 C 594.1875 302.628906 593.210938 302.875 592.125 302.875 C 590.738281 302.875 589.589844 302.480469 588.6875 301.6875 C 587.78125 300.894531 587.328125 299.773438 587.328125 298.320312 C 587.328125 296.4375 588.054688 295.070312 589.507812 294.226562 C 590.304688 293.769531 591.476562 293.441406 593.023438 293.242188 L 594.390625 293.074219 C 595.128906 292.980469 595.660156 292.863281 595.976562 292.722656 C 596.550781 292.480469 596.835938 292.101562 596.835938 291.585938 C 596.835938 290.957031 596.617188 290.523438 596.183594 290.285156 C 595.746094 290.046875 595.105469 289.925781 594.261719 289.925781 C 593.316406 289.925781 592.644531 290.160156 592.25 290.628906 C 591.96875 290.976562 591.78125 291.445312 591.6875 292.035156 L 587.820312 292.035156 C 587.90625 290.695312 588.28125 289.59375 588.945312 288.730469 Z M 591.929688 299.5 C 592.304688 299.808594 592.761719 299.964844 593.304688 299.964844 C 594.167969 299.964844 594.964844 299.710938 595.691406 299.207031 C 596.417969 298.699219 596.792969 297.777344 596.820312 296.4375 L 596.820312 294.945312 C 596.566406 295.105469 596.3125 295.234375 596.054688 295.332031 C 595.796875 295.429688 595.445312 295.523438 594.992188 295.605469 L 594.09375 295.773438 C 593.25 295.925781 592.644531 296.109375 592.28125 296.324219 C 591.660156 296.6875 591.351562 297.257812 591.351562 298.023438 C 591.351562 298.707031 591.542969 299.203125 591.929688 299.5 Z M 611.585938 290.039062 C 610.226562 290.039062 609.292969 290.613281 608.785156 291.765625 C 608.523438 292.375 608.390625 293.15625 608.390625 294.101562 L 608.390625 302.398438 L 604.398438 302.398438 L 604.398438 287.097656 L 608.265625 287.097656 L 608.265625 289.335938 C 608.78125 288.546875 609.269531 287.980469 609.726562 287.632812 C 610.550781 287.015625 611.597656 286.703125 612.863281 286.703125 C 614.449219 286.703125 615.746094 287.121094 616.753906 287.949219 C 617.761719 288.777344 618.265625 290.15625 618.265625 292.078125 L 618.265625 302.398438 L 614.15625 302.398438 L 614.15625 293.074219 C 614.15625 292.269531 614.050781 291.648438 613.835938 291.21875 C 613.441406 290.429688 612.691406 290.039062 611.585938 290.039062 Z M 629.386719 299.542969 L 629.386719 302.539062 L 627.488281 302.609375 C 625.59375 302.675781 624.300781 302.347656 623.609375 301.625 C 623.160156 301.164062 622.933594 300.457031 622.933594 299.5 L 622.933594 290.066406 L 620.796875 290.066406 L 620.796875 287.210938 L 622.933594 287.210938 L 622.933594 282.9375 L 626.898438 282.9375 L 626.898438 287.210938 L 629.386719 287.210938 L 629.386719 290.066406 L 626.898438 290.066406 L 626.898438 298.164062 C 626.898438 298.792969 626.976562 299.183594 627.136719 299.339844 C 627.296875 299.496094 627.785156 299.570312 628.601562 299.570312 C 628.722656 299.570312 628.851562 299.570312 628.988281 299.566406 C 629.125 299.5625 629.257812 299.554688 629.386719 299.542969 Z M 642.929688 287.773438 C 644.128906 288.542969 644.820312 289.863281 645 291.738281 L 640.992188 291.738281 C 640.933594 291.222656 640.789062 290.816406 640.554688 290.515625 C 640.113281 289.972656 639.363281 289.699219 638.304688 289.699219 C 637.433594 289.699219 636.8125 289.835938 636.441406 290.109375 C 636.070312 290.378906 635.886719 290.699219 635.886719 291.0625 C 635.886719 291.523438 636.082031 291.855469 636.476562 292.0625 C 636.871094 292.277344 638.261719 292.648438 640.652344 293.171875 C 642.246094 293.546875 643.441406 294.117188 644.238281 294.875 C 645.027344 295.644531 645.421875 296.605469 645.421875 297.757812 C 645.421875 299.277344 644.855469 300.515625 643.726562 301.476562 C 642.597656 302.4375 640.851562 302.917969 638.488281 302.917969 C 636.078125 302.917969 634.300781 302.410156 633.152344 301.394531 C 632.003906 300.375 631.429688 299.078125 631.429688 297.503906 L 635.492188 297.503906 C 635.578125 298.21875 635.757812 298.722656 636.039062 299.023438 C 636.535156 299.558594 637.457031 299.824219 638.796875 299.824219 C 639.585938 299.824219 640.210938 299.707031 640.675781 299.472656 C 641.140625 299.238281 641.371094 298.886719 641.371094 298.417969 C 641.371094 297.96875 641.183594 297.625 640.808594 297.390625 C 640.433594 297.15625 639.039062 296.753906 636.632812 296.183594 C 634.898438 295.75 633.671875 295.210938 632.960938 294.566406 C 632.25 293.929688 631.890625 293.007812 631.890625 291.808594 C 631.890625 290.394531 632.449219 289.175781 633.558594 288.160156 C 634.667969 287.144531 636.234375 286.632812 638.25 286.632812 C 640.160156 286.632812 641.722656 287.015625 642.929688 287.773438 Z M 377.5 280.222656 "/>
</g>
</svg>
