<?xml version="1.0" encoding="UTF-8"?>
<svg xmlns="http://www.w3.org/2000/svg" xmlns:xlink="http://www.w3.org/1999/xlink" width="1024pt" height="576pt" viewBox="0 0 1024 576" version="1.1">
<g id="surface122">
<rect x="0" y="0" width="1024" height="576" style="fill:rgb(36.470588%,43.921569%,49.803922%);fill-opacity:1;stroke:none;"/>
<path style=" stroke:none;fill-rule:nonzero;fill:rgb(100%,100%,100%);fill-opacity:1;" d="M 478.355469 281.671875 L 482.660156 281.671875 L 482.660156 302.398438 L 478.355469 302.398438 Z M 496.15625 302.398438 L 486.765625 302.398438 L 486.765625 281.671875 L 496.832031 281.671875 C 499.375 281.707031 501.171875 282.445312 502.234375 283.878906 C 502.871094 284.757812 503.1875 285.8125 503.1875 287.042969 C 503.1875 288.308594 502.871094 289.324219 502.234375 290.09375 C 501.878906 290.523438 501.351562 290.917969 500.65625 291.273438 C 501.714844 291.660156 502.515625 292.269531 503.054688 293.101562 C 503.59375 293.9375 503.863281 294.949219 503.863281 296.140625 C 503.863281 297.367188 503.554688 298.46875 502.9375 299.445312 C 502.542969 300.09375 502.050781 300.636719 501.460938 301.078125 C 500.792969 301.582031 500.007812 301.929688 499.105469 302.117188 C 498.199219 302.304688 497.21875 302.398438 496.15625 302.398438 Z M 496.058594 293.273438 L 490.898438 293.273438 L 490.898438 298.796875 L 495.988281 298.796875 C 496.898438 298.796875 497.605469 298.675781 498.113281 298.433594 C 499.03125 297.984375 499.492188 297.121094 499.492188 295.84375 C 499.492188 294.765625 499.046875 294.027344 498.15625 293.625 C 497.660156 293.398438 496.960938 293.28125 496.058594 293.273438 Z M 498.210938 289.320312 C 498.773438 288.984375 499.054688 288.378906 499.054688 287.507812 C 499.054688 286.542969 498.679688 285.902344 497.929688 285.59375 C 497.28125 285.378906 496.457031 285.269531 495.453125 285.269531 L 490.898438 285.269531 L 490.898438 289.839844 L 495.988281 289.839844 C 496.898438 289.839844 497.640625 289.667969 498.210938 289.320312 Z M 522.320312 300.851562 C 520.773438 302.265625 518.792969 302.976562 516.382812 302.976562 C 513.402344 302.976562 511.058594 302.019531 509.351562 300.105469 C 507.644531 298.183594 506.792969 295.550781 506.792969 292.203125 C 506.792969 288.585938 507.765625 285.796875 509.703125 283.835938 C 511.390625 282.128906 513.539062 281.277344 516.144531 281.277344 C 519.632812 281.277344 522.183594 282.421875 523.796875 284.707031 C 524.6875 285.992188 525.164062 287.28125 525.230469 288.574219 L 520.898438 288.574219 C 520.617188 287.582031 520.257812 286.832031 519.816406 286.324219 C 519.027344 285.425781 517.859375 284.976562 516.3125 284.976562 C 514.738281 284.976562 513.496094 285.609375 512.585938 286.878906 C 511.675781 288.148438 511.222656 289.949219 511.222656 292.273438 C 511.222656 294.597656 511.703125 296.339844 512.664062 297.496094 C 513.625 298.65625 514.847656 299.234375 516.328125 299.234375 C 517.847656 299.234375 519.003906 298.738281 519.800781 297.742188 C 520.242188 297.207031 520.609375 296.40625 520.898438 295.339844 L 525.1875 295.339844 C 524.8125 297.597656 523.855469 299.4375 522.320312 300.851562 Z M 543.320312 300.851562 C 541.773438 302.265625 539.792969 302.976562 537.382812 302.976562 C 534.402344 302.976562 532.058594 302.019531 530.351562 300.105469 C 528.644531 298.183594 527.792969 295.550781 527.792969 292.203125 C 527.792969 288.585938 528.765625 285.796875 530.703125 283.835938 C 532.390625 282.128906 534.539062 281.277344 537.144531 281.277344 C 540.632812 281.277344 543.183594 282.421875 544.796875 284.707031 C 545.6875 285.992188 546.164062 287.28125 546.230469 288.574219 L 541.898438 288.574219 C 541.617188 287.582031 541.257812 286.832031 540.816406 286.324219 C 540.027344 285.425781 538.859375 284.976562 537.3125 284.976562 C 535.738281 284.976562 534.496094 285.609375 533.585938 286.878906 C 532.675781 288.148438 532.222656 289.949219 532.222656 292.273438 C 532.222656 294.597656 532.703125 296.339844 533.664062 297.496094 C 534.625 298.65625 535.847656 299.234375 537.328125 299.234375 C 538.847656 299.234375 540.003906 298.738281 540.800781 297.742188 C 541.242188 297.207031 541.609375 296.40625 541.898438 295.339844 L 546.1875 295.339844 C 545.8125 297.597656 544.855469 299.4375 543.320312 300.851562 Z M 476.5 280.222656 "/>
</g>
</svg>
