<?xml version="1.0" encoding="UTF-8"?>
<svg xmlns="http://www.w3.org/2000/svg" xmlns:xlink="http://www.w3.org/1999/xlink" width="1024pt" height="576pt" viewBox="0 0 1024 576" version="1.1">
<g id="surface138">
<rect x="0" y="0" width="1024" height="576" style="fill:rgb(42.745098%,54.117647%,58.823529%);fill-opacity:1;stroke:none;"/>
<path style=" stroke:none;fill-rule:nonzero;fill:rgb(100%,100%,100%);fill-opacity:1;" d="M 464.355469 281.671875 L 468.660156 281.671875 L 468.660156 302.398438 L 464.355469 302.398438 Z M 479.585938 290.039062 C 478.226562 290.039062 477.292969 290.613281 476.785156 291.765625 C 476.523438 292.375 476.390625 293.15625 476.390625 294.101562 L 476.390625 302.398438 L 472.398438 302.398438 L 472.398438 287.097656 L 476.265625 287.097656 L 476.265625 289.335938 C 476.78125 288.546875 477.269531 287.980469 477.726562 287.632812 C 478.550781 287.015625 479.597656 286.703125 480.863281 286.703125 C 482.449219 286.703125 483.746094 287.121094 484.753906 287.949219 C 485.761719 288.777344 486.265625 290.15625 486.265625 292.078125 L 486.265625 302.398438 L 482.15625 302.398438 L 482.15625 293.074219 C 482.15625 292.269531 482.050781 291.648438 481.835938 291.21875 C 481.441406 290.429688 480.691406 290.039062 479.585938 290.039062 Z M 500.929688 287.773438 C 502.128906 288.542969 502.820312 289.863281 503 291.738281 L 498.992188 291.738281 C 498.933594 291.222656 498.789062 290.816406 498.554688 290.515625 C 498.113281 289.972656 497.363281 289.699219 496.304688 289.699219 C 495.433594 289.699219 494.8125 289.835938 494.441406 290.109375 C 494.070312 290.378906 493.886719 290.699219 493.886719 291.0625 C 493.886719 291.523438 494.082031 291.855469 494.476562 292.0625 C 494.871094 292.277344 496.261719 292.648438 498.652344 293.171875 C 500.246094 293.546875 501.441406 294.117188 502.238281 294.875 C 503.027344 295.644531 503.421875 296.605469 503.421875 297.757812 C 503.421875 299.277344 502.855469 300.515625 501.726562 301.476562 C 500.597656 302.4375 498.851562 302.917969 496.488281 302.917969 C 494.078125 302.917969 492.300781 302.410156 491.152344 301.394531 C 490.003906 300.375 489.429688 299.078125 489.429688 297.503906 L 493.492188 297.503906 C 493.578125 298.21875 493.757812 298.722656 494.039062 299.023438 C 494.535156 299.558594 495.457031 299.824219 496.796875 299.824219 C 497.585938 299.824219 498.210938 299.707031 498.675781 299.472656 C 499.140625 299.238281 499.371094 298.886719 499.371094 298.417969 C 499.371094 297.96875 499.183594 297.625 498.808594 297.390625 C 498.433594 297.15625 497.039062 296.753906 494.632812 296.183594 C 492.898438 295.75 491.671875 295.210938 490.960938 294.566406 C 490.25 293.929688 489.890625 293.007812 489.890625 291.808594 C 489.890625 290.394531 490.449219 289.175781 491.558594 288.160156 C 492.667969 287.144531 494.234375 286.632812 496.25 286.632812 C 498.160156 286.632812 499.722656 287.015625 500.929688 287.773438 Z M 518.828125 298.136719 L 511.195312 298.136719 L 509.757812 302.398438 L 505.230469 302.398438 L 512.628906 281.671875 L 517.523438 281.671875 L 524.863281 302.398438 L 520.164062 302.398438 Z M 517.621094 294.566406 L 515.03125 286.410156 L 512.359375 294.566406 Z M 540.210938 288.714844 C 541.449219 290.039062 542.066406 291.976562 542.066406 294.539062 C 542.066406 297.238281 541.457031 299.296875 540.246094 300.710938 C 539.03125 302.125 537.46875 302.835938 535.554688 302.835938 C 534.335938 302.835938 533.324219 302.53125 532.515625 301.921875 C 532.074219 301.582031 531.644531 301.089844 531.222656 300.445312 L 531.222656 308.429688 L 527.257812 308.429688 L 527.257812 287.070312 L 531.097656 287.070312 L 531.097656 289.335938 C 531.527344 288.667969 531.988281 288.144531 532.476562 287.757812 C 533.367188 287.074219 534.425781 286.734375 535.652344 286.734375 C 537.445312 286.734375 538.960938 287.394531 540.210938 288.714844 Z M 537.929688 294.734375 C 537.929688 293.554688 537.660156 292.507812 537.121094 291.597656 C 536.582031 290.6875 535.710938 290.234375 534.5 290.234375 C 533.046875 290.234375 532.046875 290.921875 531.503906 292.300781 C 531.222656 293.03125 531.082031 293.960938 531.082031 295.085938 C 531.082031 296.867188 531.554688 298.117188 532.503906 298.839844 C 533.066406 299.261719 533.730469 299.472656 534.5 299.472656 C 535.617188 299.472656 536.464844 299.042969 537.050781 298.179688 C 537.636719 297.316406 537.929688 296.167969 537.929688 294.734375 Z M 559.222656 293.398438 L 559.222656 302.398438 L 555.128906 302.398438 L 555.128906 293.074219 C 555.128906 292.25 554.988281 291.585938 554.707031 291.078125 C 554.34375 290.367188 553.648438 290.007812 552.625 290.007812 C 551.566406 290.007812 550.761719 290.363281 550.214844 291.070312 C 549.667969 291.777344 549.390625 292.789062 549.390625 294.101562 L 549.390625 302.398438 L 545.398438 302.398438 L 545.398438 281.742188 L 549.390625 281.742188 L 549.390625 289.066406 C 549.972656 288.175781 550.644531 287.554688 551.410156 287.203125 C 552.175781 286.851562 552.976562 286.675781 553.820312 286.675781 C 554.769531 286.675781 555.628906 286.839844 556.402344 287.167969 C 557.175781 287.496094 557.8125 288 558.308594 288.671875 C 558.730469 289.246094 558.988281 289.832031 559.082031 290.4375 C 559.175781 291.042969 559.222656 292.03125 559.222656 293.398438 Z M 462.5 280.222656 "/>
</g>
</svg>
