<?xml version="1.0" encoding="UTF-8"?>
<svg xmlns="http://www.w3.org/2000/svg" xmlns:xlink="http://www.w3.org/1999/xlink" width="1024pt" height="576pt" viewBox="0 0 1024 576" version="1.1">
<g id="surface143">
<rect x="0" y="0" width="1024" height="576" style="fill:rgb(42.745098%,54.117647%,58.823529%);fill-opacity:1;stroke:none;"/>
<path style=" stroke:none;fill-rule:nonzero;fill:rgb(100%,100%,100%);fill-opacity:1;" d="M 470.355469 281.671875 L 474.660156 281.671875 L 474.660156 302.398438 L 470.355469 302.398438 Z M 487.863281 302.976562 C 484.898438 302.976562 482.636719 302.167969 481.070312 300.554688 C 478.96875 298.578125 477.921875 295.726562 477.921875 292.007812 C 477.921875 288.210938 478.96875 285.359375 481.070312 283.457031 C 482.636719 281.84375 484.898438 281.039062 487.863281 281.039062 C 490.824219 281.039062 493.089844 281.84375 494.65625 283.457031 C 496.746094 285.359375 497.789062 288.210938 497.789062 292.007812 C 497.789062 295.730469 496.746094 298.578125 494.65625 300.554688 C 493.089844 302.167969 490.824219 302.976562 487.863281 302.976562 Z M 491.953125 297.40625 C 492.957031 296.140625 493.460938 294.339844 493.460938 292.007812 C 493.460938 289.683594 492.957031 287.882812 491.949219 286.613281 C 490.941406 285.34375 489.578125 284.707031 487.863281 284.707031 C 486.148438 284.707031 484.777344 285.339844 483.757812 286.605469 C 482.734375 287.871094 482.222656 289.671875 482.222656 292.007812 C 482.222656 294.339844 482.734375 296.140625 483.757812 297.40625 C 484.777344 298.671875 486.148438 299.304688 487.863281 299.304688 C 489.578125 299.304688 490.941406 298.671875 491.953125 297.40625 Z M 508.21875 299.402344 C 509.238281 299.402344 510.070312 299.289062 510.707031 299.066406 C 511.914062 298.632812 512.519531 297.832031 512.519531 296.660156 C 512.519531 295.976562 512.21875 295.445312 511.621094 295.070312 C 511.019531 294.707031 510.078125 294.382812 508.792969 294.101562 L 506.601562 293.609375 C 504.445312 293.121094 502.953125 292.59375 502.128906 292.019531 C 500.730469 291.0625 500.03125 289.570312 500.03125 287.535156 C 500.03125 285.679688 500.707031 284.136719 502.058594 282.90625 C 503.40625 281.679688 505.390625 281.066406 508.007812 281.066406 C 510.191406 281.066406 512.054688 281.644531 513.597656 282.800781 C 515.140625 283.960938 515.945312 285.640625 516.023438 287.84375 L 511.859375 287.84375 C 511.785156 286.597656 511.242188 285.710938 510.226562 285.1875 C 509.550781 284.839844 508.714844 284.664062 507.710938 284.664062 C 506.59375 284.664062 505.703125 284.890625 505.039062 285.339844 C 504.375 285.789062 504.039062 286.417969 504.039062 287.226562 C 504.039062 287.964844 504.367188 288.519531 505.023438 288.882812 C 505.445312 289.128906 506.347656 289.414062 507.726562 289.742188 L 511.296875 290.601562 C 512.863281 290.976562 514.042969 291.476562 514.839844 292.105469 C 516.078125 293.078125 516.695312 294.492188 516.695312 296.335938 C 516.695312 298.230469 515.972656 299.804688 514.523438 301.054688 C 513.074219 302.308594 511.03125 302.933594 508.386719 302.933594 C 505.6875 302.933594 503.5625 302.316406 502.015625 301.082031 C 500.46875 299.851562 499.695312 298.15625 499.695312 296 L 503.828125 296 C 503.960938 296.945312 504.21875 297.65625 504.601562 298.125 C 505.304688 298.976562 506.511719 299.402344 508.21875 299.402344 Z M 528.496094 294.945312 L 524.09375 294.945312 L 524.09375 302.398438 L 519.792969 302.398438 L 519.792969 281.671875 L 528.820312 281.671875 C 530.902344 281.671875 532.5625 282.203125 533.796875 283.273438 C 535.035156 284.34375 535.65625 285.996094 535.65625 288.238281 C 535.65625 290.683594 535.035156 292.414062 533.796875 293.425781 C 532.558594 294.4375 530.792969 294.945312 528.496094 294.945312 Z M 530.523438 290.628906 C 531.085938 290.132812 531.367188 289.34375 531.367188 288.265625 C 531.367188 287.1875 531.082031 286.417969 530.515625 285.960938 C 529.949219 285.5 529.152344 285.269531 528.132812 285.269531 L 524.09375 285.269531 L 524.09375 291.375 L 528.132812 291.375 C 529.152344 291.375 529.949219 291.125 530.523438 290.628906 Z M 553.121094 293.34375 L 543.054688 293.34375 L 543.054688 298.671875 L 554.527344 298.671875 L 554.527344 302.398438 L 538.820312 302.398438 L 538.820312 281.671875 L 554.023438 281.671875 L 554.023438 285.339844 L 543.054688 285.339844 L 543.054688 289.742188 L 553.121094 289.742188 Z M 468.5 280.222656 "/>
</g>
</svg>
