<?xml version="1.0" encoding="UTF-8"?>
<svg xmlns="http://www.w3.org/2000/svg" xmlns:xlink="http://www.w3.org/1999/xlink" width="1024pt" height="576pt" viewBox="0 0 1024 576" version="1.1">
<g id="surface148">
<rect x="0" y="0" width="1024" height="576" style="fill:rgb(79.607843%,56.470588%,30.196078%);fill-opacity:1;stroke:none;"/>
<path style=" stroke:none;fill-rule:nonzero;fill:rgb(100%,100%,100%);fill-opacity:1;" d="M 488.355469 281.671875 L 492.660156 281.671875 L 492.660156 302.398438 L 488.355469 302.398438 Z M 505.496094 294.945312 L 501.09375 294.945312 L 501.09375 302.398438 L 496.792969 302.398438 L 496.792969 281.671875 L 505.820312 281.671875 C 507.902344 281.671875 509.5625 282.203125 510.796875 283.273438 C 512.035156 284.34375 512.65625 285.996094 512.65625 288.238281 C 512.65625 290.683594 512.035156 292.414062 510.796875 293.425781 C 509.558594 294.4375 507.792969 294.945312 505.496094 294.945312 Z M 507.523438 290.628906 C 508.085938 290.132812 508.367188 289.34375 508.367188 288.265625 C 508.367188 287.1875 508.082031 286.417969 507.515625 285.960938 C 506.949219 285.5 506.152344 285.269531 505.132812 285.269531 L 501.09375 285.269531 L 501.09375 291.375 L 505.132812 291.375 C 506.152344 291.375 506.949219 291.125 507.523438 290.628906 Z M 519.660156 302.398438 L 515.625 302.398438 L 515.625 281.671875 L 521.921875 281.671875 L 525.691406 297.96875 L 529.433594 281.671875 L 535.664062 281.671875 L 535.664062 302.398438 L 531.625 302.398438 L 531.625 288.378906 C 531.625 287.976562 531.632812 287.410156 531.640625 286.683594 C 531.648438 285.957031 531.65625 285.398438 531.65625 285.003906 L 527.730469 302.398438 L 523.527344 302.398438 L 519.632812 285.003906 C 519.632812 285.398438 519.636719 285.957031 519.644531 286.683594 C 519.65625 287.410156 519.660156 287.976562 519.660156 288.378906 Z M 486.5 280.222656 "/>
</g>
</svg>
