<?xml version="1.0" encoding="UTF-8"?>
<svg xmlns="http://www.w3.org/2000/svg" xmlns:xlink="http://www.w3.org/1999/xlink" width="1024pt" height="576pt" viewBox="0 0 1024 576" version="1.1">
<g id="surface158">
<rect x="0" y="0" width="1024" height="576" style="fill:rgb(12.54902%,10.196078%,13.72549%);fill-opacity:1;stroke:none;"/>
<path style=" stroke:none;fill-rule:nonzero;fill:rgb(100%,100%,100%);fill-opacity:1;" d="M 468.855469 281.671875 L 473.160156 281.671875 L 473.160156 302.398438 L 468.855469 302.398438 Z M 485.996094 294.269531 L 481.523438 294.269531 L 481.523438 302.398438 L 477.292969 302.398438 L 477.292969 281.671875 L 487.460938 281.671875 C 488.914062 281.699219 490.03125 281.875 490.8125 282.203125 C 491.597656 282.53125 492.257812 283.015625 492.804688 283.652344 C 493.253906 284.179688 493.609375 284.757812 493.871094 285.398438 C 494.132812 286.035156 494.265625 286.761719 494.265625 287.578125 C 494.265625 288.5625 494.015625 289.527344 493.519531 290.480469 C 493.023438 291.433594 492.203125 292.105469 491.058594 292.5 C 492.015625 292.882812 492.691406 293.429688 493.089844 294.136719 C 493.488281 294.84375 493.6875 295.925781 493.6875 297.378906 L 493.6875 298.769531 C 493.6875 299.71875 493.726562 300.359375 493.800781 300.695312 C 493.914062 301.230469 494.175781 301.625 494.589844 301.878906 L 494.589844 302.398438 L 489.820312 302.398438 C 489.691406 301.9375 489.597656 301.570312 489.539062 301.289062 C 489.425781 300.707031 489.367188 300.109375 489.359375 299.5 L 489.328125 297.574219 C 489.308594 296.253906 489.070312 295.371094 488.605469 294.929688 C 488.140625 294.488281 487.273438 294.269531 485.996094 294.269531 Z M 488.625 290.5 C 489.488281 290.105469 489.921875 289.328125 489.921875 288.167969 C 489.921875 286.910156 489.503906 286.066406 488.667969 285.636719 C 488.199219 285.390625 487.496094 285.269531 486.558594 285.269531 L 481.523438 285.269531 L 481.523438 290.839844 L 486.433594 290.839844 C 487.40625 290.839844 488.140625 290.726562 488.625 290.5 Z M 512.820312 300.851562 C 511.273438 302.265625 509.292969 302.976562 506.882812 302.976562 C 503.902344 302.976562 501.558594 302.019531 499.851562 300.105469 C 498.144531 298.183594 497.292969 295.550781 497.292969 292.203125 C 497.292969 288.585938 498.265625 285.796875 500.203125 283.835938 C 501.890625 282.128906 504.039062 281.277344 506.644531 281.277344 C 510.132812 281.277344 512.683594 282.421875 514.296875 284.707031 C 515.1875 285.992188 515.664062 287.28125 515.730469 288.574219 L 511.398438 288.574219 C 511.117188 287.582031 510.757812 286.832031 510.316406 286.324219 C 509.527344 285.425781 508.359375 284.976562 506.8125 284.976562 C 505.238281 284.976562 503.996094 285.609375 503.085938 286.878906 C 502.175781 288.148438 501.722656 289.949219 501.722656 292.273438 C 501.722656 294.597656 502.203125 296.339844 503.164062 297.496094 C 504.125 298.65625 505.347656 299.234375 506.828125 299.234375 C 508.347656 299.234375 509.503906 298.738281 510.300781 297.742188 C 510.742188 297.207031 511.109375 296.40625 511.398438 295.339844 L 515.6875 295.339844 C 515.3125 297.597656 514.355469 299.4375 512.820312 300.851562 Z M 535.929688 281.671875 L 528.996094 294.609375 L 528.996094 302.398438 L 524.664062 302.398438 L 524.664062 294.609375 L 517.492188 281.671875 L 522.597656 281.671875 L 526.898438 290.699219 L 531.019531 281.671875 Z M 546.996094 294.269531 L 542.523438 294.269531 L 542.523438 302.398438 L 538.292969 302.398438 L 538.292969 281.671875 L 548.460938 281.671875 C 549.914062 281.699219 551.03125 281.875 551.8125 282.203125 C 552.597656 282.53125 553.257812 283.015625 553.804688 283.652344 C 554.253906 284.179688 554.609375 284.757812 554.871094 285.398438 C 555.132812 286.035156 555.265625 286.761719 555.265625 287.578125 C 555.265625 288.5625 555.015625 289.527344 554.519531 290.480469 C 554.023438 291.433594 553.203125 292.105469 552.058594 292.5 C 553.015625 292.882812 553.691406 293.429688 554.089844 294.136719 C 554.488281 294.84375 554.6875 295.925781 554.6875 297.378906 L 554.6875 298.769531 C 554.6875 299.71875 554.726562 300.359375 554.800781 300.695312 C 554.914062 301.230469 555.175781 301.625 555.589844 301.878906 L 555.589844 302.398438 L 550.820312 302.398438 C 550.691406 301.9375 550.597656 301.570312 550.539062 301.289062 C 550.425781 300.707031 550.367188 300.109375 550.359375 299.5 L 550.328125 297.574219 C 550.308594 296.253906 550.070312 295.371094 549.605469 294.929688 C 549.140625 294.488281 548.273438 294.269531 546.996094 294.269531 Z M 549.625 290.5 C 550.488281 290.105469 550.921875 289.328125 550.921875 288.167969 C 550.921875 286.910156 550.503906 286.066406 549.667969 285.636719 C 549.199219 285.390625 548.496094 285.269531 547.558594 285.269531 L 542.523438 285.269531 L 542.523438 290.839844 L 547.433594 290.839844 C 548.40625 290.839844 549.140625 290.726562 549.625 290.5 Z M 467 280.222656 "/>
</g>
</svg>
