<?xml version="1.0" encoding="UTF-8"?>
<svg xmlns="http://www.w3.org/2000/svg" xmlns:xlink="http://www.w3.org/1999/xlink" width="1024pt" height="576pt" viewBox="0 0 1024 576" version="1.1">
<g id="surface163">
<rect x="0" y="0" width="1024" height="576" style="fill:rgb(79.607843%,56.470588%,30.196078%);fill-opacity:1;stroke:none;"/>
<path style=" stroke:none;fill-rule:nonzero;fill:rgb(100%,100%,100%);fill-opacity:1;" d="M 438.195312 281.671875 L 442.523438 281.671875 L 442.523438 298.671875 L 452.789062 298.671875 L 452.789062 302.398438 L 438.195312 302.398438 Z M 456.445312 288.730469 C 457.503906 287.378906 459.324219 286.703125 461.902344 286.703125 C 463.582031 286.703125 465.070312 287.039062 466.375 287.703125 C 467.679688 288.367188 468.328125 289.625 468.328125 291.472656 L 468.328125 298.503906 C 468.328125 298.992188 468.339844 299.582031 468.359375 300.273438 C 468.386719 300.800781 468.464844 301.15625 468.597656 301.34375 C 468.726562 301.53125 468.925781 301.6875 469.1875 301.808594 L 469.1875 302.398438 L 464.828125 302.398438 C 464.707031 302.089844 464.621094 301.796875 464.574219 301.527344 C 464.527344 301.253906 464.492188 300.945312 464.460938 300.597656 C 463.910156 301.199219 463.273438 301.710938 462.550781 302.132812 C 461.6875 302.628906 460.710938 302.875 459.625 302.875 C 458.238281 302.875 457.089844 302.480469 456.1875 301.6875 C 455.28125 300.894531 454.828125 299.773438 454.828125 298.320312 C 454.828125 296.4375 455.554688 295.070312 457.007812 294.226562 C 457.804688 293.769531 458.976562 293.441406 460.523438 293.242188 L 461.890625 293.074219 C 462.628906 292.980469 463.160156 292.863281 463.476562 292.722656 C 464.050781 292.480469 464.335938 292.101562 464.335938 291.585938 C 464.335938 290.957031 464.117188 290.523438 463.683594 290.285156 C 463.246094 290.046875 462.605469 289.925781 461.761719 289.925781 C 460.816406 289.925781 460.144531 290.160156 459.75 290.628906 C 459.46875 290.976562 459.28125 291.445312 459.1875 292.035156 L 455.320312 292.035156 C 455.40625 290.695312 455.78125 289.59375 456.445312 288.730469 Z M 459.429688 299.5 C 459.804688 299.808594 460.261719 299.964844 460.804688 299.964844 C 461.667969 299.964844 462.464844 299.710938 463.191406 299.207031 C 463.917969 298.699219 464.292969 297.777344 464.320312 296.4375 L 464.320312 294.945312 C 464.066406 295.105469 463.8125 295.234375 463.554688 295.332031 C 463.296875 295.429688 462.945312 295.523438 462.492188 295.605469 L 461.59375 295.773438 C 460.75 295.925781 460.144531 296.109375 459.78125 296.324219 C 459.160156 296.6875 458.851562 297.257812 458.851562 298.023438 C 458.851562 298.707031 459.042969 299.203125 459.429688 299.5 Z M 479.085938 290.039062 C 477.726562 290.039062 476.792969 290.613281 476.285156 291.765625 C 476.023438 292.375 475.890625 293.15625 475.890625 294.101562 L 475.890625 302.398438 L 471.898438 302.398438 L 471.898438 287.097656 L 475.765625 287.097656 L 475.765625 289.335938 C 476.28125 288.546875 476.769531 287.980469 477.226562 287.632812 C 478.050781 287.015625 479.097656 286.703125 480.363281 286.703125 C 481.949219 286.703125 483.246094 287.121094 484.253906 287.949219 C 485.261719 288.777344 485.765625 290.15625 485.765625 292.078125 L 485.765625 302.398438 L 481.65625 302.398438 L 481.65625 293.074219 C 481.65625 292.269531 481.550781 291.648438 481.335938 291.21875 C 480.941406 290.429688 480.191406 290.039062 479.085938 290.039062 Z M 494.203125 305.085938 C 494.632812 305.449219 495.359375 305.632812 496.382812 305.632812 C 497.824219 305.632812 498.789062 305.148438 499.277344 304.183594 C 499.597656 303.566406 499.757812 302.523438 499.757812 301.0625 L 499.757812 300.078125 C 499.371094 300.734375 498.960938 301.226562 498.519531 301.554688 C 497.722656 302.164062 496.6875 302.46875 495.410156 302.46875 C 493.441406 302.46875 491.871094 301.777344 490.691406 300.394531 C 489.515625 299.011719 488.929688 297.140625 488.929688 294.777344 C 488.929688 292.5 489.496094 290.582031 490.628906 289.03125 C 491.765625 287.480469 493.371094 286.703125 495.453125 286.703125 C 496.222656 286.703125 496.890625 286.820312 497.464844 287.054688 C 498.4375 287.457031 499.226562 288.199219 499.828125 289.277344 L 499.828125 287.070312 L 503.722656 287.070312 L 503.722656 301.609375 C 503.722656 303.589844 503.390625 305.078125 502.722656 306.082031 C 501.578125 307.808594 499.386719 308.671875 496.140625 308.671875 C 494.183594 308.671875 492.585938 308.285156 491.347656 307.515625 C 490.109375 306.746094 489.425781 305.601562 489.292969 304.070312 L 493.652344 304.070312 C 493.765625 304.539062 493.949219 304.878906 494.203125 305.085938 Z M 493.527344 297.167969 C 494.070312 298.460938 495.046875 299.109375 496.453125 299.109375 C 497.390625 299.109375 498.179688 298.753906 498.828125 298.046875 C 499.476562 297.339844 499.796875 296.210938 499.796875 294.664062 C 499.796875 293.210938 499.492188 292.105469 498.878906 291.34375 C 498.265625 290.585938 497.441406 290.207031 496.410156 290.207031 C 495.003906 290.207031 494.03125 290.867188 493.5 292.1875 C 493.21875 292.890625 493.078125 293.757812 493.078125 294.789062 C 493.078125 295.679688 493.226562 296.472656 493.527344 297.167969 Z M 518.429688 287.773438 C 519.628906 288.542969 520.320312 289.863281 520.5 291.738281 L 516.492188 291.738281 C 516.433594 291.222656 516.289062 290.816406 516.054688 290.515625 C 515.613281 289.972656 514.863281 289.699219 513.804688 289.699219 C 512.933594 289.699219 512.3125 289.835938 511.941406 290.109375 C 511.570312 290.378906 511.386719 290.699219 511.386719 291.0625 C 511.386719 291.523438 511.582031 291.855469 511.976562 292.0625 C 512.371094 292.277344 513.761719 292.648438 516.152344 293.171875 C 517.746094 293.546875 518.941406 294.117188 519.738281 294.875 C 520.527344 295.644531 520.921875 296.605469 520.921875 297.757812 C 520.921875 299.277344 520.355469 300.515625 519.226562 301.476562 C 518.097656 302.4375 516.351562 302.917969 513.988281 302.917969 C 511.578125 302.917969 509.800781 302.410156 508.652344 301.394531 C 507.503906 300.375 506.929688 299.078125 506.929688 297.503906 L 510.992188 297.503906 C 511.078125 298.21875 511.257812 298.722656 511.539062 299.023438 C 512.035156 299.558594 512.957031 299.824219 514.296875 299.824219 C 515.085938 299.824219 515.710938 299.707031 516.175781 299.472656 C 516.640625 299.238281 516.871094 298.886719 516.871094 298.417969 C 516.871094 297.96875 516.683594 297.625 516.308594 297.390625 C 515.933594 297.15625 514.539062 296.753906 512.132812 296.183594 C 510.398438 295.75 509.171875 295.210938 508.460938 294.566406 C 507.75 293.929688 507.390625 293.007812 507.390625 291.808594 C 507.390625 290.394531 507.949219 289.175781 509.058594 288.160156 C 510.167969 287.144531 511.734375 286.632812 513.75 286.632812 C 515.660156 286.632812 517.222656 287.015625 518.429688 287.773438 Z M 537.132812 292.570312 L 533.023438 292.570312 C 532.949219 291.996094 532.757812 291.480469 532.449219 291.023438 C 532 290.402344 531.300781 290.09375 530.351562 290.09375 C 529.003906 290.09375 528.078125 290.765625 527.582031 292.105469 C 527.320312 292.816406 527.1875 293.765625 527.1875 294.945312 C 527.1875 296.070312 527.320312 296.976562 527.582031 297.660156 C 528.0625 298.933594 528.960938 299.570312 530.28125 299.570312 C 531.21875 299.570312 531.886719 299.320312 532.28125 298.8125 C 532.675781 298.304688 532.914062 297.648438 532.996094 296.84375 L 537.089844 296.84375 C 536.996094 298.0625 536.554688 299.214844 535.765625 300.304688 C 534.511719 302.058594 532.648438 302.933594 530.183594 302.933594 C 527.71875 302.933594 525.90625 302.203125 524.742188 300.738281 C 523.578125 299.277344 523 297.378906 523 295.042969 C 523 292.410156 523.640625 290.359375 524.925781 288.898438 C 526.210938 287.4375 527.980469 286.703125 530.242188 286.703125 C 532.164062 286.703125 533.734375 287.136719 534.957031 288 C 536.179688 288.863281 536.90625 290.382812 537.132812 292.570312 Z M 540.445312 288.730469 C 541.503906 287.378906 543.324219 286.703125 545.902344 286.703125 C 547.582031 286.703125 549.070312 287.039062 550.375 287.703125 C 551.679688 288.367188 552.328125 289.625 552.328125 291.472656 L 552.328125 298.503906 C 552.328125 298.992188 552.339844 299.582031 552.359375 300.273438 C 552.386719 300.800781 552.464844 301.15625 552.597656 301.34375 C 552.726562 301.53125 552.925781 301.6875 553.1875 301.808594 L 553.1875 302.398438 L 548.828125 302.398438 C 548.707031 302.089844 548.621094 301.796875 548.574219 301.527344 C 548.527344 301.253906 548.492188 300.945312 548.460938 300.597656 C 547.910156 301.199219 547.273438 301.710938 546.550781 302.132812 C 545.6875 302.628906 544.710938 302.875 543.625 302.875 C 542.238281 302.875 541.089844 302.480469 540.1875 301.6875 C 539.28125 300.894531 538.828125 299.773438 538.828125 298.320312 C 538.828125 296.4375 539.554688 295.070312 541.007812 294.226562 C 541.804688 293.769531 542.976562 293.441406 544.523438 293.242188 L 545.890625 293.074219 C 546.628906 292.980469 547.160156 292.863281 547.476562 292.722656 C 548.050781 292.480469 548.335938 292.101562 548.335938 291.585938 C 548.335938 290.957031 548.117188 290.523438 547.683594 290.285156 C 547.246094 290.046875 546.605469 289.925781 545.761719 289.925781 C 544.816406 289.925781 544.144531 290.160156 543.75 290.628906 C 543.46875 290.976562 543.28125 291.445312 543.1875 292.035156 L 539.320312 292.035156 C 539.40625 290.695312 539.78125 289.59375 540.445312 288.730469 Z M 543.429688 299.5 C 543.804688 299.808594 544.261719 299.964844 544.804688 299.964844 C 545.667969 299.964844 546.464844 299.710938 547.191406 299.207031 C 547.917969 298.699219 548.292969 297.777344 548.320312 296.4375 L 548.320312 294.945312 C 548.066406 295.105469 547.8125 295.234375 547.554688 295.332031 C 547.296875 295.429688 546.945312 295.523438 546.492188 295.605469 L 545.59375 295.773438 C 544.75 295.925781 544.144531 296.109375 543.78125 296.324219 C 543.160156 296.6875 542.851562 297.257812 542.851562 298.023438 C 542.851562 298.707031 543.042969 299.203125 543.429688 299.5 Z M 568.710938 288.714844 C 569.949219 290.039062 570.566406 291.976562 570.566406 294.539062 C 570.566406 297.238281 569.957031 299.296875 568.746094 300.710938 C 567.53125 302.125 565.96875 302.835938 564.054688 302.835938 C 562.835938 302.835938 561.824219 302.53125 561.015625 301.921875 C 560.574219 301.582031 560.144531 301.089844 559.722656 300.445312 L 559.722656 308.429688 L 555.757812 308.429688 L 555.757812 287.070312 L 559.597656 287.070312 L 559.597656 289.335938 C 560.027344 288.667969 560.488281 288.144531 560.976562 287.757812 C 561.867188 287.074219 562.925781 286.734375 564.152344 286.734375 C 565.945312 286.734375 567.460938 287.394531 568.710938 288.714844 Z M 566.429688 294.734375 C 566.429688 293.554688 566.160156 292.507812 565.621094 291.597656 C 565.082031 290.6875 564.210938 290.234375 563 290.234375 C 561.546875 290.234375 560.546875 290.921875 560.003906 292.300781 C 559.722656 293.03125 559.582031 293.960938 559.582031 295.085938 C 559.582031 296.867188 560.054688 298.117188 561.003906 298.839844 C 561.566406 299.261719 562.230469 299.472656 563 299.472656 C 564.117188 299.472656 564.964844 299.042969 565.550781 298.179688 C 566.136719 297.316406 566.429688 296.167969 566.429688 294.734375 Z M 586.992188 297.898438 C 586.886719 298.808594 586.414062 299.730469 585.570312 300.667969 C 584.257812 302.160156 582.421875 302.90625 580.058594 302.90625 C 578.109375 302.90625 576.386719 302.277344 574.898438 301.019531 C 573.40625 299.765625 572.660156 297.71875 572.660156 294.890625 C 572.660156 292.238281 573.332031 290.203125 574.679688 288.785156 C 576.023438 287.371094 577.769531 286.664062 579.917969 286.664062 C 581.191406 286.664062 582.339844 286.902344 583.363281 287.378906 C 584.382812 287.859375 585.226562 288.613281 585.894531 289.644531 C 586.492188 290.554688 586.882812 291.609375 587.0625 292.808594 C 587.164062 293.511719 587.207031 294.523438 587.1875 295.84375 L 576.695312 295.84375 C 576.753906 297.382812 577.234375 298.460938 578.144531 299.078125 C 578.699219 299.464844 579.363281 299.65625 580.140625 299.65625 C 580.964844 299.65625 581.636719 299.421875 582.152344 298.953125 C 582.433594 298.699219 582.683594 298.347656 582.898438 297.898438 Z M 583.023438 293.203125 C 582.957031 292.144531 582.636719 291.339844 582.0625 290.789062 C 581.484375 290.242188 580.769531 289.96875 579.917969 289.96875 C 578.988281 289.96875 578.269531 290.257812 577.757812 290.839844 C 577.246094 291.421875 576.925781 292.207031 576.796875 293.203125 Z M 436 280.222656 "/>
</g>
</svg>
