<?xml version="1.0" encoding="UTF-8"?>
<svg xmlns="http://www.w3.org/2000/svg" xmlns:xlink="http://www.w3.org/1999/xlink" width="1024pt" height="576pt" viewBox="0 0 1024 576" version="1.1">
<g id="surface173">
<rect x="0" y="0" width="1024" height="576" style="fill:rgb(42.745098%,54.117647%,58.823529%);fill-opacity:1;stroke:none;"/>
<path style=" stroke:none;fill-rule:nonzero;fill:rgb(100%,100%,100%);fill-opacity:1;" d="M 429.660156 302.398438 L 425.625 302.398438 L 425.625 281.671875 L 431.921875 281.671875 L 435.691406 297.96875 L 439.433594 281.671875 L 445.664062 281.671875 L 445.664062 302.398438 L 441.625 302.398438 L 441.625 288.378906 C 441.625 287.976562 441.632812 287.410156 441.640625 286.683594 C 441.648438 285.957031 441.65625 285.398438 441.65625 285.003906 L 437.730469 302.398438 L 433.527344 302.398438 L 429.632812 285.003906 C 429.632812 285.398438 429.636719 285.957031 429.644531 286.683594 C 429.65625 287.410156 429.660156 287.976562 429.660156 288.378906 Z M 449.945312 288.730469 C 451.003906 287.378906 452.824219 286.703125 455.402344 286.703125 C 457.082031 286.703125 458.570312 287.039062 459.875 287.703125 C 461.179688 288.367188 461.828125 289.625 461.828125 291.472656 L 461.828125 298.503906 C 461.828125 298.992188 461.839844 299.582031 461.859375 300.273438 C 461.886719 300.800781 461.964844 301.15625 462.097656 301.34375 C 462.226562 301.53125 462.425781 301.6875 462.6875 301.808594 L 462.6875 302.398438 L 458.328125 302.398438 C 458.207031 302.089844 458.121094 301.796875 458.074219 301.527344 C 458.027344 301.253906 457.992188 300.945312 457.960938 300.597656 C 457.410156 301.199219 456.773438 301.710938 456.050781 302.132812 C 455.1875 302.628906 454.210938 302.875 453.125 302.875 C 451.738281 302.875 450.589844 302.480469 449.6875 301.6875 C 448.78125 300.894531 448.328125 299.773438 448.328125 298.320312 C 448.328125 296.4375 449.054688 295.070312 450.507812 294.226562 C 451.304688 293.769531 452.476562 293.441406 454.023438 293.242188 L 455.390625 293.074219 C 456.128906 292.980469 456.660156 292.863281 456.976562 292.722656 C 457.550781 292.480469 457.835938 292.101562 457.835938 291.585938 C 457.835938 290.957031 457.617188 290.523438 457.183594 290.285156 C 456.746094 290.046875 456.105469 289.925781 455.261719 289.925781 C 454.316406 289.925781 453.644531 290.160156 453.25 290.628906 C 452.96875 290.976562 452.78125 291.445312 452.6875 292.035156 L 448.820312 292.035156 C 448.90625 290.695312 449.28125 289.59375 449.945312 288.730469 Z M 452.929688 299.5 C 453.304688 299.808594 453.761719 299.964844 454.304688 299.964844 C 455.167969 299.964844 455.964844 299.710938 456.691406 299.207031 C 457.417969 298.699219 457.792969 297.777344 457.820312 296.4375 L 457.820312 294.945312 C 457.566406 295.105469 457.3125 295.234375 457.054688 295.332031 C 456.796875 295.429688 456.445312 295.523438 455.992188 295.605469 L 455.09375 295.773438 C 454.25 295.925781 453.644531 296.109375 453.28125 296.324219 C 452.660156 296.6875 452.351562 297.257812 452.351562 298.023438 C 452.351562 298.707031 452.542969 299.203125 452.929688 299.5 Z M 474.625 302.398438 L 465.695312 302.398438 L 465.695312 281.671875 L 474.625 281.671875 C 475.910156 281.691406 476.976562 281.839844 477.828125 282.121094 C 479.28125 282.597656 480.460938 283.476562 481.359375 284.75 C 482.082031 285.78125 482.574219 286.898438 482.835938 288.097656 C 483.097656 289.296875 483.230469 290.441406 483.230469 291.527344 C 483.230469 294.285156 482.675781 296.617188 481.570312 298.53125 C 480.070312 301.109375 477.753906 302.398438 474.625 302.398438 Z M 477.84375 286.957031 C 477.179688 285.832031 475.859375 285.269531 473.890625 285.269531 L 469.898438 285.269531 L 469.898438 298.796875 L 473.890625 298.796875 C 475.933594 298.796875 477.359375 297.789062 478.167969 295.773438 C 478.609375 294.667969 478.828125 293.351562 478.828125 291.824219 C 478.828125 289.714844 478.5 288.09375 477.84375 286.957031 Z M 490.492188 287.070312 L 490.492188 302.398438 L 486.425781 302.398438 L 486.425781 287.070312 Z M 490.492188 281.542969 L 490.492188 285.242188 L 486.425781 285.242188 L 486.425781 281.542969 Z M 507.054688 302.398438 L 507.054688 293.144531 L 498.953125 293.144531 L 498.953125 302.398438 L 494.664062 302.398438 L 494.664062 281.671875 L 498.953125 281.671875 L 498.953125 289.574219 L 507.054688 289.574219 L 507.054688 281.671875 L 511.359375 281.671875 L 511.359375 302.398438 Z M 527.773438 308.207031 L 526.773438 306.84375 C 526.125 306.019531 525.4375 304.789062 524.707031 303.15625 C 523.402344 300.242188 522.75 297.375 522.75 294.550781 C 522.75 291.984375 523.300781 289.433594 524.398438 286.902344 C 525.136719 285.175781 526.21875 283.320312 527.644531 281.332031 L 530.667969 281.332031 L 529.8125 282.90625 C 528.628906 285.074219 527.808594 287.34375 527.351562 289.714844 C 527.050781 291.269531 526.898438 292.96875 526.898438 294.804688 C 526.898438 297.671875 527.316406 300.3125 528.152344 302.722656 C 528.640625 304.148438 529.5 305.976562 530.738281 308.207031 Z M 551.34375 301.097656 L 545.976562 301.097656 C 543.390625 301.097656 542.097656 299.246094 542.097656 295.550781 C 542.132812 293.824219 542.175781 292.886719 542.226562 292.738281 C 539.398438 293.136719 537.351562 293.941406 536.082031 295.152344 C 534.816406 296.363281 534.183594 297.734375 534.183594 299.261719 C 534.183594 300.660156 534.78125 301.980469 535.980469 303.226562 C 537.175781 304.472656 539.28125 305.09375 542.292969 305.09375 C 544.003906 305.03125 545.820312 304.789062 547.742188 304.363281 C 549.664062 303.9375 550.683594 303.683594 550.796875 303.597656 C 550.292969 304.449219 548.761719 305.683594 546.199219 307.308594 C 544.742188 308.390625 543.015625 308.933594 541.015625 308.933594 C 538.125 308.933594 535.992188 308.097656 534.613281 306.429688 C 533.230469 304.757812 532.542969 302.796875 532.542969 300.550781 C 532.542969 297.183594 534 294.160156 536.917969 291.488281 C 536.628906 291.324219 536.316406 291.242188 535.980469 291.242188 C 534.476562 291.242188 533.011719 291.800781 531.578125 292.921875 C 532.523438 290.992188 533.125 289.875 533.375 289.5625 C 534.105469 288.257812 535.398438 287.609375 537.253906 287.609375 C 538.0625 287.609375 539.113281 287.757812 540.410156 288.058594 C 541.710938 288.355469 542.890625 288.507812 543.960938 288.507812 C 544.742188 288.507812 546.136719 288.394531 548.152344 288.167969 L 547.085938 292.125 L 543.453125 292.542969 L 543.425781 292.945312 C 543.425781 293.363281 543.476562 294.136719 543.582031 295.269531 C 543.6875 296.402344 544.347656 296.96875 545.5625 296.96875 L 551.34375 296.957031 Z M 562.335938 298.023438 C 562.335938 300.070312 562.054688 301.097656 561.488281 301.097656 L 550.5 301.097656 L 550.5 296.96875 L 558.960938 296.96875 C 559.152344 296.96875 559.25 296.808594 559.25 296.488281 C 559.25 296.253906 558.953125 295.605469 558.359375 294.539062 C 557.761719 293.476562 557.382812 292.945312 557.21875 292.945312 L 559.429688 289.507812 C 560.144531 290.097656 560.828125 291.390625 561.488281 293.390625 C 562.054688 295.386719 562.335938 296.929688 562.335938 298.023438 Z M 556.4375 305.730469 L 558.089844 303.699219 L 560.601562 305.835938 L 558.765625 307.996094 L 556.359375 306.003906 L 554.707031 307.996094 L 552.230469 305.902344 L 554.054688 303.726562 Z M 574.59375 301.109375 C 574.378906 301.179688 573.898438 301.300781 573.148438 301.472656 C 572.402344 301.648438 571.660156 301.816406 570.921875 301.980469 C 569.691406 302.257812 568.582031 302.398438 567.589844 302.398438 C 566.558594 302.371094 565.769531 302.113281 565.222656 301.617188 C 564.746094 301.332031 564.515625 300.597656 564.53125 299.417969 C 564.53125 299.269531 564.535156 299.03125 564.542969 298.707031 C 564.550781 298.382812 564.617188 297.867188 564.738281 297.15625 C 564.859375 296.449219 564.964844 295.976562 565.050781 295.738281 C 565.136719 295.5 565.230469 295.378906 565.324219 295.378906 C 565.34375 295.378906 565.359375 295.386719 565.378906 295.394531 L 565.46875 296.355469 C 565.496094 297.285156 565.734375 297.863281 566.183594 298.089844 C 566.800781 298.347656 567.417969 298.480469 568.035156 298.480469 C 568.390625 298.480469 568.777344 298.464844 569.191406 298.433594 C 569.609375 298.402344 570.152344 298.308594 570.820312 298.152344 C 572.148438 297.882812 572.8125 297.675781 572.8125 297.527344 C 572.8125 297.09375 572.515625 296.050781 571.925781 294.390625 C 571.40625 293.148438 570.824219 292.191406 570.183594 291.515625 L 571.964844 288.179688 C 572.71875 289.023438 573.398438 290.324219 573.996094 292.085938 C 574.484375 293.519531 574.804688 295.144531 574.960938 296.96875 L 575.976562 296.96875 L 575.976562 301.097656 L 574.632812 301.097656 C 574.617188 301.105469 574.605469 301.109375 574.59375 301.109375 Z M 590.304688 297.621094 C 590.304688 299.964844 588.929688 301.136719 586.175781 301.136719 C 585.03125 301.136719 583.976562 300.96875 583.011719 300.632812 C 582.046875 300.300781 581.164062 299.820312 580.355469 299.195312 C 579.949219 300.460938 578.984375 301.097656 577.464844 301.097656 L 575.5 301.097656 L 575.5 296.96875 C 578.980469 296.96875 580.78125 296.816406 580.902344 296.511719 C 581.199219 296 581.585938 295.296875 582.0625 294.402344 C 582.746094 292.945312 583.488281 291.816406 584.28125 291.019531 C 585.074219 290.222656 585.925781 289.820312 586.828125 289.820312 C 587.410156 289.820312 587.898438 290.085938 588.296875 290.617188 C 588.695312 291.144531 589.136719 292.25 589.613281 293.9375 C 590.089844 295.621094 590.320312 296.847656 590.304688 297.621094 Z M 587.542969 296.980469 C 587.542969 296.417969 587.328125 295.710938 586.898438 294.867188 C 586.46875 294.019531 585.859375 293.597656 585.070312 293.597656 C 584.871094 293.597656 584.578125 293.691406 584.191406 293.882812 C 583.804688 294.074219 583.410156 294.382812 583.011719 294.808594 C 582.613281 295.234375 582.414062 295.5625 582.414062 295.796875 C 582.414062 295.910156 582.492188 296.039062 582.648438 296.1875 C 582.804688 296.335938 583.203125 296.527344 583.84375 296.761719 C 584.488281 296.996094 585.160156 297.148438 585.855469 297.222656 C 586.554688 297.296875 586.984375 297.332031 587.140625 297.332031 C 587.410156 297.332031 587.542969 297.214844 587.542969 296.980469 Z M 594.761719 306.84375 L 593.761719 308.207031 L 590.796875 308.207031 C 592.035156 305.976562 592.894531 304.148438 593.382812 302.722656 C 594.21875 300.3125 594.632812 297.671875 594.632812 294.804688 C 594.632812 292.96875 594.484375 291.269531 594.183594 289.714844 C 593.726562 287.34375 592.90625 285.074219 591.722656 282.90625 L 590.867188 281.332031 L 593.890625 281.332031 C 595.316406 283.320312 596.398438 285.175781 597.136719 286.902344 C 598.234375 289.433594 598.78125 291.984375 598.78125 294.550781 C 598.78125 297.375 598.132812 300.242188 596.828125 303.15625 C 596.097656 304.789062 595.40625 306.015625 594.761719 306.84375 Z M 423.5 276.621094 "/>
</g>
</svg>
