<?xml version="1.0" encoding="UTF-8"?>
<svg xmlns="http://www.w3.org/2000/svg" xmlns:xlink="http://www.w3.org/1999/xlink" width="1024pt" height="576pt" viewBox="0 0 1024 576" version="1.1">
<g id="surface179">
<rect x="0" y="0" width="1024" height="576" style="fill:rgb(79.607843%,56.470588%,30.196078%);fill-opacity:1;stroke:none;"/>
<path style=" stroke:none;fill-rule:nonzero;fill:rgb(100%,100%,100%);fill-opacity:1;" d="M 484.660156 302.398438 L 480.625 302.398438 L 480.625 281.671875 L 486.921875 281.671875 L 490.691406 297.96875 L 494.433594 281.671875 L 500.664062 281.671875 L 500.664062 302.398438 L 496.625 302.398438 L 496.625 288.378906 C 496.625 287.976562 496.632812 287.410156 496.640625 286.683594 C 496.648438 285.957031 496.65625 285.398438 496.65625 285.003906 L 492.730469 302.398438 L 488.527344 302.398438 L 484.632812 285.003906 C 484.632812 285.398438 484.636719 285.957031 484.644531 286.683594 C 484.65625 287.410156 484.660156 287.976562 484.660156 288.378906 Z M 516.828125 298.136719 L 509.195312 298.136719 L 507.757812 302.398438 L 503.230469 302.398438 L 510.628906 281.671875 L 515.523438 281.671875 L 522.863281 302.398438 L 518.164062 302.398438 Z M 515.621094 294.566406 L 513.03125 286.410156 L 510.359375 294.566406 Z M 534.863281 302.976562 C 531.898438 302.976562 529.636719 302.167969 528.070312 300.554688 C 525.96875 298.578125 524.921875 295.726562 524.921875 292.007812 C 524.921875 288.210938 525.96875 285.359375 528.070312 283.457031 C 529.636719 281.84375 531.898438 281.039062 534.863281 281.039062 C 537.824219 281.039062 540.089844 281.84375 541.65625 283.457031 C 543.746094 285.359375 544.789062 288.210938 544.789062 292.007812 C 544.789062 295.730469 543.746094 298.578125 541.65625 300.554688 C 540.089844 302.167969 537.824219 302.976562 534.863281 302.976562 Z M 538.953125 297.40625 C 539.957031 296.140625 540.460938 294.339844 540.460938 292.007812 C 540.460938 289.683594 539.957031 287.882812 538.949219 286.613281 C 537.941406 285.34375 536.578125 284.707031 534.863281 284.707031 C 533.148438 284.707031 531.777344 285.339844 530.757812 286.605469 C 529.734375 287.871094 529.222656 289.671875 529.222656 292.007812 C 529.222656 294.339844 529.734375 296.140625 530.757812 297.40625 C 531.777344 298.671875 533.148438 299.304688 534.863281 299.304688 C 536.578125 299.304688 537.941406 298.671875 538.953125 297.40625 Z M 478.5 280.222656 "/>
</g>
</svg>
