<?xml version="1.0" encoding="UTF-8"?>
<svg xmlns="http://www.w3.org/2000/svg" xmlns:xlink="http://www.w3.org/1999/xlink" width="1024pt" height="576pt" viewBox="0 0 1024 576" version="1.1">
<g id="surface184">
<rect x="0" y="0" width="1024" height="576" style="fill:rgb(79.607843%,56.470588%,30.196078%);fill-opacity:1;stroke:none;"/>
<path style=" stroke:none;fill-rule:nonzero;fill:rgb(100%,100%,100%);fill-opacity:1;" d="M 477.660156 302.398438 L 473.625 302.398438 L 473.625 281.671875 L 479.921875 281.671875 L 483.691406 297.96875 L 487.433594 281.671875 L 493.664062 281.671875 L 493.664062 302.398438 L 489.625 302.398438 L 489.625 288.378906 C 489.625 287.976562 489.632812 287.410156 489.640625 286.683594 C 489.648438 285.957031 489.65625 285.398438 489.65625 285.003906 L 485.730469 302.398438 L 481.527344 302.398438 L 477.632812 285.003906 C 477.632812 285.398438 477.636719 285.957031 477.644531 286.683594 C 477.65625 287.410156 477.660156 287.976562 477.660156 288.378906 Z M 512.390625 285.339844 L 501.996094 285.339844 L 501.996094 290.109375 L 511.09375 290.109375 L 511.09375 293.707031 L 501.996094 293.707031 L 501.996094 302.398438 L 497.695312 302.398438 L 497.695312 281.699219 L 512.390625 281.699219 Z M 515.695312 281.671875 L 520.023438 281.671875 L 520.023438 298.671875 L 530.289062 298.671875 L 530.289062 302.398438 L 515.695312 302.398438 Z M 548.320312 300.851562 C 546.773438 302.265625 544.792969 302.976562 542.382812 302.976562 C 539.402344 302.976562 537.058594 302.019531 535.351562 300.105469 C 533.644531 298.183594 532.792969 295.550781 532.792969 292.203125 C 532.792969 288.585938 533.765625 285.796875 535.703125 283.835938 C 537.390625 282.128906 539.539062 281.277344 542.144531 281.277344 C 545.632812 281.277344 548.183594 282.421875 549.796875 284.707031 C 550.6875 285.992188 551.164062 287.28125 551.230469 288.574219 L 546.898438 288.574219 C 546.617188 287.582031 546.257812 286.832031 545.816406 286.324219 C 545.027344 285.425781 543.859375 284.976562 542.3125 284.976562 C 540.738281 284.976562 539.496094 285.609375 538.585938 286.878906 C 537.675781 288.148438 537.222656 289.949219 537.222656 292.273438 C 537.222656 294.597656 537.703125 296.339844 538.664062 297.496094 C 539.625 298.65625 540.847656 299.234375 542.328125 299.234375 C 543.847656 299.234375 545.003906 298.738281 545.800781 297.742188 C 546.242188 297.207031 546.609375 296.40625 546.898438 295.339844 L 551.1875 295.339844 C 550.8125 297.597656 549.855469 299.4375 548.320312 300.851562 Z M 471.5 280.222656 "/>
</g>
</svg>
