<?xml version="1.0" encoding="UTF-8"?>
<svg xmlns="http://www.w3.org/2000/svg" xmlns:xlink="http://www.w3.org/1999/xlink" width="1024pt" height="576pt" viewBox="0 0 1024 576" version="1.1">
<g id="surface189">
<rect x="0" y="0" width="1024" height="576" style="fill:rgb(42.745098%,54.117647%,58.823529%);fill-opacity:1;stroke:none;"/>
<path style=" stroke:none;fill-rule:nonzero;fill:rgb(100%,100%,100%);fill-opacity:1;" d="M 444.160156 302.398438 L 440.125 302.398438 L 440.125 281.671875 L 446.421875 281.671875 L 450.191406 297.96875 L 453.933594 281.671875 L 460.164062 281.671875 L 460.164062 302.398438 L 456.125 302.398438 L 456.125 288.378906 C 456.125 287.976562 456.132812 287.410156 456.140625 286.683594 C 456.148438 285.957031 456.15625 285.398438 456.15625 285.003906 L 452.230469 302.398438 L 448.027344 302.398438 L 444.132812 285.003906 C 444.132812 285.398438 444.136719 285.957031 444.144531 286.683594 C 444.15625 287.410156 444.160156 287.976562 444.160156 288.378906 Z M 482.558594 302.398438 L 476.992188 302.398438 L 470.59375 293.34375 L 468.523438 295.464844 L 468.523438 302.398438 L 464.265625 302.398438 L 464.265625 281.671875 L 468.523438 281.671875 L 468.523438 290.207031 L 476.527344 281.671875 L 482.125 281.671875 L 473.628906 290.207031 Z M 499.820312 300.851562 C 498.273438 302.265625 496.292969 302.976562 493.882812 302.976562 C 490.902344 302.976562 488.558594 302.019531 486.851562 300.105469 C 485.144531 298.183594 484.292969 295.550781 484.292969 292.203125 C 484.292969 288.585938 485.265625 285.796875 487.203125 283.835938 C 488.890625 282.128906 491.039062 281.277344 493.644531 281.277344 C 497.132812 281.277344 499.683594 282.421875 501.296875 284.707031 C 502.1875 285.992188 502.664062 287.28125 502.730469 288.574219 L 498.398438 288.574219 C 498.117188 287.582031 497.757812 286.832031 497.316406 286.324219 C 496.527344 285.425781 495.359375 284.976562 493.8125 284.976562 C 492.238281 284.976562 490.996094 285.609375 490.085938 286.878906 C 489.175781 288.148438 488.722656 289.949219 488.722656 292.273438 C 488.722656 294.597656 489.203125 296.339844 490.164062 297.496094 C 491.125 298.65625 492.347656 299.234375 493.828125 299.234375 C 495.347656 299.234375 496.503906 298.738281 497.300781 297.742188 C 497.742188 297.207031 498.109375 296.40625 498.398438 295.339844 L 502.6875 295.339844 C 502.3125 297.597656 501.355469 299.4375 499.820312 300.851562 Z M 518.554688 302.398438 L 518.554688 293.144531 L 510.453125 293.144531 L 510.453125 302.398438 L 506.164062 302.398438 L 506.164062 281.671875 L 510.453125 281.671875 L 510.453125 289.574219 L 518.554688 289.574219 L 518.554688 281.671875 L 522.859375 281.671875 L 522.859375 302.398438 Z M 541.621094 293.34375 L 531.554688 293.34375 L 531.554688 298.671875 L 543.027344 298.671875 L 543.027344 302.398438 L 527.320312 302.398438 L 527.320312 281.671875 L 542.523438 281.671875 L 542.523438 285.339844 L 531.554688 285.339844 L 531.554688 289.742188 L 541.621094 289.742188 Z M 558.457031 294.410156 L 558.457031 281.671875 L 562.859375 281.671875 L 562.859375 294.410156 C 562.859375 296.613281 562.515625 298.328125 561.832031 299.558594 C 560.554688 301.808594 558.125 302.933594 554.53125 302.933594 C 550.941406 302.933594 548.503906 301.808594 547.21875 299.558594 C 546.535156 298.328125 546.195312 296.613281 546.195312 294.410156 L 546.195312 281.671875 L 550.59375 281.671875 L 550.59375 294.410156 C 550.59375 295.835938 550.765625 296.875 551.101562 297.53125 C 551.625 298.695312 552.769531 299.277344 554.53125 299.277344 C 556.285156 299.277344 557.425781 298.695312 557.949219 297.53125 C 558.289062 296.875 558.457031 295.835938 558.457031 294.410156 Z M 575.996094 294.269531 L 571.523438 294.269531 L 571.523438 302.398438 L 567.292969 302.398438 L 567.292969 281.671875 L 577.460938 281.671875 C 578.914062 281.699219 580.03125 281.875 580.8125 282.203125 C 581.597656 282.53125 582.257812 283.015625 582.804688 283.652344 C 583.253906 284.179688 583.609375 284.757812 583.871094 285.398438 C 584.132812 286.035156 584.265625 286.761719 584.265625 287.578125 C 584.265625 288.5625 584.015625 289.527344 583.519531 290.480469 C 583.023438 291.433594 582.203125 292.105469 581.058594 292.5 C 582.015625 292.882812 582.691406 293.429688 583.089844 294.136719 C 583.488281 294.84375 583.6875 295.925781 583.6875 297.378906 L 583.6875 298.769531 C 583.6875 299.71875 583.726562 300.359375 583.800781 300.695312 C 583.914062 301.230469 584.175781 301.625 584.589844 301.878906 L 584.589844 302.398438 L 579.820312 302.398438 C 579.691406 301.9375 579.597656 301.570312 579.539062 301.289062 C 579.425781 300.707031 579.367188 300.109375 579.359375 299.5 L 579.328125 297.574219 C 579.308594 296.253906 579.070312 295.371094 578.605469 294.929688 C 578.140625 294.488281 577.273438 294.269531 575.996094 294.269531 Z M 578.625 290.5 C 579.488281 290.105469 579.921875 289.328125 579.921875 288.167969 C 579.921875 286.910156 579.503906 286.066406 578.667969 285.636719 C 578.199219 285.390625 577.496094 285.269531 576.558594 285.269531 L 571.523438 285.269531 L 571.523438 290.839844 L 576.433594 290.839844 C 577.40625 290.839844 578.140625 290.726562 578.625 290.5 Z M 438 280.222656 "/>
</g>
</svg>
