<?xml version="1.0" encoding="UTF-8"?>
<svg xmlns="http://www.w3.org/2000/svg" xmlns:xlink="http://www.w3.org/1999/xlink" width="1024pt" height="576pt" viewBox="0 0 1024 576" version="1.1">
<g id="surface204">
<rect x="0" y="0" width="1024" height="576" style="fill:rgb(36.470588%,43.921569%,49.803922%);fill-opacity:1;stroke:none;"/>
<path style=" stroke:none;fill-rule:nonzero;fill:rgb(100%,100%,100%);fill-opacity:1;" d="M 212.457031 302.398438 L 208.125 302.398438 L 199.660156 287.675781 L 199.660156 302.398438 L 195.625 302.398438 L 195.625 281.671875 L 200.164062 281.671875 L 208.421875 296.140625 L 208.421875 281.671875 L 212.457031 281.671875 Z M 216.945312 288.730469 C 218.003906 287.378906 219.824219 286.703125 222.402344 286.703125 C 224.082031 286.703125 225.570312 287.039062 226.875 287.703125 C 228.179688 288.367188 228.828125 289.625 228.828125 291.472656 L 228.828125 298.503906 C 228.828125 298.992188 228.839844 299.582031 228.859375 300.273438 C 228.886719 300.800781 228.964844 301.15625 229.097656 301.34375 C 229.226562 301.53125 229.425781 301.6875 229.6875 301.808594 L 229.6875 302.398438 L 225.328125 302.398438 C 225.207031 302.089844 225.121094 301.796875 225.074219 301.527344 C 225.027344 301.253906 224.992188 300.945312 224.960938 300.597656 C 224.410156 301.199219 223.773438 301.710938 223.050781 302.132812 C 222.1875 302.628906 221.210938 302.875 220.125 302.875 C 218.738281 302.875 217.589844 302.480469 216.6875 301.6875 C 215.78125 300.894531 215.328125 299.773438 215.328125 298.320312 C 215.328125 296.4375 216.054688 295.070312 217.507812 294.226562 C 218.304688 293.769531 219.476562 293.441406 221.023438 293.242188 L 222.390625 293.074219 C 223.128906 292.980469 223.660156 292.863281 223.976562 292.722656 C 224.550781 292.480469 224.835938 292.101562 224.835938 291.585938 C 224.835938 290.957031 224.617188 290.523438 224.183594 290.285156 C 223.746094 290.046875 223.105469 289.925781 222.261719 289.925781 C 221.316406 289.925781 220.644531 290.160156 220.25 290.628906 C 219.96875 290.976562 219.78125 291.445312 219.6875 292.035156 L 215.820312 292.035156 C 215.90625 290.695312 216.28125 289.59375 216.945312 288.730469 Z M 219.929688 299.5 C 220.304688 299.808594 220.761719 299.964844 221.304688 299.964844 C 222.167969 299.964844 222.964844 299.710938 223.691406 299.207031 C 224.417969 298.699219 224.792969 297.777344 224.820312 296.4375 L 224.820312 294.945312 C 224.566406 295.105469 224.3125 295.234375 224.054688 295.332031 C 223.796875 295.429688 223.445312 295.523438 222.992188 295.605469 L 222.09375 295.773438 C 221.25 295.925781 220.644531 296.109375 220.28125 296.324219 C 219.660156 296.6875 219.351562 297.257812 219.351562 298.023438 C 219.351562 298.707031 219.542969 299.203125 219.929688 299.5 Z M 239.585938 290.039062 C 238.226562 290.039062 237.292969 290.613281 236.785156 291.765625 C 236.523438 292.375 236.390625 293.15625 236.390625 294.101562 L 236.390625 302.398438 L 232.398438 302.398438 L 232.398438 287.097656 L 236.265625 287.097656 L 236.265625 289.335938 C 236.78125 288.546875 237.269531 287.980469 237.726562 287.632812 C 238.550781 287.015625 239.597656 286.703125 240.863281 286.703125 C 242.449219 286.703125 243.746094 287.121094 244.753906 287.949219 C 245.761719 288.777344 246.265625 290.15625 246.265625 292.078125 L 246.265625 302.398438 L 242.15625 302.398438 L 242.15625 293.074219 C 242.15625 292.269531 242.050781 291.648438 241.835938 291.21875 C 241.441406 290.429688 240.691406 290.039062 239.585938 290.039062 Z M 263.152344 289.011719 C 264.445312 290.632812 265.09375 292.550781 265.09375 294.761719 C 265.09375 297.011719 264.445312 298.9375 263.152344 300.535156 C 261.859375 302.132812 259.894531 302.933594 257.261719 302.933594 C 254.625 302.933594 252.664062 302.132812 251.367188 300.535156 C 250.074219 298.9375 249.429688 297.011719 249.429688 294.761719 C 249.429688 292.550781 250.074219 290.632812 251.367188 289.011719 C 252.660156 287.390625 254.625 286.578125 257.261719 286.578125 C 259.894531 286.578125 261.859375 287.390625 263.152344 289.011719 Z M 257.246094 289.96875 C 256.074219 289.96875 255.171875 290.382812 254.539062 291.210938 C 253.90625 292.042969 253.589844 293.226562 253.589844 294.761719 C 253.589844 296.300781 253.90625 297.484375 254.539062 298.320312 C 255.171875 299.15625 256.074219 299.570312 257.246094 299.570312 C 258.417969 299.570312 259.320312 299.15625 259.945312 298.320312 C 260.574219 297.484375 260.890625 296.300781 260.890625 294.761719 C 260.890625 293.226562 260.574219 292.042969 259.945312 291.210938 C 259.316406 290.382812 258.417969 289.96875 257.246094 289.96875 Z M 275.386719 299.542969 L 275.386719 302.539062 L 273.488281 302.609375 C 271.59375 302.675781 270.300781 302.347656 269.609375 301.625 C 269.160156 301.164062 268.933594 300.457031 268.933594 299.5 L 268.933594 290.066406 L 266.796875 290.066406 L 266.796875 287.210938 L 268.933594 287.210938 L 268.933594 282.9375 L 272.898438 282.9375 L 272.898438 287.210938 L 275.386719 287.210938 L 275.386719 290.066406 L 272.898438 290.066406 L 272.898438 298.164062 C 272.898438 298.792969 272.976562 299.183594 273.136719 299.339844 C 273.296875 299.496094 273.785156 299.570312 274.601562 299.570312 C 274.722656 299.570312 274.851562 299.570312 274.988281 299.566406 C 275.125 299.5625 275.257812 299.554688 275.386719 299.542969 Z M 291.152344 289.011719 C 292.445312 290.632812 293.09375 292.550781 293.09375 294.761719 C 293.09375 297.011719 292.445312 298.9375 291.152344 300.535156 C 289.859375 302.132812 287.894531 302.933594 285.261719 302.933594 C 282.625 302.933594 280.664062 302.132812 279.367188 300.535156 C 278.074219 298.9375 277.429688 297.011719 277.429688 294.761719 C 277.429688 292.550781 278.074219 290.632812 279.367188 289.011719 C 280.660156 287.390625 282.625 286.578125 285.261719 286.578125 C 287.894531 286.578125 289.859375 287.390625 291.152344 289.011719 Z M 285.246094 289.96875 C 284.074219 289.96875 283.171875 290.382812 282.539062 291.210938 C 281.90625 292.042969 281.589844 293.226562 281.589844 294.761719 C 281.589844 296.300781 281.90625 297.484375 282.539062 298.320312 C 283.171875 299.15625 284.074219 299.570312 285.246094 299.570312 C 286.417969 299.570312 287.320312 299.15625 287.945312 298.320312 C 288.574219 297.484375 288.890625 296.300781 288.890625 294.761719 C 288.890625 293.226562 288.574219 292.042969 287.945312 291.210938 C 287.316406 290.382812 286.417969 289.96875 285.246094 289.96875 Z M 304.976562 291.289062 C 304.640625 290.546875 303.976562 290.179688 302.992188 290.179688 C 301.847656 290.179688 301.082031 290.546875 300.6875 291.289062 C 300.472656 291.710938 300.363281 292.339844 300.363281 293.171875 L 300.363281 302.398438 L 296.300781 302.398438 L 296.300781 287.097656 L 300.195312 287.097656 L 300.195312 289.335938 C 300.691406 288.539062 301.160156 287.96875 301.601562 287.632812 C 302.378906 287.03125 303.386719 286.734375 304.625 286.734375 C 305.796875 286.734375 306.742188 286.992188 307.464844 287.507812 C 308.046875 287.984375 308.488281 288.597656 308.789062 289.347656 C 309.3125 288.449219 309.964844 287.789062 310.742188 287.367188 C 311.566406 286.945312 312.484375 286.734375 313.5 286.734375 C 314.175781 286.734375 314.839844 286.863281 315.496094 287.125 C 316.152344 287.386719 316.746094 287.847656 317.28125 288.503906 C 317.710938 289.039062 318.003906 289.695312 318.152344 290.472656 C 318.246094 290.988281 318.292969 291.742188 318.292969 292.738281 L 318.265625 302.398438 L 314.160156 302.398438 L 314.160156 292.640625 C 314.160156 292.058594 314.066406 291.578125 313.878906 291.203125 C 313.523438 290.492188 312.867188 290.136719 311.910156 290.136719 C 310.804688 290.136719 310.039062 290.59375 309.617188 291.515625 C 309.402344 292.003906 309.292969 292.585938 309.292969 293.273438 L 309.292969 302.398438 L 305.257812 302.398438 L 305.257812 293.273438 C 305.257812 292.363281 305.164062 291.703125 304.976562 291.289062 Z M 332.929688 287.773438 C 334.128906 288.542969 334.820312 289.863281 335 291.738281 L 330.992188 291.738281 C 330.933594 291.222656 330.789062 290.816406 330.554688 290.515625 C 330.113281 289.972656 329.363281 289.699219 328.304688 289.699219 C 327.433594 289.699219 326.8125 289.835938 326.441406 290.109375 C 326.070312 290.378906 325.886719 290.699219 325.886719 291.0625 C 325.886719 291.523438 326.082031 291.855469 326.476562 292.0625 C 326.871094 292.277344 328.261719 292.648438 330.652344 293.171875 C 332.246094 293.546875 333.441406 294.117188 334.238281 294.875 C 335.027344 295.644531 335.421875 296.605469 335.421875 297.757812 C 335.421875 299.277344 334.855469 300.515625 333.726562 301.476562 C 332.597656 302.4375 330.851562 302.917969 328.488281 302.917969 C 326.078125 302.917969 324.300781 302.410156 323.152344 301.394531 C 322.003906 300.375 321.429688 299.078125 321.429688 297.503906 L 325.492188 297.503906 C 325.578125 298.21875 325.757812 298.722656 326.039062 299.023438 C 326.535156 299.558594 327.457031 299.824219 328.796875 299.824219 C 329.585938 299.824219 330.210938 299.707031 330.675781 299.472656 C 331.140625 299.238281 331.371094 298.886719 331.371094 298.417969 C 331.371094 297.96875 331.183594 297.625 330.808594 297.390625 C 330.433594 297.15625 329.039062 296.753906 326.632812 296.183594 C 324.898438 295.75 323.671875 295.210938 322.960938 294.566406 C 322.25 293.929688 321.890625 293.007812 321.890625 291.808594 C 321.890625 290.394531 322.449219 289.175781 323.558594 288.160156 C 324.667969 287.144531 326.234375 286.632812 328.25 286.632812 C 330.160156 286.632812 331.722656 287.015625 332.929688 287.773438 Z M 346.945312 288.730469 C 348.003906 287.378906 349.824219 286.703125 352.402344 286.703125 C 354.082031 286.703125 355.570312 287.039062 356.875 287.703125 C 358.179688 288.367188 358.828125 289.625 358.828125 291.472656 L 358.828125 298.503906 C 358.828125 298.992188 358.839844 299.582031 358.859375 300.273438 C 358.886719 300.800781 358.964844 301.15625 359.097656 301.34375 C 359.226562 301.53125 359.425781 301.6875 359.6875 301.808594 L 359.6875 302.398438 L 355.328125 302.398438 C 355.207031 302.089844 355.121094 301.796875 355.074219 301.527344 C 355.027344 301.253906 354.992188 300.945312 354.960938 300.597656 C 354.410156 301.199219 353.773438 301.710938 353.050781 302.132812 C 352.1875 302.628906 351.210938 302.875 350.125 302.875 C 348.738281 302.875 347.589844 302.480469 346.6875 301.6875 C 345.78125 300.894531 345.328125 299.773438 345.328125 298.320312 C 345.328125 296.4375 346.054688 295.070312 347.507812 294.226562 C 348.304688 293.769531 349.476562 293.441406 351.023438 293.242188 L 352.390625 293.074219 C 353.128906 292.980469 353.660156 292.863281 353.976562 292.722656 C 354.550781 292.480469 354.835938 292.101562 354.835938 291.585938 C 354.835938 290.957031 354.617188 290.523438 354.183594 290.285156 C 353.746094 290.046875 353.105469 289.925781 352.261719 289.925781 C 351.316406 289.925781 350.644531 290.160156 350.25 290.628906 C 349.96875 290.976562 349.78125 291.445312 349.6875 292.035156 L 345.820312 292.035156 C 345.90625 290.695312 346.28125 289.59375 346.945312 288.730469 Z M 349.929688 299.5 C 350.304688 299.808594 350.761719 299.964844 351.304688 299.964844 C 352.167969 299.964844 352.964844 299.710938 353.691406 299.207031 C 354.417969 298.699219 354.792969 297.777344 354.820312 296.4375 L 354.820312 294.945312 C 354.566406 295.105469 354.3125 295.234375 354.054688 295.332031 C 353.796875 295.429688 353.445312 295.523438 352.992188 295.605469 L 352.09375 295.773438 C 351.25 295.925781 350.644531 296.109375 350.28125 296.324219 C 349.660156 296.6875 349.351562 297.257812 349.351562 298.023438 C 349.351562 298.707031 349.542969 299.203125 349.929688 299.5 Z M 369.585938 290.039062 C 368.226562 290.039062 367.292969 290.613281 366.785156 291.765625 C 366.523438 292.375 366.390625 293.15625 366.390625 294.101562 L 366.390625 302.398438 L 362.398438 302.398438 L 362.398438 287.097656 L 366.265625 287.097656 L 366.265625 289.335938 C 366.78125 288.546875 367.269531 287.980469 367.726562 287.632812 C 368.550781 287.015625 369.597656 286.703125 370.863281 286.703125 C 372.449219 286.703125 373.746094 287.121094 374.753906 287.949219 C 375.761719 288.777344 376.265625 290.15625 376.265625 292.078125 L 376.265625 302.398438 L 372.15625 302.398438 L 372.15625 293.074219 C 372.15625 292.269531 372.050781 291.648438 371.835938 291.21875 C 371.441406 290.429688 370.691406 290.039062 369.585938 290.039062 Z M 394.320312 281.699219 L 394.320312 302.398438 L 390.425781 302.398438 L 390.425781 300.273438 C 389.851562 301.183594 389.203125 301.84375 388.46875 302.257812 C 387.738281 302.671875 386.828125 302.875 385.742188 302.875 C 383.953125 302.875 382.445312 302.152344 381.222656 300.703125 C 380 299.253906 379.386719 297.398438 379.386719 295.128906 C 379.386719 292.511719 379.988281 290.453125 381.191406 288.953125 C 382.398438 287.453125 384.007812 286.703125 386.023438 286.703125 C 386.953125 286.703125 387.777344 286.910156 388.5 287.316406 C 389.222656 287.722656 389.804688 288.289062 390.257812 289.011719 L 390.257812 281.699219 Z M 383.519531 294.832031 C 383.519531 296.25 383.800781 297.378906 384.363281 298.222656 C 384.917969 299.074219 385.761719 299.5 386.894531 299.5 C 388.03125 299.5 388.890625 299.078125 389.484375 298.234375 C 390.074219 297.390625 390.367188 296.300781 390.367188 294.960938 C 390.367188 293.085938 389.894531 291.742188 388.949219 290.9375 C 388.367188 290.449219 387.691406 290.207031 386.921875 290.207031 C 385.75 290.207031 384.890625 290.648438 384.34375 291.535156 C 383.792969 292.421875 383.519531 293.519531 383.519531 294.832031 Z M 415.863281 302.976562 C 412.898438 302.976562 410.636719 302.167969 409.070312 300.554688 C 406.96875 298.578125 405.921875 295.726562 405.921875 292.007812 C 405.921875 288.210938 406.96875 285.359375 409.070312 283.457031 C 410.636719 281.84375 412.898438 281.039062 415.863281 281.039062 C 418.824219 281.039062 421.089844 281.84375 422.65625 283.457031 C 424.746094 285.359375 425.789062 288.210938 425.789062 292.007812 C 425.789062 295.730469 424.746094 298.578125 422.65625 300.554688 C 421.089844 302.167969 418.824219 302.976562 415.863281 302.976562 Z M 419.953125 297.40625 C 420.957031 296.140625 421.460938 294.339844 421.460938 292.007812 C 421.460938 289.683594 420.957031 287.882812 419.949219 286.613281 C 418.941406 285.34375 417.578125 284.707031 415.863281 284.707031 C 414.148438 284.707031 412.777344 285.339844 411.757812 286.605469 C 410.734375 287.871094 410.222656 289.671875 410.222656 292.007812 C 410.222656 294.339844 410.734375 296.140625 411.757812 297.40625 C 412.777344 298.671875 414.148438 299.304688 415.863281 299.304688 C 417.578125 299.304688 418.941406 298.671875 419.953125 297.40625 Z M 441.210938 288.714844 C 442.449219 290.039062 443.066406 291.976562 443.066406 294.539062 C 443.066406 297.238281 442.457031 299.296875 441.246094 300.710938 C 440.03125 302.125 438.46875 302.835938 436.554688 302.835938 C 435.335938 302.835938 434.324219 302.53125 433.515625 301.921875 C 433.074219 301.582031 432.644531 301.089844 432.222656 300.445312 L 432.222656 308.429688 L 428.257812 308.429688 L 428.257812 287.070312 L 432.097656 287.070312 L 432.097656 289.335938 C 432.527344 288.667969 432.988281 288.144531 433.476562 287.757812 C 434.367188 287.074219 435.425781 286.734375 436.652344 286.734375 C 438.445312 286.734375 439.960938 287.394531 441.210938 288.714844 Z M 438.929688 294.734375 C 438.929688 293.554688 438.660156 292.507812 438.121094 291.597656 C 437.582031 290.6875 436.710938 290.234375 435.5 290.234375 C 434.046875 290.234375 433.046875 290.921875 432.503906 292.300781 C 432.222656 293.03125 432.082031 293.960938 432.082031 295.085938 C 432.082031 296.867188 432.554688 298.117188 433.503906 298.839844 C 434.066406 299.261719 434.730469 299.472656 435.5 299.472656 C 436.617188 299.472656 437.464844 299.042969 438.050781 298.179688 C 438.636719 297.316406 438.929688 296.167969 438.929688 294.734375 Z M 459.492188 297.898438 C 459.386719 298.808594 458.914062 299.730469 458.070312 300.667969 C 456.757812 302.160156 454.921875 302.90625 452.558594 302.90625 C 450.609375 302.90625 448.886719 302.277344 447.398438 301.019531 C 445.90625 299.765625 445.160156 297.71875 445.160156 294.890625 C 445.160156 292.238281 445.832031 290.203125 447.179688 288.785156 C 448.523438 287.371094 450.269531 286.664062 452.417969 286.664062 C 453.691406 286.664062 454.839844 286.902344 455.863281 287.378906 C 456.882812 287.859375 457.726562 288.613281 458.394531 289.644531 C 458.992188 290.554688 459.382812 291.609375 459.5625 292.808594 C 459.664062 293.511719 459.707031 294.523438 459.6875 295.84375 L 449.195312 295.84375 C 449.253906 297.382812 449.734375 298.460938 450.644531 299.078125 C 451.199219 299.464844 451.863281 299.65625 452.640625 299.65625 C 453.464844 299.65625 454.136719 299.421875 454.652344 298.953125 C 454.933594 298.699219 455.183594 298.347656 455.398438 297.898438 Z M 455.523438 293.203125 C 455.457031 292.144531 455.136719 291.339844 454.5625 290.789062 C 453.984375 290.242188 453.269531 289.96875 452.417969 289.96875 C 451.488281 289.96875 450.769531 290.257812 450.257812 290.839844 C 449.746094 291.421875 449.425781 292.207031 449.296875 293.203125 Z M 469.585938 290.039062 C 468.226562 290.039062 467.292969 290.613281 466.785156 291.765625 C 466.523438 292.375 466.390625 293.15625 466.390625 294.101562 L 466.390625 302.398438 L 462.398438 302.398438 L 462.398438 287.097656 L 466.265625 287.097656 L 466.265625 289.335938 C 466.78125 288.546875 467.269531 287.980469 467.726562 287.632812 C 468.550781 287.015625 469.597656 286.703125 470.863281 286.703125 C 472.449219 286.703125 473.746094 287.121094 474.753906 287.949219 C 475.761719 288.777344 476.265625 290.15625 476.265625 292.078125 L 476.265625 302.398438 L 472.15625 302.398438 L 472.15625 293.074219 C 472.15625 292.269531 472.050781 291.648438 471.835938 291.21875 C 471.441406 290.429688 470.691406 290.039062 469.585938 290.039062 Z M 496.21875 299.402344 C 497.238281 299.402344 498.070312 299.289062 498.707031 299.066406 C 499.914062 298.632812 500.519531 297.832031 500.519531 296.660156 C 500.519531 295.976562 500.21875 295.445312 499.621094 295.070312 C 499.019531 294.707031 498.078125 294.382812 496.792969 294.101562 L 494.601562 293.609375 C 492.445312 293.121094 490.953125 292.59375 490.128906 292.019531 C 488.730469 291.0625 488.03125 289.570312 488.03125 287.535156 C 488.03125 285.679688 488.707031 284.136719 490.058594 282.90625 C 491.40625 281.679688 493.390625 281.066406 496.007812 281.066406 C 498.191406 281.066406 500.054688 281.644531 501.597656 282.800781 C 503.140625 283.960938 503.945312 285.640625 504.023438 287.84375 L 499.859375 287.84375 C 499.785156 286.597656 499.242188 285.710938 498.226562 285.1875 C 497.550781 284.839844 496.714844 284.664062 495.710938 284.664062 C 494.59375 284.664062 493.703125 284.890625 493.039062 285.339844 C 492.375 285.789062 492.039062 286.417969 492.039062 287.226562 C 492.039062 287.964844 492.367188 288.519531 493.023438 288.882812 C 493.445312 289.128906 494.347656 289.414062 495.726562 289.742188 L 499.296875 290.601562 C 500.863281 290.976562 502.042969 291.476562 502.839844 292.105469 C 504.078125 293.078125 504.695312 294.492188 504.695312 296.335938 C 504.695312 298.230469 503.972656 299.804688 502.523438 301.054688 C 501.074219 302.308594 499.03125 302.933594 496.386719 302.933594 C 493.6875 302.933594 491.5625 302.316406 490.015625 301.082031 C 488.46875 299.851562 487.695312 298.15625 487.695312 296 L 491.828125 296 C 491.960938 296.945312 492.21875 297.65625 492.601562 298.125 C 493.304688 298.976562 494.511719 299.402344 496.21875 299.402344 Z M 520.632812 292.570312 L 516.523438 292.570312 C 516.449219 291.996094 516.257812 291.480469 515.949219 291.023438 C 515.5 290.402344 514.800781 290.09375 513.851562 290.09375 C 512.503906 290.09375 511.578125 290.765625 511.082031 292.105469 C 510.820312 292.816406 510.6875 293.765625 510.6875 294.945312 C 510.6875 296.070312 510.820312 296.976562 511.082031 297.660156 C 511.5625 298.933594 512.460938 299.570312 513.78125 299.570312 C 514.71875 299.570312 515.386719 299.320312 515.78125 298.8125 C 516.175781 298.304688 516.414062 297.648438 516.496094 296.84375 L 520.589844 296.84375 C 520.496094 298.0625 520.054688 299.214844 519.265625 300.304688 C 518.011719 302.058594 516.148438 302.933594 513.683594 302.933594 C 511.21875 302.933594 509.40625 302.203125 508.242188 300.738281 C 507.078125 299.277344 506.5 297.378906 506.5 295.042969 C 506.5 292.410156 507.140625 290.359375 508.425781 288.898438 C 509.710938 287.4375 511.480469 286.703125 513.742188 286.703125 C 515.664062 286.703125 517.234375 287.136719 518.457031 288 C 519.679688 288.863281 520.40625 290.382812 520.632812 292.570312 Z M 537.222656 293.398438 L 537.222656 302.398438 L 533.128906 302.398438 L 533.128906 293.074219 C 533.128906 292.25 532.988281 291.585938 532.707031 291.078125 C 532.34375 290.367188 531.648438 290.007812 530.625 290.007812 C 529.566406 290.007812 528.761719 290.363281 528.214844 291.070312 C 527.667969 291.777344 527.390625 292.789062 527.390625 294.101562 L 527.390625 302.398438 L 523.398438 302.398438 L 523.398438 281.742188 L 527.390625 281.742188 L 527.390625 289.066406 C 527.972656 288.175781 528.644531 287.554688 529.410156 287.203125 C 530.175781 286.851562 530.976562 286.675781 531.820312 286.675781 C 532.769531 286.675781 533.628906 286.839844 534.402344 287.167969 C 535.175781 287.496094 535.8125 288 536.308594 288.671875 C 536.730469 289.246094 536.988281 289.832031 537.082031 290.4375 C 537.175781 291.042969 537.222656 292.03125 537.222656 293.398438 Z M 554.152344 289.011719 C 555.445312 290.632812 556.09375 292.550781 556.09375 294.761719 C 556.09375 297.011719 555.445312 298.9375 554.152344 300.535156 C 552.859375 302.132812 550.894531 302.933594 548.261719 302.933594 C 545.625 302.933594 543.664062 302.132812 542.367188 300.535156 C 541.074219 298.9375 540.429688 297.011719 540.429688 294.761719 C 540.429688 292.550781 541.074219 290.632812 542.367188 289.011719 C 543.660156 287.390625 545.625 286.578125 548.261719 286.578125 C 550.894531 286.578125 552.859375 287.390625 554.152344 289.011719 Z M 548.246094 289.96875 C 547.074219 289.96875 546.171875 290.382812 545.539062 291.210938 C 544.90625 292.042969 544.589844 293.226562 544.589844 294.761719 C 544.589844 296.300781 544.90625 297.484375 545.539062 298.320312 C 546.171875 299.15625 547.074219 299.570312 548.246094 299.570312 C 549.417969 299.570312 550.320312 299.15625 550.945312 298.320312 C 551.574219 297.484375 551.890625 296.300781 551.890625 294.761719 C 551.890625 293.226562 551.574219 292.042969 550.945312 291.210938 C 550.316406 290.382812 549.417969 289.96875 548.246094 289.96875 Z M 559.453125 281.671875 L 563.460938 281.671875 L 563.460938 302.398438 L 559.453125 302.398438 Z M 567.945312 288.730469 C 569.003906 287.378906 570.824219 286.703125 573.402344 286.703125 C 575.082031 286.703125 576.570312 287.039062 577.875 287.703125 C 579.179688 288.367188 579.828125 289.625 579.828125 291.472656 L 579.828125 298.503906 C 579.828125 298.992188 579.839844 299.582031 579.859375 300.273438 C 579.886719 300.800781 579.964844 301.15625 580.097656 301.34375 C 580.226562 301.53125 580.425781 301.6875 580.6875 301.808594 L 580.6875 302.398438 L 576.328125 302.398438 C 576.207031 302.089844 576.121094 301.796875 576.074219 301.527344 C 576.027344 301.253906 575.992188 300.945312 575.960938 300.597656 C 575.410156 301.199219 574.773438 301.710938 574.050781 302.132812 C 573.1875 302.628906 572.210938 302.875 571.125 302.875 C 569.738281 302.875 568.589844 302.480469 567.6875 301.6875 C 566.78125 300.894531 566.328125 299.773438 566.328125 298.320312 C 566.328125 296.4375 567.054688 295.070312 568.507812 294.226562 C 569.304688 293.769531 570.476562 293.441406 572.023438 293.242188 L 573.390625 293.074219 C 574.128906 292.980469 574.660156 292.863281 574.976562 292.722656 C 575.550781 292.480469 575.835938 292.101562 575.835938 291.585938 C 575.835938 290.957031 575.617188 290.523438 575.183594 290.285156 C 574.746094 290.046875 574.105469 289.925781 573.261719 289.925781 C 572.316406 289.925781 571.644531 290.160156 571.25 290.628906 C 570.96875 290.976562 570.78125 291.445312 570.6875 292.035156 L 566.820312 292.035156 C 566.90625 290.695312 567.28125 289.59375 567.945312 288.730469 Z M 570.929688 299.5 C 571.304688 299.808594 571.761719 299.964844 572.304688 299.964844 C 573.167969 299.964844 573.964844 299.710938 574.691406 299.207031 C 575.417969 298.699219 575.792969 297.777344 575.820312 296.4375 L 575.820312 294.945312 C 575.566406 295.105469 575.3125 295.234375 575.054688 295.332031 C 574.796875 295.429688 574.445312 295.523438 573.992188 295.605469 L 573.09375 295.773438 C 572.25 295.925781 571.644531 296.109375 571.28125 296.324219 C 570.660156 296.6875 570.351562 297.257812 570.351562 298.023438 C 570.351562 298.707031 570.542969 299.203125 570.929688 299.5 Z M 591.078125 290.769531 C 589.464844 290.769531 588.382812 291.292969 587.828125 292.34375 C 587.519531 292.933594 587.363281 293.84375 587.363281 295.070312 L 587.363281 302.398438 L 583.328125 302.398438 L 583.328125 287.070312 L 587.152344 287.070312 L 587.152344 289.742188 C 587.773438 288.71875 588.3125 288.023438 588.769531 287.648438 C 589.519531 287.019531 590.496094 286.703125 591.695312 286.703125 C 591.769531 286.703125 591.832031 286.707031 591.886719 286.710938 C 591.9375 286.714844 592.050781 286.722656 592.230469 286.734375 L 592.230469 290.839844 C 591.976562 290.8125 591.75 290.792969 591.554688 290.78125 C 591.359375 290.773438 591.199219 290.769531 591.078125 290.769531 Z M 604.929688 287.773438 C 606.128906 288.542969 606.820312 289.863281 607 291.738281 L 602.992188 291.738281 C 602.933594 291.222656 602.789062 290.816406 602.554688 290.515625 C 602.113281 289.972656 601.363281 289.699219 600.304688 289.699219 C 599.433594 289.699219 598.8125 289.835938 598.441406 290.109375 C 598.070312 290.378906 597.886719 290.699219 597.886719 291.0625 C 597.886719 291.523438 598.082031 291.855469 598.476562 292.0625 C 598.871094 292.277344 600.261719 292.648438 602.652344 293.171875 C 604.246094 293.546875 605.441406 294.117188 606.238281 294.875 C 607.027344 295.644531 607.421875 296.605469 607.421875 297.757812 C 607.421875 299.277344 606.855469 300.515625 605.726562 301.476562 C 604.597656 302.4375 602.851562 302.917969 600.488281 302.917969 C 598.078125 302.917969 596.300781 302.410156 595.152344 301.394531 C 594.003906 300.375 593.429688 299.078125 593.429688 297.503906 L 597.492188 297.503906 C 597.578125 298.21875 597.757812 298.722656 598.039062 299.023438 C 598.535156 299.558594 599.457031 299.824219 600.796875 299.824219 C 601.585938 299.824219 602.210938 299.707031 602.675781 299.472656 C 603.140625 299.238281 603.371094 298.886719 603.371094 298.417969 C 603.371094 297.96875 603.183594 297.625 602.808594 297.390625 C 602.433594 297.15625 601.039062 296.753906 598.632812 296.183594 C 596.898438 295.75 595.671875 295.210938 594.960938 294.566406 C 594.25 293.929688 593.890625 293.007812 593.890625 291.808594 C 593.890625 290.394531 594.449219 289.175781 595.558594 288.160156 C 596.667969 287.144531 598.234375 286.632812 600.25 286.632812 C 602.160156 286.632812 603.722656 287.015625 604.929688 287.773438 Z M 624.222656 293.398438 L 624.222656 302.398438 L 620.128906 302.398438 L 620.128906 293.074219 C 620.128906 292.25 619.988281 291.585938 619.707031 291.078125 C 619.34375 290.367188 618.648438 290.007812 617.625 290.007812 C 616.566406 290.007812 615.761719 290.363281 615.214844 291.070312 C 614.667969 291.777344 614.390625 292.789062 614.390625 294.101562 L 614.390625 302.398438 L 610.398438 302.398438 L 610.398438 281.742188 L 614.390625 281.742188 L 614.390625 289.066406 C 614.972656 288.175781 615.644531 287.554688 616.410156 287.203125 C 617.175781 286.851562 617.976562 286.675781 618.820312 286.675781 C 619.769531 286.675781 620.628906 286.839844 621.402344 287.167969 C 622.175781 287.496094 622.8125 288 623.308594 288.671875 C 623.730469 289.246094 623.988281 289.832031 624.082031 290.4375 C 624.175781 291.042969 624.222656 292.03125 624.222656 293.398438 Z M 632.492188 287.070312 L 632.492188 302.398438 L 628.425781 302.398438 L 628.425781 287.070312 Z M 632.492188 281.542969 L 632.492188 285.242188 L 628.425781 285.242188 L 628.425781 281.542969 Z M 649.210938 288.714844 C 650.449219 290.039062 651.066406 291.976562 651.066406 294.539062 C 651.066406 297.238281 650.457031 299.296875 649.246094 300.710938 C 648.03125 302.125 646.46875 302.835938 644.554688 302.835938 C 643.335938 302.835938 642.324219 302.53125 641.515625 301.921875 C 641.074219 301.582031 640.644531 301.089844 640.222656 300.445312 L 640.222656 308.429688 L 636.257812 308.429688 L 636.257812 287.070312 L 640.097656 287.070312 L 640.097656 289.335938 C 640.527344 288.667969 640.988281 288.144531 641.476562 287.757812 C 642.367188 287.074219 643.425781 286.734375 644.652344 286.734375 C 646.445312 286.734375 647.960938 287.394531 649.210938 288.714844 Z M 646.929688 294.734375 C 646.929688 293.554688 646.660156 292.507812 646.121094 291.597656 C 645.582031 290.6875 644.710938 290.234375 643.5 290.234375 C 642.046875 290.234375 641.046875 290.921875 640.503906 292.300781 C 640.222656 293.03125 640.082031 293.960938 640.082031 295.085938 C 640.082031 296.867188 640.554688 298.117188 641.503906 298.839844 C 642.066406 299.261719 642.730469 299.472656 643.5 299.472656 C 644.617188 299.472656 645.464844 299.042969 646.050781 298.179688 C 646.636719 297.316406 646.929688 296.167969 646.929688 294.734375 Z M 677.121094 293.34375 L 667.054688 293.34375 L 667.054688 298.671875 L 678.527344 298.671875 L 678.527344 302.398438 L 662.820312 302.398438 L 662.820312 281.671875 L 678.023438 281.671875 L 678.023438 285.339844 L 667.054688 285.339844 L 667.054688 289.742188 L 677.121094 289.742188 Z M 695.023438 302.398438 L 690.03125 302.398438 L 687.390625 297.800781 L 684.730469 302.398438 L 679.867188 302.398438 L 685.097656 294.636719 L 680.089844 287.097656 L 685 287.097656 L 687.558594 291.542969 L 690.0625 287.097656 L 694.828125 287.097656 L 689.792969 294.566406 Z M 710.210938 288.714844 C 711.449219 290.039062 712.066406 291.976562 712.066406 294.539062 C 712.066406 297.238281 711.457031 299.296875 710.246094 300.710938 C 709.03125 302.125 707.46875 302.835938 705.554688 302.835938 C 704.335938 302.835938 703.324219 302.53125 702.515625 301.921875 C 702.074219 301.582031 701.644531 301.089844 701.222656 300.445312 L 701.222656 308.429688 L 697.257812 308.429688 L 697.257812 287.070312 L 701.097656 287.070312 L 701.097656 289.335938 C 701.527344 288.667969 701.988281 288.144531 702.476562 287.757812 C 703.367188 287.074219 704.425781 286.734375 705.652344 286.734375 C 707.445312 286.734375 708.960938 287.394531 710.210938 288.714844 Z M 707.929688 294.734375 C 707.929688 293.554688 707.660156 292.507812 707.121094 291.597656 C 706.582031 290.6875 705.710938 290.234375 704.5 290.234375 C 703.046875 290.234375 702.046875 290.921875 701.503906 292.300781 C 701.222656 293.03125 701.082031 293.960938 701.082031 295.085938 C 701.082031 296.867188 701.554688 298.117188 702.503906 298.839844 C 703.066406 299.261719 703.730469 299.472656 704.5 299.472656 C 705.617188 299.472656 706.464844 299.042969 707.050781 298.179688 C 707.636719 297.316406 707.929688 296.167969 707.929688 294.734375 Z M 728.492188 297.898438 C 728.386719 298.808594 727.914062 299.730469 727.070312 300.667969 C 725.757812 302.160156 723.921875 302.90625 721.558594 302.90625 C 719.609375 302.90625 717.886719 302.277344 716.398438 301.019531 C 714.90625 299.765625 714.160156 297.71875 714.160156 294.890625 C 714.160156 292.238281 714.832031 290.203125 716.179688 288.785156 C 717.523438 287.371094 719.269531 286.664062 721.417969 286.664062 C 722.691406 286.664062 723.839844 286.902344 724.863281 287.378906 C 725.882812 287.859375 726.726562 288.613281 727.394531 289.644531 C 727.992188 290.554688 728.382812 291.609375 728.5625 292.808594 C 728.664062 293.511719 728.707031 294.523438 728.6875 295.84375 L 718.195312 295.84375 C 718.253906 297.382812 718.734375 298.460938 719.644531 299.078125 C 720.199219 299.464844 720.863281 299.65625 721.640625 299.65625 C 722.464844 299.65625 723.136719 299.421875 723.652344 298.953125 C 723.933594 298.699219 724.183594 298.347656 724.398438 297.898438 Z M 724.523438 293.203125 C 724.457031 292.144531 724.136719 291.339844 723.5625 290.789062 C 722.984375 290.242188 722.269531 289.96875 721.417969 289.96875 C 720.488281 289.96875 719.769531 290.257812 719.257812 290.839844 C 718.746094 291.421875 718.425781 292.207031 718.296875 293.203125 Z M 739.078125 290.769531 C 737.464844 290.769531 736.382812 291.292969 735.828125 292.34375 C 735.519531 292.933594 735.363281 293.84375 735.363281 295.070312 L 735.363281 302.398438 L 731.328125 302.398438 L 731.328125 287.070312 L 735.152344 287.070312 L 735.152344 289.742188 C 735.773438 288.71875 736.3125 288.023438 736.769531 287.648438 C 737.519531 287.019531 738.496094 286.703125 739.695312 286.703125 C 739.769531 286.703125 739.832031 286.707031 739.886719 286.710938 C 739.9375 286.714844 740.050781 286.722656 740.230469 286.734375 L 740.230469 290.839844 C 739.976562 290.8125 739.75 290.792969 739.554688 290.78125 C 739.359375 290.773438 739.199219 290.769531 739.078125 290.769531 Z M 746.492188 287.070312 L 746.492188 302.398438 L 742.425781 302.398438 L 742.425781 287.070312 Z M 746.492188 281.542969 L 746.492188 285.242188 L 742.425781 285.242188 L 742.425781 281.542969 Z M 763.492188 297.898438 C 763.386719 298.808594 762.914062 299.730469 762.070312 300.667969 C 760.757812 302.160156 758.921875 302.90625 756.558594 302.90625 C 754.609375 302.90625 752.886719 302.277344 751.398438 301.019531 C 749.90625 299.765625 749.160156 297.71875 749.160156 294.890625 C 749.160156 292.238281 749.832031 290.203125 751.179688 288.785156 C 752.523438 287.371094 754.269531 286.664062 756.417969 286.664062 C 757.691406 286.664062 758.839844 286.902344 759.863281 287.378906 C 760.882812 287.859375 761.726562 288.613281 762.394531 289.644531 C 762.992188 290.554688 763.382812 291.609375 763.5625 292.808594 C 763.664062 293.511719 763.707031 294.523438 763.6875 295.84375 L 753.195312 295.84375 C 753.253906 297.382812 753.734375 298.460938 754.644531 299.078125 C 755.199219 299.464844 755.863281 299.65625 756.640625 299.65625 C 757.464844 299.65625 758.136719 299.421875 758.652344 298.953125 C 758.933594 298.699219 759.183594 298.347656 759.398438 297.898438 Z M 759.523438 293.203125 C 759.457031 292.144531 759.136719 291.339844 758.5625 290.789062 C 757.984375 290.242188 757.269531 289.96875 756.417969 289.96875 C 755.488281 289.96875 754.769531 290.257812 754.257812 290.839844 C 753.746094 291.421875 753.425781 292.207031 753.296875 293.203125 Z M 773.585938 290.039062 C 772.226562 290.039062 771.292969 290.613281 770.785156 291.765625 C 770.523438 292.375 770.390625 293.15625 770.390625 294.101562 L 770.390625 302.398438 L 766.398438 302.398438 L 766.398438 287.097656 L 770.265625 287.097656 L 770.265625 289.335938 C 770.78125 288.546875 771.269531 287.980469 771.726562 287.632812 C 772.550781 287.015625 773.597656 286.703125 774.863281 286.703125 C 776.449219 286.703125 777.746094 287.121094 778.753906 287.949219 C 779.761719 288.777344 780.265625 290.15625 780.265625 292.078125 L 780.265625 302.398438 L 776.15625 302.398438 L 776.15625 293.074219 C 776.15625 292.269531 776.050781 291.648438 775.835938 291.21875 C 775.441406 290.429688 774.691406 290.039062 773.585938 290.039062 Z M 797.632812 292.570312 L 793.523438 292.570312 C 793.449219 291.996094 793.257812 291.480469 792.949219 291.023438 C 792.5 290.402344 791.800781 290.09375 790.851562 290.09375 C 789.503906 290.09375 788.578125 290.765625 788.082031 292.105469 C 787.820312 292.816406 787.6875 293.765625 787.6875 294.945312 C 787.6875 296.070312 787.820312 296.976562 788.082031 297.660156 C 788.5625 298.933594 789.460938 299.570312 790.78125 299.570312 C 791.71875 299.570312 792.386719 299.320312 792.78125 298.8125 C 793.175781 298.304688 793.414062 297.648438 793.496094 296.84375 L 797.589844 296.84375 C 797.496094 298.0625 797.054688 299.214844 796.265625 300.304688 C 795.011719 302.058594 793.148438 302.933594 790.683594 302.933594 C 788.21875 302.933594 786.40625 302.203125 785.242188 300.738281 C 784.078125 299.277344 783.5 297.378906 783.5 295.042969 C 783.5 292.410156 784.140625 290.359375 785.425781 288.898438 C 786.710938 287.4375 788.480469 286.703125 790.742188 286.703125 C 792.664062 286.703125 794.234375 287.136719 795.457031 288 C 796.679688 288.863281 797.40625 290.382812 797.632812 292.570312 Z M 813.492188 297.898438 C 813.386719 298.808594 812.914062 299.730469 812.070312 300.667969 C 810.757812 302.160156 808.921875 302.90625 806.558594 302.90625 C 804.609375 302.90625 802.886719 302.277344 801.398438 301.019531 C 799.90625 299.765625 799.160156 297.71875 799.160156 294.890625 C 799.160156 292.238281 799.832031 290.203125 801.179688 288.785156 C 802.523438 287.371094 804.269531 286.664062 806.417969 286.664062 C 807.691406 286.664062 808.839844 286.902344 809.863281 287.378906 C 810.882812 287.859375 811.726562 288.613281 812.394531 289.644531 C 812.992188 290.554688 813.382812 291.609375 813.5625 292.808594 C 813.664062 293.511719 813.707031 294.523438 813.6875 295.84375 L 803.195312 295.84375 C 803.253906 297.382812 803.734375 298.460938 804.644531 299.078125 C 805.199219 299.464844 805.863281 299.65625 806.640625 299.65625 C 807.464844 299.65625 808.136719 299.421875 808.652344 298.953125 C 808.933594 298.699219 809.183594 298.347656 809.398438 297.898438 Z M 809.523438 293.203125 C 809.457031 292.144531 809.136719 291.339844 808.5625 290.789062 C 807.984375 290.242188 807.269531 289.96875 806.417969 289.96875 C 805.488281 289.96875 804.769531 290.257812 804.257812 290.839844 C 803.746094 291.421875 803.425781 292.207031 803.296875 293.203125 Z M 826.929688 287.773438 C 828.128906 288.542969 828.820312 289.863281 829 291.738281 L 824.992188 291.738281 C 824.933594 291.222656 824.789062 290.816406 824.554688 290.515625 C 824.113281 289.972656 823.363281 289.699219 822.304688 289.699219 C 821.433594 289.699219 820.8125 289.835938 820.441406 290.109375 C 820.070312 290.378906 819.886719 290.699219 819.886719 291.0625 C 819.886719 291.523438 820.082031 291.855469 820.476562 292.0625 C 820.871094 292.277344 822.261719 292.648438 824.652344 293.171875 C 826.246094 293.546875 827.441406 294.117188 828.238281 294.875 C 829.027344 295.644531 829.421875 296.605469 829.421875 297.757812 C 829.421875 299.277344 828.855469 300.515625 827.726562 301.476562 C 826.597656 302.4375 824.851562 302.917969 822.488281 302.917969 C 820.078125 302.917969 818.300781 302.410156 817.152344 301.394531 C 816.003906 300.375 815.429688 299.078125 815.429688 297.503906 L 819.492188 297.503906 C 819.578125 298.21875 819.757812 298.722656 820.039062 299.023438 C 820.535156 299.558594 821.457031 299.824219 822.796875 299.824219 C 823.585938 299.824219 824.210938 299.707031 824.675781 299.472656 C 825.140625 299.238281 825.371094 298.886719 825.371094 298.417969 C 825.371094 297.96875 825.183594 297.625 824.808594 297.390625 C 824.433594 297.15625 823.039062 296.753906 820.632812 296.183594 C 818.898438 295.75 817.671875 295.210938 816.960938 294.566406 C 816.25 293.929688 815.890625 293.007812 815.890625 291.808594 C 815.890625 290.394531 816.449219 289.175781 817.558594 288.160156 C 818.667969 287.144531 820.234375 286.632812 822.25 286.632812 C 824.160156 286.632812 825.722656 287.015625 826.929688 287.773438 Z M 193.5 280.222656 "/>
</g>
</svg>
