<?xml version="1.0" encoding="UTF-8"?>
<svg xmlns="http://www.w3.org/2000/svg" xmlns:xlink="http://www.w3.org/1999/xlink" width="1024pt" height="576pt" viewBox="0 0 1024 576" version="1.1">
<g id="surface168">
<rect x="0" y="0" width="1024" height="576" style="fill:rgb(42.745098%,54.117647%,58.823529%);fill-opacity:1;stroke:none;"/>
<path style=" stroke:none;fill-rule:nonzero;fill:rgb(100%,100%,100%);fill-opacity:1;" d="M 484.363281 302.976562 C 481.398438 302.976562 479.136719 302.167969 477.570312 300.554688 C 475.46875 298.578125 474.421875 295.726562 474.421875 292.007812 C 474.421875 288.210938 475.46875 285.359375 477.570312 283.457031 C 479.136719 281.84375 481.398438 281.039062 484.363281 281.039062 C 487.324219 281.039062 489.589844 281.84375 491.15625 283.457031 C 493.246094 285.359375 494.289062 288.210938 494.289062 292.007812 C 494.289062 295.730469 493.246094 298.578125 491.15625 300.554688 C 489.589844 302.167969 487.324219 302.976562 484.363281 302.976562 Z M 488.453125 297.40625 C 489.457031 296.140625 489.960938 294.339844 489.960938 292.007812 C 489.960938 289.683594 489.457031 287.882812 488.449219 286.613281 C 487.441406 285.34375 486.078125 284.707031 484.363281 284.707031 C 482.648438 284.707031 481.277344 285.339844 480.257812 286.605469 C 479.234375 287.871094 478.722656 289.671875 478.722656 292.007812 C 478.722656 294.339844 479.234375 296.140625 480.257812 297.40625 C 481.277344 298.671875 482.648438 299.304688 484.363281 299.304688 C 486.078125 299.304688 487.441406 298.671875 488.453125 297.40625 Z M 517.359375 281.671875 L 521.761719 281.671875 L 515.925781 302.398438 L 511.789062 302.398438 L 509.289062 290.277344 L 508.554688 286.269531 L 507.824219 290.277344 L 505.320312 302.398438 L 501.300781 302.398438 L 495.421875 281.671875 L 500.019531 281.671875 L 502.761719 293.539062 L 503.351562 296.84375 L 503.957031 293.609375 L 506.292969 281.671875 L 510.863281 281.671875 L 513.324219 293.539062 L 513.957031 296.84375 L 514.589844 293.664062 Z M 532.996094 294.269531 L 528.523438 294.269531 L 528.523438 302.398438 L 524.292969 302.398438 L 524.292969 281.671875 L 534.460938 281.671875 C 535.914062 281.699219 537.03125 281.875 537.8125 282.203125 C 538.597656 282.53125 539.257812 283.015625 539.804688 283.652344 C 540.253906 284.179688 540.609375 284.757812 540.871094 285.398438 C 541.132812 286.035156 541.265625 286.761719 541.265625 287.578125 C 541.265625 288.5625 541.015625 289.527344 540.519531 290.480469 C 540.023438 291.433594 539.203125 292.105469 538.058594 292.5 C 539.015625 292.882812 539.691406 293.429688 540.089844 294.136719 C 540.488281 294.84375 540.6875 295.925781 540.6875 297.378906 L 540.6875 298.769531 C 540.6875 299.71875 540.726562 300.359375 540.800781 300.695312 C 540.914062 301.230469 541.175781 301.625 541.589844 301.878906 L 541.589844 302.398438 L 536.820312 302.398438 C 536.691406 301.9375 536.597656 301.570312 536.539062 301.289062 C 536.425781 300.707031 536.367188 300.109375 536.359375 299.5 L 536.328125 297.574219 C 536.308594 296.253906 536.070312 295.371094 535.605469 294.929688 C 535.140625 294.488281 534.273438 294.269531 532.996094 294.269531 Z M 535.625 290.5 C 536.488281 290.105469 536.921875 289.328125 536.921875 288.167969 C 536.921875 286.910156 536.503906 286.066406 535.667969 285.636719 C 535.199219 285.390625 534.496094 285.269531 533.558594 285.269531 L 528.523438 285.269531 L 528.523438 290.839844 L 533.433594 290.839844 C 534.40625 290.839844 535.140625 290.726562 535.625 290.5 Z M 544.855469 281.671875 L 549.160156 281.671875 L 549.160156 302.398438 L 544.855469 302.398438 Z M 473 280.222656 "/>
</g>
</svg>
