<?xml version="1.0" encoding="UTF-8"?>
<svg xmlns="http://www.w3.org/2000/svg" xmlns:xlink="http://www.w3.org/1999/xlink" width="1024pt" height="576pt" viewBox="0 0 1024 576" version="1.1">
<g id="surface213">
<rect x="0" y="0" width="1024" height="576" style="fill:rgb(52.941176%,59.215686%,69.803922%);fill-opacity:1;stroke:none;"/>
<path style=" stroke:none;fill-rule:nonzero;fill:rgb(100%,100%,100%);fill-opacity:1;" d="M 489.496094 294.945312 L 485.09375 294.945312 L 485.09375 302.398438 L 480.792969 302.398438 L 480.792969 281.671875 L 489.820312 281.671875 C 491.902344 281.671875 493.5625 282.203125 494.796875 283.273438 C 496.035156 284.34375 496.65625 285.996094 496.65625 288.238281 C 496.65625 290.683594 496.035156 292.414062 494.796875 293.425781 C 493.558594 294.4375 491.792969 294.945312 489.496094 294.945312 Z M 491.523438 290.628906 C 492.085938 290.132812 492.367188 289.34375 492.367188 288.265625 C 492.367188 287.1875 492.082031 286.417969 491.515625 285.960938 C 490.949219 285.5 490.152344 285.269531 489.132812 285.269531 L 485.09375 285.269531 L 485.09375 291.375 L 489.132812 291.375 C 490.152344 291.375 490.949219 291.125 491.523438 290.628906 Z M 509.15625 302.398438 L 499.765625 302.398438 L 499.765625 281.671875 L 509.832031 281.671875 C 512.375 281.707031 514.171875 282.445312 515.234375 283.878906 C 515.871094 284.757812 516.1875 285.8125 516.1875 287.042969 C 516.1875 288.308594 515.871094 289.324219 515.234375 290.09375 C 514.878906 290.523438 514.351562 290.917969 513.65625 291.273438 C 514.714844 291.660156 515.515625 292.269531 516.054688 293.101562 C 516.59375 293.9375 516.863281 294.949219 516.863281 296.140625 C 516.863281 297.367188 516.554688 298.46875 515.9375 299.445312 C 515.542969 300.09375 515.050781 300.636719 514.460938 301.078125 C 513.792969 301.582031 513.007812 301.929688 512.105469 302.117188 C 511.199219 302.304688 510.21875 302.398438 509.15625 302.398438 Z M 509.058594 293.273438 L 503.898438 293.273438 L 503.898438 298.796875 L 508.988281 298.796875 C 509.898438 298.796875 510.605469 298.675781 511.113281 298.433594 C 512.03125 297.984375 512.492188 297.121094 512.492188 295.84375 C 512.492188 294.765625 512.046875 294.027344 511.15625 293.625 C 510.660156 293.398438 509.960938 293.28125 509.058594 293.273438 Z M 511.210938 289.320312 C 511.773438 288.984375 512.054688 288.378906 512.054688 287.507812 C 512.054688 286.542969 511.679688 285.902344 510.929688 285.59375 C 510.28125 285.378906 509.457031 285.269531 508.453125 285.269531 L 503.898438 285.269531 L 503.898438 289.839844 L 508.988281 289.839844 C 509.898438 289.839844 510.640625 289.667969 511.210938 289.320312 Z M 540.859375 281.671875 L 545.261719 281.671875 L 539.425781 302.398438 L 535.289062 302.398438 L 532.789062 290.277344 L 532.054688 286.269531 L 531.324219 290.277344 L 528.820312 302.398438 L 524.800781 302.398438 L 518.921875 281.671875 L 523.519531 281.671875 L 526.261719 293.539062 L 526.851562 296.84375 L 527.457031 293.609375 L 529.792969 281.671875 L 534.363281 281.671875 L 536.824219 293.539062 L 537.457031 296.84375 L 538.089844 293.664062 Z M 478.5 280.222656 "/>
</g>
</svg>
