<?xml version="1.0" encoding="UTF-8"?>
<svg xmlns="http://www.w3.org/2000/svg" xmlns:xlink="http://www.w3.org/1999/xlink" width="1024pt" height="576pt" viewBox="0 0 1024 576" version="1.1">
<g id="surface223">
<rect x="0" y="0" width="1024" height="576" style="fill:rgb(42.745098%,54.117647%,58.823529%);fill-opacity:1;stroke:none;"/>
<path style=" stroke:none;fill-rule:nonzero;fill:rgb(100%,100%,100%);fill-opacity:1;" d="M 480.996094 294.945312 L 476.59375 294.945312 L 476.59375 302.398438 L 472.292969 302.398438 L 472.292969 281.671875 L 481.320312 281.671875 C 483.402344 281.671875 485.0625 282.203125 486.296875 283.273438 C 487.535156 284.34375 488.15625 285.996094 488.15625 288.238281 C 488.15625 290.683594 487.535156 292.414062 486.296875 293.425781 C 485.058594 294.4375 483.292969 294.945312 480.996094 294.945312 Z M 483.023438 290.628906 C 483.585938 290.132812 483.867188 289.34375 483.867188 288.265625 C 483.867188 287.1875 483.582031 286.417969 483.015625 285.960938 C 482.449219 285.5 481.652344 285.269531 480.632812 285.269531 L 476.59375 285.269531 L 476.59375 291.375 L 480.632812 291.375 C 481.652344 291.375 482.449219 291.125 483.023438 290.628906 Z M 500.363281 302.976562 C 497.398438 302.976562 495.136719 302.167969 493.570312 300.554688 C 491.46875 298.578125 490.421875 295.726562 490.421875 292.007812 C 490.421875 288.210938 491.46875 285.359375 493.570312 283.457031 C 495.136719 281.84375 497.398438 281.039062 500.363281 281.039062 C 503.324219 281.039062 505.589844 281.84375 507.15625 283.457031 C 509.246094 285.359375 510.289062 288.210938 510.289062 292.007812 C 510.289062 295.730469 509.246094 298.578125 507.15625 300.554688 C 505.589844 302.167969 503.324219 302.976562 500.363281 302.976562 Z M 504.453125 297.40625 C 505.457031 296.140625 505.960938 294.339844 505.960938 292.007812 C 505.960938 289.683594 505.457031 287.882812 504.449219 286.613281 C 503.441406 285.34375 502.078125 284.707031 500.363281 284.707031 C 498.648438 284.707031 497.277344 285.339844 496.257812 286.605469 C 495.234375 287.871094 494.722656 289.671875 494.722656 292.007812 C 494.722656 294.339844 495.234375 296.140625 496.257812 297.40625 C 497.277344 298.671875 498.648438 299.304688 500.363281 299.304688 C 502.078125 299.304688 503.441406 298.671875 504.453125 297.40625 Z M 517.160156 302.398438 L 513.125 302.398438 L 513.125 281.671875 L 519.421875 281.671875 L 523.191406 297.96875 L 526.933594 281.671875 L 533.164062 281.671875 L 533.164062 302.398438 L 529.125 302.398438 L 529.125 288.378906 C 529.125 287.976562 529.132812 287.410156 529.140625 286.683594 C 529.148438 285.957031 529.15625 285.398438 529.15625 285.003906 L 525.230469 302.398438 L 521.027344 302.398438 L 517.132812 285.003906 C 517.132812 285.398438 517.136719 285.957031 517.144531 286.683594 C 517.15625 287.410156 517.160156 287.976562 517.160156 288.378906 Z M 544.71875 299.402344 C 545.738281 299.402344 546.570312 299.289062 547.207031 299.066406 C 548.414062 298.632812 549.019531 297.832031 549.019531 296.660156 C 549.019531 295.976562 548.71875 295.445312 548.121094 295.070312 C 547.519531 294.707031 546.578125 294.382812 545.292969 294.101562 L 543.101562 293.609375 C 540.945312 293.121094 539.453125 292.59375 538.628906 292.019531 C 537.230469 291.0625 536.53125 289.570312 536.53125 287.535156 C 536.53125 285.679688 537.207031 284.136719 538.558594 282.90625 C 539.90625 281.679688 541.890625 281.066406 544.507812 281.066406 C 546.691406 281.066406 548.554688 281.644531 550.097656 282.800781 C 551.640625 283.960938 552.445312 285.640625 552.523438 287.84375 L 548.359375 287.84375 C 548.285156 286.597656 547.742188 285.710938 546.726562 285.1875 C 546.050781 284.839844 545.214844 284.664062 544.210938 284.664062 C 543.09375 284.664062 542.203125 284.890625 541.539062 285.339844 C 540.875 285.789062 540.539062 286.417969 540.539062 287.226562 C 540.539062 287.964844 540.867188 288.519531 541.523438 288.882812 C 541.945312 289.128906 542.847656 289.414062 544.226562 289.742188 L 547.796875 290.601562 C 549.363281 290.976562 550.542969 291.476562 551.339844 292.105469 C 552.578125 293.078125 553.195312 294.492188 553.195312 296.335938 C 553.195312 298.230469 552.472656 299.804688 551.023438 301.054688 C 549.574219 302.308594 547.53125 302.933594 544.886719 302.933594 C 542.1875 302.933594 540.0625 302.316406 538.515625 301.082031 C 536.96875 299.851562 536.195312 298.15625 536.195312 296 L 540.328125 296 C 540.460938 296.945312 540.71875 297.65625 541.101562 298.125 C 541.804688 298.976562 543.011719 299.402344 544.71875 299.402344 Z M 470 280.222656 "/>
</g>
</svg>
