<?xml version="1.0" encoding="UTF-8"?>
<svg xmlns="http://www.w3.org/2000/svg" xmlns:xlink="http://www.w3.org/1999/xlink" width="1280pt" height="480pt" viewBox="0 0 1280 480" version="1.1">
<g id="surface215">
<rect x="0" y="0" width="1280" height="480" style="fill:rgb(12.54902%,10.196078%,13.72549%);fill-opacity:1;stroke:none;"/>
<path style=" stroke:none;fill-rule:nonzero;fill:rgb(100%,100%,100%);fill-opacity:1;" d="M 473.664062 245.34375 C 475.851562 245.34375 477.582031 244.90625 478.855469 244.03125 C 480.128906 243.15625 480.765625 241.578125 480.765625 239.296875 C 480.765625 236.84375 479.875 235.171875 478.09375 234.28125 C 477.140625 233.8125 475.867188 233.578125 474.273438 233.578125 L 462.882812 233.578125 L 462.882812 245.34375 Z M 458.21875 229.570312 L 474.15625 229.570312 C 476.78125 229.570312 478.945312 229.953125 480.648438 230.71875 C 483.882812 232.1875 485.5 234.898438 485.5 238.851562 C 485.5 240.914062 485.074219 242.601562 484.222656 243.914062 C 483.371094 245.226562 482.179688 246.28125 480.648438 247.078125 C 481.992188 247.625 483.003906 248.34375 483.683594 249.234375 C 484.363281 250.125 484.742188 251.570312 484.820312 253.570312 L 484.984375 258.1875 C 485.03125 259.5 485.140625 260.476562 485.3125 261.117188 C 485.59375 262.210938 486.09375 262.914062 486.8125 263.226562 L 486.8125 264 L 481.09375 264 C 480.9375 263.703125 480.8125 263.320312 480.71875 262.851562 C 480.625 262.382812 480.546875 261.476562 480.484375 260.132812 L 480.203125 254.390625 C 480.09375 252.140625 479.257812 250.632812 477.695312 249.867188 C 476.804688 249.445312 475.40625 249.234375 473.5 249.234375 L 462.882812 249.234375 L 462.882812 264 L 458.21875 264 Z M 495.328125 257.320312 C 495.328125 258.539062 495.773438 259.5 496.664062 260.203125 C 497.554688 260.90625 498.609375 261.257812 499.828125 261.257812 C 501.3125 261.257812 502.75 260.914062 504.140625 260.226562 C 506.484375 259.085938 507.65625 257.21875 507.65625 254.625 L 507.65625 251.226562 C 507.140625 251.554688 506.476562 251.828125 505.664062 252.046875 C 504.851562 252.265625 504.054688 252.421875 503.273438 252.515625 L 500.71875 252.84375 C 499.1875 253.046875 498.039062 253.367188 497.273438 253.804688 C 495.976562 254.539062 495.328125 255.710938 495.328125 257.320312 Z M 505.546875 248.789062 C 506.515625 248.664062 507.164062 248.257812 507.492188 247.570312 C 507.679688 247.195312 507.773438 246.65625 507.773438 245.953125 C 507.773438 244.515625 507.261719 243.472656 506.238281 242.824219 C 505.214844 242.175781 503.75 241.851562 501.84375 241.851562 C 499.640625 241.851562 498.078125 242.445312 497.15625 243.632812 C 496.640625 244.289062 496.304688 245.265625 496.148438 246.5625 L 492.210938 246.5625 C 492.289062 243.46875 493.292969 241.316406 495.222656 240.105469 C 497.152344 238.894531 499.390625 238.289062 501.9375 238.289062 C 504.890625 238.289062 507.289062 238.851562 509.132812 239.976562 C 510.960938 241.101562 511.875 242.851562 511.875 245.226562 L 511.875 259.6875 C 511.875 260.125 511.964844 260.476562 512.144531 260.742188 C 512.324219 261.007812 512.703125 261.140625 513.28125 261.140625 C 513.46875 261.140625 513.679688 261.128906 513.914062 261.105469 C 514.148438 261.082031 514.398438 261.046875 514.664062 261 L 514.664062 264.117188 C 514.007812 264.304688 513.507812 264.421875 513.164062 264.46875 C 512.820312 264.515625 512.351562 264.539062 511.757812 264.539062 C 510.304688 264.539062 509.25 264.023438 508.59375 262.992188 C 508.25 262.445312 508.007812 261.671875 507.867188 260.671875 C 507.007812 261.796875 505.773438 262.773438 504.164062 263.601562 C 502.554688 264.429688 500.78125 264.84375 498.84375 264.84375 C 496.515625 264.84375 494.613281 264.136719 493.136719 262.722656 C 491.660156 261.308594 490.921875 259.539062 490.921875 257.414062 C 490.921875 255.085938 491.648438 253.28125 493.101562 252 C 494.554688 250.71875 496.460938 249.929688 498.820312 249.632812 Z M 521.765625 251.742188 C 521.765625 254.429688 522.335938 256.679688 523.476562 258.492188 C 524.617188 260.304688 526.445312 261.210938 528.960938 261.210938 C 530.914062 261.210938 532.519531 260.371094 533.777344 258.691406 C 535.035156 257.011719 535.664062 254.601562 535.664062 251.460938 C 535.664062 248.289062 535.015625 245.941406 533.71875 244.417969 C 532.421875 242.894531 530.820312 242.132812 528.914062 242.132812 C 526.789062 242.132812 525.066406 242.945312 523.746094 244.570312 C 522.425781 246.195312 521.765625 248.585938 521.765625 251.742188 Z M 528.117188 238.453125 C 530.039062 238.453125 531.648438 238.859375 532.945312 239.671875 C 533.695312 240.140625 534.546875 240.960938 535.5 242.132812 L 535.5 229.453125 L 539.554688 229.453125 L 539.554688 264 L 535.757812 264 L 535.757812 260.507812 C 534.773438 262.054688 533.609375 263.171875 532.265625 263.859375 C 530.921875 264.546875 529.382812 264.890625 527.648438 264.890625 C 524.851562 264.890625 522.429688 263.714844 520.382812 261.363281 C 518.335938 259.011719 517.3125 255.882812 517.3125 251.976562 C 517.3125 248.320312 518.246094 245.152344 520.113281 242.472656 C 521.980469 239.792969 524.648438 238.453125 528.117188 238.453125 Z M 546.09375 239.015625 L 550.382812 239.015625 L 550.382812 264 L 546.09375 264 Z M 546.09375 229.570312 L 550.382812 229.570312 L 550.382812 234.351562 L 546.09375 234.351562 Z M 566.773438 238.171875 C 569.601562 238.171875 571.902344 238.859375 573.675781 240.234375 C 575.449219 241.609375 576.515625 243.976562 576.875 247.335938 L 572.773438 247.335938 C 572.523438 245.789062 571.953125 244.503906 571.0625 243.480469 C 570.171875 242.457031 568.742188 241.945312 566.773438 241.945312 C 564.085938 241.945312 562.164062 243.257812 561.007812 245.882812 C 560.257812 247.585938 559.882812 249.6875 559.882812 252.1875 C 559.882812 254.703125 560.414062 256.820312 561.476562 258.539062 C 562.539062 260.257812 564.210938 261.117188 566.492188 261.117188 C 568.242188 261.117188 569.628906 260.582031 570.652344 259.511719 C 571.675781 258.441406 572.382812 256.976562 572.773438 255.117188 L 576.875 255.117188 C 576.40625 258.445312 575.234375 260.878906 573.359375 262.417969 C 571.484375 263.957031 569.085938 264.726562 566.164062 264.726562 C 562.882812 264.726562 560.265625 263.527344 558.3125 261.128906 C 556.359375 258.730469 555.382812 255.734375 555.382812 252.140625 C 555.382812 247.734375 556.453125 244.304688 558.59375 241.851562 C 560.734375 239.398438 563.460938 238.171875 566.773438 238.171875 Z M 584.328125 257.320312 C 584.328125 258.539062 584.773438 259.5 585.664062 260.203125 C 586.554688 260.90625 587.609375 261.257812 588.828125 261.257812 C 590.3125 261.257812 591.75 260.914062 593.140625 260.226562 C 595.484375 259.085938 596.65625 257.21875 596.65625 254.625 L 596.65625 251.226562 C 596.140625 251.554688 595.476562 251.828125 594.664062 252.046875 C 593.851562 252.265625 593.054688 252.421875 592.273438 252.515625 L 589.71875 252.84375 C 588.1875 253.046875 587.039062 253.367188 586.273438 253.804688 C 584.976562 254.539062 584.328125 255.710938 584.328125 257.320312 Z M 594.546875 248.789062 C 595.515625 248.664062 596.164062 248.257812 596.492188 247.570312 C 596.679688 247.195312 596.773438 246.65625 596.773438 245.953125 C 596.773438 244.515625 596.261719 243.472656 595.238281 242.824219 C 594.214844 242.175781 592.75 241.851562 590.84375 241.851562 C 588.640625 241.851562 587.078125 242.445312 586.15625 243.632812 C 585.640625 244.289062 585.304688 245.265625 585.148438 246.5625 L 581.210938 246.5625 C 581.289062 243.46875 582.292969 241.316406 584.222656 240.105469 C 586.152344 238.894531 588.390625 238.289062 590.9375 238.289062 C 593.890625 238.289062 596.289062 238.851562 598.132812 239.976562 C 599.960938 241.101562 600.875 242.851562 600.875 245.226562 L 600.875 259.6875 C 600.875 260.125 600.964844 260.476562 601.144531 260.742188 C 601.324219 261.007812 601.703125 261.140625 602.28125 261.140625 C 602.46875 261.140625 602.679688 261.128906 602.914062 261.105469 C 603.148438 261.082031 603.398438 261.046875 603.664062 261 L 603.664062 264.117188 C 603.007812 264.304688 602.507812 264.421875 602.164062 264.46875 C 601.820312 264.515625 601.351562 264.539062 600.757812 264.539062 C 599.304688 264.539062 598.25 264.023438 597.59375 262.992188 C 597.25 262.445312 597.007812 261.671875 596.867188 260.671875 C 596.007812 261.796875 594.773438 262.773438 593.164062 263.601562 C 591.554688 264.429688 589.78125 264.84375 587.84375 264.84375 C 585.515625 264.84375 583.613281 264.136719 582.136719 262.722656 C 580.660156 261.308594 579.921875 259.539062 579.921875 257.414062 C 579.921875 255.085938 580.648438 253.28125 582.101562 252 C 583.554688 250.71875 585.460938 249.929688 587.820312 249.632812 Z M 608.210938 229.570312 L 612.429688 229.570312 L 612.429688 264 L 608.210938 264 Z M 657.710938 229.570312 L 657.710938 233.671875 L 646.109375 233.671875 L 646.109375 264 L 641.375 264 L 641.375 233.671875 L 629.773438 233.671875 L 629.773438 229.570312 Z M 659.210938 238.898438 L 663.21875 238.898438 L 663.21875 243.234375 C 663.546875 242.390625 664.351562 241.363281 665.632812 240.152344 C 666.914062 238.941406 668.390625 238.335938 670.0625 238.335938 C 670.140625 238.335938 670.273438 238.34375 670.460938 238.359375 C 670.648438 238.375 670.96875 238.40625 671.421875 238.453125 L 671.421875 242.90625 C 671.171875 242.859375 670.941406 242.828125 670.730469 242.8125 C 670.519531 242.796875 670.289062 242.789062 670.039062 242.789062 C 667.914062 242.789062 666.28125 243.472656 665.140625 244.839844 C 664 246.207031 663.429688 247.78125 663.429688 249.5625 L 663.429688 264 L 659.210938 264 Z M 678.328125 257.320312 C 678.328125 258.539062 678.773438 259.5 679.664062 260.203125 C 680.554688 260.90625 681.609375 261.257812 682.828125 261.257812 C 684.3125 261.257812 685.75 260.914062 687.140625 260.226562 C 689.484375 259.085938 690.65625 257.21875 690.65625 254.625 L 690.65625 251.226562 C 690.140625 251.554688 689.476562 251.828125 688.664062 252.046875 C 687.851562 252.265625 687.054688 252.421875 686.273438 252.515625 L 683.71875 252.84375 C 682.1875 253.046875 681.039062 253.367188 680.273438 253.804688 C 678.976562 254.539062 678.328125 255.710938 678.328125 257.320312 Z M 688.546875 248.789062 C 689.515625 248.664062 690.164062 248.257812 690.492188 247.570312 C 690.679688 247.195312 690.773438 246.65625 690.773438 245.953125 C 690.773438 244.515625 690.261719 243.472656 689.238281 242.824219 C 688.214844 242.175781 686.75 241.851562 684.84375 241.851562 C 682.640625 241.851562 681.078125 242.445312 680.15625 243.632812 C 679.640625 244.289062 679.304688 245.265625 679.148438 246.5625 L 675.210938 246.5625 C 675.289062 243.46875 676.292969 241.316406 678.222656 240.105469 C 680.152344 238.894531 682.390625 238.289062 684.9375 238.289062 C 687.890625 238.289062 690.289062 238.851562 692.132812 239.976562 C 693.960938 241.101562 694.875 242.851562 694.875 245.226562 L 694.875 259.6875 C 694.875 260.125 694.964844 260.476562 695.144531 260.742188 C 695.324219 261.007812 695.703125 261.140625 696.28125 261.140625 C 696.46875 261.140625 696.679688 261.128906 696.914062 261.105469 C 697.148438 261.082031 697.398438 261.046875 697.664062 261 L 697.664062 264.117188 C 697.007812 264.304688 696.507812 264.421875 696.164062 264.46875 C 695.820312 264.515625 695.351562 264.539062 694.757812 264.539062 C 693.304688 264.539062 692.25 264.023438 691.59375 262.992188 C 691.25 262.445312 691.007812 261.671875 690.867188 260.671875 C 690.007812 261.796875 688.773438 262.773438 687.164062 263.601562 C 685.554688 264.429688 683.78125 264.84375 681.84375 264.84375 C 679.515625 264.84375 677.613281 264.136719 676.136719 262.722656 C 674.660156 261.308594 673.921875 259.539062 673.921875 257.414062 C 673.921875 255.085938 674.648438 253.28125 676.101562 252 C 677.554688 250.71875 679.460938 249.929688 681.820312 249.632812 Z M 702.09375 238.898438 L 706.101562 238.898438 L 706.101562 242.460938 C 707.289062 240.992188 708.546875 239.9375 709.875 239.296875 C 711.203125 238.65625 712.679688 238.335938 714.304688 238.335938 C 717.867188 238.335938 720.273438 239.578125 721.523438 242.0625 C 722.210938 243.421875 722.554688 245.367188 722.554688 247.898438 L 722.554688 264 L 718.265625 264 L 718.265625 248.179688 C 718.265625 246.648438 718.039062 245.414062 717.585938 244.476562 C 716.835938 242.914062 715.476562 242.132812 713.507812 242.132812 C 712.507812 242.132812 711.6875 242.234375 711.046875 242.4375 C 709.890625 242.78125 708.875 243.46875 708 244.5 C 707.296875 245.328125 706.839844 246.183594 706.628906 247.066406 C 706.417969 247.949219 706.3125 249.210938 706.3125 250.851562 L 706.3125 264 L 702.09375 264 Z M 731.601562 256.125 C 731.726562 257.53125 732.078125 258.609375 732.65625 259.359375 C 733.71875 260.71875 735.5625 261.398438 738.1875 261.398438 C 739.75 261.398438 741.125 261.058594 742.3125 260.378906 C 743.5 259.699219 744.09375 258.648438 744.09375 257.226562 C 744.09375 256.148438 743.617188 255.328125 742.664062 254.765625 C 742.054688 254.421875 740.851562 254.023438 739.054688 253.570312 L 735.703125 252.726562 C 733.5625 252.195312 731.984375 251.601562 730.96875 250.945312 C 729.15625 249.804688 728.25 248.226562 728.25 246.210938 C 728.25 243.835938 729.105469 241.914062 730.816406 240.445312 C 732.527344 238.976562 734.828125 238.242188 737.71875 238.242188 C 741.5 238.242188 744.226562 239.351562 745.898438 241.570312 C 746.945312 242.976562 747.453125 244.492188 747.421875 246.117188 L 743.4375 246.117188 C 743.359375 245.164062 743.023438 244.296875 742.429688 243.515625 C 741.460938 242.40625 739.78125 241.851562 737.390625 241.851562 C 735.796875 241.851562 734.589844 242.15625 733.769531 242.765625 C 732.949219 243.375 732.539062 244.179688 732.539062 245.179688 C 732.539062 246.273438 733.078125 247.148438 734.15625 247.804688 C 734.78125 248.195312 735.703125 248.539062 736.921875 248.835938 L 739.710938 249.515625 C 742.742188 250.25 744.773438 250.960938 745.804688 251.648438 C 747.445312 252.726562 748.265625 254.421875 748.265625 256.734375 C 748.265625 258.96875 747.417969 260.898438 745.722656 262.523438 C 744.027344 264.148438 741.445312 264.960938 737.976562 264.960938 C 734.242188 264.960938 731.597656 264.113281 730.042969 262.417969 C 728.488281 260.722656 727.65625 258.625 727.546875 256.125 Z M 753.210938 229.570312 L 757.429688 229.570312 L 757.429688 264 L 753.210938 264 Z M 767.328125 257.320312 C 767.328125 258.539062 767.773438 259.5 768.664062 260.203125 C 769.554688 260.90625 770.609375 261.257812 771.828125 261.257812 C 773.3125 261.257812 774.75 260.914062 776.140625 260.226562 C 778.484375 259.085938 779.65625 257.21875 779.65625 254.625 L 779.65625 251.226562 C 779.140625 251.554688 778.476562 251.828125 777.664062 252.046875 C 776.851562 252.265625 776.054688 252.421875 775.273438 252.515625 L 772.71875 252.84375 C 771.1875 253.046875 770.039062 253.367188 769.273438 253.804688 C 767.976562 254.539062 767.328125 255.710938 767.328125 257.320312 Z M 777.546875 248.789062 C 778.515625 248.664062 779.164062 248.257812 779.492188 247.570312 C 779.679688 247.195312 779.773438 246.65625 779.773438 245.953125 C 779.773438 244.515625 779.261719 243.472656 778.238281 242.824219 C 777.214844 242.175781 775.75 241.851562 773.84375 241.851562 C 771.640625 241.851562 770.078125 242.445312 769.15625 243.632812 C 768.640625 244.289062 768.304688 245.265625 768.148438 246.5625 L 764.210938 246.5625 C 764.289062 243.46875 765.292969 241.316406 767.222656 240.105469 C 769.152344 238.894531 771.390625 238.289062 773.9375 238.289062 C 776.890625 238.289062 779.289062 238.851562 781.132812 239.976562 C 782.960938 241.101562 783.875 242.851562 783.875 245.226562 L 783.875 259.6875 C 783.875 260.125 783.964844 260.476562 784.144531 260.742188 C 784.324219 261.007812 784.703125 261.140625 785.28125 261.140625 C 785.46875 261.140625 785.679688 261.128906 785.914062 261.105469 C 786.148438 261.082031 786.398438 261.046875 786.664062 261 L 786.664062 264.117188 C 786.007812 264.304688 785.507812 264.421875 785.164062 264.46875 C 784.820312 264.515625 784.351562 264.539062 783.757812 264.539062 C 782.304688 264.539062 781.25 264.023438 780.59375 262.992188 C 780.25 262.445312 780.007812 261.671875 779.867188 260.671875 C 779.007812 261.796875 777.773438 262.773438 776.164062 263.601562 C 774.554688 264.429688 772.78125 264.84375 770.84375 264.84375 C 768.515625 264.84375 766.613281 264.136719 765.136719 262.722656 C 763.660156 261.308594 762.921875 259.539062 762.921875 257.414062 C 762.921875 255.085938 763.648438 253.28125 765.101562 252 C 766.554688 250.71875 768.460938 249.929688 770.820312 249.632812 Z M 791.9375 231.890625 L 796.203125 231.890625 L 796.203125 238.898438 L 800.210938 238.898438 L 800.210938 242.34375 L 796.203125 242.34375 L 796.203125 258.726562 C 796.203125 259.601562 796.5 260.1875 797.09375 260.484375 C 797.421875 260.65625 797.96875 260.742188 798.734375 260.742188 C 798.9375 260.742188 799.15625 260.738281 799.390625 260.730469 C 799.625 260.722656 799.898438 260.703125 800.210938 260.671875 L 800.210938 264 C 799.726562 264.140625 799.222656 264.242188 798.699219 264.304688 C 798.175781 264.367188 797.609375 264.398438 797 264.398438 C 795.03125 264.398438 793.695312 263.894531 792.992188 262.886719 C 792.289062 261.878906 791.9375 260.570312 791.9375 258.960938 L 791.9375 242.34375 L 788.539062 242.34375 L 788.539062 238.898438 L 791.9375 238.898438 Z M 804.09375 239.015625 L 808.382812 239.015625 L 808.382812 264 L 804.09375 264 Z M 804.09375 229.570312 L 808.382812 229.570312 L 808.382812 234.351562 L 804.09375 234.351562 Z M 825.054688 261.28125 C 827.851562 261.28125 829.769531 260.222656 830.808594 258.105469 C 831.847656 255.988281 832.367188 253.632812 832.367188 251.039062 C 832.367188 248.695312 831.992188 246.789062 831.242188 245.320312 C 830.054688 243.007812 828.007812 241.851562 825.101562 241.851562 C 822.523438 241.851562 820.648438 242.835938 819.476562 244.804688 C 818.304688 246.773438 817.71875 249.148438 817.71875 251.929688 C 817.71875 254.601562 818.304688 256.828125 819.476562 258.609375 C 820.648438 260.390625 822.507812 261.28125 825.054688 261.28125 Z M 825.21875 238.171875 C 828.453125 238.171875 831.1875 239.25 833.421875 241.40625 C 835.65625 243.5625 836.773438 246.734375 836.773438 250.921875 C 836.773438 254.96875 835.789062 258.3125 833.820312 260.953125 C 831.851562 263.59375 828.796875 264.914062 824.65625 264.914062 C 821.203125 264.914062 818.460938 263.746094 816.429688 261.410156 C 814.398438 259.074219 813.382812 255.9375 813.382812 252 C 813.382812 247.78125 814.453125 244.421875 816.59375 241.921875 C 818.734375 239.421875 821.609375 238.171875 825.21875 238.171875 Z M 842.09375 238.898438 L 846.101562 238.898438 L 846.101562 242.460938 C 847.289062 240.992188 848.546875 239.9375 849.875 239.296875 C 851.203125 238.65625 852.679688 238.335938 854.304688 238.335938 C 857.867188 238.335938 860.273438 239.578125 861.523438 242.0625 C 862.210938 243.421875 862.554688 245.367188 862.554688 247.898438 L 862.554688 264 L 858.265625 264 L 858.265625 248.179688 C 858.265625 246.648438 858.039062 245.414062 857.585938 244.476562 C 856.835938 242.914062 855.476562 242.132812 853.507812 242.132812 C 852.507812 242.132812 851.6875 242.234375 851.046875 242.4375 C 849.890625 242.78125 848.875 243.46875 848 244.5 C 847.296875 245.328125 846.839844 246.183594 846.628906 247.066406 C 846.417969 247.949219 846.3125 249.210938 846.3125 250.851562 L 846.3125 264 L 842.09375 264 Z M 871.601562 256.125 C 871.726562 257.53125 872.078125 258.609375 872.65625 259.359375 C 873.71875 260.71875 875.5625 261.398438 878.1875 261.398438 C 879.75 261.398438 881.125 261.058594 882.3125 260.378906 C 883.5 259.699219 884.09375 258.648438 884.09375 257.226562 C 884.09375 256.148438 883.617188 255.328125 882.664062 254.765625 C 882.054688 254.421875 880.851562 254.023438 879.054688 253.570312 L 875.703125 252.726562 C 873.5625 252.195312 871.984375 251.601562 870.96875 250.945312 C 869.15625 249.804688 868.25 248.226562 868.25 246.210938 C 868.25 243.835938 869.105469 241.914062 870.816406 240.445312 C 872.527344 238.976562 874.828125 238.242188 877.71875 238.242188 C 881.5 238.242188 884.226562 239.351562 885.898438 241.570312 C 886.945312 242.976562 887.453125 244.492188 887.421875 246.117188 L 883.4375 246.117188 C 883.359375 245.164062 883.023438 244.296875 882.429688 243.515625 C 881.460938 242.40625 879.78125 241.851562 877.390625 241.851562 C 875.796875 241.851562 874.589844 242.15625 873.769531 242.765625 C 872.949219 243.375 872.539062 244.179688 872.539062 245.179688 C 872.539062 246.273438 873.078125 247.148438 874.15625 247.804688 C 874.78125 248.195312 875.703125 248.539062 876.921875 248.835938 L 879.710938 249.515625 C 882.742188 250.25 884.773438 250.960938 885.804688 251.648438 C 887.445312 252.726562 888.265625 254.421875 888.265625 256.734375 C 888.265625 258.96875 887.417969 260.898438 885.722656 262.523438 C 884.027344 264.148438 881.445312 264.960938 877.976562 264.960938 C 874.242188 264.960938 871.597656 264.113281 870.042969 262.417969 C 868.488281 260.722656 867.65625 258.625 867.546875 256.125 Z M 454 227.039062 "/>
</g>
</svg>
