<?xml version="1.0" encoding="UTF-8"?>
<svg xmlns="http://www.w3.org/2000/svg" xmlns:xlink="http://www.w3.org/1999/xlink" width="1024pt" height="576pt" viewBox="0 0 1024 576" version="1.1">
<g id="surface233">
<rect x="0" y="0" width="1024" height="576" style="fill:rgb(36.470588%,43.921569%,49.803922%);fill-opacity:1;stroke:none;"/>
<path style=" stroke:none;fill-rule:nonzero;fill:rgb(100%,100%,100%);fill-opacity:1;" d="M 457.996094 294.269531 L 453.523438 294.269531 L 453.523438 302.398438 L 449.292969 302.398438 L 449.292969 281.671875 L 459.460938 281.671875 C 460.914062 281.699219 462.03125 281.875 462.8125 282.203125 C 463.597656 282.53125 464.257812 283.015625 464.804688 283.652344 C 465.253906 284.179688 465.609375 284.757812 465.871094 285.398438 C 466.132812 286.035156 466.265625 286.761719 466.265625 287.578125 C 466.265625 288.5625 466.015625 289.527344 465.519531 290.480469 C 465.023438 291.433594 464.203125 292.105469 463.058594 292.5 C 464.015625 292.882812 464.691406 293.429688 465.089844 294.136719 C 465.488281 294.84375 465.6875 295.925781 465.6875 297.378906 L 465.6875 298.769531 C 465.6875 299.71875 465.726562 300.359375 465.800781 300.695312 C 465.914062 301.230469 466.175781 301.625 466.589844 301.878906 L 466.589844 302.398438 L 461.820312 302.398438 C 461.691406 301.9375 461.597656 301.570312 461.539062 301.289062 C 461.425781 300.707031 461.367188 300.109375 461.359375 299.5 L 461.328125 297.574219 C 461.308594 296.253906 461.070312 295.371094 460.605469 294.929688 C 460.140625 294.488281 459.273438 294.269531 457.996094 294.269531 Z M 460.625 290.5 C 461.488281 290.105469 461.921875 289.328125 461.921875 288.167969 C 461.921875 286.910156 461.503906 286.066406 460.667969 285.636719 C 460.199219 285.390625 459.496094 285.269531 458.558594 285.269531 L 453.523438 285.269531 L 453.523438 290.839844 L 458.433594 290.839844 C 459.40625 290.839844 460.140625 290.726562 460.625 290.5 Z M 484.621094 293.34375 L 474.554688 293.34375 L 474.554688 298.671875 L 486.027344 298.671875 L 486.027344 302.398438 L 470.320312 302.398438 L 470.320312 281.671875 L 485.523438 281.671875 L 485.523438 285.339844 L 474.554688 285.339844 L 474.554688 289.742188 L 484.621094 289.742188 Z M 505.957031 302.398438 L 501.625 302.398438 L 493.160156 287.675781 L 493.160156 302.398438 L 489.125 302.398438 L 489.125 281.671875 L 493.664062 281.671875 L 501.921875 296.140625 L 501.921875 281.671875 L 505.957031 281.671875 Z M 517.71875 299.402344 C 518.738281 299.402344 519.570312 299.289062 520.207031 299.066406 C 521.414062 298.632812 522.019531 297.832031 522.019531 296.660156 C 522.019531 295.976562 521.71875 295.445312 521.121094 295.070312 C 520.519531 294.707031 519.578125 294.382812 518.292969 294.101562 L 516.101562 293.609375 C 513.945312 293.121094 512.453125 292.59375 511.628906 292.019531 C 510.230469 291.0625 509.53125 289.570312 509.53125 287.535156 C 509.53125 285.679688 510.207031 284.136719 511.558594 282.90625 C 512.90625 281.679688 514.890625 281.066406 517.507812 281.066406 C 519.691406 281.066406 521.554688 281.644531 523.097656 282.800781 C 524.640625 283.960938 525.445312 285.640625 525.523438 287.84375 L 521.359375 287.84375 C 521.285156 286.597656 520.742188 285.710938 519.726562 285.1875 C 519.050781 284.839844 518.214844 284.664062 517.210938 284.664062 C 516.09375 284.664062 515.203125 284.890625 514.539062 285.339844 C 513.875 285.789062 513.539062 286.417969 513.539062 287.226562 C 513.539062 287.964844 513.867188 288.519531 514.523438 288.882812 C 514.945312 289.128906 515.847656 289.414062 517.226562 289.742188 L 520.796875 290.601562 C 522.363281 290.976562 523.542969 291.476562 524.339844 292.105469 C 525.578125 293.078125 526.195312 294.492188 526.195312 296.335938 C 526.195312 298.230469 525.472656 299.804688 524.023438 301.054688 C 522.574219 302.308594 520.53125 302.933594 517.886719 302.933594 C 515.1875 302.933594 513.0625 302.316406 511.515625 301.082031 C 509.96875 299.851562 509.195312 298.15625 509.195312 296 L 513.328125 296 C 513.460938 296.945312 513.71875 297.65625 514.101562 298.125 C 514.804688 298.976562 516.011719 299.402344 517.71875 299.402344 Z M 547.558594 302.398438 L 541.992188 302.398438 L 535.59375 293.34375 L 533.523438 295.464844 L 533.523438 302.398438 L 529.265625 302.398438 L 529.265625 281.671875 L 533.523438 281.671875 L 533.523438 290.207031 L 541.527344 281.671875 L 547.125 281.671875 L 538.628906 290.207031 Z M 549.855469 281.671875 L 554.160156 281.671875 L 554.160156 302.398438 L 549.855469 302.398438 Z M 574.957031 302.398438 L 570.625 302.398438 L 562.160156 287.675781 L 562.160156 302.398438 L 558.125 302.398438 L 558.125 281.671875 L 562.664062 281.671875 L 570.921875 296.140625 L 570.921875 281.671875 L 574.957031 281.671875 Z M 447 280.222656 "/>
</g>
</svg>
