<?xml version="1.0" encoding="UTF-8"?>
<svg xmlns="http://www.w3.org/2000/svg" xmlns:xlink="http://www.w3.org/1999/xlink" width="1024pt" height="576pt" viewBox="0 0 1024 576" version="1.1">
<g id="surface261">
<rect x="0" y="0" width="1024" height="576" style="fill:rgb(12.54902%,10.196078%,13.72549%);fill-opacity:1;stroke:none;"/>
<path style=" stroke:none;fill-rule:nonzero;fill:rgb(100%,100%,100%);fill-opacity:1;" d="M 479.71875 299.402344 C 480.738281 299.402344 481.570312 299.289062 482.207031 299.066406 C 483.414062 298.632812 484.019531 297.832031 484.019531 296.660156 C 484.019531 295.976562 483.71875 295.445312 483.121094 295.070312 C 482.519531 294.707031 481.578125 294.382812 480.292969 294.101562 L 478.101562 293.609375 C 475.945312 293.121094 474.453125 292.59375 473.628906 292.019531 C 472.230469 291.0625 471.53125 289.570312 471.53125 287.535156 C 471.53125 285.679688 472.207031 284.136719 473.558594 282.90625 C 474.90625 281.679688 476.890625 281.066406 479.507812 281.066406 C 481.691406 281.066406 483.554688 281.644531 485.097656 282.800781 C 486.640625 283.960938 487.445312 285.640625 487.523438 287.84375 L 483.359375 287.84375 C 483.285156 286.597656 482.742188 285.710938 481.726562 285.1875 C 481.050781 284.839844 480.214844 284.664062 479.210938 284.664062 C 478.09375 284.664062 477.203125 284.890625 476.539062 285.339844 C 475.875 285.789062 475.539062 286.417969 475.539062 287.226562 C 475.539062 287.964844 475.867188 288.519531 476.523438 288.882812 C 476.945312 289.128906 477.847656 289.414062 479.226562 289.742188 L 482.796875 290.601562 C 484.363281 290.976562 485.542969 291.476562 486.339844 292.105469 C 487.578125 293.078125 488.195312 294.492188 488.195312 296.335938 C 488.195312 298.230469 487.472656 299.804688 486.023438 301.054688 C 484.574219 302.308594 482.53125 302.933594 479.886719 302.933594 C 477.1875 302.933594 475.0625 302.316406 473.515625 301.082031 C 471.96875 299.851562 471.195312 298.15625 471.195312 296 L 475.328125 296 C 475.460938 296.945312 475.71875 297.65625 476.101562 298.125 C 476.804688 298.976562 478.011719 299.402344 479.71875 299.402344 Z M 503.328125 298.136719 L 495.695312 298.136719 L 494.257812 302.398438 L 489.730469 302.398438 L 497.128906 281.671875 L 502.023438 281.671875 L 509.363281 302.398438 L 504.664062 302.398438 Z M 502.121094 294.566406 L 499.53125 286.410156 L 496.859375 294.566406 Z M 530.359375 281.671875 L 534.761719 281.671875 L 528.925781 302.398438 L 524.789062 302.398438 L 522.289062 290.277344 L 521.554688 286.269531 L 520.824219 290.277344 L 518.320312 302.398438 L 514.300781 302.398438 L 508.421875 281.671875 L 513.019531 281.671875 L 515.761719 293.539062 L 516.351562 296.84375 L 516.957031 293.609375 L 519.292969 281.671875 L 523.863281 281.671875 L 526.324219 293.539062 L 526.957031 296.84375 L 527.589844 293.664062 Z M 544.71875 299.402344 C 545.738281 299.402344 546.570312 299.289062 547.207031 299.066406 C 548.414062 298.632812 549.019531 297.832031 549.019531 296.660156 C 549.019531 295.976562 548.71875 295.445312 548.121094 295.070312 C 547.519531 294.707031 546.578125 294.382812 545.292969 294.101562 L 543.101562 293.609375 C 540.945312 293.121094 539.453125 292.59375 538.628906 292.019531 C 537.230469 291.0625 536.53125 289.570312 536.53125 287.535156 C 536.53125 285.679688 537.207031 284.136719 538.558594 282.90625 C 539.90625 281.679688 541.890625 281.066406 544.507812 281.066406 C 546.691406 281.066406 548.554688 281.644531 550.097656 282.800781 C 551.640625 283.960938 552.445312 285.640625 552.523438 287.84375 L 548.359375 287.84375 C 548.285156 286.597656 547.742188 285.710938 546.726562 285.1875 C 546.050781 284.839844 545.214844 284.664062 544.210938 284.664062 C 543.09375 284.664062 542.203125 284.890625 541.539062 285.339844 C 540.875 285.789062 540.539062 286.417969 540.539062 287.226562 C 540.539062 287.964844 540.867188 288.519531 541.523438 288.882812 C 541.945312 289.128906 542.847656 289.414062 544.226562 289.742188 L 547.796875 290.601562 C 549.363281 290.976562 550.542969 291.476562 551.339844 292.105469 C 552.578125 293.078125 553.195312 294.492188 553.195312 296.335938 C 553.195312 298.230469 552.472656 299.804688 551.023438 301.054688 C 549.574219 302.308594 547.53125 302.933594 544.886719 302.933594 C 542.1875 302.933594 540.0625 302.316406 538.515625 301.082031 C 536.96875 299.851562 536.195312 298.15625 536.195312 296 L 540.328125 296 C 540.460938 296.945312 540.71875 297.65625 541.101562 298.125 C 541.804688 298.976562 543.011719 299.402344 544.71875 299.402344 Z M 470 280.222656 "/>
</g>
</svg>
