<?xml version="1.0" encoding="UTF-8"?>
<svg xmlns="http://www.w3.org/2000/svg" xmlns:xlink="http://www.w3.org/1999/xlink" width="1024pt" height="576pt" viewBox="0 0 1024 576" version="1.1">
<g id="surface249">
<rect x="0" y="0" width="1024" height="576" style="fill:rgb(52.941176%,59.215686%,69.803922%);fill-opacity:1;stroke:none;"/>
<path style=" stroke:none;fill-rule:nonzero;fill:rgb(100%,100%,100%);fill-opacity:1;" d="M 27.21875 299.402344 C 28.238281 299.402344 29.070312 299.289062 29.707031 299.066406 C 30.914062 298.632812 31.519531 297.832031 31.519531 296.660156 C 31.519531 295.976562 31.21875 295.445312 30.621094 295.070312 C 30.019531 294.707031 29.078125 294.382812 27.792969 294.101562 L 25.601562 293.609375 C 23.445312 293.121094 21.953125 292.59375 21.128906 292.019531 C 19.730469 291.0625 19.03125 289.570312 19.03125 287.535156 C 19.03125 285.679688 19.707031 284.136719 21.058594 282.90625 C 22.40625 281.679688 24.390625 281.066406 27.007812 281.066406 C 29.191406 281.066406 31.054688 281.644531 32.597656 282.800781 C 34.140625 283.960938 34.945312 285.640625 35.023438 287.84375 L 30.859375 287.84375 C 30.785156 286.597656 30.242188 285.710938 29.226562 285.1875 C 28.550781 284.839844 27.714844 284.664062 26.710938 284.664062 C 25.59375 284.664062 24.703125 284.890625 24.039062 285.339844 C 23.375 285.789062 23.039062 286.417969 23.039062 287.226562 C 23.039062 287.964844 23.367188 288.519531 24.023438 288.882812 C 24.445312 289.128906 25.347656 289.414062 26.726562 289.742188 L 30.296875 290.601562 C 31.863281 290.976562 33.042969 291.476562 33.839844 292.105469 C 35.078125 293.078125 35.695312 294.492188 35.695312 296.335938 C 35.695312 298.230469 34.972656 299.804688 33.523438 301.054688 C 32.074219 302.308594 30.03125 302.933594 27.386719 302.933594 C 24.6875 302.933594 22.5625 302.316406 21.015625 301.082031 C 19.46875 299.851562 18.695312 298.15625 18.695312 296 L 22.828125 296 C 22.960938 296.945312 23.21875 297.65625 23.601562 298.125 C 24.304688 298.976562 25.511719 299.402344 27.21875 299.402344 Z M 51.632812 292.570312 L 47.523438 292.570312 C 47.449219 291.996094 47.257812 291.480469 46.949219 291.023438 C 46.5 290.402344 45.800781 290.09375 44.851562 290.09375 C 43.503906 290.09375 42.578125 290.765625 42.082031 292.105469 C 41.820312 292.816406 41.6875 293.765625 41.6875 294.945312 C 41.6875 296.070312 41.820312 296.976562 42.082031 297.660156 C 42.5625 298.933594 43.460938 299.570312 44.78125 299.570312 C 45.71875 299.570312 46.386719 299.320312 46.78125 298.8125 C 47.175781 298.304688 47.414062 297.648438 47.496094 296.84375 L 51.589844 296.84375 C 51.496094 298.0625 51.054688 299.214844 50.265625 300.304688 C 49.011719 302.058594 47.148438 302.933594 44.683594 302.933594 C 42.21875 302.933594 40.40625 302.203125 39.242188 300.738281 C 38.078125 299.277344 37.5 297.378906 37.5 295.042969 C 37.5 292.410156 38.140625 290.359375 39.425781 288.898438 C 40.710938 287.4375 42.480469 286.703125 44.742188 286.703125 C 46.664062 286.703125 48.234375 287.136719 49.457031 288 C 50.679688 288.863281 51.40625 290.382812 51.632812 292.570312 Z M 67.152344 289.011719 C 68.445312 290.632812 69.09375 292.550781 69.09375 294.761719 C 69.09375 297.011719 68.445312 298.9375 67.152344 300.535156 C 65.859375 302.132812 63.894531 302.933594 61.261719 302.933594 C 58.625 302.933594 56.664062 302.132812 55.367188 300.535156 C 54.074219 298.9375 53.429688 297.011719 53.429688 294.761719 C 53.429688 292.550781 54.074219 290.632812 55.367188 289.011719 C 56.660156 287.390625 58.625 286.578125 61.261719 286.578125 C 63.894531 286.578125 65.859375 287.390625 67.152344 289.011719 Z M 61.246094 289.96875 C 60.074219 289.96875 59.171875 290.382812 58.539062 291.210938 C 57.90625 292.042969 57.589844 293.226562 57.589844 294.761719 C 57.589844 296.300781 57.90625 297.484375 58.539062 298.320312 C 59.171875 299.15625 60.074219 299.570312 61.246094 299.570312 C 62.417969 299.570312 63.320312 299.15625 63.945312 298.320312 C 64.574219 297.484375 64.890625 296.300781 64.890625 294.761719 C 64.890625 293.226562 64.574219 292.042969 63.945312 291.210938 C 63.316406 290.382812 62.417969 289.96875 61.246094 289.96875 Z M 85.210938 288.714844 C 86.449219 290.039062 87.066406 291.976562 87.066406 294.539062 C 87.066406 297.238281 86.457031 299.296875 85.246094 300.710938 C 84.03125 302.125 82.46875 302.835938 80.554688 302.835938 C 79.335938 302.835938 78.324219 302.53125 77.515625 301.921875 C 77.074219 301.582031 76.644531 301.089844 76.222656 300.445312 L 76.222656 308.429688 L 72.257812 308.429688 L 72.257812 287.070312 L 76.097656 287.070312 L 76.097656 289.335938 C 76.527344 288.667969 76.988281 288.144531 77.476562 287.757812 C 78.367188 287.074219 79.425781 286.734375 80.652344 286.734375 C 82.445312 286.734375 83.960938 287.394531 85.210938 288.714844 Z M 82.929688 294.734375 C 82.929688 293.554688 82.660156 292.507812 82.121094 291.597656 C 81.582031 290.6875 80.710938 290.234375 79.5 290.234375 C 78.046875 290.234375 77.046875 290.921875 76.503906 292.300781 C 76.222656 293.03125 76.082031 293.960938 76.082031 295.085938 C 76.082031 296.867188 76.554688 298.117188 77.503906 298.839844 C 78.066406 299.261719 78.730469 299.472656 79.5 299.472656 C 80.617188 299.472656 81.464844 299.042969 82.050781 298.179688 C 82.636719 297.316406 82.929688 296.167969 82.929688 294.734375 Z M 94.492188 287.070312 L 94.492188 302.398438 L 90.425781 302.398438 L 90.425781 287.070312 Z M 94.492188 281.542969 L 94.492188 285.242188 L 90.425781 285.242188 L 90.425781 281.542969 Z M 105.585938 290.039062 C 104.226562 290.039062 103.292969 290.613281 102.785156 291.765625 C 102.523438 292.375 102.390625 293.15625 102.390625 294.101562 L 102.390625 302.398438 L 98.398438 302.398438 L 98.398438 287.097656 L 102.265625 287.097656 L 102.265625 289.335938 C 102.78125 288.546875 103.269531 287.980469 103.726562 287.632812 C 104.550781 287.015625 105.597656 286.703125 106.863281 286.703125 C 108.449219 286.703125 109.746094 287.121094 110.753906 287.949219 C 111.761719 288.777344 112.265625 290.15625 112.265625 292.078125 L 112.265625 302.398438 L 108.15625 302.398438 L 108.15625 293.074219 C 108.15625 292.269531 108.050781 291.648438 107.835938 291.21875 C 107.441406 290.429688 106.691406 290.039062 105.585938 290.039062 Z M 120.703125 305.085938 C 121.132812 305.449219 121.859375 305.632812 122.882812 305.632812 C 124.324219 305.632812 125.289062 305.148438 125.777344 304.183594 C 126.097656 303.566406 126.257812 302.523438 126.257812 301.0625 L 126.257812 300.078125 C 125.871094 300.734375 125.460938 301.226562 125.019531 301.554688 C 124.222656 302.164062 123.1875 302.46875 121.910156 302.46875 C 119.941406 302.46875 118.371094 301.777344 117.191406 300.394531 C 116.015625 299.011719 115.429688 297.140625 115.429688 294.777344 C 115.429688 292.5 115.996094 290.582031 117.128906 289.03125 C 118.265625 287.480469 119.871094 286.703125 121.953125 286.703125 C 122.722656 286.703125 123.390625 286.820312 123.964844 287.054688 C 124.9375 287.457031 125.726562 288.199219 126.328125 289.277344 L 126.328125 287.070312 L 130.222656 287.070312 L 130.222656 301.609375 C 130.222656 303.589844 129.890625 305.078125 129.222656 306.082031 C 128.078125 307.808594 125.886719 308.671875 122.640625 308.671875 C 120.683594 308.671875 119.085938 308.285156 117.847656 307.515625 C 116.609375 306.746094 115.925781 305.601562 115.792969 304.070312 L 120.152344 304.070312 C 120.265625 304.539062 120.449219 304.878906 120.703125 305.085938 Z M 120.027344 297.167969 C 120.570312 298.460938 121.546875 299.109375 122.953125 299.109375 C 123.890625 299.109375 124.679688 298.753906 125.328125 298.046875 C 125.976562 297.339844 126.296875 296.210938 126.296875 294.664062 C 126.296875 293.210938 125.992188 292.105469 125.378906 291.34375 C 124.765625 290.585938 123.941406 290.207031 122.910156 290.207031 C 121.503906 290.207031 120.53125 290.867188 120 292.1875 C 119.71875 292.890625 119.578125 293.757812 119.578125 294.789062 C 119.578125 295.679688 119.726562 296.472656 120.027344 297.167969 Z M 142.945312 288.730469 C 144.003906 287.378906 145.824219 286.703125 148.402344 286.703125 C 150.082031 286.703125 151.570312 287.039062 152.875 287.703125 C 154.179688 288.367188 154.828125 289.625 154.828125 291.472656 L 154.828125 298.503906 C 154.828125 298.992188 154.839844 299.582031 154.859375 300.273438 C 154.886719 300.800781 154.964844 301.15625 155.097656 301.34375 C 155.226562 301.53125 155.425781 301.6875 155.6875 301.808594 L 155.6875 302.398438 L 151.328125 302.398438 C 151.207031 302.089844 151.121094 301.796875 151.074219 301.527344 C 151.027344 301.253906 150.992188 300.945312 150.960938 300.597656 C 150.410156 301.199219 149.773438 301.710938 149.050781 302.132812 C 148.1875 302.628906 147.210938 302.875 146.125 302.875 C 144.738281 302.875 143.589844 302.480469 142.6875 301.6875 C 141.78125 300.894531 141.328125 299.773438 141.328125 298.320312 C 141.328125 296.4375 142.054688 295.070312 143.507812 294.226562 C 144.304688 293.769531 145.476562 293.441406 147.023438 293.242188 L 148.390625 293.074219 C 149.128906 292.980469 149.660156 292.863281 149.976562 292.722656 C 150.550781 292.480469 150.835938 292.101562 150.835938 291.585938 C 150.835938 290.957031 150.617188 290.523438 150.183594 290.285156 C 149.746094 290.046875 149.105469 289.925781 148.261719 289.925781 C 147.316406 289.925781 146.644531 290.160156 146.25 290.628906 C 145.96875 290.976562 145.78125 291.445312 145.6875 292.035156 L 141.820312 292.035156 C 141.90625 290.695312 142.28125 289.59375 142.945312 288.730469 Z M 145.929688 299.5 C 146.304688 299.808594 146.761719 299.964844 147.304688 299.964844 C 148.167969 299.964844 148.964844 299.710938 149.691406 299.207031 C 150.417969 298.699219 150.792969 297.777344 150.820312 296.4375 L 150.820312 294.945312 C 150.566406 295.105469 150.3125 295.234375 150.054688 295.332031 C 149.796875 295.429688 149.445312 295.523438 148.992188 295.605469 L 148.09375 295.773438 C 147.25 295.925781 146.644531 296.109375 146.28125 296.324219 C 145.660156 296.6875 145.351562 297.257812 145.351562 298.023438 C 145.351562 298.707031 145.542969 299.203125 145.929688 299.5 Z M 175.625 302.398438 L 166.695312 302.398438 L 166.695312 281.671875 L 175.625 281.671875 C 176.910156 281.691406 177.976562 281.839844 178.828125 282.121094 C 180.28125 282.597656 181.460938 283.476562 182.359375 284.75 C 183.082031 285.78125 183.574219 286.898438 183.835938 288.097656 C 184.097656 289.296875 184.230469 290.441406 184.230469 291.527344 C 184.230469 294.285156 183.675781 296.617188 182.570312 298.53125 C 181.070312 301.109375 178.753906 302.398438 175.625 302.398438 Z M 178.84375 286.957031 C 178.179688 285.832031 176.859375 285.269531 174.890625 285.269531 L 170.898438 285.269531 L 170.898438 298.796875 L 174.890625 298.796875 C 176.933594 298.796875 178.359375 297.789062 179.167969 295.773438 C 179.609375 294.667969 179.828125 293.351562 179.828125 291.824219 C 179.828125 289.714844 179.5 288.09375 178.84375 286.957031 Z M 187.945312 288.730469 C 189.003906 287.378906 190.824219 286.703125 193.402344 286.703125 C 195.082031 286.703125 196.570312 287.039062 197.875 287.703125 C 199.179688 288.367188 199.828125 289.625 199.828125 291.472656 L 199.828125 298.503906 C 199.828125 298.992188 199.839844 299.582031 199.859375 300.273438 C 199.886719 300.800781 199.964844 301.15625 200.097656 301.34375 C 200.226562 301.53125 200.425781 301.6875 200.6875 301.808594 L 200.6875 302.398438 L 196.328125 302.398438 C 196.207031 302.089844 196.121094 301.796875 196.074219 301.527344 C 196.027344 301.253906 195.992188 300.945312 195.960938 300.597656 C 195.410156 301.199219 194.773438 301.710938 194.050781 302.132812 C 193.1875 302.628906 192.210938 302.875 191.125 302.875 C 189.738281 302.875 188.589844 302.480469 187.6875 301.6875 C 186.78125 300.894531 186.328125 299.773438 186.328125 298.320312 C 186.328125 296.4375 187.054688 295.070312 188.507812 294.226562 C 189.304688 293.769531 190.476562 293.441406 192.023438 293.242188 L 193.390625 293.074219 C 194.128906 292.980469 194.660156 292.863281 194.976562 292.722656 C 195.550781 292.480469 195.835938 292.101562 195.835938 291.585938 C 195.835938 290.957031 195.617188 290.523438 195.183594 290.285156 C 194.746094 290.046875 194.105469 289.925781 193.261719 289.925781 C 192.316406 289.925781 191.644531 290.160156 191.25 290.628906 C 190.96875 290.976562 190.78125 291.445312 190.6875 292.035156 L 186.820312 292.035156 C 186.90625 290.695312 187.28125 289.59375 187.945312 288.730469 Z M 190.929688 299.5 C 191.304688 299.808594 191.761719 299.964844 192.304688 299.964844 C 193.167969 299.964844 193.964844 299.710938 194.691406 299.207031 C 195.417969 298.699219 195.792969 297.777344 195.820312 296.4375 L 195.820312 294.945312 C 195.566406 295.105469 195.3125 295.234375 195.054688 295.332031 C 194.796875 295.429688 194.445312 295.523438 193.992188 295.605469 L 193.09375 295.773438 C 192.25 295.925781 191.644531 296.109375 191.28125 296.324219 C 190.660156 296.6875 190.351562 297.257812 190.351562 298.023438 C 190.351562 298.707031 190.542969 299.203125 190.929688 299.5 Z M 210.386719 299.542969 L 210.386719 302.539062 L 208.488281 302.609375 C 206.59375 302.675781 205.300781 302.347656 204.609375 301.625 C 204.160156 301.164062 203.933594 300.457031 203.933594 299.5 L 203.933594 290.066406 L 201.796875 290.066406 L 201.796875 287.210938 L 203.933594 287.210938 L 203.933594 282.9375 L 207.898438 282.9375 L 207.898438 287.210938 L 210.386719 287.210938 L 210.386719 290.066406 L 207.898438 290.066406 L 207.898438 298.164062 C 207.898438 298.792969 207.976562 299.183594 208.136719 299.339844 C 208.296875 299.496094 208.785156 299.570312 209.601562 299.570312 C 209.722656 299.570312 209.851562 299.570312 209.988281 299.566406 C 210.125 299.5625 210.257812 299.554688 210.386719 299.542969 Z M 213.945312 288.730469 C 215.003906 287.378906 216.824219 286.703125 219.402344 286.703125 C 221.082031 286.703125 222.570312 287.039062 223.875 287.703125 C 225.179688 288.367188 225.828125 289.625 225.828125 291.472656 L 225.828125 298.503906 C 225.828125 298.992188 225.839844 299.582031 225.859375 300.273438 C 225.886719 300.800781 225.964844 301.15625 226.097656 301.34375 C 226.226562 301.53125 226.425781 301.6875 226.6875 301.808594 L 226.6875 302.398438 L 222.328125 302.398438 C 222.207031 302.089844 222.121094 301.796875 222.074219 301.527344 C 222.027344 301.253906 221.992188 300.945312 221.960938 300.597656 C 221.410156 301.199219 220.773438 301.710938 220.050781 302.132812 C 219.1875 302.628906 218.210938 302.875 217.125 302.875 C 215.738281 302.875 214.589844 302.480469 213.6875 301.6875 C 212.78125 300.894531 212.328125 299.773438 212.328125 298.320312 C 212.328125 296.4375 213.054688 295.070312 214.507812 294.226562 C 215.304688 293.769531 216.476562 293.441406 218.023438 293.242188 L 219.390625 293.074219 C 220.128906 292.980469 220.660156 292.863281 220.976562 292.722656 C 221.550781 292.480469 221.835938 292.101562 221.835938 291.585938 C 221.835938 290.957031 221.617188 290.523438 221.183594 290.285156 C 220.746094 290.046875 220.105469 289.925781 219.261719 289.925781 C 218.316406 289.925781 217.644531 290.160156 217.25 290.628906 C 216.96875 290.976562 216.78125 291.445312 216.6875 292.035156 L 212.820312 292.035156 C 212.90625 290.695312 213.28125 289.59375 213.945312 288.730469 Z M 216.929688 299.5 C 217.304688 299.808594 217.761719 299.964844 218.304688 299.964844 C 219.167969 299.964844 219.964844 299.710938 220.691406 299.207031 C 221.417969 298.699219 221.792969 297.777344 221.820312 296.4375 L 221.820312 294.945312 C 221.566406 295.105469 221.3125 295.234375 221.054688 295.332031 C 220.796875 295.429688 220.445312 295.523438 219.992188 295.605469 L 219.09375 295.773438 C 218.25 295.925781 217.644531 296.109375 217.28125 296.324219 C 216.660156 296.6875 216.351562 297.257812 216.351562 298.023438 C 216.351562 298.707031 216.542969 299.203125 216.929688 299.5 Z M 245.21875 299.402344 C 246.238281 299.402344 247.070312 299.289062 247.707031 299.066406 C 248.914062 298.632812 249.519531 297.832031 249.519531 296.660156 C 249.519531 295.976562 249.21875 295.445312 248.621094 295.070312 C 248.019531 294.707031 247.078125 294.382812 245.792969 294.101562 L 243.601562 293.609375 C 241.445312 293.121094 239.953125 292.59375 239.128906 292.019531 C 237.730469 291.0625 237.03125 289.570312 237.03125 287.535156 C 237.03125 285.679688 237.707031 284.136719 239.058594 282.90625 C 240.40625 281.679688 242.390625 281.066406 245.007812 281.066406 C 247.191406 281.066406 249.054688 281.644531 250.597656 282.800781 C 252.140625 283.960938 252.945312 285.640625 253.023438 287.84375 L 248.859375 287.84375 C 248.785156 286.597656 248.242188 285.710938 247.226562 285.1875 C 246.550781 284.839844 245.714844 284.664062 244.710938 284.664062 C 243.59375 284.664062 242.703125 284.890625 242.039062 285.339844 C 241.375 285.789062 241.039062 286.417969 241.039062 287.226562 C 241.039062 287.964844 241.367188 288.519531 242.023438 288.882812 C 242.445312 289.128906 243.347656 289.414062 244.726562 289.742188 L 248.296875 290.601562 C 249.863281 290.976562 251.042969 291.476562 251.839844 292.105469 C 253.078125 293.078125 253.695312 294.492188 253.695312 296.335938 C 253.695312 298.230469 252.972656 299.804688 251.523438 301.054688 C 250.074219 302.308594 248.03125 302.933594 245.386719 302.933594 C 242.6875 302.933594 240.5625 302.316406 239.015625 301.082031 C 237.46875 299.851562 236.695312 298.15625 236.695312 296 L 240.828125 296 C 240.960938 296.945312 241.21875 297.65625 241.601562 298.125 C 242.304688 298.976562 243.511719 299.402344 245.21875 299.402344 Z M 269.492188 297.898438 C 269.386719 298.808594 268.914062 299.730469 268.070312 300.667969 C 266.757812 302.160156 264.921875 302.90625 262.558594 302.90625 C 260.609375 302.90625 258.886719 302.277344 257.398438 301.019531 C 255.90625 299.765625 255.160156 297.71875 255.160156 294.890625 C 255.160156 292.238281 255.832031 290.203125 257.179688 288.785156 C 258.523438 287.371094 260.269531 286.664062 262.417969 286.664062 C 263.691406 286.664062 264.839844 286.902344 265.863281 287.378906 C 266.882812 287.859375 267.726562 288.613281 268.394531 289.644531 C 268.992188 290.554688 269.382812 291.609375 269.5625 292.808594 C 269.664062 293.511719 269.707031 294.523438 269.6875 295.84375 L 259.195312 295.84375 C 259.253906 297.382812 259.734375 298.460938 260.644531 299.078125 C 261.199219 299.464844 261.863281 299.65625 262.640625 299.65625 C 263.464844 299.65625 264.136719 299.421875 264.652344 298.953125 C 264.933594 298.699219 265.183594 298.347656 265.398438 297.898438 Z M 265.523438 293.203125 C 265.457031 292.144531 265.136719 291.339844 264.5625 290.789062 C 263.984375 290.242188 263.269531 289.96875 262.417969 289.96875 C 261.488281 289.96875 260.769531 290.257812 260.257812 290.839844 C 259.746094 291.421875 259.425781 292.207031 259.296875 293.203125 Z M 280.078125 290.769531 C 278.464844 290.769531 277.382812 291.292969 276.828125 292.34375 C 276.519531 292.933594 276.363281 293.84375 276.363281 295.070312 L 276.363281 302.398438 L 272.328125 302.398438 L 272.328125 287.070312 L 276.152344 287.070312 L 276.152344 289.742188 C 276.773438 288.71875 277.3125 288.023438 277.769531 287.648438 C 278.519531 287.019531 279.496094 286.703125 280.695312 286.703125 C 280.769531 286.703125 280.832031 286.707031 280.886719 286.710938 C 280.9375 286.714844 281.050781 286.722656 281.230469 286.734375 L 281.230469 290.839844 C 280.976562 290.8125 280.75 290.792969 280.554688 290.78125 C 280.359375 290.773438 280.199219 290.769531 280.078125 290.769531 Z M 281.867188 287.070312 L 286.367188 287.070312 L 289.558594 298.375 L 292.820312 287.070312 L 297.125 287.070312 L 291.597656 302.398438 L 287.363281 302.398438 Z M 303.492188 287.070312 L 303.492188 302.398438 L 299.425781 302.398438 L 299.425781 287.070312 Z M 303.492188 281.542969 L 303.492188 285.242188 L 299.425781 285.242188 L 299.425781 281.542969 Z M 320.632812 292.570312 L 316.523438 292.570312 C 316.449219 291.996094 316.257812 291.480469 315.949219 291.023438 C 315.5 290.402344 314.800781 290.09375 313.851562 290.09375 C 312.503906 290.09375 311.578125 290.765625 311.082031 292.105469 C 310.820312 292.816406 310.6875 293.765625 310.6875 294.945312 C 310.6875 296.070312 310.820312 296.976562 311.082031 297.660156 C 311.5625 298.933594 312.460938 299.570312 313.78125 299.570312 C 314.71875 299.570312 315.386719 299.320312 315.78125 298.8125 C 316.175781 298.304688 316.414062 297.648438 316.496094 296.84375 L 320.589844 296.84375 C 320.496094 298.0625 320.054688 299.214844 319.265625 300.304688 C 318.011719 302.058594 316.148438 302.933594 313.683594 302.933594 C 311.21875 302.933594 309.40625 302.203125 308.242188 300.738281 C 307.078125 299.277344 306.5 297.378906 306.5 295.042969 C 306.5 292.410156 307.140625 290.359375 308.425781 288.898438 C 309.710938 287.4375 311.480469 286.703125 313.742188 286.703125 C 315.664062 286.703125 317.234375 287.136719 318.457031 288 C 319.679688 288.863281 320.40625 290.382812 320.632812 292.570312 Z M 336.492188 297.898438 C 336.386719 298.808594 335.914062 299.730469 335.070312 300.667969 C 333.757812 302.160156 331.921875 302.90625 329.558594 302.90625 C 327.609375 302.90625 325.886719 302.277344 324.398438 301.019531 C 322.90625 299.765625 322.160156 297.71875 322.160156 294.890625 C 322.160156 292.238281 322.832031 290.203125 324.179688 288.785156 C 325.523438 287.371094 327.269531 286.664062 329.417969 286.664062 C 330.691406 286.664062 331.839844 286.902344 332.863281 287.378906 C 333.882812 287.859375 334.726562 288.613281 335.394531 289.644531 C 335.992188 290.554688 336.382812 291.609375 336.5625 292.808594 C 336.664062 293.511719 336.707031 294.523438 336.6875 295.84375 L 326.195312 295.84375 C 326.253906 297.382812 326.734375 298.460938 327.644531 299.078125 C 328.199219 299.464844 328.863281 299.65625 329.640625 299.65625 C 330.464844 299.65625 331.136719 299.421875 331.652344 298.953125 C 331.933594 298.699219 332.183594 298.347656 332.398438 297.898438 Z M 332.523438 293.203125 C 332.457031 292.144531 332.136719 291.339844 331.5625 290.789062 C 330.984375 290.242188 330.269531 289.96875 329.417969 289.96875 C 328.488281 289.96875 327.769531 290.257812 327.257812 290.839844 C 326.746094 291.421875 326.425781 292.207031 326.296875 293.203125 Z M 354.554688 281.542969 L 354.554688 284.804688 C 354.332031 284.777344 353.953125 284.757812 353.425781 284.742188 C 352.894531 284.730469 352.527344 284.847656 352.328125 285.09375 C 352.125 285.34375 352.023438 285.617188 352.023438 285.917969 L 352.023438 287.210938 L 354.65625 287.210938 L 354.65625 290.039062 L 352.023438 290.039062 L 352.023438 302.398438 L 348.03125 302.398438 L 348.03125 290.039062 L 345.796875 290.039062 L 345.796875 287.210938 L 347.988281 287.210938 L 347.988281 286.226562 C 347.988281 284.585938 348.265625 283.457031 348.820312 282.835938 C 349.402344 281.917969 350.800781 281.460938 353.023438 281.460938 C 353.277344 281.460938 353.507812 281.464844 353.710938 281.480469 C 353.917969 281.496094 354.199219 281.515625 354.554688 281.542969 Z M 370.152344 289.011719 C 371.445312 290.632812 372.09375 292.550781 372.09375 294.761719 C 372.09375 297.011719 371.445312 298.9375 370.152344 300.535156 C 368.859375 302.132812 366.894531 302.933594 364.261719 302.933594 C 361.625 302.933594 359.664062 302.132812 358.367188 300.535156 C 357.074219 298.9375 356.429688 297.011719 356.429688 294.761719 C 356.429688 292.550781 357.074219 290.632812 358.367188 289.011719 C 359.660156 287.390625 361.625 286.578125 364.261719 286.578125 C 366.894531 286.578125 368.859375 287.390625 370.152344 289.011719 Z M 364.246094 289.96875 C 363.074219 289.96875 362.171875 290.382812 361.539062 291.210938 C 360.90625 292.042969 360.589844 293.226562 360.589844 294.761719 C 360.589844 296.300781 360.90625 297.484375 361.539062 298.320312 C 362.171875 299.15625 363.074219 299.570312 364.246094 299.570312 C 365.417969 299.570312 366.320312 299.15625 366.945312 298.320312 C 367.574219 297.484375 367.890625 296.300781 367.890625 294.761719 C 367.890625 293.226562 367.574219 292.042969 366.945312 291.210938 C 366.316406 290.382812 365.417969 289.96875 364.246094 289.96875 Z M 383.078125 290.769531 C 381.464844 290.769531 380.382812 291.292969 379.828125 292.34375 C 379.519531 292.933594 379.363281 293.84375 379.363281 295.070312 L 379.363281 302.398438 L 375.328125 302.398438 L 375.328125 287.070312 L 379.152344 287.070312 L 379.152344 289.742188 C 379.773438 288.71875 380.3125 288.023438 380.769531 287.648438 C 381.519531 287.019531 382.496094 286.703125 383.695312 286.703125 C 383.769531 286.703125 383.832031 286.707031 383.886719 286.710938 C 383.9375 286.714844 384.050781 286.722656 384.230469 286.734375 L 384.230469 290.839844 C 383.976562 290.8125 383.75 290.792969 383.554688 290.78125 C 383.359375 290.773438 383.199219 290.769531 383.078125 290.769531 Z M 409.320312 300.851562 C 407.773438 302.265625 405.792969 302.976562 403.382812 302.976562 C 400.402344 302.976562 398.058594 302.019531 396.351562 300.105469 C 394.644531 298.183594 393.792969 295.550781 393.792969 292.203125 C 393.792969 288.585938 394.765625 285.796875 396.703125 283.835938 C 398.390625 282.128906 400.539062 281.277344 403.144531 281.277344 C 406.632812 281.277344 409.183594 282.421875 410.796875 284.707031 C 411.6875 285.992188 412.164062 287.28125 412.230469 288.574219 L 407.898438 288.574219 C 407.617188 287.582031 407.257812 286.832031 406.816406 286.324219 C 406.027344 285.425781 404.859375 284.976562 403.3125 284.976562 C 401.738281 284.976562 400.496094 285.609375 399.585938 286.878906 C 398.675781 288.148438 398.222656 289.949219 398.222656 292.273438 C 398.222656 294.597656 398.703125 296.339844 399.664062 297.496094 C 400.625 298.65625 401.847656 299.234375 403.328125 299.234375 C 404.847656 299.234375 406.003906 298.738281 406.800781 297.742188 C 407.242188 297.207031 407.609375 296.40625 407.898438 295.339844 L 412.1875 295.339844 C 411.8125 297.597656 410.855469 299.4375 409.320312 300.851562 Z M 428.152344 289.011719 C 429.445312 290.632812 430.09375 292.550781 430.09375 294.761719 C 430.09375 297.011719 429.445312 298.9375 428.152344 300.535156 C 426.859375 302.132812 424.894531 302.933594 422.261719 302.933594 C 419.625 302.933594 417.664062 302.132812 416.367188 300.535156 C 415.074219 298.9375 414.429688 297.011719 414.429688 294.761719 C 414.429688 292.550781 415.074219 290.632812 416.367188 289.011719 C 417.660156 287.390625 419.625 286.578125 422.261719 286.578125 C 424.894531 286.578125 426.859375 287.390625 428.152344 289.011719 Z M 422.246094 289.96875 C 421.074219 289.96875 420.171875 290.382812 419.539062 291.210938 C 418.90625 292.042969 418.589844 293.226562 418.589844 294.761719 C 418.589844 296.300781 418.90625 297.484375 419.539062 298.320312 C 420.171875 299.15625 421.074219 299.570312 422.246094 299.570312 C 423.417969 299.570312 424.320312 299.15625 424.945312 298.320312 C 425.574219 297.484375 425.890625 296.300781 425.890625 294.761719 C 425.890625 293.226562 425.574219 292.042969 424.945312 291.210938 C 424.316406 290.382812 423.417969 289.96875 422.246094 289.96875 Z M 441.976562 291.289062 C 441.640625 290.546875 440.976562 290.179688 439.992188 290.179688 C 438.847656 290.179688 438.082031 290.546875 437.6875 291.289062 C 437.472656 291.710938 437.363281 292.339844 437.363281 293.171875 L 437.363281 302.398438 L 433.300781 302.398438 L 433.300781 287.097656 L 437.195312 287.097656 L 437.195312 289.335938 C 437.691406 288.539062 438.160156 287.96875 438.601562 287.632812 C 439.378906 287.03125 440.386719 286.734375 441.625 286.734375 C 442.796875 286.734375 443.742188 286.992188 444.464844 287.507812 C 445.046875 287.984375 445.488281 288.597656 445.789062 289.347656 C 446.3125 288.449219 446.964844 287.789062 447.742188 287.367188 C 448.566406 286.945312 449.484375 286.734375 450.5 286.734375 C 451.175781 286.734375 451.839844 286.863281 452.496094 287.125 C 453.152344 287.386719 453.746094 287.847656 454.28125 288.503906 C 454.710938 289.039062 455.003906 289.695312 455.152344 290.472656 C 455.246094 290.988281 455.292969 291.742188 455.292969 292.738281 L 455.265625 302.398438 L 451.160156 302.398438 L 451.160156 292.640625 C 451.160156 292.058594 451.066406 291.578125 450.878906 291.203125 C 450.523438 290.492188 449.867188 290.136719 448.910156 290.136719 C 447.804688 290.136719 447.039062 290.59375 446.617188 291.515625 C 446.402344 292.003906 446.292969 292.585938 446.292969 293.273438 L 446.292969 302.398438 L 442.257812 302.398438 L 442.257812 293.273438 C 442.257812 292.363281 442.164062 291.703125 441.976562 291.289062 Z M 472.210938 288.714844 C 473.449219 290.039062 474.066406 291.976562 474.066406 294.539062 C 474.066406 297.238281 473.457031 299.296875 472.246094 300.710938 C 471.03125 302.125 469.46875 302.835938 467.554688 302.835938 C 466.335938 302.835938 465.324219 302.53125 464.515625 301.921875 C 464.074219 301.582031 463.644531 301.089844 463.222656 300.445312 L 463.222656 308.429688 L 459.257812 308.429688 L 459.257812 287.070312 L 463.097656 287.070312 L 463.097656 289.335938 C 463.527344 288.667969 463.988281 288.144531 464.476562 287.757812 C 465.367188 287.074219 466.425781 286.734375 467.652344 286.734375 C 469.445312 286.734375 470.960938 287.394531 472.210938 288.714844 Z M 469.929688 294.734375 C 469.929688 293.554688 469.660156 292.507812 469.121094 291.597656 C 468.582031 290.6875 467.710938 290.234375 466.5 290.234375 C 465.046875 290.234375 464.046875 290.921875 463.503906 292.300781 C 463.222656 293.03125 463.082031 293.960938 463.082031 295.085938 C 463.082031 296.867188 463.554688 298.117188 464.503906 298.839844 C 465.066406 299.261719 465.730469 299.472656 466.5 299.472656 C 467.617188 299.472656 468.464844 299.042969 469.050781 298.179688 C 469.636719 297.316406 469.929688 296.167969 469.929688 294.734375 Z M 477.453125 281.671875 L 481.460938 281.671875 L 481.460938 302.398438 L 477.453125 302.398438 Z M 498.492188 297.898438 C 498.386719 298.808594 497.914062 299.730469 497.070312 300.667969 C 495.757812 302.160156 493.921875 302.90625 491.558594 302.90625 C 489.609375 302.90625 487.886719 302.277344 486.398438 301.019531 C 484.90625 299.765625 484.160156 297.71875 484.160156 294.890625 C 484.160156 292.238281 484.832031 290.203125 486.179688 288.785156 C 487.523438 287.371094 489.269531 286.664062 491.417969 286.664062 C 492.691406 286.664062 493.839844 286.902344 494.863281 287.378906 C 495.882812 287.859375 496.726562 288.613281 497.394531 289.644531 C 497.992188 290.554688 498.382812 291.609375 498.5625 292.808594 C 498.664062 293.511719 498.707031 294.523438 498.6875 295.84375 L 488.195312 295.84375 C 488.253906 297.382812 488.734375 298.460938 489.644531 299.078125 C 490.199219 299.464844 490.863281 299.65625 491.640625 299.65625 C 492.464844 299.65625 493.136719 299.421875 493.652344 298.953125 C 493.933594 298.699219 494.183594 298.347656 494.398438 297.898438 Z M 494.523438 293.203125 C 494.457031 292.144531 494.136719 291.339844 493.5625 290.789062 C 492.984375 290.242188 492.269531 289.96875 491.417969 289.96875 C 490.488281 289.96875 489.769531 290.257812 489.257812 290.839844 C 488.746094 291.421875 488.425781 292.207031 488.296875 293.203125 Z M 515.023438 302.398438 L 510.03125 302.398438 L 507.390625 297.800781 L 504.730469 302.398438 L 499.867188 302.398438 L 505.097656 294.636719 L 500.089844 287.097656 L 505 287.097656 L 507.558594 291.542969 L 510.0625 287.097656 L 514.828125 287.097656 L 509.792969 294.566406 Z M 529.011719 286.070312 C 528.5625 286.671875 528.347656 287.472656 528.367188 288.476562 L 524.625 288.476562 C 524.664062 287.464844 524.835938 286.503906 525.144531 285.59375 C 525.472656 284.796875 525.988281 284.0625 526.691406 283.386719 C 527.21875 282.90625 527.839844 282.542969 528.5625 282.289062 C 529.285156 282.035156 530.171875 281.910156 531.21875 281.910156 C 533.167969 281.910156 534.742188 282.414062 535.9375 283.421875 C 537.132812 284.429688 537.730469 285.78125 537.730469 287.476562 C 537.730469 288.675781 537.375 289.691406 536.664062 290.515625 C 536.214844 291.03125 535.742188 291.382812 535.257812 291.570312 C 535.621094 291.570312 536.148438 291.882812 536.832031 292.511719 C 537.851562 293.460938 538.363281 294.753906 538.363281 296.394531 C 538.363281 298.117188 537.765625 299.636719 536.570312 300.941406 C 535.375 302.25 533.605469 302.90625 531.261719 302.90625 C 528.375 302.90625 526.367188 301.960938 525.242188 300.078125 C 524.652344 299.074219 524.324219 297.761719 524.257812 296.140625 L 528.195312 296.140625 C 528.195312 296.957031 528.328125 297.632812 528.589844 298.164062 C 529.078125 299.148438 529.964844 299.640625 531.25 299.640625 C 532.035156 299.640625 532.722656 299.371094 533.308594 298.832031 C 533.894531 298.292969 534.1875 297.519531 534.1875 296.507812 C 534.1875 295.167969 533.644531 294.269531 532.554688 293.820312 C 531.9375 293.566406 530.960938 293.441406 529.632812 293.441406 L 529.632812 290.570312 C 530.933594 290.550781 531.84375 290.425781 532.359375 290.191406 C 533.25 289.796875 533.695312 289 533.695312 287.800781 C 533.695312 287.023438 533.46875 286.390625 533.011719 285.902344 C 532.558594 285.414062 531.917969 285.171875 531.09375 285.171875 C 530.148438 285.171875 529.453125 285.472656 529.011719 286.070312 Z M 550.625 302.398438 L 541.695312 302.398438 L 541.695312 281.671875 L 550.625 281.671875 C 551.910156 281.691406 552.976562 281.839844 553.828125 282.121094 C 555.28125 282.597656 556.460938 283.476562 557.359375 284.75 C 558.082031 285.78125 558.574219 286.898438 558.835938 288.097656 C 559.097656 289.296875 559.230469 290.441406 559.230469 291.527344 C 559.230469 294.285156 558.675781 296.617188 557.570312 298.53125 C 556.070312 301.109375 553.753906 302.398438 550.625 302.398438 Z M 553.84375 286.957031 C 553.179688 285.832031 551.859375 285.269531 549.890625 285.269531 L 545.898438 285.269531 L 545.898438 298.796875 L 549.890625 298.796875 C 551.933594 298.796875 553.359375 297.789062 554.167969 295.773438 C 554.609375 294.667969 554.828125 293.351562 554.828125 291.824219 C 554.828125 289.714844 554.5 288.09375 553.84375 286.957031 Z M 579.625 302.398438 L 570.695312 302.398438 L 570.695312 281.671875 L 579.625 281.671875 C 580.910156 281.691406 581.976562 281.839844 582.828125 282.121094 C 584.28125 282.597656 585.460938 283.476562 586.359375 284.75 C 587.082031 285.78125 587.574219 286.898438 587.835938 288.097656 C 588.097656 289.296875 588.230469 290.441406 588.230469 291.527344 C 588.230469 294.285156 587.675781 296.617188 586.570312 298.53125 C 585.070312 301.109375 582.753906 302.398438 579.625 302.398438 Z M 582.84375 286.957031 C 582.179688 285.832031 580.859375 285.269531 578.890625 285.269531 L 574.898438 285.269531 L 574.898438 298.796875 L 578.890625 298.796875 C 580.933594 298.796875 582.359375 297.789062 583.167969 295.773438 C 583.609375 294.667969 583.828125 293.351562 583.828125 291.824219 C 583.828125 289.714844 583.5 288.09375 582.84375 286.957031 Z M 591.945312 288.730469 C 593.003906 287.378906 594.824219 286.703125 597.402344 286.703125 C 599.082031 286.703125 600.570312 287.039062 601.875 287.703125 C 603.179688 288.367188 603.828125 289.625 603.828125 291.472656 L 603.828125 298.503906 C 603.828125 298.992188 603.839844 299.582031 603.859375 300.273438 C 603.886719 300.800781 603.964844 301.15625 604.097656 301.34375 C 604.226562 301.53125 604.425781 301.6875 604.6875 301.808594 L 604.6875 302.398438 L 600.328125 302.398438 C 600.207031 302.089844 600.121094 301.796875 600.074219 301.527344 C 600.027344 301.253906 599.992188 300.945312 599.960938 300.597656 C 599.410156 301.199219 598.773438 301.710938 598.050781 302.132812 C 597.1875 302.628906 596.210938 302.875 595.125 302.875 C 593.738281 302.875 592.589844 302.480469 591.6875 301.6875 C 590.78125 300.894531 590.328125 299.773438 590.328125 298.320312 C 590.328125 296.4375 591.054688 295.070312 592.507812 294.226562 C 593.304688 293.769531 594.476562 293.441406 596.023438 293.242188 L 597.390625 293.074219 C 598.128906 292.980469 598.660156 292.863281 598.976562 292.722656 C 599.550781 292.480469 599.835938 292.101562 599.835938 291.585938 C 599.835938 290.957031 599.617188 290.523438 599.183594 290.285156 C 598.746094 290.046875 598.105469 289.925781 597.261719 289.925781 C 596.316406 289.925781 595.644531 290.160156 595.25 290.628906 C 594.96875 290.976562 594.78125 291.445312 594.6875 292.035156 L 590.820312 292.035156 C 590.90625 290.695312 591.28125 289.59375 591.945312 288.730469 Z M 594.929688 299.5 C 595.304688 299.808594 595.761719 299.964844 596.304688 299.964844 C 597.167969 299.964844 597.964844 299.710938 598.691406 299.207031 C 599.417969 298.699219 599.792969 297.777344 599.820312 296.4375 L 599.820312 294.945312 C 599.566406 295.105469 599.3125 295.234375 599.054688 295.332031 C 598.796875 295.429688 598.445312 295.523438 597.992188 295.605469 L 597.09375 295.773438 C 596.25 295.925781 595.644531 296.109375 595.28125 296.324219 C 594.660156 296.6875 594.351562 297.257812 594.351562 298.023438 C 594.351562 298.707031 594.542969 299.203125 594.929688 299.5 Z M 614.386719 299.542969 L 614.386719 302.539062 L 612.488281 302.609375 C 610.59375 302.675781 609.300781 302.347656 608.609375 301.625 C 608.160156 301.164062 607.933594 300.457031 607.933594 299.5 L 607.933594 290.066406 L 605.796875 290.066406 L 605.796875 287.210938 L 607.933594 287.210938 L 607.933594 282.9375 L 611.898438 282.9375 L 611.898438 287.210938 L 614.386719 287.210938 L 614.386719 290.066406 L 611.898438 290.066406 L 611.898438 298.164062 C 611.898438 298.792969 611.976562 299.183594 612.136719 299.339844 C 612.296875 299.496094 612.785156 299.570312 613.601562 299.570312 C 613.722656 299.570312 613.851562 299.570312 613.988281 299.566406 C 614.125 299.5625 614.257812 299.554688 614.386719 299.542969 Z M 617.945312 288.730469 C 619.003906 287.378906 620.824219 286.703125 623.402344 286.703125 C 625.082031 286.703125 626.570312 287.039062 627.875 287.703125 C 629.179688 288.367188 629.828125 289.625 629.828125 291.472656 L 629.828125 298.503906 C 629.828125 298.992188 629.839844 299.582031 629.859375 300.273438 C 629.886719 300.800781 629.964844 301.15625 630.097656 301.34375 C 630.226562 301.53125 630.425781 301.6875 630.6875 301.808594 L 630.6875 302.398438 L 626.328125 302.398438 C 626.207031 302.089844 626.121094 301.796875 626.074219 301.527344 C 626.027344 301.253906 625.992188 300.945312 625.960938 300.597656 C 625.410156 301.199219 624.773438 301.710938 624.050781 302.132812 C 623.1875 302.628906 622.210938 302.875 621.125 302.875 C 619.738281 302.875 618.589844 302.480469 617.6875 301.6875 C 616.78125 300.894531 616.328125 299.773438 616.328125 298.320312 C 616.328125 296.4375 617.054688 295.070312 618.507812 294.226562 C 619.304688 293.769531 620.476562 293.441406 622.023438 293.242188 L 623.390625 293.074219 C 624.128906 292.980469 624.660156 292.863281 624.976562 292.722656 C 625.550781 292.480469 625.835938 292.101562 625.835938 291.585938 C 625.835938 290.957031 625.617188 290.523438 625.183594 290.285156 C 624.746094 290.046875 624.105469 289.925781 623.261719 289.925781 C 622.316406 289.925781 621.644531 290.160156 621.25 290.628906 C 620.96875 290.976562 620.78125 291.445312 620.6875 292.035156 L 616.820312 292.035156 C 616.90625 290.695312 617.28125 289.59375 617.945312 288.730469 Z M 620.929688 299.5 C 621.304688 299.808594 621.761719 299.964844 622.304688 299.964844 C 623.167969 299.964844 623.964844 299.710938 624.691406 299.207031 C 625.417969 298.699219 625.792969 297.777344 625.820312 296.4375 L 625.820312 294.945312 C 625.566406 295.105469 625.3125 295.234375 625.054688 295.332031 C 624.796875 295.429688 624.445312 295.523438 623.992188 295.605469 L 623.09375 295.773438 C 622.25 295.925781 621.644531 296.109375 621.28125 296.324219 C 620.660156 296.6875 620.351562 297.257812 620.351562 298.023438 C 620.351562 298.707031 620.542969 299.203125 620.929688 299.5 Z M 645.492188 287.070312 L 645.492188 302.398438 L 641.425781 302.398438 L 641.425781 287.070312 Z M 645.492188 281.542969 L 645.492188 285.242188 L 641.425781 285.242188 L 641.425781 281.542969 Z M 656.585938 290.039062 C 655.226562 290.039062 654.292969 290.613281 653.785156 291.765625 C 653.523438 292.375 653.390625 293.15625 653.390625 294.101562 L 653.390625 302.398438 L 649.398438 302.398438 L 649.398438 287.097656 L 653.265625 287.097656 L 653.265625 289.335938 C 653.78125 288.546875 654.269531 287.980469 654.726562 287.632812 C 655.550781 287.015625 656.597656 286.703125 657.863281 286.703125 C 659.449219 286.703125 660.746094 287.121094 661.753906 287.949219 C 662.761719 288.777344 663.265625 290.15625 663.265625 292.078125 L 663.265625 302.398438 L 659.15625 302.398438 L 659.15625 293.074219 C 659.15625 292.269531 659.050781 291.648438 658.835938 291.21875 C 658.441406 290.429688 657.691406 290.039062 656.585938 290.039062 Z M 682.386719 299.542969 L 682.386719 302.539062 L 680.488281 302.609375 C 678.59375 302.675781 677.300781 302.347656 676.609375 301.625 C 676.160156 301.164062 675.933594 300.457031 675.933594 299.5 L 675.933594 290.066406 L 673.796875 290.066406 L 673.796875 287.210938 L 675.933594 287.210938 L 675.933594 282.9375 L 679.898438 282.9375 L 679.898438 287.210938 L 682.386719 287.210938 L 682.386719 290.066406 L 679.898438 290.066406 L 679.898438 298.164062 C 679.898438 298.792969 679.976562 299.183594 680.136719 299.339844 C 680.296875 299.496094 680.785156 299.570312 681.601562 299.570312 C 681.722656 299.570312 681.851562 299.570312 681.988281 299.566406 C 682.125 299.5625 682.257812 299.554688 682.386719 299.542969 Z M 699.222656 293.398438 L 699.222656 302.398438 L 695.128906 302.398438 L 695.128906 293.074219 C 695.128906 292.25 694.988281 291.585938 694.707031 291.078125 C 694.34375 290.367188 693.648438 290.007812 692.625 290.007812 C 691.566406 290.007812 690.761719 290.363281 690.214844 291.070312 C 689.667969 291.777344 689.390625 292.789062 689.390625 294.101562 L 689.390625 302.398438 L 685.398438 302.398438 L 685.398438 281.742188 L 689.390625 281.742188 L 689.390625 289.066406 C 689.972656 288.175781 690.644531 287.554688 691.410156 287.203125 C 692.175781 286.851562 692.976562 286.675781 693.820312 286.675781 C 694.769531 286.675781 695.628906 286.839844 696.402344 287.167969 C 697.175781 287.496094 697.8125 288 698.308594 288.671875 C 698.730469 289.246094 698.988281 289.832031 699.082031 290.4375 C 699.175781 291.042969 699.222656 292.03125 699.222656 293.398438 Z M 716.492188 297.898438 C 716.386719 298.808594 715.914062 299.730469 715.070312 300.667969 C 713.757812 302.160156 711.921875 302.90625 709.558594 302.90625 C 707.609375 302.90625 705.886719 302.277344 704.398438 301.019531 C 702.90625 299.765625 702.160156 297.71875 702.160156 294.890625 C 702.160156 292.238281 702.832031 290.203125 704.179688 288.785156 C 705.523438 287.371094 707.269531 286.664062 709.417969 286.664062 C 710.691406 286.664062 711.839844 286.902344 712.863281 287.378906 C 713.882812 287.859375 714.726562 288.613281 715.394531 289.644531 C 715.992188 290.554688 716.382812 291.609375 716.5625 292.808594 C 716.664062 293.511719 716.707031 294.523438 716.6875 295.84375 L 706.195312 295.84375 C 706.253906 297.382812 706.734375 298.460938 707.644531 299.078125 C 708.199219 299.464844 708.863281 299.65625 709.640625 299.65625 C 710.464844 299.65625 711.136719 299.421875 711.652344 298.953125 C 711.933594 298.699219 712.183594 298.347656 712.398438 297.898438 Z M 712.523438 293.203125 C 712.457031 292.144531 712.136719 291.339844 711.5625 290.789062 C 710.984375 290.242188 710.269531 289.96875 709.417969 289.96875 C 708.488281 289.96875 707.769531 290.257812 707.257812 290.839844 C 706.746094 291.421875 706.425781 292.207031 706.296875 293.203125 Z M 737.828125 298.136719 L 730.195312 298.136719 L 728.757812 302.398438 L 724.230469 302.398438 L 731.628906 281.671875 L 736.523438 281.671875 L 743.863281 302.398438 L 739.164062 302.398438 Z M 736.621094 294.566406 L 734.03125 286.410156 L 731.359375 294.566406 Z M 754.078125 290.769531 C 752.464844 290.769531 751.382812 291.292969 750.828125 292.34375 C 750.519531 292.933594 750.363281 293.84375 750.363281 295.070312 L 750.363281 302.398438 L 746.328125 302.398438 L 746.328125 287.070312 L 750.152344 287.070312 L 750.152344 289.742188 C 750.773438 288.71875 751.3125 288.023438 751.769531 287.648438 C 752.519531 287.019531 753.496094 286.703125 754.695312 286.703125 C 754.769531 286.703125 754.832031 286.707031 754.886719 286.710938 C 754.9375 286.714844 755.050781 286.722656 755.230469 286.734375 L 755.230469 290.839844 C 754.976562 290.8125 754.75 290.792969 754.554688 290.78125 C 754.359375 290.773438 754.199219 290.769531 754.078125 290.769531 Z M 764.386719 299.542969 L 764.386719 302.539062 L 762.488281 302.609375 C 760.59375 302.675781 759.300781 302.347656 758.609375 301.625 C 758.160156 301.164062 757.933594 300.457031 757.933594 299.5 L 757.933594 290.066406 L 755.796875 290.066406 L 755.796875 287.210938 L 757.933594 287.210938 L 757.933594 282.9375 L 761.898438 282.9375 L 761.898438 287.210938 L 764.386719 287.210938 L 764.386719 290.066406 L 761.898438 290.066406 L 761.898438 298.164062 C 761.898438 298.792969 761.976562 299.183594 762.136719 299.339844 C 762.296875 299.496094 762.785156 299.570312 763.601562 299.570312 C 763.722656 299.570312 763.851562 299.570312 763.988281 299.566406 C 764.125 299.5625 764.257812 299.554688 764.386719 299.542969 Z M 777.929688 287.773438 C 779.128906 288.542969 779.820312 289.863281 780 291.738281 L 775.992188 291.738281 C 775.933594 291.222656 775.789062 290.816406 775.554688 290.515625 C 775.113281 289.972656 774.363281 289.699219 773.304688 289.699219 C 772.433594 289.699219 771.8125 289.835938 771.441406 290.109375 C 771.070312 290.378906 770.886719 290.699219 770.886719 291.0625 C 770.886719 291.523438 771.082031 291.855469 771.476562 292.0625 C 771.871094 292.277344 773.261719 292.648438 775.652344 293.171875 C 777.246094 293.546875 778.441406 294.117188 779.238281 294.875 C 780.027344 295.644531 780.421875 296.605469 780.421875 297.757812 C 780.421875 299.277344 779.855469 300.515625 778.726562 301.476562 C 777.597656 302.4375 775.851562 302.917969 773.488281 302.917969 C 771.078125 302.917969 769.300781 302.410156 768.152344 301.394531 C 767.003906 300.375 766.429688 299.078125 766.429688 297.503906 L 770.492188 297.503906 C 770.578125 298.21875 770.757812 298.722656 771.039062 299.023438 C 771.535156 299.558594 772.457031 299.824219 773.796875 299.824219 C 774.585938 299.824219 775.210938 299.707031 775.675781 299.472656 C 776.140625 299.238281 776.371094 298.886719 776.371094 298.417969 C 776.371094 297.96875 776.183594 297.625 775.808594 297.390625 C 775.433594 297.15625 774.039062 296.753906 771.632812 296.183594 C 769.898438 295.75 768.671875 295.210938 767.960938 294.566406 C 767.25 293.929688 766.890625 293.007812 766.890625 291.808594 C 766.890625 290.394531 767.449219 289.175781 768.558594 288.160156 C 769.667969 287.144531 771.234375 286.632812 773.25 286.632812 C 775.160156 286.632812 776.722656 287.015625 777.929688 287.773438 Z M 791.945312 288.730469 C 793.003906 287.378906 794.824219 286.703125 797.402344 286.703125 C 799.082031 286.703125 800.570312 287.039062 801.875 287.703125 C 803.179688 288.367188 803.828125 289.625 803.828125 291.472656 L 803.828125 298.503906 C 803.828125 298.992188 803.839844 299.582031 803.859375 300.273438 C 803.886719 300.800781 803.964844 301.15625 804.097656 301.34375 C 804.226562 301.53125 804.425781 301.6875 804.6875 301.808594 L 804.6875 302.398438 L 800.328125 302.398438 C 800.207031 302.089844 800.121094 301.796875 800.074219 301.527344 C 800.027344 301.253906 799.992188 300.945312 799.960938 300.597656 C 799.410156 301.199219 798.773438 301.710938 798.050781 302.132812 C 797.1875 302.628906 796.210938 302.875 795.125 302.875 C 793.738281 302.875 792.589844 302.480469 791.6875 301.6875 C 790.78125 300.894531 790.328125 299.773438 790.328125 298.320312 C 790.328125 296.4375 791.054688 295.070312 792.507812 294.226562 C 793.304688 293.769531 794.476562 293.441406 796.023438 293.242188 L 797.390625 293.074219 C 798.128906 292.980469 798.660156 292.863281 798.976562 292.722656 C 799.550781 292.480469 799.835938 292.101562 799.835938 291.585938 C 799.835938 290.957031 799.617188 290.523438 799.183594 290.285156 C 798.746094 290.046875 798.105469 289.925781 797.261719 289.925781 C 796.316406 289.925781 795.644531 290.160156 795.25 290.628906 C 794.96875 290.976562 794.78125 291.445312 794.6875 292.035156 L 790.820312 292.035156 C 790.90625 290.695312 791.28125 289.59375 791.945312 288.730469 Z M 794.929688 299.5 C 795.304688 299.808594 795.761719 299.964844 796.304688 299.964844 C 797.167969 299.964844 797.964844 299.710938 798.691406 299.207031 C 799.417969 298.699219 799.792969 297.777344 799.820312 296.4375 L 799.820312 294.945312 C 799.566406 295.105469 799.3125 295.234375 799.054688 295.332031 C 798.796875 295.429688 798.445312 295.523438 797.992188 295.605469 L 797.09375 295.773438 C 796.25 295.925781 795.644531 296.109375 795.28125 296.324219 C 794.660156 296.6875 794.351562 297.257812 794.351562 298.023438 C 794.351562 298.707031 794.542969 299.203125 794.929688 299.5 Z M 814.585938 290.039062 C 813.226562 290.039062 812.292969 290.613281 811.785156 291.765625 C 811.523438 292.375 811.390625 293.15625 811.390625 294.101562 L 811.390625 302.398438 L 807.398438 302.398438 L 807.398438 287.097656 L 811.265625 287.097656 L 811.265625 289.335938 C 811.78125 288.546875 812.269531 287.980469 812.726562 287.632812 C 813.550781 287.015625 814.597656 286.703125 815.863281 286.703125 C 817.449219 286.703125 818.746094 287.121094 819.753906 287.949219 C 820.761719 288.777344 821.265625 290.15625 821.265625 292.078125 L 821.265625 302.398438 L 817.15625 302.398438 L 817.15625 293.074219 C 817.15625 292.269531 817.050781 291.648438 816.835938 291.21875 C 816.441406 290.429688 815.691406 290.039062 814.585938 290.039062 Z M 839.320312 281.699219 L 839.320312 302.398438 L 835.425781 302.398438 L 835.425781 300.273438 C 834.851562 301.183594 834.203125 301.84375 833.46875 302.257812 C 832.738281 302.671875 831.828125 302.875 830.742188 302.875 C 828.953125 302.875 827.445312 302.152344 826.222656 300.703125 C 825 299.253906 824.386719 297.398438 824.386719 295.128906 C 824.386719 292.511719 824.988281 290.453125 826.191406 288.953125 C 827.398438 287.453125 829.007812 286.703125 831.023438 286.703125 C 831.953125 286.703125 832.777344 286.910156 833.5 287.316406 C 834.222656 287.722656 834.804688 288.289062 835.257812 289.011719 L 835.257812 281.699219 Z M 828.519531 294.832031 C 828.519531 296.25 828.800781 297.378906 829.363281 298.222656 C 829.917969 299.074219 830.761719 299.5 831.894531 299.5 C 833.03125 299.5 833.890625 299.078125 834.484375 298.234375 C 835.074219 297.390625 835.367188 296.300781 835.367188 294.960938 C 835.367188 293.085938 834.894531 291.742188 833.949219 290.9375 C 833.367188 290.449219 832.691406 290.207031 831.921875 290.207031 C 830.75 290.207031 829.890625 290.648438 829.34375 291.535156 C 828.792969 292.421875 828.519531 293.519531 828.519531 294.832031 Z M 864.054688 302.398438 L 864.054688 293.144531 L 855.953125 293.144531 L 855.953125 302.398438 L 851.664062 302.398438 L 851.664062 281.671875 L 855.953125 281.671875 L 855.953125 289.574219 L 864.054688 289.574219 L 864.054688 281.671875 L 868.359375 281.671875 L 868.359375 302.398438 Z M 882.199219 300.234375 C 882.164062 300.28125 882.070312 300.421875 881.917969 300.65625 C 881.769531 300.890625 881.589844 301.09375 881.382812 301.273438 C 880.753906 301.835938 880.148438 302.21875 879.5625 302.425781 C 878.976562 302.632812 878.289062 302.734375 877.503906 302.734375 C 875.234375 302.734375 873.707031 301.921875 872.917969 300.289062 C 872.476562 299.390625 872.257812 298.0625 872.257812 296.308594 L 872.257812 287.070312 L 876.363281 287.070312 L 876.363281 296.308594 C 876.363281 297.179688 876.46875 297.835938 876.671875 298.277344 C 877.039062 299.054688 877.757812 299.445312 878.824219 299.445312 C 880.195312 299.445312 881.132812 298.890625 881.636719 297.785156 C 881.898438 297.1875 882.03125 296.394531 882.03125 295.410156 L 882.03125 287.070312 L 886.09375 287.070312 L 886.09375 302.398438 L 882.199219 302.398438 Z M 898.976562 291.289062 C 898.640625 290.546875 897.976562 290.179688 896.992188 290.179688 C 895.847656 290.179688 895.082031 290.546875 894.6875 291.289062 C 894.472656 291.710938 894.363281 292.339844 894.363281 293.171875 L 894.363281 302.398438 L 890.300781 302.398438 L 890.300781 287.097656 L 894.195312 287.097656 L 894.195312 289.335938 C 894.691406 288.539062 895.160156 287.96875 895.601562 287.632812 C 896.378906 287.03125 897.386719 286.734375 898.625 286.734375 C 899.796875 286.734375 900.742188 286.992188 901.464844 287.507812 C 902.046875 287.984375 902.488281 288.597656 902.789062 289.347656 C 903.3125 288.449219 903.964844 287.789062 904.742188 287.367188 C 905.566406 286.945312 906.484375 286.734375 907.5 286.734375 C 908.175781 286.734375 908.839844 286.863281 909.496094 287.125 C 910.152344 287.386719 910.746094 287.847656 911.28125 288.503906 C 911.710938 289.039062 912.003906 289.695312 912.152344 290.472656 C 912.246094 290.988281 912.292969 291.742188 912.292969 292.738281 L 912.265625 302.398438 L 908.160156 302.398438 L 908.160156 292.640625 C 908.160156 292.058594 908.066406 291.578125 907.878906 291.203125 C 907.523438 290.492188 906.867188 290.136719 905.910156 290.136719 C 904.804688 290.136719 904.039062 290.59375 903.617188 291.515625 C 903.402344 292.003906 903.292969 292.585938 903.292969 293.273438 L 903.292969 302.398438 L 899.257812 302.398438 L 899.257812 293.273438 C 899.257812 292.363281 899.164062 291.703125 898.976562 291.289062 Z M 916.945312 288.730469 C 918.003906 287.378906 919.824219 286.703125 922.402344 286.703125 C 924.082031 286.703125 925.570312 287.039062 926.875 287.703125 C 928.179688 288.367188 928.828125 289.625 928.828125 291.472656 L 928.828125 298.503906 C 928.828125 298.992188 928.839844 299.582031 928.859375 300.273438 C 928.886719 300.800781 928.964844 301.15625 929.097656 301.34375 C 929.226562 301.53125 929.425781 301.6875 929.6875 301.808594 L 929.6875 302.398438 L 925.328125 302.398438 C 925.207031 302.089844 925.121094 301.796875 925.074219 301.527344 C 925.027344 301.253906 924.992188 300.945312 924.960938 300.597656 C 924.410156 301.199219 923.773438 301.710938 923.050781 302.132812 C 922.1875 302.628906 921.210938 302.875 920.125 302.875 C 918.738281 302.875 917.589844 302.480469 916.6875 301.6875 C 915.78125 300.894531 915.328125 299.773438 915.328125 298.320312 C 915.328125 296.4375 916.054688 295.070312 917.507812 294.226562 C 918.304688 293.769531 919.476562 293.441406 921.023438 293.242188 L 922.390625 293.074219 C 923.128906 292.980469 923.660156 292.863281 923.976562 292.722656 C 924.550781 292.480469 924.835938 292.101562 924.835938 291.585938 C 924.835938 290.957031 924.617188 290.523438 924.183594 290.285156 C 923.746094 290.046875 923.105469 289.925781 922.261719 289.925781 C 921.316406 289.925781 920.644531 290.160156 920.25 290.628906 C 919.96875 290.976562 919.78125 291.445312 919.6875 292.035156 L 915.820312 292.035156 C 915.90625 290.695312 916.28125 289.59375 916.945312 288.730469 Z M 919.929688 299.5 C 920.304688 299.808594 920.761719 299.964844 921.304688 299.964844 C 922.167969 299.964844 922.964844 299.710938 923.691406 299.207031 C 924.417969 298.699219 924.792969 297.777344 924.820312 296.4375 L 924.820312 294.945312 C 924.566406 295.105469 924.3125 295.234375 924.054688 295.332031 C 923.796875 295.429688 923.445312 295.523438 922.992188 295.605469 L 922.09375 295.773438 C 921.25 295.925781 920.644531 296.109375 920.28125 296.324219 C 919.660156 296.6875 919.351562 297.257812 919.351562 298.023438 C 919.351562 298.707031 919.542969 299.203125 919.929688 299.5 Z M 939.585938 290.039062 C 938.226562 290.039062 937.292969 290.613281 936.785156 291.765625 C 936.523438 292.375 936.390625 293.15625 936.390625 294.101562 L 936.390625 302.398438 L 932.398438 302.398438 L 932.398438 287.097656 L 936.265625 287.097656 L 936.265625 289.335938 C 936.78125 288.546875 937.269531 287.980469 937.726562 287.632812 C 938.550781 287.015625 939.597656 286.703125 940.863281 286.703125 C 942.449219 286.703125 943.746094 287.121094 944.753906 287.949219 C 945.761719 288.777344 946.265625 290.15625 946.265625 292.078125 L 946.265625 302.398438 L 942.15625 302.398438 L 942.15625 293.074219 C 942.15625 292.269531 942.050781 291.648438 941.835938 291.21875 C 941.441406 290.429688 940.691406 290.039062 939.585938 290.039062 Z M 954.492188 287.070312 L 954.492188 302.398438 L 950.425781 302.398438 L 950.425781 287.070312 Z M 954.492188 281.542969 L 954.492188 285.242188 L 950.425781 285.242188 L 950.425781 281.542969 Z M 965.386719 299.542969 L 965.386719 302.539062 L 963.488281 302.609375 C 961.59375 302.675781 960.300781 302.347656 959.609375 301.625 C 959.160156 301.164062 958.933594 300.457031 958.933594 299.5 L 958.933594 290.066406 L 956.796875 290.066406 L 956.796875 287.210938 L 958.933594 287.210938 L 958.933594 282.9375 L 962.898438 282.9375 L 962.898438 287.210938 L 965.386719 287.210938 L 965.386719 290.066406 L 962.898438 290.066406 L 962.898438 298.164062 C 962.898438 298.792969 962.976562 299.183594 963.136719 299.339844 C 963.296875 299.496094 963.785156 299.570312 964.601562 299.570312 C 964.722656 299.570312 964.851562 299.570312 964.988281 299.566406 C 965.125 299.5625 965.257812 299.554688 965.386719 299.542969 Z M 972.492188 287.070312 L 972.492188 302.398438 L 968.425781 302.398438 L 968.425781 287.070312 Z M 972.492188 281.542969 L 972.492188 285.242188 L 968.425781 285.242188 L 968.425781 281.542969 Z M 989.492188 297.898438 C 989.386719 298.808594 988.914062 299.730469 988.070312 300.667969 C 986.757812 302.160156 984.921875 302.90625 982.558594 302.90625 C 980.609375 302.90625 978.886719 302.277344 977.398438 301.019531 C 975.90625 299.765625 975.160156 297.71875 975.160156 294.890625 C 975.160156 292.238281 975.832031 290.203125 977.179688 288.785156 C 978.523438 287.371094 980.269531 286.664062 982.417969 286.664062 C 983.691406 286.664062 984.839844 286.902344 985.863281 287.378906 C 986.882812 287.859375 987.726562 288.613281 988.394531 289.644531 C 988.992188 290.554688 989.382812 291.609375 989.5625 292.808594 C 989.664062 293.511719 989.707031 294.523438 989.6875 295.84375 L 979.195312 295.84375 C 979.253906 297.382812 979.734375 298.460938 980.644531 299.078125 C 981.199219 299.464844 981.863281 299.65625 982.640625 299.65625 C 983.464844 299.65625 984.136719 299.421875 984.652344 298.953125 C 984.933594 298.699219 985.183594 298.347656 985.398438 297.898438 Z M 985.523438 293.203125 C 985.457031 292.144531 985.136719 291.339844 984.5625 290.789062 C 983.984375 290.242188 983.269531 289.96875 982.417969 289.96875 C 981.488281 289.96875 980.769531 290.257812 980.257812 290.839844 C 979.746094 291.421875 979.425781 292.207031 979.296875 293.203125 Z M 1002.929688 287.773438 C 1004.128906 288.542969 1004.820312 289.863281 1005 291.738281 L 1000.992188 291.738281 C 1000.933594 291.222656 1000.789062 290.816406 1000.554688 290.515625 C 1000.113281 289.972656 999.363281 289.699219 998.304688 289.699219 C 997.433594 289.699219 996.8125 289.835938 996.441406 290.109375 C 996.070312 290.378906 995.886719 290.699219 995.886719 291.0625 C 995.886719 291.523438 996.082031 291.855469 996.476562 292.0625 C 996.871094 292.277344 998.261719 292.648438 1000.652344 293.171875 C 1002.246094 293.546875 1003.441406 294.117188 1004.238281 294.875 C 1005.027344 295.644531 1005.421875 296.605469 1005.421875 297.757812 C 1005.421875 299.277344 1004.855469 300.515625 1003.726562 301.476562 C 1002.597656 302.4375 1000.851562 302.917969 998.488281 302.917969 C 996.078125 302.917969 994.300781 302.410156 993.152344 301.394531 C 992.003906 300.375 991.429688 299.078125 991.429688 297.503906 L 995.492188 297.503906 C 995.578125 298.21875 995.757812 298.722656 996.039062 299.023438 C 996.535156 299.558594 997.457031 299.824219 998.796875 299.824219 C 999.585938 299.824219 1000.210938 299.707031 1000.675781 299.472656 C 1001.140625 299.238281 1001.371094 298.886719 1001.371094 298.417969 C 1001.371094 297.96875 1001.183594 297.625 1000.808594 297.390625 C 1000.433594 297.15625 999.039062 296.753906 996.632812 296.183594 C 994.898438 295.75 993.671875 295.210938 992.960938 294.566406 C 992.25 293.929688 991.890625 293.007812 991.890625 291.808594 C 991.890625 290.394531 992.449219 289.175781 993.558594 288.160156 C 994.667969 287.144531 996.234375 286.632812 998.25 286.632812 C 1000.160156 286.632812 1001.722656 287.015625 1002.929688 287.773438 Z M 17.5 280.222656 "/>
</g>
</svg>
