<?xml version="1.0" encoding="UTF-8"?>
<svg xmlns="http://www.w3.org/2000/svg" xmlns:xlink="http://www.w3.org/1999/xlink" width="1024pt" height="576pt" viewBox="0 0 1024 576" version="1.1">
<g id="surface271">
<rect x="0" y="0" width="1024" height="576" style="fill:rgb(12.54902%,10.196078%,13.72549%);fill-opacity:1;stroke:none;"/>
<path style=" stroke:none;fill-rule:nonzero;fill:rgb(100%,100%,100%);fill-opacity:1;" d="M 456.71875 299.402344 C 457.738281 299.402344 458.570312 299.289062 459.207031 299.066406 C 460.414062 298.632812 461.019531 297.832031 461.019531 296.660156 C 461.019531 295.976562 460.71875 295.445312 460.121094 295.070312 C 459.519531 294.707031 458.578125 294.382812 457.292969 294.101562 L 455.101562 293.609375 C 452.945312 293.121094 451.453125 292.59375 450.628906 292.019531 C 449.230469 291.0625 448.53125 289.570312 448.53125 287.535156 C 448.53125 285.679688 449.207031 284.136719 450.558594 282.90625 C 451.90625 281.679688 453.890625 281.066406 456.507812 281.066406 C 458.691406 281.066406 460.554688 281.644531 462.097656 282.800781 C 463.640625 283.960938 464.445312 285.640625 464.523438 287.84375 L 460.359375 287.84375 C 460.285156 286.597656 459.742188 285.710938 458.726562 285.1875 C 458.050781 284.839844 457.214844 284.664062 456.210938 284.664062 C 455.09375 284.664062 454.203125 284.890625 453.539062 285.339844 C 452.875 285.789062 452.539062 286.417969 452.539062 287.226562 C 452.539062 287.964844 452.867188 288.519531 453.523438 288.882812 C 453.945312 289.128906 454.847656 289.414062 456.226562 289.742188 L 459.796875 290.601562 C 461.363281 290.976562 462.542969 291.476562 463.339844 292.105469 C 464.578125 293.078125 465.195312 294.492188 465.195312 296.335938 C 465.195312 298.230469 464.472656 299.804688 463.023438 301.054688 C 461.574219 302.308594 459.53125 302.933594 456.886719 302.933594 C 454.1875 302.933594 452.0625 302.316406 450.515625 301.082031 C 448.96875 299.851562 448.195312 298.15625 448.195312 296 L 452.328125 296 C 452.460938 296.945312 452.71875 297.65625 453.101562 298.125 C 453.804688 298.976562 455.011719 299.402344 456.71875 299.402344 Z M 480.554688 302.398438 L 480.554688 293.144531 L 472.453125 293.144531 L 472.453125 302.398438 L 468.164062 302.398438 L 468.164062 281.671875 L 472.453125 281.671875 L 472.453125 289.574219 L 480.554688 289.574219 L 480.554688 281.671875 L 484.859375 281.671875 L 484.859375 302.398438 Z M 501.328125 298.136719 L 493.695312 298.136719 L 492.257812 302.398438 L 487.730469 302.398438 L 495.128906 281.671875 L 500.023438 281.671875 L 507.363281 302.398438 L 502.664062 302.398438 Z M 500.121094 294.566406 L 497.53125 286.410156 L 494.859375 294.566406 Z M 528.558594 302.398438 L 522.992188 302.398438 L 516.59375 293.34375 L 514.523438 295.464844 L 514.523438 302.398438 L 510.265625 302.398438 L 510.265625 281.671875 L 514.523438 281.671875 L 514.523438 290.207031 L 522.527344 281.671875 L 528.125 281.671875 L 519.628906 290.207031 Z M 544.0625 294.875 L 544.0625 298.011719 L 541.753906 298.011719 L 541.753906 302.398438 L 537.832031 302.398438 L 537.832031 298.011719 L 529.757812 298.011719 L 529.757812 294.507812 L 537.253906 282.132812 L 541.753906 282.132812 L 541.753906 294.875 Z M 532.726562 294.875 L 537.832031 294.875 L 537.832031 286.070312 Z M 552.929688 302.90625 C 550.332031 302.90625 548.511719 301.996094 547.46875 300.175781 C 546.421875 298.359375 545.898438 295.765625 545.898438 292.398438 C 545.898438 289.035156 546.421875 286.4375 547.46875 284.609375 C 548.511719 282.78125 550.335938 281.867188 552.929688 281.867188 C 555.527344 281.867188 557.351562 282.78125 558.402344 284.609375 C 559.441406 286.4375 559.960938 289.035156 559.960938 292.398438 C 559.960938 295.765625 559.441406 298.359375 558.394531 300.175781 C 557.347656 301.996094 555.527344 302.90625 552.929688 302.90625 Z M 555.28125 297.773438 C 555.644531 296.535156 555.828125 294.742188 555.828125 292.398438 C 555.828125 289.941406 555.644531 288.125 555.273438 286.945312 C 554.902344 285.761719 554.121094 285.171875 552.929688 285.171875 C 551.738281 285.171875 550.953125 285.761719 550.570312 286.945312 C 550.183594 288.125 549.992188 289.945312 549.992188 292.398438 C 549.992188 294.742188 550.183594 296.535156 550.570312 297.777344 C 550.953125 299.019531 551.742188 299.640625 552.929688 299.640625 C 554.121094 299.640625 554.90625 299.019531 555.28125 297.773438 Z M 568.929688 302.90625 C 566.332031 302.90625 564.511719 301.996094 563.46875 300.175781 C 562.421875 298.359375 561.898438 295.765625 561.898438 292.398438 C 561.898438 289.035156 562.421875 286.4375 563.46875 284.609375 C 564.511719 282.78125 566.335938 281.867188 568.929688 281.867188 C 571.527344 281.867188 573.351562 282.78125 574.402344 284.609375 C 575.441406 286.4375 575.960938 289.035156 575.960938 292.398438 C 575.960938 295.765625 575.441406 298.359375 574.394531 300.175781 C 573.347656 301.996094 571.527344 302.90625 568.929688 302.90625 Z M 571.28125 297.773438 C 571.644531 296.535156 571.828125 294.742188 571.828125 292.398438 C 571.828125 289.941406 571.644531 288.125 571.273438 286.945312 C 570.902344 285.761719 570.121094 285.171875 568.929688 285.171875 C 567.738281 285.171875 566.953125 285.761719 566.570312 286.945312 C 566.183594 288.125 565.992188 289.945312 565.992188 292.398438 C 565.992188 294.742188 566.183594 296.535156 566.570312 297.777344 C 566.953125 299.019531 567.742188 299.640625 568.929688 299.640625 C 570.121094 299.640625 570.90625 299.019531 571.28125 297.773438 Z M 447 280.222656 "/>
</g>
</svg>
