<?xml version="1.0" encoding="UTF-8"?>
<svg xmlns="http://www.w3.org/2000/svg" xmlns:xlink="http://www.w3.org/1999/xlink" width="1024pt" height="576pt" viewBox="0 0 1024 576" version="1.1">
<g id="surface276">
<rect x="0" y="0" width="1024" height="576" style="fill:rgb(79.607843%,56.470588%,30.196078%);fill-opacity:1;stroke:none;"/>
<path style=" stroke:none;fill-rule:nonzero;fill:rgb(100%,100%,100%);fill-opacity:1;" d="M 470.21875 299.402344 C 471.238281 299.402344 472.070312 299.289062 472.707031 299.066406 C 473.914062 298.632812 474.519531 297.832031 474.519531 296.660156 C 474.519531 295.976562 474.21875 295.445312 473.621094 295.070312 C 473.019531 294.707031 472.078125 294.382812 470.792969 294.101562 L 468.601562 293.609375 C 466.445312 293.121094 464.953125 292.59375 464.128906 292.019531 C 462.730469 291.0625 462.03125 289.570312 462.03125 287.535156 C 462.03125 285.679688 462.707031 284.136719 464.058594 282.90625 C 465.40625 281.679688 467.390625 281.066406 470.007812 281.066406 C 472.191406 281.066406 474.054688 281.644531 475.597656 282.800781 C 477.140625 283.960938 477.945312 285.640625 478.023438 287.84375 L 473.859375 287.84375 C 473.785156 286.597656 473.242188 285.710938 472.226562 285.1875 C 471.550781 284.839844 470.714844 284.664062 469.710938 284.664062 C 468.59375 284.664062 467.703125 284.890625 467.039062 285.339844 C 466.375 285.789062 466.039062 286.417969 466.039062 287.226562 C 466.039062 287.964844 466.367188 288.519531 467.023438 288.882812 C 467.445312 289.128906 468.347656 289.414062 469.726562 289.742188 L 473.296875 290.601562 C 474.863281 290.976562 476.042969 291.476562 476.839844 292.105469 C 478.078125 293.078125 478.695312 294.492188 478.695312 296.335938 C 478.695312 298.230469 477.972656 299.804688 476.523438 301.054688 C 475.074219 302.308594 473.03125 302.933594 470.386719 302.933594 C 467.6875 302.933594 465.5625 302.316406 464.015625 301.082031 C 462.46875 299.851562 461.695312 298.15625 461.695312 296 L 465.828125 296 C 465.960938 296.945312 466.21875 297.65625 466.601562 298.125 C 467.304688 298.976562 468.511719 299.402344 470.21875 299.402344 Z M 494.054688 302.398438 L 494.054688 293.144531 L 485.953125 293.144531 L 485.953125 302.398438 L 481.664062 302.398438 L 481.664062 281.671875 L 485.953125 281.671875 L 485.953125 289.574219 L 494.054688 289.574219 L 494.054688 281.671875 L 498.359375 281.671875 L 498.359375 302.398438 Z M 514.828125 298.136719 L 507.195312 298.136719 L 505.757812 302.398438 L 501.230469 302.398438 L 508.628906 281.671875 L 513.523438 281.671875 L 520.863281 302.398438 L 516.164062 302.398438 Z M 513.621094 294.566406 L 511.03125 286.410156 L 508.359375 294.566406 Z M 532.496094 294.269531 L 528.023438 294.269531 L 528.023438 302.398438 L 523.792969 302.398438 L 523.792969 281.671875 L 533.960938 281.671875 C 535.414062 281.699219 536.53125 281.875 537.3125 282.203125 C 538.097656 282.53125 538.757812 283.015625 539.304688 283.652344 C 539.753906 284.179688 540.109375 284.757812 540.371094 285.398438 C 540.632812 286.035156 540.765625 286.761719 540.765625 287.578125 C 540.765625 288.5625 540.515625 289.527344 540.019531 290.480469 C 539.523438 291.433594 538.703125 292.105469 537.558594 292.5 C 538.515625 292.882812 539.191406 293.429688 539.589844 294.136719 C 539.988281 294.84375 540.1875 295.925781 540.1875 297.378906 L 540.1875 298.769531 C 540.1875 299.71875 540.226562 300.359375 540.300781 300.695312 C 540.414062 301.230469 540.675781 301.625 541.089844 301.878906 L 541.089844 302.398438 L 536.320312 302.398438 C 536.191406 301.9375 536.097656 301.570312 536.039062 301.289062 C 535.925781 300.707031 535.867188 300.109375 535.859375 299.5 L 535.828125 297.574219 C 535.808594 296.253906 535.570312 295.371094 535.105469 294.929688 C 534.640625 294.488281 533.773438 294.269531 532.496094 294.269531 Z M 535.125 290.5 C 535.988281 290.105469 536.421875 289.328125 536.421875 288.167969 C 536.421875 286.910156 536.003906 286.066406 535.167969 285.636719 C 534.699219 285.390625 533.996094 285.269531 533.058594 285.269531 L 528.023438 285.269531 L 528.023438 290.839844 L 532.933594 290.839844 C 533.90625 290.839844 534.640625 290.726562 535.125 290.5 Z M 559.320312 300.851562 C 557.773438 302.265625 555.792969 302.976562 553.382812 302.976562 C 550.402344 302.976562 548.058594 302.019531 546.351562 300.105469 C 544.644531 298.183594 543.792969 295.550781 543.792969 292.203125 C 543.792969 288.585938 544.765625 285.796875 546.703125 283.835938 C 548.390625 282.128906 550.539062 281.277344 553.144531 281.277344 C 556.632812 281.277344 559.183594 282.421875 560.796875 284.707031 C 561.6875 285.992188 562.164062 287.28125 562.230469 288.574219 L 557.898438 288.574219 C 557.617188 287.582031 557.257812 286.832031 556.816406 286.324219 C 556.027344 285.425781 554.859375 284.976562 553.3125 284.976562 C 551.738281 284.976562 550.496094 285.609375 549.585938 286.878906 C 548.675781 288.148438 548.222656 289.949219 548.222656 292.273438 C 548.222656 294.597656 548.703125 296.339844 549.664062 297.496094 C 550.625 298.65625 551.847656 299.234375 553.328125 299.234375 C 554.847656 299.234375 556.003906 298.738281 556.800781 297.742188 C 557.242188 297.207031 557.609375 296.40625 557.898438 295.339844 L 562.1875 295.339844 C 561.8125 297.597656 560.855469 299.4375 559.320312 300.851562 Z M 460.5 280.222656 "/>
</g>
</svg>
