<?xml version="1.0" encoding="UTF-8"?>
<svg xmlns="http://www.w3.org/2000/svg" xmlns:xlink="http://www.w3.org/1999/xlink" width="1024pt" height="576pt" viewBox="0 0 1024 576" version="1.1">
<g id="surface295">
<rect x="0" y="0" width="1024" height="576" style="fill:rgb(36.470588%,43.921569%,49.803922%);fill-opacity:1;stroke:none;"/>
<path style=" stroke:none;fill-rule:nonzero;fill:rgb(100%,100%,100%);fill-opacity:1;" d="M 490.753906 281.671875 L 490.753906 285.339844 L 484.554688 285.339844 L 484.554688 302.398438 L 480.195312 302.398438 L 480.195312 285.339844 L 473.964844 285.339844 L 473.964844 281.671875 Z M 492.160156 281.671875 L 496.789062 281.671875 L 501.289062 297.40625 L 505.828125 281.671875 L 510.328125 281.671875 L 503.257812 302.398438 L 499.164062 302.398438 Z M 521.863281 302.976562 C 518.898438 302.976562 516.636719 302.167969 515.070312 300.554688 C 512.96875 298.578125 511.921875 295.726562 511.921875 292.007812 C 511.921875 288.210938 512.96875 285.359375 515.070312 283.457031 C 516.636719 281.84375 518.898438 281.039062 521.863281 281.039062 C 524.824219 281.039062 527.089844 281.84375 528.65625 283.457031 C 530.746094 285.359375 531.789062 288.210938 531.789062 292.007812 C 531.789062 295.730469 530.746094 298.578125 528.65625 300.554688 C 527.089844 302.167969 524.824219 302.976562 521.863281 302.976562 Z M 525.953125 297.40625 C 526.957031 296.140625 527.460938 294.339844 527.460938 292.007812 C 527.460938 289.683594 526.957031 287.882812 525.949219 286.613281 C 524.941406 285.34375 523.578125 284.707031 521.863281 284.707031 C 520.148438 284.707031 518.777344 285.339844 517.757812 286.605469 C 516.734375 287.871094 516.222656 289.671875 516.222656 292.007812 C 516.222656 294.339844 516.734375 296.140625 517.757812 297.40625 C 518.777344 298.671875 520.148438 299.304688 521.863281 299.304688 C 523.578125 299.304688 524.941406 298.671875 525.953125 297.40625 Z M 549.390625 285.339844 L 538.996094 285.339844 L 538.996094 290.109375 L 548.09375 290.109375 L 548.09375 293.707031 L 538.996094 293.707031 L 538.996094 302.398438 L 534.695312 302.398438 L 534.695312 281.699219 L 549.390625 281.699219 Z M 473.5 280.222656 "/>
</g>
</svg>
