<?xml version="1.0" encoding="UTF-8"?>
<svg xmlns="http://www.w3.org/2000/svg" xmlns:xlink="http://www.w3.org/1999/xlink" width="1024pt" height="576pt" viewBox="0 0 1024 576" version="1.1">
<g id="surface286">
<rect x="0" y="0" width="1024" height="576" style="fill:rgb(79.607843%,56.470588%,30.196078%);fill-opacity:1;stroke:none;"/>
<path style=" stroke:none;fill-rule:nonzero;fill:rgb(100%,100%,100%);fill-opacity:1;" d="M 244.957031 294.410156 L 244.957031 281.671875 L 249.359375 281.671875 L 249.359375 294.410156 C 249.359375 296.613281 249.015625 298.328125 248.332031 299.558594 C 247.054688 301.808594 244.625 302.933594 241.03125 302.933594 C 237.441406 302.933594 235.003906 301.808594 233.71875 299.558594 C 233.035156 298.328125 232.695312 296.613281 232.695312 294.410156 L 232.695312 281.671875 L 237.09375 281.671875 L 237.09375 294.410156 C 237.09375 295.835938 237.265625 296.875 237.601562 297.53125 C 238.125 298.695312 239.269531 299.277344 241.03125 299.277344 C 242.785156 299.277344 243.925781 298.695312 244.449219 297.53125 C 244.789062 296.875 244.957031 295.835938 244.957031 294.410156 Z M 253.355469 281.671875 L 257.660156 281.671875 L 257.660156 302.398438 L 253.355469 302.398438 Z M 257.925781 302.398438 L 265.953125 281.039062 L 269.289062 281.039062 L 261.230469 302.398438 Z M 281.957031 294.410156 L 281.957031 281.671875 L 286.359375 281.671875 L 286.359375 294.410156 C 286.359375 296.613281 286.015625 298.328125 285.332031 299.558594 C 284.054688 301.808594 281.625 302.933594 278.03125 302.933594 C 274.441406 302.933594 272.003906 301.808594 270.71875 299.558594 C 270.035156 298.328125 269.695312 296.613281 269.695312 294.410156 L 269.695312 281.671875 L 274.09375 281.671875 L 274.09375 294.410156 C 274.09375 295.835938 274.265625 296.875 274.601562 297.53125 C 275.125 298.695312 276.269531 299.277344 278.03125 299.277344 C 279.785156 299.277344 280.925781 298.695312 281.449219 297.53125 C 281.789062 296.875 281.957031 295.835938 281.957031 294.410156 Z M 307.359375 302.398438 L 302.097656 302.398438 L 298.160156 295.339844 L 294 302.398438 L 288.964844 302.398438 L 295.628906 291.835938 L 289.289062 281.671875 L 294.460938 281.671875 L 298.160156 288.40625 L 301.957031 281.671875 L 306.964844 281.671875 L 300.621094 291.667969 Z M 326.625 302.398438 L 317.695312 302.398438 L 317.695312 281.671875 L 326.625 281.671875 C 327.910156 281.691406 328.976562 281.839844 329.828125 282.121094 C 331.28125 282.597656 332.460938 283.476562 333.359375 284.75 C 334.082031 285.78125 334.574219 286.898438 334.835938 288.097656 C 335.097656 289.296875 335.230469 290.441406 335.230469 291.527344 C 335.230469 294.285156 334.675781 296.617188 333.570312 298.53125 C 332.070312 301.109375 329.753906 302.398438 326.625 302.398438 Z M 329.84375 286.957031 C 329.179688 285.832031 327.859375 285.269531 325.890625 285.269531 L 321.898438 285.269531 L 321.898438 298.796875 L 325.890625 298.796875 C 327.933594 298.796875 329.359375 297.789062 330.167969 295.773438 C 330.609375 294.667969 330.828125 293.351562 330.828125 291.824219 C 330.828125 289.714844 330.5 288.09375 329.84375 286.957031 Z M 351.492188 297.898438 C 351.386719 298.808594 350.914062 299.730469 350.070312 300.667969 C 348.757812 302.160156 346.921875 302.90625 344.558594 302.90625 C 342.609375 302.90625 340.886719 302.277344 339.398438 301.019531 C 337.90625 299.765625 337.160156 297.71875 337.160156 294.890625 C 337.160156 292.238281 337.832031 290.203125 339.179688 288.785156 C 340.523438 287.371094 342.269531 286.664062 344.417969 286.664062 C 345.691406 286.664062 346.839844 286.902344 347.863281 287.378906 C 348.882812 287.859375 349.726562 288.613281 350.394531 289.644531 C 350.992188 290.554688 351.382812 291.609375 351.5625 292.808594 C 351.664062 293.511719 351.707031 294.523438 351.6875 295.84375 L 341.195312 295.84375 C 341.253906 297.382812 341.734375 298.460938 342.644531 299.078125 C 343.199219 299.464844 343.863281 299.65625 344.640625 299.65625 C 345.464844 299.65625 346.136719 299.421875 346.652344 298.953125 C 346.933594 298.699219 347.183594 298.347656 347.398438 297.898438 Z M 347.523438 293.203125 C 347.457031 292.144531 347.136719 291.339844 346.5625 290.789062 C 345.984375 290.242188 345.269531 289.96875 344.417969 289.96875 C 343.488281 289.96875 342.769531 290.257812 342.257812 290.839844 C 341.746094 291.421875 341.425781 292.207031 341.296875 293.203125 Z M 364.929688 287.773438 C 366.128906 288.542969 366.820312 289.863281 367 291.738281 L 362.992188 291.738281 C 362.933594 291.222656 362.789062 290.816406 362.554688 290.515625 C 362.113281 289.972656 361.363281 289.699219 360.304688 289.699219 C 359.433594 289.699219 358.8125 289.835938 358.441406 290.109375 C 358.070312 290.378906 357.886719 290.699219 357.886719 291.0625 C 357.886719 291.523438 358.082031 291.855469 358.476562 292.0625 C 358.871094 292.277344 360.261719 292.648438 362.652344 293.171875 C 364.246094 293.546875 365.441406 294.117188 366.238281 294.875 C 367.027344 295.644531 367.421875 296.605469 367.421875 297.757812 C 367.421875 299.277344 366.855469 300.515625 365.726562 301.476562 C 364.597656 302.4375 362.851562 302.917969 360.488281 302.917969 C 358.078125 302.917969 356.300781 302.410156 355.152344 301.394531 C 354.003906 300.375 353.429688 299.078125 353.429688 297.503906 L 357.492188 297.503906 C 357.578125 298.21875 357.757812 298.722656 358.039062 299.023438 C 358.535156 299.558594 359.457031 299.824219 360.796875 299.824219 C 361.585938 299.824219 362.210938 299.707031 362.675781 299.472656 C 363.140625 299.238281 363.371094 298.886719 363.371094 298.417969 C 363.371094 297.96875 363.183594 297.625 362.808594 297.390625 C 362.433594 297.15625 361.039062 296.753906 358.632812 296.183594 C 356.898438 295.75 355.671875 295.210938 354.960938 294.566406 C 354.25 293.929688 353.890625 293.007812 353.890625 291.808594 C 353.890625 290.394531 354.449219 289.175781 355.558594 288.160156 C 356.667969 287.144531 358.234375 286.632812 360.25 286.632812 C 362.160156 286.632812 363.722656 287.015625 364.929688 287.773438 Z M 374.492188 287.070312 L 374.492188 302.398438 L 370.425781 302.398438 L 370.425781 287.070312 Z M 374.492188 281.542969 L 374.492188 285.242188 L 370.425781 285.242188 L 370.425781 281.542969 Z M 382.703125 305.085938 C 383.132812 305.449219 383.859375 305.632812 384.882812 305.632812 C 386.324219 305.632812 387.289062 305.148438 387.777344 304.183594 C 388.097656 303.566406 388.257812 302.523438 388.257812 301.0625 L 388.257812 300.078125 C 387.871094 300.734375 387.460938 301.226562 387.019531 301.554688 C 386.222656 302.164062 385.1875 302.46875 383.910156 302.46875 C 381.941406 302.46875 380.371094 301.777344 379.191406 300.394531 C 378.015625 299.011719 377.429688 297.140625 377.429688 294.777344 C 377.429688 292.5 377.996094 290.582031 379.128906 289.03125 C 380.265625 287.480469 381.871094 286.703125 383.953125 286.703125 C 384.722656 286.703125 385.390625 286.820312 385.964844 287.054688 C 386.9375 287.457031 387.726562 288.199219 388.328125 289.277344 L 388.328125 287.070312 L 392.222656 287.070312 L 392.222656 301.609375 C 392.222656 303.589844 391.890625 305.078125 391.222656 306.082031 C 390.078125 307.808594 387.886719 308.671875 384.640625 308.671875 C 382.683594 308.671875 381.085938 308.285156 379.847656 307.515625 C 378.609375 306.746094 377.925781 305.601562 377.792969 304.070312 L 382.152344 304.070312 C 382.265625 304.539062 382.449219 304.878906 382.703125 305.085938 Z M 382.027344 297.167969 C 382.570312 298.460938 383.546875 299.109375 384.953125 299.109375 C 385.890625 299.109375 386.679688 298.753906 387.328125 298.046875 C 387.976562 297.339844 388.296875 296.210938 388.296875 294.664062 C 388.296875 293.210938 387.992188 292.105469 387.378906 291.34375 C 386.765625 290.585938 385.941406 290.207031 384.910156 290.207031 C 383.503906 290.207031 382.53125 290.867188 382 292.1875 C 381.71875 292.890625 381.578125 293.757812 381.578125 294.789062 C 381.578125 295.679688 381.726562 296.472656 382.027344 297.167969 Z M 403.585938 290.039062 C 402.226562 290.039062 401.292969 290.613281 400.785156 291.765625 C 400.523438 292.375 400.390625 293.15625 400.390625 294.101562 L 400.390625 302.398438 L 396.398438 302.398438 L 396.398438 287.097656 L 400.265625 287.097656 L 400.265625 289.335938 C 400.78125 288.546875 401.269531 287.980469 401.726562 287.632812 C 402.550781 287.015625 403.597656 286.703125 404.863281 286.703125 C 406.449219 286.703125 407.746094 287.121094 408.753906 287.949219 C 409.761719 288.777344 410.265625 290.15625 410.265625 292.078125 L 410.265625 302.398438 L 406.15625 302.398438 L 406.15625 293.074219 C 406.15625 292.269531 406.050781 291.648438 405.835938 291.21875 C 405.441406 290.429688 404.691406 290.039062 403.585938 290.039062 Z M 422.945312 288.730469 C 424.003906 287.378906 425.824219 286.703125 428.402344 286.703125 C 430.082031 286.703125 431.570312 287.039062 432.875 287.703125 C 434.179688 288.367188 434.828125 289.625 434.828125 291.472656 L 434.828125 298.503906 C 434.828125 298.992188 434.839844 299.582031 434.859375 300.273438 C 434.886719 300.800781 434.964844 301.15625 435.097656 301.34375 C 435.226562 301.53125 435.425781 301.6875 435.6875 301.808594 L 435.6875 302.398438 L 431.328125 302.398438 C 431.207031 302.089844 431.121094 301.796875 431.074219 301.527344 C 431.027344 301.253906 430.992188 300.945312 430.960938 300.597656 C 430.410156 301.199219 429.773438 301.710938 429.050781 302.132812 C 428.1875 302.628906 427.210938 302.875 426.125 302.875 C 424.738281 302.875 423.589844 302.480469 422.6875 301.6875 C 421.78125 300.894531 421.328125 299.773438 421.328125 298.320312 C 421.328125 296.4375 422.054688 295.070312 423.507812 294.226562 C 424.304688 293.769531 425.476562 293.441406 427.023438 293.242188 L 428.390625 293.074219 C 429.128906 292.980469 429.660156 292.863281 429.976562 292.722656 C 430.550781 292.480469 430.835938 292.101562 430.835938 291.585938 C 430.835938 290.957031 430.617188 290.523438 430.183594 290.285156 C 429.746094 290.046875 429.105469 289.925781 428.261719 289.925781 C 427.316406 289.925781 426.644531 290.160156 426.25 290.628906 C 425.96875 290.976562 425.78125 291.445312 425.6875 292.035156 L 421.820312 292.035156 C 421.90625 290.695312 422.28125 289.59375 422.945312 288.730469 Z M 425.929688 299.5 C 426.304688 299.808594 426.761719 299.964844 427.304688 299.964844 C 428.167969 299.964844 428.964844 299.710938 429.691406 299.207031 C 430.417969 298.699219 430.792969 297.777344 430.820312 296.4375 L 430.820312 294.945312 C 430.566406 295.105469 430.3125 295.234375 430.054688 295.332031 C 429.796875 295.429688 429.445312 295.523438 428.992188 295.605469 L 428.09375 295.773438 C 427.25 295.925781 426.644531 296.109375 426.28125 296.324219 C 425.660156 296.6875 425.351562 297.257812 425.351562 298.023438 C 425.351562 298.707031 425.542969 299.203125 425.929688 299.5 Z M 445.585938 290.039062 C 444.226562 290.039062 443.292969 290.613281 442.785156 291.765625 C 442.523438 292.375 442.390625 293.15625 442.390625 294.101562 L 442.390625 302.398438 L 438.398438 302.398438 L 438.398438 287.097656 L 442.265625 287.097656 L 442.265625 289.335938 C 442.78125 288.546875 443.269531 287.980469 443.726562 287.632812 C 444.550781 287.015625 445.597656 286.703125 446.863281 286.703125 C 448.449219 286.703125 449.746094 287.121094 450.753906 287.949219 C 451.761719 288.777344 452.265625 290.15625 452.265625 292.078125 L 452.265625 302.398438 L 448.15625 302.398438 L 448.15625 293.074219 C 448.15625 292.269531 448.050781 291.648438 447.835938 291.21875 C 447.441406 290.429688 446.691406 290.039062 445.585938 290.039062 Z M 470.320312 281.699219 L 470.320312 302.398438 L 466.425781 302.398438 L 466.425781 300.273438 C 465.851562 301.183594 465.203125 301.84375 464.46875 302.257812 C 463.738281 302.671875 462.828125 302.875 461.742188 302.875 C 459.953125 302.875 458.445312 302.152344 457.222656 300.703125 C 456 299.253906 455.386719 297.398438 455.386719 295.128906 C 455.386719 292.511719 455.988281 290.453125 457.191406 288.953125 C 458.398438 287.453125 460.007812 286.703125 462.023438 286.703125 C 462.953125 286.703125 463.777344 286.910156 464.5 287.316406 C 465.222656 287.722656 465.804688 288.289062 466.257812 289.011719 L 466.257812 281.699219 Z M 459.519531 294.832031 C 459.519531 296.25 459.800781 297.378906 460.363281 298.222656 C 460.917969 299.074219 461.761719 299.5 462.894531 299.5 C 464.03125 299.5 464.890625 299.078125 465.484375 298.234375 C 466.074219 297.390625 466.367188 296.300781 466.367188 294.960938 C 466.367188 293.085938 465.894531 291.742188 464.949219 290.9375 C 464.367188 290.449219 463.691406 290.207031 462.921875 290.207031 C 461.75 290.207031 460.890625 290.648438 460.34375 291.535156 C 459.792969 292.421875 459.519531 293.519531 459.519531 294.832031 Z M 490.21875 299.402344 C 491.238281 299.402344 492.070312 299.289062 492.707031 299.066406 C 493.914062 298.632812 494.519531 297.832031 494.519531 296.660156 C 494.519531 295.976562 494.21875 295.445312 493.621094 295.070312 C 493.019531 294.707031 492.078125 294.382812 490.792969 294.101562 L 488.601562 293.609375 C 486.445312 293.121094 484.953125 292.59375 484.128906 292.019531 C 482.730469 291.0625 482.03125 289.570312 482.03125 287.535156 C 482.03125 285.679688 482.707031 284.136719 484.058594 282.90625 C 485.40625 281.679688 487.390625 281.066406 490.007812 281.066406 C 492.191406 281.066406 494.054688 281.644531 495.597656 282.800781 C 497.140625 283.960938 497.945312 285.640625 498.023438 287.84375 L 493.859375 287.84375 C 493.785156 286.597656 493.242188 285.710938 492.226562 285.1875 C 491.550781 284.839844 490.714844 284.664062 489.710938 284.664062 C 488.59375 284.664062 487.703125 284.890625 487.039062 285.339844 C 486.375 285.789062 486.039062 286.417969 486.039062 287.226562 C 486.039062 287.964844 486.367188 288.519531 487.023438 288.882812 C 487.445312 289.128906 488.347656 289.414062 489.726562 289.742188 L 493.296875 290.601562 C 494.863281 290.976562 496.042969 291.476562 496.839844 292.105469 C 498.078125 293.078125 498.695312 294.492188 498.695312 296.335938 C 498.695312 298.230469 497.972656 299.804688 496.523438 301.054688 C 495.074219 302.308594 493.03125 302.933594 490.386719 302.933594 C 487.6875 302.933594 485.5625 302.316406 484.015625 301.082031 C 482.46875 299.851562 481.695312 298.15625 481.695312 296 L 485.828125 296 C 485.960938 296.945312 486.21875 297.65625 486.601562 298.125 C 487.304688 298.976562 488.511719 299.402344 490.21875 299.402344 Z M 514.152344 289.011719 C 515.445312 290.632812 516.09375 292.550781 516.09375 294.761719 C 516.09375 297.011719 515.445312 298.9375 514.152344 300.535156 C 512.859375 302.132812 510.894531 302.933594 508.261719 302.933594 C 505.625 302.933594 503.664062 302.132812 502.367188 300.535156 C 501.074219 298.9375 500.429688 297.011719 500.429688 294.761719 C 500.429688 292.550781 501.074219 290.632812 502.367188 289.011719 C 503.660156 287.390625 505.625 286.578125 508.261719 286.578125 C 510.894531 286.578125 512.859375 287.390625 514.152344 289.011719 Z M 508.246094 289.96875 C 507.074219 289.96875 506.171875 290.382812 505.539062 291.210938 C 504.90625 292.042969 504.589844 293.226562 504.589844 294.761719 C 504.589844 296.300781 504.90625 297.484375 505.539062 298.320312 C 506.171875 299.15625 507.074219 299.570312 508.246094 299.570312 C 509.417969 299.570312 510.320312 299.15625 510.945312 298.320312 C 511.574219 297.484375 511.890625 296.300781 511.890625 294.761719 C 511.890625 293.226562 511.574219 292.042969 510.945312 291.210938 C 510.316406 290.382812 509.417969 289.96875 508.246094 289.96875 Z M 526.554688 281.542969 L 526.554688 284.804688 C 526.332031 284.777344 525.953125 284.757812 525.425781 284.742188 C 524.894531 284.730469 524.527344 284.847656 524.328125 285.09375 C 524.125 285.34375 524.023438 285.617188 524.023438 285.917969 L 524.023438 287.210938 L 526.65625 287.210938 L 526.65625 290.039062 L 524.023438 290.039062 L 524.023438 302.398438 L 520.03125 302.398438 L 520.03125 290.039062 L 517.796875 290.039062 L 517.796875 287.210938 L 519.988281 287.210938 L 519.988281 286.226562 C 519.988281 284.585938 520.265625 283.457031 520.820312 282.835938 C 521.402344 281.917969 522.800781 281.460938 525.023438 281.460938 C 525.277344 281.460938 525.507812 281.464844 525.710938 281.480469 C 525.917969 281.496094 526.199219 281.515625 526.554688 281.542969 Z M 536.386719 299.542969 L 536.386719 302.539062 L 534.488281 302.609375 C 532.59375 302.675781 531.300781 302.347656 530.609375 301.625 C 530.160156 301.164062 529.933594 300.457031 529.933594 299.5 L 529.933594 290.066406 L 527.796875 290.066406 L 527.796875 287.210938 L 529.933594 287.210938 L 529.933594 282.9375 L 533.898438 282.9375 L 533.898438 287.210938 L 536.386719 287.210938 L 536.386719 290.066406 L 533.898438 290.066406 L 533.898438 298.164062 C 533.898438 298.792969 533.976562 299.183594 534.136719 299.339844 C 534.296875 299.496094 534.785156 299.570312 535.601562 299.570312 C 535.722656 299.570312 535.851562 299.570312 535.988281 299.566406 C 536.125 299.5625 536.257812 299.554688 536.386719 299.542969 Z M 551 302.398438 L 548.59375 291.234375 L 546.164062 302.398438 L 542 302.398438 L 537.695312 287.070312 L 542 287.070312 L 544.390625 298.066406 L 546.597656 287.070312 L 550.664062 287.070312 L 552.996094 298.109375 L 555.386719 287.070312 L 559.5625 287.070312 L 555.121094 302.398438 Z M 561.945312 288.730469 C 563.003906 287.378906 564.824219 286.703125 567.402344 286.703125 C 569.082031 286.703125 570.570312 287.039062 571.875 287.703125 C 573.179688 288.367188 573.828125 289.625 573.828125 291.472656 L 573.828125 298.503906 C 573.828125 298.992188 573.839844 299.582031 573.859375 300.273438 C 573.886719 300.800781 573.964844 301.15625 574.097656 301.34375 C 574.226562 301.53125 574.425781 301.6875 574.6875 301.808594 L 574.6875 302.398438 L 570.328125 302.398438 C 570.207031 302.089844 570.121094 301.796875 570.074219 301.527344 C 570.027344 301.253906 569.992188 300.945312 569.960938 300.597656 C 569.410156 301.199219 568.773438 301.710938 568.050781 302.132812 C 567.1875 302.628906 566.210938 302.875 565.125 302.875 C 563.738281 302.875 562.589844 302.480469 561.6875 301.6875 C 560.78125 300.894531 560.328125 299.773438 560.328125 298.320312 C 560.328125 296.4375 561.054688 295.070312 562.507812 294.226562 C 563.304688 293.769531 564.476562 293.441406 566.023438 293.242188 L 567.390625 293.074219 C 568.128906 292.980469 568.660156 292.863281 568.976562 292.722656 C 569.550781 292.480469 569.835938 292.101562 569.835938 291.585938 C 569.835938 290.957031 569.617188 290.523438 569.183594 290.285156 C 568.746094 290.046875 568.105469 289.925781 567.261719 289.925781 C 566.316406 289.925781 565.644531 290.160156 565.25 290.628906 C 564.96875 290.976562 564.78125 291.445312 564.6875 292.035156 L 560.820312 292.035156 C 560.90625 290.695312 561.28125 289.59375 561.945312 288.730469 Z M 564.929688 299.5 C 565.304688 299.808594 565.761719 299.964844 566.304688 299.964844 C 567.167969 299.964844 567.964844 299.710938 568.691406 299.207031 C 569.417969 298.699219 569.792969 297.777344 569.820312 296.4375 L 569.820312 294.945312 C 569.566406 295.105469 569.3125 295.234375 569.054688 295.332031 C 568.796875 295.429688 568.445312 295.523438 567.992188 295.605469 L 567.09375 295.773438 C 566.25 295.925781 565.644531 296.109375 565.28125 296.324219 C 564.660156 296.6875 564.351562 297.257812 564.351562 298.023438 C 564.351562 298.707031 564.542969 299.203125 564.929688 299.5 Z M 585.078125 290.769531 C 583.464844 290.769531 582.382812 291.292969 581.828125 292.34375 C 581.519531 292.933594 581.363281 293.84375 581.363281 295.070312 L 581.363281 302.398438 L 577.328125 302.398438 L 577.328125 287.070312 L 581.152344 287.070312 L 581.152344 289.742188 C 581.773438 288.71875 582.3125 288.023438 582.769531 287.648438 C 583.519531 287.019531 584.496094 286.703125 585.695312 286.703125 C 585.769531 286.703125 585.832031 286.707031 585.886719 286.710938 C 585.9375 286.714844 586.050781 286.722656 586.230469 286.734375 L 586.230469 290.839844 C 585.976562 290.8125 585.75 290.792969 585.554688 290.78125 C 585.359375 290.773438 585.199219 290.769531 585.078125 290.769531 Z M 601.492188 297.898438 C 601.386719 298.808594 600.914062 299.730469 600.070312 300.667969 C 598.757812 302.160156 596.921875 302.90625 594.558594 302.90625 C 592.609375 302.90625 590.886719 302.277344 589.398438 301.019531 C 587.90625 299.765625 587.160156 297.71875 587.160156 294.890625 C 587.160156 292.238281 587.832031 290.203125 589.179688 288.785156 C 590.523438 287.371094 592.269531 286.664062 594.417969 286.664062 C 595.691406 286.664062 596.839844 286.902344 597.863281 287.378906 C 598.882812 287.859375 599.726562 288.613281 600.394531 289.644531 C 600.992188 290.554688 601.382812 291.609375 601.5625 292.808594 C 601.664062 293.511719 601.707031 294.523438 601.6875 295.84375 L 591.195312 295.84375 C 591.253906 297.382812 591.734375 298.460938 592.644531 299.078125 C 593.199219 299.464844 593.863281 299.65625 594.640625 299.65625 C 595.464844 299.65625 596.136719 299.421875 596.652344 298.953125 C 596.933594 298.699219 597.183594 298.347656 597.398438 297.898438 Z M 597.523438 293.203125 C 597.457031 292.144531 597.136719 291.339844 596.5625 290.789062 C 595.984375 290.242188 595.269531 289.96875 594.417969 289.96875 C 593.488281 289.96875 592.769531 290.257812 592.257812 290.839844 C 591.746094 291.421875 591.425781 292.207031 591.296875 293.203125 Z M 621.625 302.398438 L 612.695312 302.398438 L 612.695312 281.671875 L 621.625 281.671875 C 622.910156 281.691406 623.976562 281.839844 624.828125 282.121094 C 626.28125 282.597656 627.460938 283.476562 628.359375 284.75 C 629.082031 285.78125 629.574219 286.898438 629.835938 288.097656 C 630.097656 289.296875 630.230469 290.441406 630.230469 291.527344 C 630.230469 294.285156 629.675781 296.617188 628.570312 298.53125 C 627.070312 301.109375 624.753906 302.398438 621.625 302.398438 Z M 624.84375 286.957031 C 624.179688 285.832031 622.859375 285.269531 620.890625 285.269531 L 616.898438 285.269531 L 616.898438 298.796875 L 620.890625 298.796875 C 622.933594 298.796875 624.359375 297.789062 625.167969 295.773438 C 625.609375 294.667969 625.828125 293.351562 625.828125 291.824219 C 625.828125 289.714844 625.5 288.09375 624.84375 286.957031 Z M 646.492188 297.898438 C 646.386719 298.808594 645.914062 299.730469 645.070312 300.667969 C 643.757812 302.160156 641.921875 302.90625 639.558594 302.90625 C 637.609375 302.90625 635.886719 302.277344 634.398438 301.019531 C 632.90625 299.765625 632.160156 297.71875 632.160156 294.890625 C 632.160156 292.238281 632.832031 290.203125 634.179688 288.785156 C 635.523438 287.371094 637.269531 286.664062 639.417969 286.664062 C 640.691406 286.664062 641.839844 286.902344 642.863281 287.378906 C 643.882812 287.859375 644.726562 288.613281 645.394531 289.644531 C 645.992188 290.554688 646.382812 291.609375 646.5625 292.808594 C 646.664062 293.511719 646.707031 294.523438 646.6875 295.84375 L 636.195312 295.84375 C 636.253906 297.382812 636.734375 298.460938 637.644531 299.078125 C 638.199219 299.464844 638.863281 299.65625 639.640625 299.65625 C 640.464844 299.65625 641.136719 299.421875 641.652344 298.953125 C 641.933594 298.699219 642.183594 298.347656 642.398438 297.898438 Z M 642.523438 293.203125 C 642.457031 292.144531 642.136719 291.339844 641.5625 290.789062 C 640.984375 290.242188 640.269531 289.96875 639.417969 289.96875 C 638.488281 289.96875 637.769531 290.257812 637.257812 290.839844 C 636.746094 291.421875 636.425781 292.207031 636.296875 293.203125 Z M 647.867188 287.070312 L 652.367188 287.070312 L 655.558594 298.375 L 658.820312 287.070312 L 663.125 287.070312 L 657.597656 302.398438 L 653.363281 302.398438 Z M 678.492188 297.898438 C 678.386719 298.808594 677.914062 299.730469 677.070312 300.667969 C 675.757812 302.160156 673.921875 302.90625 671.558594 302.90625 C 669.609375 302.90625 667.886719 302.277344 666.398438 301.019531 C 664.90625 299.765625 664.160156 297.71875 664.160156 294.890625 C 664.160156 292.238281 664.832031 290.203125 666.179688 288.785156 C 667.523438 287.371094 669.269531 286.664062 671.417969 286.664062 C 672.691406 286.664062 673.839844 286.902344 674.863281 287.378906 C 675.882812 287.859375 676.726562 288.613281 677.394531 289.644531 C 677.992188 290.554688 678.382812 291.609375 678.5625 292.808594 C 678.664062 293.511719 678.707031 294.523438 678.6875 295.84375 L 668.195312 295.84375 C 668.253906 297.382812 668.734375 298.460938 669.644531 299.078125 C 670.199219 299.464844 670.863281 299.65625 671.640625 299.65625 C 672.464844 299.65625 673.136719 299.421875 673.652344 298.953125 C 673.933594 298.699219 674.183594 298.347656 674.398438 297.898438 Z M 674.523438 293.203125 C 674.457031 292.144531 674.136719 291.339844 673.5625 290.789062 C 672.984375 290.242188 672.269531 289.96875 671.417969 289.96875 C 670.488281 289.96875 669.769531 290.257812 669.257812 290.839844 C 668.746094 291.421875 668.425781 292.207031 668.296875 293.203125 Z M 681.453125 281.671875 L 685.460938 281.671875 L 685.460938 302.398438 L 681.453125 302.398438 Z M 702.152344 289.011719 C 703.445312 290.632812 704.09375 292.550781 704.09375 294.761719 C 704.09375 297.011719 703.445312 298.9375 702.152344 300.535156 C 700.859375 302.132812 698.894531 302.933594 696.261719 302.933594 C 693.625 302.933594 691.664062 302.132812 690.367188 300.535156 C 689.074219 298.9375 688.429688 297.011719 688.429688 294.761719 C 688.429688 292.550781 689.074219 290.632812 690.367188 289.011719 C 691.660156 287.390625 693.625 286.578125 696.261719 286.578125 C 698.894531 286.578125 700.859375 287.390625 702.152344 289.011719 Z M 696.246094 289.96875 C 695.074219 289.96875 694.171875 290.382812 693.539062 291.210938 C 692.90625 292.042969 692.589844 293.226562 692.589844 294.761719 C 692.589844 296.300781 692.90625 297.484375 693.539062 298.320312 C 694.171875 299.15625 695.074219 299.570312 696.246094 299.570312 C 697.417969 299.570312 698.320312 299.15625 698.945312 298.320312 C 699.574219 297.484375 699.890625 296.300781 699.890625 294.761719 C 699.890625 293.226562 699.574219 292.042969 698.945312 291.210938 C 698.316406 290.382812 697.417969 289.96875 696.246094 289.96875 Z M 720.210938 288.714844 C 721.449219 290.039062 722.066406 291.976562 722.066406 294.539062 C 722.066406 297.238281 721.457031 299.296875 720.246094 300.710938 C 719.03125 302.125 717.46875 302.835938 715.554688 302.835938 C 714.335938 302.835938 713.324219 302.53125 712.515625 301.921875 C 712.074219 301.582031 711.644531 301.089844 711.222656 300.445312 L 711.222656 308.429688 L 707.257812 308.429688 L 707.257812 287.070312 L 711.097656 287.070312 L 711.097656 289.335938 C 711.527344 288.667969 711.988281 288.144531 712.476562 287.757812 C 713.367188 287.074219 714.425781 286.734375 715.652344 286.734375 C 717.445312 286.734375 718.960938 287.394531 720.210938 288.714844 Z M 717.929688 294.734375 C 717.929688 293.554688 717.660156 292.507812 717.121094 291.597656 C 716.582031 290.6875 715.710938 290.234375 714.5 290.234375 C 713.046875 290.234375 712.046875 290.921875 711.503906 292.300781 C 711.222656 293.03125 711.082031 293.960938 711.082031 295.085938 C 711.082031 296.867188 711.554688 298.117188 712.503906 298.839844 C 713.066406 299.261719 713.730469 299.472656 714.5 299.472656 C 715.617188 299.472656 716.464844 299.042969 717.050781 298.179688 C 717.636719 297.316406 717.929688 296.167969 717.929688 294.734375 Z M 733.976562 291.289062 C 733.640625 290.546875 732.976562 290.179688 731.992188 290.179688 C 730.847656 290.179688 730.082031 290.546875 729.6875 291.289062 C 729.472656 291.710938 729.363281 292.339844 729.363281 293.171875 L 729.363281 302.398438 L 725.300781 302.398438 L 725.300781 287.097656 L 729.195312 287.097656 L 729.195312 289.335938 C 729.691406 288.539062 730.160156 287.96875 730.601562 287.632812 C 731.378906 287.03125 732.386719 286.734375 733.625 286.734375 C 734.796875 286.734375 735.742188 286.992188 736.464844 287.507812 C 737.046875 287.984375 737.488281 288.597656 737.789062 289.347656 C 738.3125 288.449219 738.964844 287.789062 739.742188 287.367188 C 740.566406 286.945312 741.484375 286.734375 742.5 286.734375 C 743.175781 286.734375 743.839844 286.863281 744.496094 287.125 C 745.152344 287.386719 745.746094 287.847656 746.28125 288.503906 C 746.710938 289.039062 747.003906 289.695312 747.152344 290.472656 C 747.246094 290.988281 747.292969 291.742188 747.292969 292.738281 L 747.265625 302.398438 L 743.160156 302.398438 L 743.160156 292.640625 C 743.160156 292.058594 743.066406 291.578125 742.878906 291.203125 C 742.523438 290.492188 741.867188 290.136719 740.910156 290.136719 C 739.804688 290.136719 739.039062 290.59375 738.617188 291.515625 C 738.402344 292.003906 738.292969 292.585938 738.292969 293.273438 L 738.292969 302.398438 L 734.257812 302.398438 L 734.257812 293.273438 C 734.257812 292.363281 734.164062 291.703125 733.976562 291.289062 Z M 764.492188 297.898438 C 764.386719 298.808594 763.914062 299.730469 763.070312 300.667969 C 761.757812 302.160156 759.921875 302.90625 757.558594 302.90625 C 755.609375 302.90625 753.886719 302.277344 752.398438 301.019531 C 750.90625 299.765625 750.160156 297.71875 750.160156 294.890625 C 750.160156 292.238281 750.832031 290.203125 752.179688 288.785156 C 753.523438 287.371094 755.269531 286.664062 757.417969 286.664062 C 758.691406 286.664062 759.839844 286.902344 760.863281 287.378906 C 761.882812 287.859375 762.726562 288.613281 763.394531 289.644531 C 763.992188 290.554688 764.382812 291.609375 764.5625 292.808594 C 764.664062 293.511719 764.707031 294.523438 764.6875 295.84375 L 754.195312 295.84375 C 754.253906 297.382812 754.734375 298.460938 755.644531 299.078125 C 756.199219 299.464844 756.863281 299.65625 757.640625 299.65625 C 758.464844 299.65625 759.136719 299.421875 759.652344 298.953125 C 759.933594 298.699219 760.183594 298.347656 760.398438 297.898438 Z M 760.523438 293.203125 C 760.457031 292.144531 760.136719 291.339844 759.5625 290.789062 C 758.984375 290.242188 758.269531 289.96875 757.417969 289.96875 C 756.488281 289.96875 755.769531 290.257812 755.257812 290.839844 C 754.746094 291.421875 754.425781 292.207031 754.296875 293.203125 Z M 774.585938 290.039062 C 773.226562 290.039062 772.292969 290.613281 771.785156 291.765625 C 771.523438 292.375 771.390625 293.15625 771.390625 294.101562 L 771.390625 302.398438 L 767.398438 302.398438 L 767.398438 287.097656 L 771.265625 287.097656 L 771.265625 289.335938 C 771.78125 288.546875 772.269531 287.980469 772.726562 287.632812 C 773.550781 287.015625 774.597656 286.703125 775.863281 286.703125 C 777.449219 286.703125 778.746094 287.121094 779.753906 287.949219 C 780.761719 288.777344 781.265625 290.15625 781.265625 292.078125 L 781.265625 302.398438 L 777.15625 302.398438 L 777.15625 293.074219 C 777.15625 292.269531 777.050781 291.648438 776.835938 291.21875 C 776.441406 290.429688 775.691406 290.039062 774.585938 290.039062 Z M 792.386719 299.542969 L 792.386719 302.539062 L 790.488281 302.609375 C 788.59375 302.675781 787.300781 302.347656 786.609375 301.625 C 786.160156 301.164062 785.933594 300.457031 785.933594 299.5 L 785.933594 290.066406 L 783.796875 290.066406 L 783.796875 287.210938 L 785.933594 287.210938 L 785.933594 282.9375 L 789.898438 282.9375 L 789.898438 287.210938 L 792.386719 287.210938 L 792.386719 290.066406 L 789.898438 290.066406 L 789.898438 298.164062 C 789.898438 298.792969 789.976562 299.183594 790.136719 299.339844 C 790.296875 299.496094 790.785156 299.570312 791.601562 299.570312 C 791.722656 299.570312 791.851562 299.570312 791.988281 299.566406 C 792.125 299.5625 792.257812 299.554688 792.386719 299.542969 Z M 230.5 280.222656 "/>
</g>
</svg>
