<?xml version="1.0" encoding="UTF-8"?>
<svg xmlns="http://www.w3.org/2000/svg" xmlns:xlink="http://www.w3.org/1999/xlink" width="1024pt" height="576pt" viewBox="0 0 1024 576" version="1.1">
<g id="surface238">
<rect x="0" y="0" width="1024" height="576" style="fill:rgb(36.470588%,43.921569%,49.803922%);fill-opacity:1;stroke:none;"/>
<path style=" stroke:none;fill-rule:nonzero;fill:rgb(100%,100%,100%);fill-opacity:1;" d="M 431.660156 281.671875 L 436.289062 281.671875 L 440.789062 297.40625 L 445.328125 281.671875 L 449.828125 281.671875 L 442.757812 302.398438 L 438.664062 302.398438 Z M 455.992188 287.070312 L 455.992188 302.398438 L 451.925781 302.398438 L 451.925781 287.070312 Z M 455.992188 281.542969 L 455.992188 285.242188 L 451.925781 285.242188 L 451.925781 281.542969 Z M 470.429688 287.773438 C 471.628906 288.542969 472.320312 289.863281 472.5 291.738281 L 468.492188 291.738281 C 468.433594 291.222656 468.289062 290.816406 468.054688 290.515625 C 467.613281 289.972656 466.863281 289.699219 465.804688 289.699219 C 464.933594 289.699219 464.3125 289.835938 463.941406 290.109375 C 463.570312 290.378906 463.386719 290.699219 463.386719 291.0625 C 463.386719 291.523438 463.582031 291.855469 463.976562 292.0625 C 464.371094 292.277344 465.761719 292.648438 468.152344 293.171875 C 469.746094 293.546875 470.941406 294.117188 471.738281 294.875 C 472.527344 295.644531 472.921875 296.605469 472.921875 297.757812 C 472.921875 299.277344 472.355469 300.515625 471.226562 301.476562 C 470.097656 302.4375 468.351562 302.917969 465.988281 302.917969 C 463.578125 302.917969 461.800781 302.410156 460.652344 301.394531 C 459.503906 300.375 458.929688 299.078125 458.929688 297.503906 L 462.992188 297.503906 C 463.078125 298.21875 463.257812 298.722656 463.539062 299.023438 C 464.035156 299.558594 464.957031 299.824219 466.296875 299.824219 C 467.085938 299.824219 467.710938 299.707031 468.175781 299.472656 C 468.640625 299.238281 468.871094 298.886719 468.871094 298.417969 C 468.871094 297.96875 468.683594 297.625 468.308594 297.390625 C 467.933594 297.15625 466.539062 296.753906 464.132812 296.183594 C 462.398438 295.75 461.171875 295.210938 460.460938 294.566406 C 459.75 293.929688 459.390625 293.007812 459.390625 291.808594 C 459.390625 290.394531 459.949219 289.175781 461.058594 288.160156 C 462.167969 287.144531 463.734375 286.632812 465.75 286.632812 C 467.660156 286.632812 469.222656 287.015625 470.429688 287.773438 Z M 479.992188 287.070312 L 479.992188 302.398438 L 475.925781 302.398438 L 475.925781 287.070312 Z M 479.992188 281.542969 L 479.992188 285.242188 L 475.925781 285.242188 L 475.925781 281.542969 Z M 492.195312 302.804688 C 490.929688 302.804688 489.914062 302.554688 489.144531 302.046875 C 488.683594 301.746094 488.1875 301.222656 487.652344 300.472656 L 487.652344 302.398438 L 483.730469 302.398438 L 483.730469 281.699219 L 487.722656 281.699219 L 487.722656 289.066406 C 488.230469 288.355469 488.789062 287.8125 489.398438 287.4375 C 490.121094 286.96875 491.039062 286.734375 492.152344 286.734375 C 494.167969 286.734375 495.746094 287.460938 496.886719 288.914062 C 498.023438 290.367188 498.59375 292.242188 498.59375 294.539062 C 498.59375 296.917969 498.03125 298.890625 496.90625 300.457031 C 495.78125 302.023438 494.210938 302.804688 492.195312 302.804688 Z M 494.390625 294.960938 C 494.390625 293.871094 494.25 292.972656 493.96875 292.257812 C 493.433594 290.910156 492.449219 290.234375 491.015625 290.234375 C 489.5625 290.234375 488.5625 290.894531 488.019531 292.21875 C 487.738281 292.921875 487.597656 293.828125 487.597656 294.945312 C 487.597656 296.257812 487.886719 297.34375 488.46875 298.207031 C 489.050781 299.070312 489.9375 299.5 491.125 299.5 C 492.15625 299.5 492.960938 299.085938 493.53125 298.25 C 494.101562 297.414062 494.390625 296.320312 494.390625 294.960938 Z M 501.953125 281.671875 L 505.960938 281.671875 L 505.960938 302.398438 L 501.953125 302.398438 Z M 522.992188 297.898438 C 522.886719 298.808594 522.414062 299.730469 521.570312 300.667969 C 520.257812 302.160156 518.421875 302.90625 516.058594 302.90625 C 514.109375 302.90625 512.386719 302.277344 510.898438 301.019531 C 509.40625 299.765625 508.660156 297.71875 508.660156 294.890625 C 508.660156 292.238281 509.332031 290.203125 510.679688 288.785156 C 512.023438 287.371094 513.769531 286.664062 515.917969 286.664062 C 517.191406 286.664062 518.339844 286.902344 519.363281 287.378906 C 520.382812 287.859375 521.226562 288.613281 521.894531 289.644531 C 522.492188 290.554688 522.882812 291.609375 523.0625 292.808594 C 523.164062 293.511719 523.207031 294.523438 523.1875 295.84375 L 512.695312 295.84375 C 512.753906 297.382812 513.234375 298.460938 514.144531 299.078125 C 514.699219 299.464844 515.363281 299.65625 516.140625 299.65625 C 516.964844 299.65625 517.636719 299.421875 518.152344 298.953125 C 518.433594 298.699219 518.683594 298.347656 518.898438 297.898438 Z M 519.023438 293.203125 C 518.957031 292.144531 518.636719 291.339844 518.0625 290.789062 C 517.484375 290.242188 516.769531 289.96875 515.917969 289.96875 C 514.988281 289.96875 514.269531 290.257812 513.757812 290.839844 C 513.246094 291.421875 512.925781 292.207031 512.796875 293.203125 Z M 541.71875 299.402344 C 542.738281 299.402344 543.570312 299.289062 544.207031 299.066406 C 545.414062 298.632812 546.019531 297.832031 546.019531 296.660156 C 546.019531 295.976562 545.71875 295.445312 545.121094 295.070312 C 544.519531 294.707031 543.578125 294.382812 542.292969 294.101562 L 540.101562 293.609375 C 537.945312 293.121094 536.453125 292.59375 535.628906 292.019531 C 534.230469 291.0625 533.53125 289.570312 533.53125 287.535156 C 533.53125 285.679688 534.207031 284.136719 535.558594 282.90625 C 536.90625 281.679688 538.890625 281.066406 541.507812 281.066406 C 543.691406 281.066406 545.554688 281.644531 547.097656 282.800781 C 548.640625 283.960938 549.445312 285.640625 549.523438 287.84375 L 545.359375 287.84375 C 545.285156 286.597656 544.742188 285.710938 543.726562 285.1875 C 543.050781 284.839844 542.214844 284.664062 541.210938 284.664062 C 540.09375 284.664062 539.203125 284.890625 538.539062 285.339844 C 537.875 285.789062 537.539062 286.417969 537.539062 287.226562 C 537.539062 287.964844 537.867188 288.519531 538.523438 288.882812 C 538.945312 289.128906 539.847656 289.414062 541.226562 289.742188 L 544.796875 290.601562 C 546.363281 290.976562 547.542969 291.476562 548.339844 292.105469 C 549.578125 293.078125 550.195312 294.492188 550.195312 296.335938 C 550.195312 298.230469 549.472656 299.804688 548.023438 301.054688 C 546.574219 302.308594 544.53125 302.933594 541.886719 302.933594 C 539.1875 302.933594 537.0625 302.316406 535.515625 301.082031 C 533.96875 299.851562 533.195312 298.15625 533.195312 296 L 537.328125 296 C 537.460938 296.945312 537.71875 297.65625 538.101562 298.125 C 538.804688 298.976562 540.011719 299.402344 541.71875 299.402344 Z M 566.933594 302.398438 L 562.09375 302.398438 L 558.425781 295.84375 L 556.765625 297.574219 L 556.765625 302.398438 L 552.828125 302.398438 L 552.828125 281.742188 L 556.765625 281.742188 L 556.765625 292.90625 L 561.757812 287.140625 L 566.722656 287.140625 L 561.363281 293.003906 Z M 572.992188 287.070312 L 572.992188 302.398438 L 568.925781 302.398438 L 568.925781 287.070312 Z M 572.992188 281.542969 L 572.992188 285.242188 L 568.925781 285.242188 L 568.925781 281.542969 Z M 584.085938 290.039062 C 582.726562 290.039062 581.792969 290.613281 581.285156 291.765625 C 581.023438 292.375 580.890625 293.15625 580.890625 294.101562 L 580.890625 302.398438 L 576.898438 302.398438 L 576.898438 287.097656 L 580.765625 287.097656 L 580.765625 289.335938 C 581.28125 288.546875 581.769531 287.980469 582.226562 287.632812 C 583.050781 287.015625 584.097656 286.703125 585.363281 286.703125 C 586.949219 286.703125 588.246094 287.121094 589.253906 287.949219 C 590.261719 288.777344 590.765625 290.15625 590.765625 292.078125 L 590.765625 302.398438 L 586.65625 302.398438 L 586.65625 293.074219 C 586.65625 292.269531 586.550781 291.648438 586.335938 291.21875 C 585.941406 290.429688 585.191406 290.039062 584.085938 290.039062 Z M 431 280.222656 "/>
</g>
</svg>
