<?xml version="1.0" encoding="UTF-8"?>
<svg xmlns="http://www.w3.org/2000/svg" xmlns:xlink="http://www.w3.org/1999/xlink" width="1024pt" height="576pt" viewBox="0 0 1024 576" version="1.1">
<g id="surface6">
<rect x="0" y="0" width="1024" height="576" style="fill:rgb(12.54902%,10.196078%,13.72549%);fill-opacity:1;stroke:none;"/>
<path style=" stroke:none;fill-rule:nonzero;fill:rgb(100%,100%,100%);fill-opacity:1;" d="M 492.15625 302.398438 L 482.765625 302.398438 L 482.765625 281.671875 L 492.832031 281.671875 C 495.375 281.707031 497.171875 282.445312 498.234375 283.878906 C 498.871094 284.757812 499.1875 285.8125 499.1875 287.042969 C 499.1875 288.308594 498.871094 289.324219 498.234375 290.09375 C 497.878906 290.523438 497.351562 290.917969 496.65625 291.273438 C 497.714844 291.660156 498.515625 292.269531 499.054688 293.101562 C 499.59375 293.9375 499.863281 294.949219 499.863281 296.140625 C 499.863281 297.367188 499.554688 298.46875 498.9375 299.445312 C 498.542969 300.09375 498.050781 300.636719 497.460938 301.078125 C 496.792969 301.582031 496.007812 301.929688 495.105469 302.117188 C 494.199219 302.304688 493.21875 302.398438 492.15625 302.398438 Z M 492.058594 293.273438 L 486.898438 293.273438 L 486.898438 298.796875 L 491.988281 298.796875 C 492.898438 298.796875 493.605469 298.675781 494.113281 298.433594 C 495.03125 297.984375 495.492188 297.121094 495.492188 295.84375 C 495.492188 294.765625 495.046875 294.027344 494.15625 293.625 C 493.660156 293.398438 492.960938 293.28125 492.058594 293.273438 Z M 494.210938 289.320312 C 494.773438 288.984375 495.054688 288.378906 495.054688 287.507812 C 495.054688 286.542969 494.679688 285.902344 493.929688 285.59375 C 493.28125 285.378906 492.457031 285.269531 491.453125 285.269531 L 486.898438 285.269531 L 486.898438 289.839844 L 491.988281 289.839844 C 492.898438 289.839844 493.640625 289.667969 494.210938 289.320312 Z M 518.320312 300.851562 C 516.773438 302.265625 514.792969 302.976562 512.382812 302.976562 C 509.402344 302.976562 507.058594 302.019531 505.351562 300.105469 C 503.644531 298.183594 502.792969 295.550781 502.792969 292.203125 C 502.792969 288.585938 503.765625 285.796875 505.703125 283.835938 C 507.390625 282.128906 509.539062 281.277344 512.144531 281.277344 C 515.632812 281.277344 518.183594 282.421875 519.796875 284.707031 C 520.6875 285.992188 521.164062 287.28125 521.230469 288.574219 L 516.898438 288.574219 C 516.617188 287.582031 516.257812 286.832031 515.816406 286.324219 C 515.027344 285.425781 513.859375 284.976562 512.3125 284.976562 C 510.738281 284.976562 509.496094 285.609375 508.585938 286.878906 C 507.675781 288.148438 507.222656 289.949219 507.222656 292.273438 C 507.222656 294.597656 507.703125 296.339844 508.664062 297.496094 C 509.625 298.65625 510.847656 299.234375 512.328125 299.234375 C 513.847656 299.234375 515.003906 298.738281 515.800781 297.742188 C 516.242188 297.207031 516.609375 296.40625 516.898438 295.339844 L 521.1875 295.339844 C 520.8125 297.597656 519.855469 299.4375 518.320312 300.851562 Z M 539.320312 300.851562 C 537.773438 302.265625 535.792969 302.976562 533.382812 302.976562 C 530.402344 302.976562 528.058594 302.019531 526.351562 300.105469 C 524.644531 298.183594 523.792969 295.550781 523.792969 292.203125 C 523.792969 288.585938 524.765625 285.796875 526.703125 283.835938 C 528.390625 282.128906 530.539062 281.277344 533.144531 281.277344 C 536.632812 281.277344 539.183594 282.421875 540.796875 284.707031 C 541.6875 285.992188 542.164062 287.28125 542.230469 288.574219 L 537.898438 288.574219 C 537.617188 287.582031 537.257812 286.832031 536.816406 286.324219 C 536.027344 285.425781 534.859375 284.976562 533.3125 284.976562 C 531.738281 284.976562 530.496094 285.609375 529.585938 286.878906 C 528.675781 288.148438 528.222656 289.949219 528.222656 292.273438 C 528.222656 294.597656 528.703125 296.339844 529.664062 297.496094 C 530.625 298.65625 531.847656 299.234375 533.328125 299.234375 C 534.847656 299.234375 536.003906 298.738281 536.800781 297.742188 C 537.242188 297.207031 537.609375 296.40625 537.898438 295.339844 L 542.1875 295.339844 C 541.8125 297.597656 540.855469 299.4375 539.320312 300.851562 Z M 480.5 280.222656 "/>
</g>
</svg>
