<?xml version="1.0" encoding="UTF-8"?>
<svg xmlns="http://www.w3.org/2000/svg" xmlns:xlink="http://www.w3.org/1999/xlink" width="1024pt" height="576pt" viewBox="0 0 1024 576" version="1.1">
<g id="surface31">
<rect x="0" y="0" width="1024" height="576" style="fill:rgb(36.470588%,43.921569%,49.803922%);fill-opacity:1;stroke:none;"/>
<path style=" stroke:none;fill-rule:nonzero;fill:rgb(100%,100%,100%);fill-opacity:1;" d="M 487.820312 300.851562 C 486.273438 302.265625 484.292969 302.976562 481.882812 302.976562 C 478.902344 302.976562 476.558594 302.019531 474.851562 300.105469 C 473.144531 298.183594 472.292969 295.550781 472.292969 292.203125 C 472.292969 288.585938 473.265625 285.796875 475.203125 283.835938 C 476.890625 282.128906 479.039062 281.277344 481.644531 281.277344 C 485.132812 281.277344 487.683594 282.421875 489.296875 284.707031 C 490.1875 285.992188 490.664062 287.28125 490.730469 288.574219 L 486.398438 288.574219 C 486.117188 287.582031 485.757812 286.832031 485.316406 286.324219 C 484.527344 285.425781 483.359375 284.976562 481.8125 284.976562 C 480.238281 284.976562 478.996094 285.609375 478.085938 286.878906 C 477.175781 288.148438 476.722656 289.949219 476.722656 292.273438 C 476.722656 294.597656 477.203125 296.339844 478.164062 297.496094 C 479.125 298.65625 480.347656 299.234375 481.828125 299.234375 C 483.347656 299.234375 484.503906 298.738281 485.300781 297.742188 C 485.742188 297.207031 486.109375 296.40625 486.398438 295.339844 L 490.6875 295.339844 C 490.3125 297.597656 489.355469 299.4375 487.820312 300.851562 Z M 503.363281 302.976562 C 500.398438 302.976562 498.136719 302.167969 496.570312 300.554688 C 494.46875 298.578125 493.421875 295.726562 493.421875 292.007812 C 493.421875 288.210938 494.46875 285.359375 496.570312 283.457031 C 498.136719 281.84375 500.398438 281.039062 503.363281 281.039062 C 506.324219 281.039062 508.589844 281.84375 510.15625 283.457031 C 512.246094 285.359375 513.289062 288.210938 513.289062 292.007812 C 513.289062 295.730469 512.246094 298.578125 510.15625 300.554688 C 508.589844 302.167969 506.324219 302.976562 503.363281 302.976562 Z M 507.453125 297.40625 C 508.457031 296.140625 508.960938 294.339844 508.960938 292.007812 C 508.960938 289.683594 508.457031 287.882812 507.449219 286.613281 C 506.441406 285.34375 505.078125 284.707031 503.363281 284.707031 C 501.648438 284.707031 500.277344 285.339844 499.257812 286.605469 C 498.234375 287.871094 497.722656 289.671875 497.722656 292.007812 C 497.722656 294.339844 498.234375 296.140625 499.257812 297.40625 C 500.277344 298.671875 501.648438 299.304688 503.363281 299.304688 C 505.078125 299.304688 506.441406 298.671875 507.453125 297.40625 Z M 531.253906 281.671875 L 531.253906 285.339844 L 525.054688 285.339844 L 525.054688 302.398438 L 520.695312 302.398438 L 520.695312 285.339844 L 514.464844 285.339844 L 514.464844 281.671875 Z M 542.996094 294.269531 L 538.523438 294.269531 L 538.523438 302.398438 L 534.292969 302.398438 L 534.292969 281.671875 L 544.460938 281.671875 C 545.914062 281.699219 547.03125 281.875 547.8125 282.203125 C 548.597656 282.53125 549.257812 283.015625 549.804688 283.652344 C 550.253906 284.179688 550.609375 284.757812 550.871094 285.398438 C 551.132812 286.035156 551.265625 286.761719 551.265625 287.578125 C 551.265625 288.5625 551.015625 289.527344 550.519531 290.480469 C 550.023438 291.433594 549.203125 292.105469 548.058594 292.5 C 549.015625 292.882812 549.691406 293.429688 550.089844 294.136719 C 550.488281 294.84375 550.6875 295.925781 550.6875 297.378906 L 550.6875 298.769531 C 550.6875 299.71875 550.726562 300.359375 550.800781 300.695312 C 550.914062 301.230469 551.175781 301.625 551.589844 301.878906 L 551.589844 302.398438 L 546.820312 302.398438 C 546.691406 301.9375 546.597656 301.570312 546.539062 301.289062 C 546.425781 300.707031 546.367188 300.109375 546.359375 299.5 L 546.328125 297.574219 C 546.308594 296.253906 546.070312 295.371094 545.605469 294.929688 C 545.140625 294.488281 544.273438 294.269531 542.996094 294.269531 Z M 545.625 290.5 C 546.488281 290.105469 546.921875 289.328125 546.921875 288.167969 C 546.921875 286.910156 546.503906 286.066406 545.667969 285.636719 C 545.199219 285.390625 544.496094 285.269531 543.558594 285.269531 L 538.523438 285.269531 L 538.523438 290.839844 L 543.433594 290.839844 C 544.40625 290.839844 545.140625 290.726562 545.625 290.5 Z M 471 280.222656 "/>
</g>
</svg>
