<?xml version="1.0" encoding="UTF-8"?>
<svg xmlns="http://www.w3.org/2000/svg" xmlns:xlink="http://www.w3.org/1999/xlink" width="1024pt" height="576pt" viewBox="0 0 1024 576" version="1.1">
<g id="surface59">
<rect x="0" y="0" width="1024" height="576" style="fill:rgb(42.745098%,54.117647%,58.823529%);fill-opacity:1;stroke:none;"/>
<path style=" stroke:none;fill-rule:nonzero;fill:rgb(100%,100%,100%);fill-opacity:1;" d="M 331.625 302.398438 L 322.695312 302.398438 L 322.695312 281.671875 L 331.625 281.671875 C 332.910156 281.691406 333.976562 281.839844 334.828125 282.121094 C 336.28125 282.597656 337.460938 283.476562 338.359375 284.75 C 339.082031 285.78125 339.574219 286.898438 339.835938 288.097656 C 340.097656 289.296875 340.230469 290.441406 340.230469 291.527344 C 340.230469 294.285156 339.675781 296.617188 338.570312 298.53125 C 337.070312 301.109375 334.753906 302.398438 331.625 302.398438 Z M 334.84375 286.957031 C 334.179688 285.832031 332.859375 285.269531 330.890625 285.269531 L 326.898438 285.269531 L 326.898438 298.796875 L 330.890625 298.796875 C 332.933594 298.796875 334.359375 297.789062 335.167969 295.773438 C 335.609375 294.667969 335.828125 293.351562 335.828125 291.824219 C 335.828125 289.714844 335.5 288.09375 334.84375 286.957031 Z M 347.492188 287.070312 L 347.492188 302.398438 L 343.425781 302.398438 L 343.425781 287.070312 Z M 347.492188 281.542969 L 347.492188 285.242188 L 343.425781 285.242188 L 343.425781 281.542969 Z M 355.703125 305.085938 C 356.132812 305.449219 356.859375 305.632812 357.882812 305.632812 C 359.324219 305.632812 360.289062 305.148438 360.777344 304.183594 C 361.097656 303.566406 361.257812 302.523438 361.257812 301.0625 L 361.257812 300.078125 C 360.871094 300.734375 360.460938 301.226562 360.019531 301.554688 C 359.222656 302.164062 358.1875 302.46875 356.910156 302.46875 C 354.941406 302.46875 353.371094 301.777344 352.191406 300.394531 C 351.015625 299.011719 350.429688 297.140625 350.429688 294.777344 C 350.429688 292.5 350.996094 290.582031 352.128906 289.03125 C 353.265625 287.480469 354.871094 286.703125 356.953125 286.703125 C 357.722656 286.703125 358.390625 286.820312 358.964844 287.054688 C 359.9375 287.457031 360.726562 288.199219 361.328125 289.277344 L 361.328125 287.070312 L 365.222656 287.070312 L 365.222656 301.609375 C 365.222656 303.589844 364.890625 305.078125 364.222656 306.082031 C 363.078125 307.808594 360.886719 308.671875 357.640625 308.671875 C 355.683594 308.671875 354.085938 308.285156 352.847656 307.515625 C 351.609375 306.746094 350.925781 305.601562 350.792969 304.070312 L 355.152344 304.070312 C 355.265625 304.539062 355.449219 304.878906 355.703125 305.085938 Z M 355.027344 297.167969 C 355.570312 298.460938 356.546875 299.109375 357.953125 299.109375 C 358.890625 299.109375 359.679688 298.753906 360.328125 298.046875 C 360.976562 297.339844 361.296875 296.210938 361.296875 294.664062 C 361.296875 293.210938 360.992188 292.105469 360.378906 291.34375 C 359.765625 290.585938 358.941406 290.207031 357.910156 290.207031 C 356.503906 290.207031 355.53125 290.867188 355 292.1875 C 354.71875 292.890625 354.578125 293.757812 354.578125 294.789062 C 354.578125 295.679688 354.726562 296.472656 355.027344 297.167969 Z M 373.492188 287.070312 L 373.492188 302.398438 L 369.425781 302.398438 L 369.425781 287.070312 Z M 373.492188 281.542969 L 373.492188 285.242188 L 369.425781 285.242188 L 369.425781 281.542969 Z M 384.386719 299.542969 L 384.386719 302.539062 L 382.488281 302.609375 C 380.59375 302.675781 379.300781 302.347656 378.609375 301.625 C 378.160156 301.164062 377.933594 300.457031 377.933594 299.5 L 377.933594 290.066406 L 375.796875 290.066406 L 375.796875 287.210938 L 377.933594 287.210938 L 377.933594 282.9375 L 381.898438 282.9375 L 381.898438 287.210938 L 384.386719 287.210938 L 384.386719 290.066406 L 381.898438 290.066406 L 381.898438 298.164062 C 381.898438 298.792969 381.976562 299.183594 382.136719 299.339844 C 382.296875 299.496094 382.785156 299.570312 383.601562 299.570312 C 383.722656 299.570312 383.851562 299.570312 383.988281 299.566406 C 384.125 299.5625 384.257812 299.554688 384.386719 299.542969 Z M 387.945312 288.730469 C 389.003906 287.378906 390.824219 286.703125 393.402344 286.703125 C 395.082031 286.703125 396.570312 287.039062 397.875 287.703125 C 399.179688 288.367188 399.828125 289.625 399.828125 291.472656 L 399.828125 298.503906 C 399.828125 298.992188 399.839844 299.582031 399.859375 300.273438 C 399.886719 300.800781 399.964844 301.15625 400.097656 301.34375 C 400.226562 301.53125 400.425781 301.6875 400.6875 301.808594 L 400.6875 302.398438 L 396.328125 302.398438 C 396.207031 302.089844 396.121094 301.796875 396.074219 301.527344 C 396.027344 301.253906 395.992188 300.945312 395.960938 300.597656 C 395.410156 301.199219 394.773438 301.710938 394.050781 302.132812 C 393.1875 302.628906 392.210938 302.875 391.125 302.875 C 389.738281 302.875 388.589844 302.480469 387.6875 301.6875 C 386.78125 300.894531 386.328125 299.773438 386.328125 298.320312 C 386.328125 296.4375 387.054688 295.070312 388.507812 294.226562 C 389.304688 293.769531 390.476562 293.441406 392.023438 293.242188 L 393.390625 293.074219 C 394.128906 292.980469 394.660156 292.863281 394.976562 292.722656 C 395.550781 292.480469 395.835938 292.101562 395.835938 291.585938 C 395.835938 290.957031 395.617188 290.523438 395.183594 290.285156 C 394.746094 290.046875 394.105469 289.925781 393.261719 289.925781 C 392.316406 289.925781 391.644531 290.160156 391.25 290.628906 C 390.96875 290.976562 390.78125 291.445312 390.6875 292.035156 L 386.820312 292.035156 C 386.90625 290.695312 387.28125 289.59375 387.945312 288.730469 Z M 390.929688 299.5 C 391.304688 299.808594 391.761719 299.964844 392.304688 299.964844 C 393.167969 299.964844 393.964844 299.710938 394.691406 299.207031 C 395.417969 298.699219 395.792969 297.777344 395.820312 296.4375 L 395.820312 294.945312 C 395.566406 295.105469 395.3125 295.234375 395.054688 295.332031 C 394.796875 295.429688 394.445312 295.523438 393.992188 295.605469 L 393.09375 295.773438 C 392.25 295.925781 391.644531 296.109375 391.28125 296.324219 C 390.660156 296.6875 390.351562 297.257812 390.351562 298.023438 C 390.351562 298.707031 390.542969 299.203125 390.929688 299.5 Z M 403.453125 281.671875 L 407.460938 281.671875 L 407.460938 302.398438 L 403.453125 302.398438 Z M 434.320312 300.851562 C 432.773438 302.265625 430.792969 302.976562 428.382812 302.976562 C 425.402344 302.976562 423.058594 302.019531 421.351562 300.105469 C 419.644531 298.183594 418.792969 295.550781 418.792969 292.203125 C 418.792969 288.585938 419.765625 285.796875 421.703125 283.835938 C 423.390625 282.128906 425.539062 281.277344 428.144531 281.277344 C 431.632812 281.277344 434.183594 282.421875 435.796875 284.707031 C 436.6875 285.992188 437.164062 287.28125 437.230469 288.574219 L 432.898438 288.574219 C 432.617188 287.582031 432.257812 286.832031 431.816406 286.324219 C 431.027344 285.425781 429.859375 284.976562 428.3125 284.976562 C 426.738281 284.976562 425.496094 285.609375 424.585938 286.878906 C 423.675781 288.148438 423.222656 289.949219 423.222656 292.273438 C 423.222656 294.597656 423.703125 296.339844 424.664062 297.496094 C 425.625 298.65625 426.847656 299.234375 428.328125 299.234375 C 429.847656 299.234375 431.003906 298.738281 431.800781 297.742188 C 432.242188 297.207031 432.609375 296.40625 432.898438 295.339844 L 437.1875 295.339844 C 436.8125 297.597656 435.855469 299.4375 434.320312 300.851562 Z M 450.199219 300.234375 C 450.164062 300.28125 450.070312 300.421875 449.917969 300.65625 C 449.769531 300.890625 449.589844 301.09375 449.382812 301.273438 C 448.753906 301.835938 448.148438 302.21875 447.5625 302.425781 C 446.976562 302.632812 446.289062 302.734375 445.503906 302.734375 C 443.234375 302.734375 441.707031 301.921875 440.917969 300.289062 C 440.476562 299.390625 440.257812 298.0625 440.257812 296.308594 L 440.257812 287.070312 L 444.363281 287.070312 L 444.363281 296.308594 C 444.363281 297.179688 444.46875 297.835938 444.671875 298.277344 C 445.039062 299.054688 445.757812 299.445312 446.824219 299.445312 C 448.195312 299.445312 449.132812 298.890625 449.636719 297.785156 C 449.898438 297.1875 450.03125 296.394531 450.03125 295.410156 L 450.03125 287.070312 L 454.09375 287.070312 L 454.09375 302.398438 L 450.199219 302.398438 Z M 458.453125 281.671875 L 462.460938 281.671875 L 462.460938 302.398438 L 458.453125 302.398438 Z M 473.386719 299.542969 L 473.386719 302.539062 L 471.488281 302.609375 C 469.59375 302.675781 468.300781 302.347656 467.609375 301.625 C 467.160156 301.164062 466.933594 300.457031 466.933594 299.5 L 466.933594 290.066406 L 464.796875 290.066406 L 464.796875 287.210938 L 466.933594 287.210938 L 466.933594 282.9375 L 470.898438 282.9375 L 470.898438 287.210938 L 473.386719 287.210938 L 473.386719 290.066406 L 470.898438 290.066406 L 470.898438 298.164062 C 470.898438 298.792969 470.976562 299.183594 471.136719 299.339844 C 471.296875 299.496094 471.785156 299.570312 472.601562 299.570312 C 472.722656 299.570312 472.851562 299.570312 472.988281 299.566406 C 473.125 299.5625 473.257812 299.554688 473.386719 299.542969 Z M 486.199219 300.234375 C 486.164062 300.28125 486.070312 300.421875 485.917969 300.65625 C 485.769531 300.890625 485.589844 301.09375 485.382812 301.273438 C 484.753906 301.835938 484.148438 302.21875 483.5625 302.425781 C 482.976562 302.632812 482.289062 302.734375 481.503906 302.734375 C 479.234375 302.734375 477.707031 301.921875 476.917969 300.289062 C 476.476562 299.390625 476.257812 298.0625 476.257812 296.308594 L 476.257812 287.070312 L 480.363281 287.070312 L 480.363281 296.308594 C 480.363281 297.179688 480.46875 297.835938 480.671875 298.277344 C 481.039062 299.054688 481.757812 299.445312 482.824219 299.445312 C 484.195312 299.445312 485.132812 298.890625 485.636719 297.785156 C 485.898438 297.1875 486.03125 296.394531 486.03125 295.410156 L 486.03125 287.070312 L 490.09375 287.070312 L 490.09375 302.398438 L 486.199219 302.398438 Z M 502.078125 290.769531 C 500.464844 290.769531 499.382812 291.292969 498.828125 292.34375 C 498.519531 292.933594 498.363281 293.84375 498.363281 295.070312 L 498.363281 302.398438 L 494.328125 302.398438 L 494.328125 287.070312 L 498.152344 287.070312 L 498.152344 289.742188 C 498.773438 288.71875 499.3125 288.023438 499.769531 287.648438 C 500.519531 287.019531 501.496094 286.703125 502.695312 286.703125 C 502.769531 286.703125 502.832031 286.707031 502.886719 286.710938 C 502.9375 286.714844 503.050781 286.722656 503.230469 286.734375 L 503.230469 290.839844 C 502.976562 290.8125 502.75 290.792969 502.554688 290.78125 C 502.359375 290.773438 502.199219 290.769531 502.078125 290.769531 Z M 518.492188 297.898438 C 518.386719 298.808594 517.914062 299.730469 517.070312 300.667969 C 515.757812 302.160156 513.921875 302.90625 511.558594 302.90625 C 509.609375 302.90625 507.886719 302.277344 506.398438 301.019531 C 504.90625 299.765625 504.160156 297.71875 504.160156 294.890625 C 504.160156 292.238281 504.832031 290.203125 506.179688 288.785156 C 507.523438 287.371094 509.269531 286.664062 511.417969 286.664062 C 512.691406 286.664062 513.839844 286.902344 514.863281 287.378906 C 515.882812 287.859375 516.726562 288.613281 517.394531 289.644531 C 517.992188 290.554688 518.382812 291.609375 518.5625 292.808594 C 518.664062 293.511719 518.707031 294.523438 518.6875 295.84375 L 508.195312 295.84375 C 508.253906 297.382812 508.734375 298.460938 509.644531 299.078125 C 510.199219 299.464844 510.863281 299.65625 511.640625 299.65625 C 512.464844 299.65625 513.136719 299.421875 513.652344 298.953125 C 513.933594 298.699219 514.183594 298.347656 514.398438 297.898438 Z M 514.523438 293.203125 C 514.457031 292.144531 514.136719 291.339844 513.5625 290.789062 C 512.984375 290.242188 512.269531 289.96875 511.417969 289.96875 C 510.488281 289.96875 509.769531 290.257812 509.257812 290.839844 C 508.746094 291.421875 508.425781 292.207031 508.296875 293.203125 Z M 531.929688 287.773438 C 533.128906 288.542969 533.820312 289.863281 534 291.738281 L 529.992188 291.738281 C 529.933594 291.222656 529.789062 290.816406 529.554688 290.515625 C 529.113281 289.972656 528.363281 289.699219 527.304688 289.699219 C 526.433594 289.699219 525.8125 289.835938 525.441406 290.109375 C 525.070312 290.378906 524.886719 290.699219 524.886719 291.0625 C 524.886719 291.523438 525.082031 291.855469 525.476562 292.0625 C 525.871094 292.277344 527.261719 292.648438 529.652344 293.171875 C 531.246094 293.546875 532.441406 294.117188 533.238281 294.875 C 534.027344 295.644531 534.421875 296.605469 534.421875 297.757812 C 534.421875 299.277344 533.855469 300.515625 532.726562 301.476562 C 531.597656 302.4375 529.851562 302.917969 527.488281 302.917969 C 525.078125 302.917969 523.300781 302.410156 522.152344 301.394531 C 521.003906 300.375 520.429688 299.078125 520.429688 297.503906 L 524.492188 297.503906 C 524.578125 298.21875 524.757812 298.722656 525.039062 299.023438 C 525.535156 299.558594 526.457031 299.824219 527.796875 299.824219 C 528.585938 299.824219 529.210938 299.707031 529.675781 299.472656 C 530.140625 299.238281 530.371094 298.886719 530.371094 298.417969 C 530.371094 297.96875 530.183594 297.625 529.808594 297.390625 C 529.433594 297.15625 528.039062 296.753906 525.632812 296.183594 C 523.898438 295.75 522.671875 295.210938 521.960938 294.566406 C 521.25 293.929688 520.890625 293.007812 520.890625 291.808594 C 520.890625 290.394531 521.449219 289.175781 522.558594 288.160156 C 523.667969 287.144531 525.234375 286.632812 527.25 286.632812 C 529.160156 286.632812 530.722656 287.015625 531.929688 287.773438 Z M 558.152344 289.011719 C 559.445312 290.632812 560.09375 292.550781 560.09375 294.761719 C 560.09375 297.011719 559.445312 298.9375 558.152344 300.535156 C 556.859375 302.132812 554.894531 302.933594 552.261719 302.933594 C 549.625 302.933594 547.664062 302.132812 546.367188 300.535156 C 545.074219 298.9375 544.429688 297.011719 544.429688 294.761719 C 544.429688 292.550781 545.074219 290.632812 546.367188 289.011719 C 547.660156 287.390625 549.625 286.578125 552.261719 286.578125 C 554.894531 286.578125 556.859375 287.390625 558.152344 289.011719 Z M 552.246094 289.96875 C 551.074219 289.96875 550.171875 290.382812 549.539062 291.210938 C 548.90625 292.042969 548.589844 293.226562 548.589844 294.761719 C 548.589844 296.300781 548.90625 297.484375 549.539062 298.320312 C 550.171875 299.15625 551.074219 299.570312 552.246094 299.570312 C 553.417969 299.570312 554.320312 299.15625 554.945312 298.320312 C 555.574219 297.484375 555.890625 296.300781 555.890625 294.761719 C 555.890625 293.226562 555.574219 292.042969 554.945312 291.210938 C 554.316406 290.382812 553.417969 289.96875 552.246094 289.96875 Z M 570.554688 281.542969 L 570.554688 284.804688 C 570.332031 284.777344 569.953125 284.757812 569.425781 284.742188 C 568.894531 284.730469 568.527344 284.847656 568.328125 285.09375 C 568.125 285.34375 568.023438 285.617188 568.023438 285.917969 L 568.023438 287.210938 L 570.65625 287.210938 L 570.65625 290.039062 L 568.023438 290.039062 L 568.023438 302.398438 L 564.03125 302.398438 L 564.03125 290.039062 L 561.796875 290.039062 L 561.796875 287.210938 L 563.988281 287.210938 L 563.988281 286.226562 C 563.988281 284.585938 564.265625 283.457031 564.820312 282.835938 C 565.402344 281.917969 566.800781 281.460938 569.023438 281.460938 C 569.277344 281.460938 569.507812 281.464844 569.710938 281.480469 C 569.917969 281.496094 570.199219 281.515625 570.554688 281.542969 Z M 584.097656 290.304688 L 581.230469 290.304688 L 581.863281 287.941406 L 584.730469 287.941406 L 586.265625 282.273438 L 589.0625 282.273438 L 587.53125 287.941406 L 589.863281 287.941406 L 591.355469 282.273438 L 594.152344 282.273438 L 592.664062 287.941406 L 595.488281 287.941406 L 594.855469 290.304688 L 592.03125 290.304688 L 590.890625 294.410156 L 593.757812 294.410156 L 593.125 296.773438 L 590.257812 296.773438 L 588.753906 302.398438 L 585.953125 302.398438 L 587.460938 296.773438 L 585.152344 296.773438 L 583.621094 302.398438 L 580.820312 302.398438 L 582.355469 296.773438 L 579.5 296.773438 L 580.132812 294.410156 L 582.988281 294.410156 Z M 588.09375 294.410156 L 589.230469 290.304688 L 586.898438 290.304688 L 585.800781 294.410156 Z M 610.632812 292.570312 L 606.523438 292.570312 C 606.449219 291.996094 606.257812 291.480469 605.949219 291.023438 C 605.5 290.402344 604.800781 290.09375 603.851562 290.09375 C 602.503906 290.09375 601.578125 290.765625 601.082031 292.105469 C 600.820312 292.816406 600.6875 293.765625 600.6875 294.945312 C 600.6875 296.070312 600.820312 296.976562 601.082031 297.660156 C 601.5625 298.933594 602.460938 299.570312 603.78125 299.570312 C 604.71875 299.570312 605.386719 299.320312 605.78125 298.8125 C 606.175781 298.304688 606.414062 297.648438 606.496094 296.84375 L 610.589844 296.84375 C 610.496094 298.0625 610.054688 299.214844 609.265625 300.304688 C 608.011719 302.058594 606.148438 302.933594 603.683594 302.933594 C 601.21875 302.933594 599.40625 302.203125 598.242188 300.738281 C 597.078125 299.277344 596.5 297.378906 596.5 295.042969 C 596.5 292.410156 597.140625 290.359375 598.425781 288.898438 C 599.710938 287.4375 601.480469 286.703125 603.742188 286.703125 C 605.664062 286.703125 607.234375 287.136719 608.457031 288 C 609.679688 288.863281 610.40625 290.382812 610.632812 292.570312 Z M 626.152344 289.011719 C 627.445312 290.632812 628.09375 292.550781 628.09375 294.761719 C 628.09375 297.011719 627.445312 298.9375 626.152344 300.535156 C 624.859375 302.132812 622.894531 302.933594 620.261719 302.933594 C 617.625 302.933594 615.664062 302.132812 614.367188 300.535156 C 613.074219 298.9375 612.429688 297.011719 612.429688 294.761719 C 612.429688 292.550781 613.074219 290.632812 614.367188 289.011719 C 615.660156 287.390625 617.625 286.578125 620.261719 286.578125 C 622.894531 286.578125 624.859375 287.390625 626.152344 289.011719 Z M 620.246094 289.96875 C 619.074219 289.96875 618.171875 290.382812 617.539062 291.210938 C 616.90625 292.042969 616.589844 293.226562 616.589844 294.761719 C 616.589844 296.300781 616.90625 297.484375 617.539062 298.320312 C 618.171875 299.15625 619.074219 299.570312 620.246094 299.570312 C 621.417969 299.570312 622.320312 299.15625 622.945312 298.320312 C 623.574219 297.484375 623.890625 296.300781 623.890625 294.761719 C 623.890625 293.226562 623.574219 292.042969 622.945312 291.210938 C 622.316406 290.382812 621.417969 289.96875 620.246094 289.96875 Z M 629.867188 287.070312 L 634.367188 287.070312 L 637.558594 298.375 L 640.820312 287.070312 L 645.125 287.070312 L 639.597656 302.398438 L 635.363281 302.398438 Z M 651.492188 287.070312 L 651.492188 302.398438 L 647.425781 302.398438 L 647.425781 287.070312 Z M 651.492188 281.542969 L 651.492188 285.242188 L 647.425781 285.242188 L 647.425781 281.542969 Z M 669.320312 281.699219 L 669.320312 302.398438 L 665.425781 302.398438 L 665.425781 300.273438 C 664.851562 301.183594 664.203125 301.84375 663.46875 302.257812 C 662.738281 302.671875 661.828125 302.875 660.742188 302.875 C 658.953125 302.875 657.445312 302.152344 656.222656 300.703125 C 655 299.253906 654.386719 297.398438 654.386719 295.128906 C 654.386719 292.511719 654.988281 290.453125 656.191406 288.953125 C 657.398438 287.453125 659.007812 286.703125 661.023438 286.703125 C 661.953125 286.703125 662.777344 286.910156 663.5 287.316406 C 664.222656 287.722656 664.804688 288.289062 665.257812 289.011719 L 665.257812 281.699219 Z M 658.519531 294.832031 C 658.519531 296.25 658.800781 297.378906 659.363281 298.222656 C 659.917969 299.074219 660.761719 299.5 661.894531 299.5 C 663.03125 299.5 663.890625 299.078125 664.484375 298.234375 C 665.074219 297.390625 665.367188 296.300781 665.367188 294.960938 C 665.367188 293.085938 664.894531 291.742188 663.949219 290.9375 C 663.367188 290.449219 662.691406 290.207031 661.921875 290.207031 C 660.75 290.207031 659.890625 290.648438 659.34375 291.535156 C 658.792969 292.421875 658.519531 293.519531 658.519531 294.832031 Z M 682.398438 302.398438 L 678.292969 302.398438 L 678.292969 288.335938 L 673.496094 288.335938 L 673.496094 285.609375 C 674.761719 285.550781 675.648438 285.46875 676.15625 285.355469 C 676.960938 285.175781 677.617188 284.820312 678.125 284.285156 C 678.472656 283.921875 678.734375 283.433594 678.910156 282.824219 C 679.015625 282.457031 679.066406 282.1875 679.066406 282.007812 L 682.398438 282.007812 Z M 694.980469 302.988281 C 693.453125 302.988281 692.078125 302.535156 690.859375 301.632812 C 689.640625 300.726562 688.945312 299.40625 688.765625 297.671875 L 692.757812 297.671875 C 692.851562 298.273438 693.105469 298.761719 693.519531 299.136719 C 693.929688 299.511719 694.480469 299.699219 695.164062 299.699219 C 696.484375 299.699219 697.414062 298.96875 697.949219 297.503906 C 698.238281 296.699219 698.421875 295.523438 698.496094 293.976562 C 698.132812 294.433594 697.742188 294.785156 697.328125 295.03125 C 696.578125 295.480469 695.65625 295.703125 694.558594 295.703125 C 692.9375 295.703125 691.5 295.144531 690.242188 294.023438 C 688.984375 292.902344 688.359375 291.289062 688.359375 289.179688 C 688.359375 286.996094 688.988281 285.226562 690.25 283.871094 C 691.511719 282.515625 693.148438 281.839844 695.164062 281.839844 C 698.265625 281.839844 700.394531 283.210938 701.546875 285.960938 C 702.203125 287.515625 702.53125 289.5625 702.53125 292.105469 C 702.53125 294.570312 702.21875 296.628906 701.589844 298.277344 C 700.390625 301.417969 698.1875 302.988281 694.980469 302.988281 Z M 693.574219 285.761719 C 692.804688 286.363281 692.421875 287.378906 692.421875 288.8125 C 692.421875 290.023438 692.667969 290.929688 693.160156 291.535156 C 693.652344 292.140625 694.410156 292.441406 695.429688 292.441406 C 695.984375 292.441406 696.503906 292.28125 696.992188 291.964844 C 697.902344 291.382812 698.355469 290.375 698.355469 288.941406 C 698.355469 287.789062 698.085938 286.875 697.546875 286.199219 C 697.007812 285.523438 696.269531 285.1875 695.332031 285.1875 C 694.648438 285.1875 694.0625 285.378906 693.574219 285.761719 Z M 320.5 280.222656 "/>
</g>
</svg>
