<?xml version="1.0" encoding="UTF-8"?>
<svg xmlns="http://www.w3.org/2000/svg" xmlns:xlink="http://www.w3.org/1999/xlink" width="1024pt" height="576pt" viewBox="0 0 1024 576" version="1.1">
<g id="surface72">
<rect x="0" y="0" width="1024" height="576" style="fill:rgb(12.54902%,10.196078%,13.72549%);fill-opacity:1;stroke:none;"/>
<path style=" stroke:none;fill-rule:nonzero;fill:rgb(100%,100%,100%);fill-opacity:1;" d="M 482.125 302.398438 L 473.195312 302.398438 L 473.195312 281.671875 L 482.125 281.671875 C 483.410156 281.691406 484.476562 281.839844 485.328125 282.121094 C 486.78125 282.597656 487.960938 283.476562 488.859375 284.75 C 489.582031 285.78125 490.074219 286.898438 490.335938 288.097656 C 490.597656 289.296875 490.730469 290.441406 490.730469 291.527344 C 490.730469 294.285156 490.175781 296.617188 489.070312 298.53125 C 487.570312 301.109375 485.253906 302.398438 482.125 302.398438 Z M 485.34375 286.957031 C 484.679688 285.832031 483.359375 285.269531 481.390625 285.269531 L 477.398438 285.269531 L 477.398438 298.796875 L 481.390625 298.796875 C 483.433594 298.796875 484.859375 297.789062 485.667969 295.773438 C 486.109375 294.667969 486.328125 293.351562 486.328125 291.824219 C 486.328125 289.714844 486 288.09375 485.34375 286.957031 Z M 502.996094 294.945312 L 498.59375 294.945312 L 498.59375 302.398438 L 494.292969 302.398438 L 494.292969 281.671875 L 503.320312 281.671875 C 505.402344 281.671875 507.0625 282.203125 508.296875 283.273438 C 509.535156 284.34375 510.15625 285.996094 510.15625 288.238281 C 510.15625 290.683594 509.535156 292.414062 508.296875 293.425781 C 507.058594 294.4375 505.292969 294.945312 502.996094 294.945312 Z M 505.023438 290.628906 C 505.585938 290.132812 505.867188 289.34375 505.867188 288.265625 C 505.867188 287.1875 505.582031 286.417969 505.015625 285.960938 C 504.449219 285.5 503.652344 285.269531 502.632812 285.269531 L 498.59375 285.269531 L 498.59375 291.375 L 502.632812 291.375 C 503.652344 291.375 504.449219 291.125 505.023438 290.628906 Z M 521.996094 294.269531 L 517.523438 294.269531 L 517.523438 302.398438 L 513.292969 302.398438 L 513.292969 281.671875 L 523.460938 281.671875 C 524.914062 281.699219 526.03125 281.875 526.8125 282.203125 C 527.597656 282.53125 528.257812 283.015625 528.804688 283.652344 C 529.253906 284.179688 529.609375 284.757812 529.871094 285.398438 C 530.132812 286.035156 530.265625 286.761719 530.265625 287.578125 C 530.265625 288.5625 530.015625 289.527344 529.519531 290.480469 C 529.023438 291.433594 528.203125 292.105469 527.058594 292.5 C 528.015625 292.882812 528.691406 293.429688 529.089844 294.136719 C 529.488281 294.84375 529.6875 295.925781 529.6875 297.378906 L 529.6875 298.769531 C 529.6875 299.71875 529.726562 300.359375 529.800781 300.695312 C 529.914062 301.230469 530.175781 301.625 530.589844 301.878906 L 530.589844 302.398438 L 525.820312 302.398438 C 525.691406 301.9375 525.597656 301.570312 525.539062 301.289062 C 525.425781 300.707031 525.367188 300.109375 525.359375 299.5 L 525.328125 297.574219 C 525.308594 296.253906 525.070312 295.371094 524.605469 294.929688 C 524.140625 294.488281 523.273438 294.269531 521.996094 294.269531 Z M 524.625 290.5 C 525.488281 290.105469 525.921875 289.328125 525.921875 288.167969 C 525.921875 286.910156 525.503906 286.066406 524.667969 285.636719 C 524.199219 285.390625 523.496094 285.269531 522.558594 285.269531 L 517.523438 285.269531 L 517.523438 290.839844 L 522.433594 290.839844 C 523.40625 290.839844 524.140625 290.726562 524.625 290.5 Z M 542.996094 294.269531 L 538.523438 294.269531 L 538.523438 302.398438 L 534.292969 302.398438 L 534.292969 281.671875 L 544.460938 281.671875 C 545.914062 281.699219 547.03125 281.875 547.8125 282.203125 C 548.597656 282.53125 549.257812 283.015625 549.804688 283.652344 C 550.253906 284.179688 550.609375 284.757812 550.871094 285.398438 C 551.132812 286.035156 551.265625 286.761719 551.265625 287.578125 C 551.265625 288.5625 551.015625 289.527344 550.519531 290.480469 C 550.023438 291.433594 549.203125 292.105469 548.058594 292.5 C 549.015625 292.882812 549.691406 293.429688 550.089844 294.136719 C 550.488281 294.84375 550.6875 295.925781 550.6875 297.378906 L 550.6875 298.769531 C 550.6875 299.71875 550.726562 300.359375 550.800781 300.695312 C 550.914062 301.230469 551.175781 301.625 551.589844 301.878906 L 551.589844 302.398438 L 546.820312 302.398438 C 546.691406 301.9375 546.597656 301.570312 546.539062 301.289062 C 546.425781 300.707031 546.367188 300.109375 546.359375 299.5 L 546.328125 297.574219 C 546.308594 296.253906 546.070312 295.371094 545.605469 294.929688 C 545.140625 294.488281 544.273438 294.269531 542.996094 294.269531 Z M 545.625 290.5 C 546.488281 290.105469 546.921875 289.328125 546.921875 288.167969 C 546.921875 286.910156 546.503906 286.066406 545.667969 285.636719 C 545.199219 285.390625 544.496094 285.269531 543.558594 285.269531 L 538.523438 285.269531 L 538.523438 290.839844 L 543.433594 290.839844 C 544.40625 290.839844 545.140625 290.726562 545.625 290.5 Z M 471 280.222656 "/>
</g>
</svg>
