<?xml version="1.0" encoding="UTF-8"?>
<svg xmlns="http://www.w3.org/2000/svg" xmlns:xlink="http://www.w3.org/1999/xlink" width="1024pt" height="576pt" viewBox="0 0 1024 576" version="1.1">
<g id="surface92">
<rect x="0" y="0" width="1024" height="576" style="fill:rgb(36.470588%,43.921569%,49.803922%);fill-opacity:1;stroke:none;"/>
<path style=" stroke:none;fill-rule:nonzero;fill:rgb(100%,100%,100%);fill-opacity:1;" d="M 466.621094 293.34375 L 456.554688 293.34375 L 456.554688 298.671875 L 468.027344 298.671875 L 468.027344 302.398438 L 452.320312 302.398438 L 452.320312 281.671875 L 467.523438 281.671875 L 467.523438 285.339844 L 456.554688 285.339844 L 456.554688 289.742188 L 466.621094 289.742188 Z M 457.648438 280.011719 L 460.351562 275.804688 L 464.820312 275.804688 L 460.546875 280.011719 Z M 477.886719 299.542969 L 477.886719 302.539062 L 475.988281 302.609375 C 474.09375 302.675781 472.800781 302.347656 472.109375 301.625 C 471.660156 301.164062 471.433594 300.457031 471.433594 299.5 L 471.433594 290.066406 L 469.296875 290.066406 L 469.296875 287.210938 L 471.433594 287.210938 L 471.433594 282.9375 L 475.398438 282.9375 L 475.398438 287.210938 L 477.886719 287.210938 L 477.886719 290.066406 L 475.398438 290.066406 L 475.398438 298.164062 C 475.398438 298.792969 475.476562 299.183594 475.636719 299.339844 C 475.796875 299.496094 476.285156 299.570312 477.101562 299.570312 C 477.222656 299.570312 477.351562 299.570312 477.488281 299.566406 C 477.625 299.5625 477.757812 299.554688 477.886719 299.542969 Z M 481.445312 288.730469 C 482.503906 287.378906 484.324219 286.703125 486.902344 286.703125 C 488.582031 286.703125 490.070312 287.039062 491.375 287.703125 C 492.679688 288.367188 493.328125 289.625 493.328125 291.472656 L 493.328125 298.503906 C 493.328125 298.992188 493.339844 299.582031 493.359375 300.273438 C 493.386719 300.800781 493.464844 301.15625 493.597656 301.34375 C 493.726562 301.53125 493.925781 301.6875 494.1875 301.808594 L 494.1875 302.398438 L 489.828125 302.398438 C 489.707031 302.089844 489.621094 301.796875 489.574219 301.527344 C 489.527344 301.253906 489.492188 300.945312 489.460938 300.597656 C 488.910156 301.199219 488.273438 301.710938 487.550781 302.132812 C 486.6875 302.628906 485.710938 302.875 484.625 302.875 C 483.238281 302.875 482.089844 302.480469 481.1875 301.6875 C 480.28125 300.894531 479.828125 299.773438 479.828125 298.320312 C 479.828125 296.4375 480.554688 295.070312 482.007812 294.226562 C 482.804688 293.769531 483.976562 293.441406 485.523438 293.242188 L 486.890625 293.074219 C 487.628906 292.980469 488.160156 292.863281 488.476562 292.722656 C 489.050781 292.480469 489.335938 292.101562 489.335938 291.585938 C 489.335938 290.957031 489.117188 290.523438 488.683594 290.285156 C 488.246094 290.046875 487.605469 289.925781 486.761719 289.925781 C 485.816406 289.925781 485.144531 290.160156 484.75 290.628906 C 484.46875 290.976562 484.28125 291.445312 484.1875 292.035156 L 480.320312 292.035156 C 480.40625 290.695312 480.78125 289.59375 481.445312 288.730469 Z M 484.429688 299.5 C 484.804688 299.808594 485.261719 299.964844 485.804688 299.964844 C 486.667969 299.964844 487.464844 299.710938 488.191406 299.207031 C 488.917969 298.699219 489.292969 297.777344 489.320312 296.4375 L 489.320312 294.945312 C 489.066406 295.105469 488.8125 295.234375 488.554688 295.332031 C 488.296875 295.429688 487.945312 295.523438 487.492188 295.605469 L 486.59375 295.773438 C 485.75 295.925781 485.144531 296.109375 484.78125 296.324219 C 484.160156 296.6875 483.851562 297.257812 483.851562 298.023438 C 483.851562 298.707031 484.042969 299.203125 484.429688 299.5 Z M 503.886719 299.542969 L 503.886719 302.539062 L 501.988281 302.609375 C 500.09375 302.675781 498.800781 302.347656 498.109375 301.625 C 497.660156 301.164062 497.433594 300.457031 497.433594 299.5 L 497.433594 290.066406 L 495.296875 290.066406 L 495.296875 287.210938 L 497.433594 287.210938 L 497.433594 282.9375 L 501.398438 282.9375 L 501.398438 287.210938 L 503.886719 287.210938 L 503.886719 290.066406 L 501.398438 290.066406 L 501.398438 298.164062 C 501.398438 298.792969 501.476562 299.183594 501.636719 299.339844 C 501.796875 299.496094 502.285156 299.570312 503.101562 299.570312 C 503.222656 299.570312 503.351562 299.570312 503.488281 299.566406 C 503.625 299.5625 503.757812 299.554688 503.886719 299.542969 Z M 529.820312 300.851562 C 528.273438 302.265625 526.292969 302.976562 523.882812 302.976562 C 520.902344 302.976562 518.558594 302.019531 516.851562 300.105469 C 515.144531 298.183594 514.292969 295.550781 514.292969 292.203125 C 514.292969 288.585938 515.265625 285.796875 517.203125 283.835938 C 518.890625 282.128906 521.039062 281.277344 523.644531 281.277344 C 527.132812 281.277344 529.683594 282.421875 531.296875 284.707031 C 532.1875 285.992188 532.664062 287.28125 532.730469 288.574219 L 528.398438 288.574219 C 528.117188 287.582031 527.757812 286.832031 527.316406 286.324219 C 526.527344 285.425781 525.359375 284.976562 523.8125 284.976562 C 522.238281 284.976562 520.996094 285.609375 520.085938 286.878906 C 519.175781 288.148438 518.722656 289.949219 518.722656 292.273438 C 518.722656 294.597656 519.203125 296.339844 520.164062 297.496094 C 521.125 298.65625 522.347656 299.234375 523.828125 299.234375 C 525.347656 299.234375 526.503906 298.738281 527.300781 297.742188 C 527.742188 297.207031 528.109375 296.40625 528.398438 295.339844 L 532.6875 295.339844 C 532.3125 297.597656 531.355469 299.4375 529.820312 300.851562 Z M 539.992188 287.070312 L 539.992188 302.398438 L 535.925781 302.398438 L 535.925781 287.070312 Z M 539.992188 281.542969 L 539.992188 285.242188 L 535.925781 285.242188 L 535.925781 281.542969 Z M 542.367188 287.070312 L 546.867188 287.070312 L 550.058594 298.375 L 553.320312 287.070312 L 557.625 287.070312 L 552.097656 302.398438 L 547.863281 302.398438 Z M 563.992188 287.070312 L 563.992188 302.398438 L 559.925781 302.398438 L 559.925781 287.070312 Z M 563.992188 281.542969 L 563.992188 285.242188 L 559.925781 285.242188 L 559.925781 281.542969 Z M 567.953125 281.671875 L 571.960938 281.671875 L 571.960938 302.398438 L 567.953125 302.398438 Z M 450 280.222656 "/>
</g>
</svg>
