<?xml version="1.0" encoding="UTF-8"?>
<svg xmlns="http://www.w3.org/2000/svg" xmlns:xlink="http://www.w3.org/1999/xlink" width="1024pt" height="576pt" viewBox="0 0 1024 576" version="1.1">
<g id="surface109">
<rect x="0" y="0" width="1024" height="576" style="fill:rgb(42.745098%,54.117647%,58.823529%);fill-opacity:1;stroke:none;"/>
<path style=" stroke:none;fill-rule:nonzero;fill:rgb(100%,100%,100%);fill-opacity:1;" d="M 486.40625 301.890625 C 485.261719 302.59375 483.855469 302.945312 482.1875 302.945312 C 479.441406 302.945312 477.191406 301.996094 475.4375 300.09375 C 473.609375 298.179688 472.695312 295.5625 472.695312 292.246094 C 472.695312 288.890625 473.617188 286.199219 475.464844 284.171875 C 477.3125 282.148438 479.753906 281.136719 482.792969 281.136719 C 485.425781 281.136719 487.542969 281.804688 489.140625 283.140625 C 490.738281 284.476562 491.65625 286.140625 491.890625 288.140625 L 487.628906 288.140625 C 487.300781 286.722656 486.5 285.734375 485.226562 285.171875 C 484.511719 284.863281 483.71875 284.707031 482.847656 284.707031 C 481.179688 284.707031 479.808594 285.339844 478.734375 286.597656 C 477.660156 287.859375 477.125 289.757812 477.125 292.289062 C 477.125 294.839844 477.707031 296.640625 478.867188 297.703125 C 480.03125 298.761719 481.351562 299.289062 482.835938 299.289062 C 484.289062 299.289062 485.476562 298.871094 486.40625 298.03125 C 487.335938 297.191406 487.90625 296.09375 488.121094 294.734375 L 483.328125 294.734375 L 483.328125 291.273438 L 491.960938 291.273438 L 491.960938 302.398438 L 489.09375 302.398438 L 488.65625 299.8125 C 487.820312 300.796875 487.070312 301.488281 486.40625 301.890625 Z M 503.21875 299.402344 C 504.238281 299.402344 505.070312 299.289062 505.707031 299.066406 C 506.914062 298.632812 507.519531 297.832031 507.519531 296.660156 C 507.519531 295.976562 507.21875 295.445312 506.621094 295.070312 C 506.019531 294.707031 505.078125 294.382812 503.792969 294.101562 L 501.601562 293.609375 C 499.445312 293.121094 497.953125 292.59375 497.128906 292.019531 C 495.730469 291.0625 495.03125 289.570312 495.03125 287.535156 C 495.03125 285.679688 495.707031 284.136719 497.058594 282.90625 C 498.40625 281.679688 500.390625 281.066406 503.007812 281.066406 C 505.191406 281.066406 507.054688 281.644531 508.597656 282.800781 C 510.140625 283.960938 510.945312 285.640625 511.023438 287.84375 L 506.859375 287.84375 C 506.785156 286.597656 506.242188 285.710938 505.226562 285.1875 C 504.550781 284.839844 503.714844 284.664062 502.710938 284.664062 C 501.59375 284.664062 500.703125 284.890625 500.039062 285.339844 C 499.375 285.789062 499.039062 286.417969 499.039062 287.226562 C 499.039062 287.964844 499.367188 288.519531 500.023438 288.882812 C 500.445312 289.128906 501.347656 289.414062 502.726562 289.742188 L 506.296875 290.601562 C 507.863281 290.976562 509.042969 291.476562 509.839844 292.105469 C 511.078125 293.078125 511.695312 294.492188 511.695312 296.335938 C 511.695312 298.230469 510.972656 299.804688 509.523438 301.054688 C 508.074219 302.308594 506.03125 302.933594 503.386719 302.933594 C 500.6875 302.933594 498.5625 302.316406 497.015625 301.082031 C 495.46875 299.851562 494.695312 298.15625 494.695312 296 L 498.828125 296 C 498.960938 296.945312 499.21875 297.65625 499.601562 298.125 C 500.304688 298.976562 501.511719 299.402344 503.21875 299.402344 Z M 522.21875 299.402344 C 523.238281 299.402344 524.070312 299.289062 524.707031 299.066406 C 525.914062 298.632812 526.519531 297.832031 526.519531 296.660156 C 526.519531 295.976562 526.21875 295.445312 525.621094 295.070312 C 525.019531 294.707031 524.078125 294.382812 522.792969 294.101562 L 520.601562 293.609375 C 518.445312 293.121094 516.953125 292.59375 516.128906 292.019531 C 514.730469 291.0625 514.03125 289.570312 514.03125 287.535156 C 514.03125 285.679688 514.707031 284.136719 516.058594 282.90625 C 517.40625 281.679688 519.390625 281.066406 522.007812 281.066406 C 524.191406 281.066406 526.054688 281.644531 527.597656 282.800781 C 529.140625 283.960938 529.945312 285.640625 530.023438 287.84375 L 525.859375 287.84375 C 525.785156 286.597656 525.242188 285.710938 524.226562 285.1875 C 523.550781 284.839844 522.714844 284.664062 521.710938 284.664062 C 520.59375 284.664062 519.703125 284.890625 519.039062 285.339844 C 518.375 285.789062 518.039062 286.417969 518.039062 287.226562 C 518.039062 287.964844 518.367188 288.519531 519.023438 288.882812 C 519.445312 289.128906 520.347656 289.414062 521.726562 289.742188 L 525.296875 290.601562 C 526.863281 290.976562 528.042969 291.476562 528.839844 292.105469 C 530.078125 293.078125 530.695312 294.492188 530.695312 296.335938 C 530.695312 298.230469 529.972656 299.804688 528.523438 301.054688 C 527.074219 302.308594 525.03125 302.933594 522.386719 302.933594 C 519.6875 302.933594 517.5625 302.316406 516.015625 301.082031 C 514.46875 299.851562 513.695312 298.15625 513.695312 296 L 517.828125 296 C 517.960938 296.945312 518.21875 297.65625 518.601562 298.125 C 519.304688 298.976562 520.511719 299.402344 522.21875 299.402344 Z M 550.457031 302.398438 L 546.125 302.398438 L 537.660156 287.675781 L 537.660156 302.398438 L 533.625 302.398438 L 533.625 281.671875 L 538.164062 281.671875 L 546.421875 296.140625 L 546.421875 281.671875 L 550.457031 281.671875 Z M 471.5 280.222656 "/>
</g>
</svg>
