<?xml version="1.0" encoding="UTF-8"?>
<svg xmlns="http://www.w3.org/2000/svg" xmlns:xlink="http://www.w3.org/1999/xlink" width="1024pt" height="576pt" viewBox="0 0 1024 576" version="1.1">
<g id="surface133">
<rect x="0" y="0" width="1024" height="576" style="fill:rgb(79.607843%,56.470588%,30.196078%);fill-opacity:1;stroke:none;"/>
<path style=" stroke:none;fill-rule:nonzero;fill:rgb(100%,100%,100%);fill-opacity:1;" d="M 496.054688 302.398438 L 496.054688 293.144531 L 487.953125 293.144531 L 487.953125 302.398438 L 483.664062 302.398438 L 483.664062 281.671875 L 487.953125 281.671875 L 487.953125 289.574219 L 496.054688 289.574219 L 496.054688 281.671875 L 500.359375 281.671875 L 500.359375 302.398438 Z M 517.40625 301.890625 C 516.261719 302.59375 514.855469 302.945312 513.1875 302.945312 C 510.441406 302.945312 508.191406 301.996094 506.4375 300.09375 C 504.609375 298.179688 503.695312 295.5625 503.695312 292.246094 C 503.695312 288.890625 504.617188 286.199219 506.464844 284.171875 C 508.3125 282.148438 510.753906 281.136719 513.792969 281.136719 C 516.425781 281.136719 518.542969 281.804688 520.140625 283.140625 C 521.738281 284.476562 522.65625 286.140625 522.890625 288.140625 L 518.628906 288.140625 C 518.300781 286.722656 517.5 285.734375 516.226562 285.171875 C 515.511719 284.863281 514.71875 284.707031 513.847656 284.707031 C 512.179688 284.707031 510.808594 285.339844 509.734375 286.597656 C 508.660156 287.859375 508.125 289.757812 508.125 292.289062 C 508.125 294.839844 508.707031 296.640625 509.867188 297.703125 C 511.03125 298.761719 512.351562 299.289062 513.835938 299.289062 C 515.289062 299.289062 516.476562 298.871094 517.40625 298.03125 C 518.335938 297.191406 518.90625 296.09375 519.121094 294.734375 L 514.328125 294.734375 L 514.328125 291.273438 L 522.960938 291.273438 L 522.960938 302.398438 L 520.09375 302.398438 L 519.65625 299.8125 C 518.820312 300.796875 518.070312 301.488281 517.40625 301.890625 Z M 526.695312 281.671875 L 531.023438 281.671875 L 531.023438 298.671875 L 541.289062 298.671875 L 541.289062 302.398438 L 526.695312 302.398438 Z M 481.5 280.222656 "/>
</g>
</svg>
