<?xml version="1.0" encoding="UTF-8"?>
<svg xmlns="http://www.w3.org/2000/svg" xmlns:xlink="http://www.w3.org/1999/xlink" width="1024pt" height="576pt" viewBox="0 0 1024 576" version="1.1">
<g id="surface153">
<rect x="0" y="0" width="1024" height="576" style="fill:rgb(79.607843%,56.470588%,30.196078%);fill-opacity:1;stroke:none;"/>
<path style=" stroke:none;fill-rule:nonzero;fill:rgb(100%,100%,100%);fill-opacity:1;" d="M 445.945312 288.730469 C 447.003906 287.378906 448.824219 286.703125 451.402344 286.703125 C 453.082031 286.703125 454.570312 287.039062 455.875 287.703125 C 457.179688 288.367188 457.828125 289.625 457.828125 291.472656 L 457.828125 298.503906 C 457.828125 298.992188 457.839844 299.582031 457.859375 300.273438 C 457.886719 300.800781 457.964844 301.15625 458.097656 301.34375 C 458.226562 301.53125 458.425781 301.6875 458.6875 301.808594 L 458.6875 302.398438 L 454.328125 302.398438 C 454.207031 302.089844 454.121094 301.796875 454.074219 301.527344 C 454.027344 301.253906 453.992188 300.945312 453.960938 300.597656 C 453.410156 301.199219 452.773438 301.710938 452.050781 302.132812 C 451.1875 302.628906 450.210938 302.875 449.125 302.875 C 447.738281 302.875 446.589844 302.480469 445.6875 301.6875 C 444.78125 300.894531 444.328125 299.773438 444.328125 298.320312 C 444.328125 296.4375 445.054688 295.070312 446.507812 294.226562 C 447.304688 293.769531 448.476562 293.441406 450.023438 293.242188 L 451.390625 293.074219 C 452.128906 292.980469 452.660156 292.863281 452.976562 292.722656 C 453.550781 292.480469 453.835938 292.101562 453.835938 291.585938 C 453.835938 290.957031 453.617188 290.523438 453.183594 290.285156 C 452.746094 290.046875 452.105469 289.925781 451.261719 289.925781 C 450.316406 289.925781 449.644531 290.160156 449.25 290.628906 C 448.96875 290.976562 448.78125 291.445312 448.6875 292.035156 L 444.820312 292.035156 C 444.90625 290.695312 445.28125 289.59375 445.945312 288.730469 Z M 448.929688 299.5 C 449.304688 299.808594 449.761719 299.964844 450.304688 299.964844 C 451.167969 299.964844 451.964844 299.710938 452.691406 299.207031 C 453.417969 298.699219 453.792969 297.777344 453.820312 296.4375 L 453.820312 294.945312 C 453.566406 295.105469 453.3125 295.234375 453.054688 295.332031 C 452.796875 295.429688 452.445312 295.523438 451.992188 295.605469 L 451.09375 295.773438 C 450.25 295.925781 449.644531 296.109375 449.28125 296.324219 C 448.660156 296.6875 448.351562 297.257812 448.351562 298.023438 C 448.351562 298.707031 448.542969 299.203125 448.929688 299.5 Z M 469.078125 290.769531 C 467.464844 290.769531 466.382812 291.292969 465.828125 292.34375 C 465.519531 292.933594 465.363281 293.84375 465.363281 295.070312 L 465.363281 302.398438 L 461.328125 302.398438 L 461.328125 287.070312 L 465.152344 287.070312 L 465.152344 289.742188 C 465.773438 288.71875 466.3125 288.023438 466.769531 287.648438 C 467.519531 287.019531 468.496094 286.703125 469.695312 286.703125 C 469.769531 286.703125 469.832031 286.707031 469.886719 286.710938 C 469.9375 286.714844 470.050781 286.722656 470.230469 286.734375 L 470.230469 290.839844 C 469.976562 290.8125 469.75 290.792969 469.554688 290.78125 C 469.359375 290.773438 469.199219 290.769531 469.078125 290.769531 Z M 485.632812 292.570312 L 481.523438 292.570312 C 481.449219 291.996094 481.257812 291.480469 480.949219 291.023438 C 480.5 290.402344 479.800781 290.09375 478.851562 290.09375 C 477.503906 290.09375 476.578125 290.765625 476.082031 292.105469 C 475.820312 292.816406 475.6875 293.765625 475.6875 294.945312 C 475.6875 296.070312 475.820312 296.976562 476.082031 297.660156 C 476.5625 298.933594 477.460938 299.570312 478.78125 299.570312 C 479.71875 299.570312 480.386719 299.320312 480.78125 298.8125 C 481.175781 298.304688 481.414062 297.648438 481.496094 296.84375 L 485.589844 296.84375 C 485.496094 298.0625 485.054688 299.214844 484.265625 300.304688 C 483.011719 302.058594 481.148438 302.933594 478.683594 302.933594 C 476.21875 302.933594 474.40625 302.203125 473.242188 300.738281 C 472.078125 299.277344 471.5 297.378906 471.5 295.042969 C 471.5 292.410156 472.140625 290.359375 473.425781 288.898438 C 474.710938 287.4375 476.480469 286.703125 478.742188 286.703125 C 480.664062 286.703125 482.234375 287.136719 483.457031 288 C 484.679688 288.863281 485.40625 290.382812 485.632812 292.570312 Z M 502.222656 293.398438 L 502.222656 302.398438 L 498.128906 302.398438 L 498.128906 293.074219 C 498.128906 292.25 497.988281 291.585938 497.707031 291.078125 C 497.34375 290.367188 496.648438 290.007812 495.625 290.007812 C 494.566406 290.007812 493.761719 290.363281 493.214844 291.070312 C 492.667969 291.777344 492.390625 292.789062 492.390625 294.101562 L 492.390625 302.398438 L 488.398438 302.398438 L 488.398438 281.742188 L 492.390625 281.742188 L 492.390625 289.066406 C 492.972656 288.175781 493.644531 287.554688 494.410156 287.203125 C 495.175781 286.851562 495.976562 286.675781 496.820312 286.675781 C 497.769531 286.675781 498.628906 286.839844 499.402344 287.167969 C 500.175781 287.496094 500.8125 288 501.308594 288.671875 C 501.730469 289.246094 501.988281 289.832031 502.082031 290.4375 C 502.175781 291.042969 502.222656 292.03125 502.222656 293.398438 Z M 519.492188 297.898438 C 519.386719 298.808594 518.914062 299.730469 518.070312 300.667969 C 516.757812 302.160156 514.921875 302.90625 512.558594 302.90625 C 510.609375 302.90625 508.886719 302.277344 507.398438 301.019531 C 505.90625 299.765625 505.160156 297.71875 505.160156 294.890625 C 505.160156 292.238281 505.832031 290.203125 507.179688 288.785156 C 508.523438 287.371094 510.269531 286.664062 512.417969 286.664062 C 513.691406 286.664062 514.839844 286.902344 515.863281 287.378906 C 516.882812 287.859375 517.726562 288.613281 518.394531 289.644531 C 518.992188 290.554688 519.382812 291.609375 519.5625 292.808594 C 519.664062 293.511719 519.707031 294.523438 519.6875 295.84375 L 509.195312 295.84375 C 509.253906 297.382812 509.734375 298.460938 510.644531 299.078125 C 511.199219 299.464844 511.863281 299.65625 512.640625 299.65625 C 513.464844 299.65625 514.136719 299.421875 514.652344 298.953125 C 514.933594 298.699219 515.183594 298.347656 515.398438 297.898438 Z M 515.523438 293.203125 C 515.457031 292.144531 515.136719 291.339844 514.5625 290.789062 C 513.984375 290.242188 513.269531 289.96875 512.417969 289.96875 C 511.488281 289.96875 510.769531 290.257812 510.257812 290.839844 C 509.746094 291.421875 509.425781 292.207031 509.296875 293.203125 Z M 529.386719 299.542969 L 529.386719 302.539062 L 527.488281 302.609375 C 525.59375 302.675781 524.300781 302.347656 523.609375 301.625 C 523.160156 301.164062 522.933594 300.457031 522.933594 299.5 L 522.933594 290.066406 L 520.796875 290.066406 L 520.796875 287.210938 L 522.933594 287.210938 L 522.933594 282.9375 L 526.898438 282.9375 L 526.898438 287.210938 L 529.386719 287.210938 L 529.386719 290.066406 L 526.898438 290.066406 L 526.898438 298.164062 C 526.898438 298.792969 526.976562 299.183594 527.136719 299.339844 C 527.296875 299.496094 527.785156 299.570312 528.601562 299.570312 C 528.722656 299.570312 528.851562 299.570312 528.988281 299.566406 C 529.125 299.5625 529.257812 299.554688 529.386719 299.542969 Z M 538.601562 298.375 L 541.765625 287.070312 L 546.023438 287.070312 L 540.765625 302.144531 C 539.753906 305.050781 538.953125 306.855469 538.359375 307.550781 C 537.769531 308.25 536.589844 308.601562 534.816406 308.601562 C 534.460938 308.601562 534.175781 308.597656 533.960938 308.59375 C 533.746094 308.589844 533.421875 308.570312 532.988281 308.542969 L 532.988281 305.335938 L 533.496094 305.367188 C 533.890625 305.386719 534.265625 305.371094 534.621094 305.324219 C 534.976562 305.277344 535.277344 305.167969 535.519531 305 C 535.753906 304.839844 535.972656 304.507812 536.175781 304 C 536.375 303.496094 536.457031 303.1875 536.421875 303.074219 L 530.796875 287.070312 L 535.253906 287.070312 Z M 561.210938 288.714844 C 562.449219 290.039062 563.066406 291.976562 563.066406 294.539062 C 563.066406 297.238281 562.457031 299.296875 561.246094 300.710938 C 560.03125 302.125 558.46875 302.835938 556.554688 302.835938 C 555.335938 302.835938 554.324219 302.53125 553.515625 301.921875 C 553.074219 301.582031 552.644531 301.089844 552.222656 300.445312 L 552.222656 308.429688 L 548.257812 308.429688 L 548.257812 287.070312 L 552.097656 287.070312 L 552.097656 289.335938 C 552.527344 288.667969 552.988281 288.144531 553.476562 287.757812 C 554.367188 287.074219 555.425781 286.734375 556.652344 286.734375 C 558.445312 286.734375 559.960938 287.394531 561.210938 288.714844 Z M 558.929688 294.734375 C 558.929688 293.554688 558.660156 292.507812 558.121094 291.597656 C 557.582031 290.6875 556.710938 290.234375 555.5 290.234375 C 554.046875 290.234375 553.046875 290.921875 552.503906 292.300781 C 552.222656 293.03125 552.082031 293.960938 552.082031 295.085938 C 552.082031 296.867188 552.554688 298.117188 553.503906 298.839844 C 554.066406 299.261719 554.730469 299.472656 555.5 299.472656 C 556.617188 299.472656 557.464844 299.042969 558.050781 298.179688 C 558.636719 297.316406 558.929688 296.167969 558.929688 294.734375 Z M 579.492188 297.898438 C 579.386719 298.808594 578.914062 299.730469 578.070312 300.667969 C 576.757812 302.160156 574.921875 302.90625 572.558594 302.90625 C 570.609375 302.90625 568.886719 302.277344 567.398438 301.019531 C 565.90625 299.765625 565.160156 297.71875 565.160156 294.890625 C 565.160156 292.238281 565.832031 290.203125 567.179688 288.785156 C 568.523438 287.371094 570.269531 286.664062 572.417969 286.664062 C 573.691406 286.664062 574.839844 286.902344 575.863281 287.378906 C 576.882812 287.859375 577.726562 288.613281 578.394531 289.644531 C 578.992188 290.554688 579.382812 291.609375 579.5625 292.808594 C 579.664062 293.511719 579.707031 294.523438 579.6875 295.84375 L 569.195312 295.84375 C 569.253906 297.382812 569.734375 298.460938 570.644531 299.078125 C 571.199219 299.464844 571.863281 299.65625 572.640625 299.65625 C 573.464844 299.65625 574.136719 299.421875 574.652344 298.953125 C 574.933594 298.699219 575.183594 298.347656 575.398438 297.898438 Z M 575.523438 293.203125 C 575.457031 292.144531 575.136719 291.339844 574.5625 290.789062 C 573.984375 290.242188 573.269531 289.96875 572.417969 289.96875 C 571.488281 289.96875 570.769531 290.257812 570.257812 290.839844 C 569.746094 291.421875 569.425781 292.207031 569.296875 293.203125 Z M 443.5 280.222656 "/>
</g>
</svg>
