<?xml version="1.0" encoding="UTF-8"?>
<svg xmlns="http://www.w3.org/2000/svg" xmlns:xlink="http://www.w3.org/1999/xlink" width="1024pt" height="576pt" viewBox="0 0 1024 576" version="1.1">
<g id="surface194">
<rect x="0" y="0" width="1024" height="576" style="fill:rgb(12.54902%,10.196078%,13.72549%);fill-opacity:1;stroke:none;"/>
<path style=" stroke:none;fill-rule:nonzero;fill:rgb(100%,100%,100%);fill-opacity:1;" d="M 491.160156 302.398438 L 487.125 302.398438 L 487.125 281.671875 L 493.421875 281.671875 L 497.191406 297.96875 L 500.933594 281.671875 L 507.164062 281.671875 L 507.164062 302.398438 L 503.125 302.398438 L 503.125 288.378906 C 503.125 287.976562 503.132812 287.410156 503.140625 286.683594 C 503.148438 285.957031 503.15625 285.398438 503.15625 285.003906 L 499.230469 302.398438 L 495.027344 302.398438 L 491.132812 285.003906 C 491.132812 285.398438 491.136719 285.957031 491.144531 286.683594 C 491.15625 287.410156 491.160156 287.976562 491.160156 288.378906 Z M 520.363281 302.976562 C 517.398438 302.976562 515.136719 302.167969 513.570312 300.554688 C 511.46875 298.578125 510.421875 295.726562 510.421875 292.007812 C 510.421875 288.210938 511.46875 285.359375 513.570312 283.457031 C 515.136719 281.84375 517.398438 281.039062 520.363281 281.039062 C 523.324219 281.039062 525.589844 281.84375 527.15625 283.457031 C 529.246094 285.359375 530.289062 288.210938 530.289062 292.007812 C 530.289062 295.730469 529.246094 298.578125 527.15625 300.554688 C 525.589844 302.167969 523.324219 302.976562 520.363281 302.976562 Z M 524.453125 297.40625 C 525.457031 296.140625 525.960938 294.339844 525.960938 292.007812 C 525.960938 289.683594 525.457031 287.882812 524.449219 286.613281 C 523.441406 285.34375 522.078125 284.707031 520.363281 284.707031 C 518.648438 284.707031 517.277344 285.339844 516.257812 286.605469 C 515.234375 287.871094 514.722656 289.671875 514.722656 292.007812 C 514.722656 294.339844 515.234375 296.140625 516.257812 297.40625 C 517.277344 298.671875 518.648438 299.304688 520.363281 299.304688 C 522.078125 299.304688 523.441406 298.671875 524.453125 297.40625 Z M 532.855469 281.671875 L 537.160156 281.671875 L 537.160156 302.398438 L 532.855469 302.398438 Z M 485 280.222656 "/>
</g>
</svg>
