<?xml version="1.0" encoding="UTF-8"?>
<svg xmlns="http://www.w3.org/2000/svg" xmlns:xlink="http://www.w3.org/1999/xlink" width="1024pt" height="576pt" viewBox="0 0 1024 576" version="1.1">
<g id="surface199">
<rect x="0" y="0" width="1024" height="576" style="fill:rgb(36.470588%,43.921569%,49.803922%);fill-opacity:1;stroke:none;"/>
<path style=" stroke:none;fill-rule:nonzero;fill:rgb(100%,100%,100%);fill-opacity:1;" d="M 433.660156 302.398438 L 429.625 302.398438 L 429.625 281.671875 L 435.921875 281.671875 L 439.691406 297.96875 L 443.433594 281.671875 L 449.664062 281.671875 L 449.664062 302.398438 L 445.625 302.398438 L 445.625 288.378906 C 445.625 287.976562 445.632812 287.410156 445.640625 286.683594 C 445.648438 285.957031 445.65625 285.398438 445.65625 285.003906 L 441.730469 302.398438 L 437.527344 302.398438 L 433.632812 285.003906 C 433.632812 285.398438 433.636719 285.957031 433.644531 286.683594 C 433.65625 287.410156 433.660156 287.976562 433.660156 288.378906 Z M 462.863281 302.976562 C 459.898438 302.976562 457.636719 302.167969 456.070312 300.554688 C 453.96875 298.578125 452.921875 295.726562 452.921875 292.007812 C 452.921875 288.210938 453.96875 285.359375 456.070312 283.457031 C 457.636719 281.84375 459.898438 281.039062 462.863281 281.039062 C 465.824219 281.039062 468.089844 281.84375 469.65625 283.457031 C 471.746094 285.359375 472.789062 288.210938 472.789062 292.007812 C 472.789062 295.730469 471.746094 298.578125 469.65625 300.554688 C 468.089844 302.167969 465.824219 302.976562 462.863281 302.976562 Z M 466.953125 297.40625 C 467.957031 296.140625 468.460938 294.339844 468.460938 292.007812 C 468.460938 289.683594 467.957031 287.882812 466.949219 286.613281 C 465.941406 285.34375 464.578125 284.707031 462.863281 284.707031 C 461.148438 284.707031 459.777344 285.339844 458.757812 286.605469 C 457.734375 287.871094 457.222656 289.671875 457.222656 292.007812 C 457.222656 294.339844 457.734375 296.140625 458.757812 297.40625 C 459.777344 298.671875 461.148438 299.304688 462.863281 299.304688 C 464.578125 299.304688 465.941406 298.671875 466.953125 297.40625 Z M 490.359375 302.398438 L 474.230469 302.398438 L 474.230469 298.742188 L 484.933594 285.339844 L 474.5 285.339844 L 474.5 281.671875 L 490.332031 281.671875 L 490.332031 285.144531 L 479.492188 298.742188 L 490.359375 298.742188 Z M 505.828125 298.136719 L 498.195312 298.136719 L 496.757812 302.398438 L 492.230469 302.398438 L 499.628906 281.671875 L 504.523438 281.671875 L 511.863281 302.398438 L 507.164062 302.398438 Z M 504.621094 294.566406 L 502.03125 286.410156 L 499.359375 294.566406 Z M 523.496094 294.269531 L 519.023438 294.269531 L 519.023438 302.398438 L 514.792969 302.398438 L 514.792969 281.671875 L 524.960938 281.671875 C 526.414062 281.699219 527.53125 281.875 528.3125 282.203125 C 529.097656 282.53125 529.757812 283.015625 530.304688 283.652344 C 530.753906 284.179688 531.109375 284.757812 531.371094 285.398438 C 531.632812 286.035156 531.765625 286.761719 531.765625 287.578125 C 531.765625 288.5625 531.515625 289.527344 531.019531 290.480469 C 530.523438 291.433594 529.703125 292.105469 528.558594 292.5 C 529.515625 292.882812 530.191406 293.429688 530.589844 294.136719 C 530.988281 294.84375 531.1875 295.925781 531.1875 297.378906 L 531.1875 298.769531 C 531.1875 299.71875 531.226562 300.359375 531.300781 300.695312 C 531.414062 301.230469 531.675781 301.625 532.089844 301.878906 L 532.089844 302.398438 L 527.320312 302.398438 C 527.191406 301.9375 527.097656 301.570312 527.039062 301.289062 C 526.925781 300.707031 526.867188 300.109375 526.859375 299.5 L 526.828125 297.574219 C 526.808594 296.253906 526.570312 295.371094 526.105469 294.929688 C 525.640625 294.488281 524.773438 294.269531 523.496094 294.269531 Z M 526.125 290.5 C 526.988281 290.105469 527.421875 289.328125 527.421875 288.167969 C 527.421875 286.910156 527.003906 286.066406 526.167969 285.636719 C 525.699219 285.390625 524.996094 285.269531 524.058594 285.269531 L 519.023438 285.269531 L 519.023438 290.839844 L 523.933594 290.839844 C 524.90625 290.839844 525.640625 290.726562 526.125 290.5 Z M 550.753906 281.671875 L 550.753906 285.339844 L 544.554688 285.339844 L 544.554688 302.398438 L 540.195312 302.398438 L 540.195312 285.339844 L 533.964844 285.339844 L 533.964844 281.671875 Z M 557.660156 302.398438 L 553.625 302.398438 L 553.625 281.671875 L 559.921875 281.671875 L 563.691406 297.96875 L 567.433594 281.671875 L 573.664062 281.671875 L 573.664062 302.398438 L 569.625 302.398438 L 569.625 288.378906 C 569.625 287.976562 569.632812 287.410156 569.640625 286.683594 C 569.648438 285.957031 569.65625 285.398438 569.65625 285.003906 L 565.730469 302.398438 L 561.527344 302.398438 L 557.632812 285.003906 C 557.632812 285.398438 557.636719 285.957031 557.644531 286.683594 C 557.65625 287.410156 557.660156 287.976562 557.660156 288.378906 Z M 592.320312 300.851562 C 590.773438 302.265625 588.792969 302.976562 586.382812 302.976562 C 583.402344 302.976562 581.058594 302.019531 579.351562 300.105469 C 577.644531 298.183594 576.792969 295.550781 576.792969 292.203125 C 576.792969 288.585938 577.765625 285.796875 579.703125 283.835938 C 581.390625 282.128906 583.539062 281.277344 586.144531 281.277344 C 589.632812 281.277344 592.183594 282.421875 593.796875 284.707031 C 594.6875 285.992188 595.164062 287.28125 595.230469 288.574219 L 590.898438 288.574219 C 590.617188 287.582031 590.257812 286.832031 589.816406 286.324219 C 589.027344 285.425781 587.859375 284.976562 586.3125 284.976562 C 584.738281 284.976562 583.496094 285.609375 582.585938 286.878906 C 581.675781 288.148438 581.222656 289.949219 581.222656 292.273438 C 581.222656 294.597656 581.703125 296.339844 582.664062 297.496094 C 583.625 298.65625 584.847656 299.234375 586.328125 299.234375 C 587.847656 299.234375 589.003906 298.738281 589.800781 297.742188 C 590.242188 297.207031 590.609375 296.40625 590.898438 295.339844 L 595.1875 295.339844 C 594.8125 297.597656 593.855469 299.4375 592.320312 300.851562 Z M 427.5 280.222656 "/>
</g>
</svg>
