<?xml version="1.0" encoding="UTF-8"?>
<svg xmlns="http://www.w3.org/2000/svg" xmlns:xlink="http://www.w3.org/1999/xlink" width="1024pt" height="576pt" viewBox="0 0 1024 576" version="1.1">
<g id="surface218">
<rect x="0" y="0" width="1024" height="576" style="fill:rgb(79.607843%,56.470588%,30.196078%);fill-opacity:1;stroke:none;"/>
<path style=" stroke:none;fill-rule:nonzero;fill:rgb(100%,100%,100%);fill-opacity:1;" d="M 451.496094 294.945312 L 447.09375 294.945312 L 447.09375 302.398438 L 442.792969 302.398438 L 442.792969 281.671875 L 451.820312 281.671875 C 453.902344 281.671875 455.5625 282.203125 456.796875 283.273438 C 458.035156 284.34375 458.65625 285.996094 458.65625 288.238281 C 458.65625 290.683594 458.035156 292.414062 456.796875 293.425781 C 455.558594 294.4375 453.792969 294.945312 451.496094 294.945312 Z M 453.523438 290.628906 C 454.085938 290.132812 454.367188 289.34375 454.367188 288.265625 C 454.367188 287.1875 454.082031 286.417969 453.515625 285.960938 C 452.949219 285.5 452.152344 285.269531 451.132812 285.269531 L 447.09375 285.269531 L 447.09375 291.375 L 451.132812 291.375 C 452.152344 291.375 452.949219 291.125 453.523438 290.628906 Z M 470.625 302.398438 L 461.695312 302.398438 L 461.695312 281.671875 L 470.625 281.671875 C 471.910156 281.691406 472.976562 281.839844 473.828125 282.121094 C 475.28125 282.597656 476.460938 283.476562 477.359375 284.75 C 478.082031 285.78125 478.574219 286.898438 478.835938 288.097656 C 479.097656 289.296875 479.230469 290.441406 479.230469 291.527344 C 479.230469 294.285156 478.675781 296.617188 477.570312 298.53125 C 476.070312 301.109375 473.753906 302.398438 470.625 302.398438 Z M 473.84375 286.957031 C 473.179688 285.832031 471.859375 285.269531 469.890625 285.269531 L 465.898438 285.269531 L 465.898438 298.796875 L 469.890625 298.796875 C 471.933594 298.796875 473.359375 297.789062 474.167969 295.773438 C 474.609375 294.667969 474.828125 293.351562 474.828125 291.824219 C 474.828125 289.714844 474.5 288.09375 473.84375 286.957031 Z M 497.121094 293.34375 L 487.054688 293.34375 L 487.054688 298.671875 L 498.527344 298.671875 L 498.527344 302.398438 L 482.820312 302.398438 L 482.820312 281.671875 L 498.023438 281.671875 L 498.023438 285.339844 L 487.054688 285.339844 L 487.054688 289.742188 L 497.121094 289.742188 Z M 497.925781 302.398438 L 505.953125 281.039062 L 509.289062 281.039062 L 501.230469 302.398438 Z M 518.496094 294.945312 L 514.09375 294.945312 L 514.09375 302.398438 L 509.792969 302.398438 L 509.792969 281.671875 L 518.820312 281.671875 C 520.902344 281.671875 522.5625 282.203125 523.796875 283.273438 C 525.035156 284.34375 525.65625 285.996094 525.65625 288.238281 C 525.65625 290.683594 525.035156 292.414062 523.796875 293.425781 C 522.558594 294.4375 520.792969 294.945312 518.496094 294.945312 Z M 520.523438 290.628906 C 521.085938 290.132812 521.367188 289.34375 521.367188 288.265625 C 521.367188 287.1875 521.082031 286.417969 520.515625 285.960938 C 519.949219 285.5 519.152344 285.269531 518.132812 285.269531 L 514.09375 285.269531 L 514.09375 291.375 L 518.132812 291.375 C 519.152344 291.375 519.949219 291.125 520.523438 290.628906 Z M 538.828125 298.136719 L 531.195312 298.136719 L 529.757812 302.398438 L 525.230469 302.398438 L 532.628906 281.671875 L 537.523438 281.671875 L 544.863281 302.398438 L 540.164062 302.398438 Z M 537.621094 294.566406 L 535.03125 286.410156 L 532.359375 294.566406 Z M 555.21875 299.402344 C 556.238281 299.402344 557.070312 299.289062 557.707031 299.066406 C 558.914062 298.632812 559.519531 297.832031 559.519531 296.660156 C 559.519531 295.976562 559.21875 295.445312 558.621094 295.070312 C 558.019531 294.707031 557.078125 294.382812 555.792969 294.101562 L 553.601562 293.609375 C 551.445312 293.121094 549.953125 292.59375 549.128906 292.019531 C 547.730469 291.0625 547.03125 289.570312 547.03125 287.535156 C 547.03125 285.679688 547.707031 284.136719 549.058594 282.90625 C 550.40625 281.679688 552.390625 281.066406 555.007812 281.066406 C 557.191406 281.066406 559.054688 281.644531 560.597656 282.800781 C 562.140625 283.960938 562.945312 285.640625 563.023438 287.84375 L 558.859375 287.84375 C 558.785156 286.597656 558.242188 285.710938 557.226562 285.1875 C 556.550781 284.839844 555.714844 284.664062 554.710938 284.664062 C 553.59375 284.664062 552.703125 284.890625 552.039062 285.339844 C 551.375 285.789062 551.039062 286.417969 551.039062 287.226562 C 551.039062 287.964844 551.367188 288.519531 552.023438 288.882812 C 552.445312 289.128906 553.347656 289.414062 554.726562 289.742188 L 558.296875 290.601562 C 559.863281 290.976562 561.042969 291.476562 561.839844 292.105469 C 563.078125 293.078125 563.695312 294.492188 563.695312 296.335938 C 563.695312 298.230469 562.972656 299.804688 561.523438 301.054688 C 560.074219 302.308594 558.03125 302.933594 555.386719 302.933594 C 552.6875 302.933594 550.5625 302.316406 549.015625 301.082031 C 547.46875 299.851562 546.695312 298.15625 546.695312 296 L 550.828125 296 C 550.960938 296.945312 551.21875 297.65625 551.601562 298.125 C 552.304688 298.976562 553.511719 299.402344 555.21875 299.402344 Z M 581.121094 293.34375 L 571.054688 293.34375 L 571.054688 298.671875 L 582.527344 298.671875 L 582.527344 302.398438 L 566.820312 302.398438 L 566.820312 281.671875 L 582.023438 281.671875 L 582.023438 285.339844 L 571.054688 285.339844 L 571.054688 289.742188 L 581.121094 289.742188 Z M 440.5 280.222656 "/>
</g>
</svg>
