<?xml version="1.0" encoding="UTF-8"?>
<svg xmlns="http://www.w3.org/2000/svg" xmlns:xlink="http://www.w3.org/1999/xlink" width="1024pt" height="576pt" viewBox="0 0 1024 576" version="1.1">
<g id="surface228">
<rect x="0" y="0" width="1024" height="576" style="fill:rgb(52.941176%,59.215686%,69.803922%);fill-opacity:1;stroke:none;"/>
<path style=" stroke:none;fill-rule:nonzero;fill:rgb(100%,100%,100%);fill-opacity:1;" d="M 492.996094 294.269531 L 488.523438 294.269531 L 488.523438 302.398438 L 484.292969 302.398438 L 484.292969 281.671875 L 494.460938 281.671875 C 495.914062 281.699219 497.03125 281.875 497.8125 282.203125 C 498.597656 282.53125 499.257812 283.015625 499.804688 283.652344 C 500.253906 284.179688 500.609375 284.757812 500.871094 285.398438 C 501.132812 286.035156 501.265625 286.761719 501.265625 287.578125 C 501.265625 288.5625 501.015625 289.527344 500.519531 290.480469 C 500.023438 291.433594 499.203125 292.105469 498.058594 292.5 C 499.015625 292.882812 499.691406 293.429688 500.089844 294.136719 C 500.488281 294.84375 500.6875 295.925781 500.6875 297.378906 L 500.6875 298.769531 C 500.6875 299.71875 500.726562 300.359375 500.800781 300.695312 C 500.914062 301.230469 501.175781 301.625 501.589844 301.878906 L 501.589844 302.398438 L 496.820312 302.398438 C 496.691406 301.9375 496.597656 301.570312 496.539062 301.289062 C 496.425781 300.707031 496.367188 300.109375 496.359375 299.5 L 496.328125 297.574219 C 496.308594 296.253906 496.070312 295.371094 495.605469 294.929688 C 495.140625 294.488281 494.273438 294.269531 492.996094 294.269531 Z M 495.625 290.5 C 496.488281 290.105469 496.921875 289.328125 496.921875 288.167969 C 496.921875 286.910156 496.503906 286.066406 495.667969 285.636719 C 495.199219 285.390625 494.496094 285.269531 493.558594 285.269531 L 488.523438 285.269531 L 488.523438 290.839844 L 493.433594 290.839844 C 494.40625 290.839844 495.140625 290.726562 495.625 290.5 Z M 520.253906 281.671875 L 520.253906 285.339844 L 514.054688 285.339844 L 514.054688 302.398438 L 509.695312 302.398438 L 509.695312 285.339844 L 503.464844 285.339844 L 503.464844 281.671875 Z M 532.65625 302.398438 L 523.265625 302.398438 L 523.265625 281.671875 L 533.332031 281.671875 C 535.875 281.707031 537.671875 282.445312 538.734375 283.878906 C 539.371094 284.757812 539.6875 285.8125 539.6875 287.042969 C 539.6875 288.308594 539.371094 289.324219 538.734375 290.09375 C 538.378906 290.523438 537.851562 290.917969 537.15625 291.273438 C 538.214844 291.660156 539.015625 292.269531 539.554688 293.101562 C 540.09375 293.9375 540.363281 294.949219 540.363281 296.140625 C 540.363281 297.367188 540.054688 298.46875 539.4375 299.445312 C 539.042969 300.09375 538.550781 300.636719 537.960938 301.078125 C 537.292969 301.582031 536.507812 301.929688 535.605469 302.117188 C 534.699219 302.304688 533.71875 302.398438 532.65625 302.398438 Z M 532.558594 293.273438 L 527.398438 293.273438 L 527.398438 298.796875 L 532.488281 298.796875 C 533.398438 298.796875 534.105469 298.675781 534.613281 298.433594 C 535.53125 297.984375 535.992188 297.121094 535.992188 295.84375 C 535.992188 294.765625 535.546875 294.027344 534.65625 293.625 C 534.160156 293.398438 533.460938 293.28125 532.558594 293.273438 Z M 534.710938 289.320312 C 535.273438 288.984375 535.554688 288.378906 535.554688 287.507812 C 535.554688 286.542969 535.179688 285.902344 534.429688 285.59375 C 533.78125 285.378906 532.957031 285.269531 531.953125 285.269531 L 527.398438 285.269531 L 527.398438 289.839844 L 532.488281 289.839844 C 533.398438 289.839844 534.140625 289.667969 534.710938 289.320312 Z M 482 280.222656 "/>
</g>
</svg>
