<?xml version="1.0" encoding="UTF-8"?>
<svg xmlns="http://www.w3.org/2000/svg" xmlns:xlink="http://www.w3.org/1999/xlink" width="1024pt" height="576pt" viewBox="0 0 1024 576" version="1.1">
<g id="surface266">
<rect x="0" y="0" width="1024" height="576" style="fill:rgb(12.54902%,10.196078%,13.72549%);fill-opacity:1;stroke:none;"/>
<path style=" stroke:none;fill-rule:nonzero;fill:rgb(100%,100%,100%);fill-opacity:1;" d="M 429.21875 299.402344 C 430.238281 299.402344 431.070312 299.289062 431.707031 299.066406 C 432.914062 298.632812 433.519531 297.832031 433.519531 296.660156 C 433.519531 295.976562 433.21875 295.445312 432.621094 295.070312 C 432.019531 294.707031 431.078125 294.382812 429.792969 294.101562 L 427.601562 293.609375 C 425.445312 293.121094 423.953125 292.59375 423.128906 292.019531 C 421.730469 291.0625 421.03125 289.570312 421.03125 287.535156 C 421.03125 285.679688 421.707031 284.136719 423.058594 282.90625 C 424.40625 281.679688 426.390625 281.066406 429.007812 281.066406 C 431.191406 281.066406 433.054688 281.644531 434.597656 282.800781 C 436.140625 283.960938 436.945312 285.640625 437.023438 287.84375 L 432.859375 287.84375 C 432.785156 286.597656 432.242188 285.710938 431.226562 285.1875 C 430.550781 284.839844 429.714844 284.664062 428.710938 284.664062 C 427.59375 284.664062 426.703125 284.890625 426.039062 285.339844 C 425.375 285.789062 425.039062 286.417969 425.039062 287.226562 C 425.039062 287.964844 425.367188 288.519531 426.023438 288.882812 C 426.445312 289.128906 427.347656 289.414062 428.726562 289.742188 L 432.296875 290.601562 C 433.863281 290.976562 435.042969 291.476562 435.839844 292.105469 C 437.078125 293.078125 437.695312 294.492188 437.695312 296.335938 C 437.695312 298.230469 436.972656 299.804688 435.523438 301.054688 C 434.074219 302.308594 432.03125 302.933594 429.386719 302.933594 C 426.6875 302.933594 424.5625 302.316406 423.015625 301.082031 C 421.46875 299.851562 420.695312 298.15625 420.695312 296 L 424.828125 296 C 424.960938 296.945312 425.21875 297.65625 425.601562 298.125 C 426.304688 298.976562 427.511719 299.402344 429.21875 299.402344 Z M 455.320312 300.851562 C 453.773438 302.265625 451.792969 302.976562 449.382812 302.976562 C 446.402344 302.976562 444.058594 302.019531 442.351562 300.105469 C 440.644531 298.183594 439.792969 295.550781 439.792969 292.203125 C 439.792969 288.585938 440.765625 285.796875 442.703125 283.835938 C 444.390625 282.128906 446.539062 281.277344 449.144531 281.277344 C 452.632812 281.277344 455.183594 282.421875 456.796875 284.707031 C 457.6875 285.992188 458.164062 287.28125 458.230469 288.574219 L 453.898438 288.574219 C 453.617188 287.582031 453.257812 286.832031 452.816406 286.324219 C 452.027344 285.425781 450.859375 284.976562 449.3125 284.976562 C 447.738281 284.976562 446.496094 285.609375 445.585938 286.878906 C 444.675781 288.148438 444.222656 289.949219 444.222656 292.273438 C 444.222656 294.597656 444.703125 296.339844 445.664062 297.496094 C 446.625 298.65625 447.847656 299.234375 449.328125 299.234375 C 450.847656 299.234375 452.003906 298.738281 452.800781 297.742188 C 453.242188 297.207031 453.609375 296.40625 453.898438 295.339844 L 458.1875 295.339844 C 457.8125 297.597656 456.855469 299.4375 455.320312 300.851562 Z M 470.496094 294.269531 L 466.023438 294.269531 L 466.023438 302.398438 L 461.792969 302.398438 L 461.792969 281.671875 L 471.960938 281.671875 C 473.414062 281.699219 474.53125 281.875 475.3125 282.203125 C 476.097656 282.53125 476.757812 283.015625 477.304688 283.652344 C 477.753906 284.179688 478.109375 284.757812 478.371094 285.398438 C 478.632812 286.035156 478.765625 286.761719 478.765625 287.578125 C 478.765625 288.5625 478.515625 289.527344 478.019531 290.480469 C 477.523438 291.433594 476.703125 292.105469 475.558594 292.5 C 476.515625 292.882812 477.191406 293.429688 477.589844 294.136719 C 477.988281 294.84375 478.1875 295.925781 478.1875 297.378906 L 478.1875 298.769531 C 478.1875 299.71875 478.226562 300.359375 478.300781 300.695312 C 478.414062 301.230469 478.675781 301.625 479.089844 301.878906 L 479.089844 302.398438 L 474.320312 302.398438 C 474.191406 301.9375 474.097656 301.570312 474.039062 301.289062 C 473.925781 300.707031 473.867188 300.109375 473.859375 299.5 L 473.828125 297.574219 C 473.808594 296.253906 473.570312 295.371094 473.105469 294.929688 C 472.640625 294.488281 471.773438 294.269531 470.496094 294.269531 Z M 473.125 290.5 C 473.988281 290.105469 474.421875 289.328125 474.421875 288.167969 C 474.421875 286.910156 474.003906 286.066406 473.167969 285.636719 C 472.699219 285.390625 471.996094 285.269531 471.058594 285.269531 L 466.023438 285.269531 L 466.023438 290.839844 L 470.933594 290.839844 C 471.90625 290.839844 472.640625 290.726562 473.125 290.5 Z M 494.828125 298.136719 L 487.195312 298.136719 L 485.757812 302.398438 L 481.230469 302.398438 L 488.628906 281.671875 L 493.523438 281.671875 L 500.863281 302.398438 L 496.164062 302.398438 Z M 493.621094 294.566406 L 491.03125 286.410156 L 488.359375 294.566406 Z M 507.660156 302.398438 L 503.625 302.398438 L 503.625 281.671875 L 509.921875 281.671875 L 513.691406 297.96875 L 517.433594 281.671875 L 523.664062 281.671875 L 523.664062 302.398438 L 519.625 302.398438 L 519.625 288.378906 C 519.625 287.976562 519.632812 287.410156 519.640625 286.683594 C 519.648438 285.957031 519.65625 285.398438 519.65625 285.003906 L 515.730469 302.398438 L 511.527344 302.398438 L 507.632812 285.003906 C 507.632812 285.398438 507.636719 285.957031 507.644531 286.683594 C 507.65625 287.410156 507.660156 287.976562 507.660156 288.378906 Z M 537.15625 302.398438 L 527.765625 302.398438 L 527.765625 281.671875 L 537.832031 281.671875 C 540.375 281.707031 542.171875 282.445312 543.234375 283.878906 C 543.871094 284.757812 544.1875 285.8125 544.1875 287.042969 C 544.1875 288.308594 543.871094 289.324219 543.234375 290.09375 C 542.878906 290.523438 542.351562 290.917969 541.65625 291.273438 C 542.714844 291.660156 543.515625 292.269531 544.054688 293.101562 C 544.59375 293.9375 544.863281 294.949219 544.863281 296.140625 C 544.863281 297.367188 544.554688 298.46875 543.9375 299.445312 C 543.542969 300.09375 543.050781 300.636719 542.460938 301.078125 C 541.792969 301.582031 541.007812 301.929688 540.105469 302.117188 C 539.199219 302.304688 538.21875 302.398438 537.15625 302.398438 Z M 537.058594 293.273438 L 531.898438 293.273438 L 531.898438 298.796875 L 536.988281 298.796875 C 537.898438 298.796875 538.605469 298.675781 539.113281 298.433594 C 540.03125 297.984375 540.492188 297.121094 540.492188 295.84375 C 540.492188 294.765625 540.046875 294.027344 539.15625 293.625 C 538.660156 293.398438 537.960938 293.28125 537.058594 293.273438 Z M 539.210938 289.320312 C 539.773438 288.984375 540.054688 288.378906 540.054688 287.507812 C 540.054688 286.542969 539.679688 285.902344 538.929688 285.59375 C 538.28125 285.378906 537.457031 285.269531 536.453125 285.269531 L 531.898438 285.269531 L 531.898438 289.839844 L 536.988281 289.839844 C 537.898438 289.839844 538.640625 289.667969 539.210938 289.320312 Z M 548.695312 281.671875 L 553.023438 281.671875 L 553.023438 298.671875 L 563.289062 298.671875 L 563.289062 302.398438 L 548.695312 302.398438 Z M 581.121094 293.34375 L 571.054688 293.34375 L 571.054688 298.671875 L 582.527344 298.671875 L 582.527344 302.398438 L 566.820312 302.398438 L 566.820312 281.671875 L 582.023438 281.671875 L 582.023438 285.339844 L 571.054688 285.339844 L 571.054688 289.742188 L 581.121094 289.742188 Z M 594.625 302.398438 L 585.695312 302.398438 L 585.695312 281.671875 L 594.625 281.671875 C 595.910156 281.691406 596.976562 281.839844 597.828125 282.121094 C 599.28125 282.597656 600.460938 283.476562 601.359375 284.75 C 602.082031 285.78125 602.574219 286.898438 602.835938 288.097656 C 603.097656 289.296875 603.230469 290.441406 603.230469 291.527344 C 603.230469 294.285156 602.675781 296.617188 601.570312 298.53125 C 600.070312 301.109375 597.753906 302.398438 594.625 302.398438 Z M 597.84375 286.957031 C 597.179688 285.832031 595.859375 285.269531 593.890625 285.269531 L 589.898438 285.269531 L 589.898438 298.796875 L 593.890625 298.796875 C 595.933594 298.796875 597.359375 297.789062 598.167969 295.773438 C 598.609375 294.667969 598.828125 293.351562 598.828125 291.824219 C 598.828125 289.714844 598.5 288.09375 597.84375 286.957031 Z M 419.5 280.222656 "/>
</g>
</svg>
