<?xml version="1.0" encoding="UTF-8"?>
<svg xmlns="http://www.w3.org/2000/svg" xmlns:xlink="http://www.w3.org/1999/xlink" width="1024pt" height="576pt" viewBox="0 0 1024 576" version="1.1">
<g id="surface281">
<rect x="0" y="0" width="1024" height="576" style="fill:rgb(42.745098%,54.117647%,58.823529%);fill-opacity:1;stroke:none;"/>
<path style=" stroke:none;fill-rule:nonzero;fill:rgb(100%,100%,100%);fill-opacity:1;" d="M 491.125 302.398438 L 482.195312 302.398438 L 482.195312 281.671875 L 491.125 281.671875 C 492.410156 281.691406 493.476562 281.839844 494.328125 282.121094 C 495.78125 282.597656 496.960938 283.476562 497.859375 284.75 C 498.582031 285.78125 499.074219 286.898438 499.335938 288.097656 C 499.597656 289.296875 499.730469 290.441406 499.730469 291.527344 C 499.730469 294.285156 499.175781 296.617188 498.070312 298.53125 C 496.570312 301.109375 494.253906 302.398438 491.125 302.398438 Z M 494.34375 286.957031 C 493.679688 285.832031 492.359375 285.269531 490.390625 285.269531 L 486.398438 285.269531 L 486.398438 298.796875 L 490.390625 298.796875 C 492.433594 298.796875 493.859375 297.789062 494.667969 295.773438 C 495.109375 294.667969 495.328125 293.351562 495.328125 291.824219 C 495.328125 289.714844 495 288.09375 494.34375 286.957031 Z M 515.90625 301.890625 C 514.761719 302.59375 513.355469 302.945312 511.6875 302.945312 C 508.941406 302.945312 506.691406 301.996094 504.9375 300.09375 C 503.109375 298.179688 502.195312 295.5625 502.195312 292.246094 C 502.195312 288.890625 503.117188 286.199219 504.964844 284.171875 C 506.8125 282.148438 509.253906 281.136719 512.292969 281.136719 C 514.925781 281.136719 517.042969 281.804688 518.640625 283.140625 C 520.238281 284.476562 521.15625 286.140625 521.390625 288.140625 L 517.128906 288.140625 C 516.800781 286.722656 516 285.734375 514.726562 285.171875 C 514.011719 284.863281 513.21875 284.707031 512.347656 284.707031 C 510.679688 284.707031 509.308594 285.339844 508.234375 286.597656 C 507.160156 287.859375 506.625 289.757812 506.625 292.289062 C 506.625 294.839844 507.207031 296.640625 508.367188 297.703125 C 509.53125 298.761719 510.851562 299.289062 512.335938 299.289062 C 513.789062 299.289062 514.976562 298.871094 515.90625 298.03125 C 516.835938 297.191406 517.40625 296.09375 517.621094 294.734375 L 512.828125 294.734375 L 512.828125 291.273438 L 521.460938 291.273438 L 521.460938 302.398438 L 518.59375 302.398438 L 518.15625 299.8125 C 517.320312 300.796875 516.570312 301.488281 515.90625 301.890625 Z M 537.554688 302.398438 L 537.554688 293.144531 L 529.453125 293.144531 L 529.453125 302.398438 L 525.164062 302.398438 L 525.164062 281.671875 L 529.453125 281.671875 L 529.453125 289.574219 L 537.554688 289.574219 L 537.554688 281.671875 L 541.859375 281.671875 L 541.859375 302.398438 Z M 480 280.222656 "/>
</g>
</svg>
